  0
SECTION
  2
HEADER
  9
$ACADVER
  1
AC1009
  9
$ANGDIR
  70
0
  9
$CECOLOR
  62
256
  9
$CELTYPE
  6
BYLAYER
  9
$EXTMIN
  10
0.0
  20
0.0
  9
$EXTMAX
  10
28.7236
  20
43.6879
  9
$FILLMODE
  70
1
  9
$MIRRTEXT
  70
0
  0
ENDSEC
  0
SECTION
  2
TABLES
  0
TABLE
  2
LAYER
  70
23
  0
LAYER
  2
Top_Paste
  70
64
  62
7
  6
CONTINUOUS
  0
ENDTAB
  0
ENDSEC
  0
SECTION
  2
ENTITIES
  0
POLYLINE
  8
Top_Paste
  6
CONTINUOUS
  66
1
  70
0
  40
0.197
  41
0.197
  0
VERTEX
  8
Top_Paste
  10
10.4092
  20
27.5819
  42
1
  0
VERTEX
  8
Top_Paste
  10
10.6062
  20
27.5819
  42
1
  0
VERTEX
  8
Top_Paste
  10
10.4092
  20
27.5819
  42
1
  0
SEQEND
  0
POLYLINE
  8
Top_Paste
  6
CONTINUOUS
  66
1
  70
0
  40
0.197
  41
0.197
  0
VERTEX
  8
Top_Paste
  10
10.4092
  20
28.3879
  42
1
  0
VERTEX
  8
Top_Paste
  10
10.6062
  20
28.3879
  42
1
  0
VERTEX
  8
Top_Paste
  10
10.4092
  20
28.3879
  42
1
  0
SEQEND
  0
POLYLINE
  8
Top_Paste
  6
CONTINUOUS
  66
1
  70
0
  40
0.197
  41
0.197
  0
VERTEX
  8
Top_Paste
  10
11.4152
  20
28.3879
  42
1
  0
VERTEX
  8
Top_Paste
  10
11.6122
  20
28.3879
  42
1
  0
VERTEX
  8
Top_Paste
  10
11.4152
  20
28.3879
  42
1
  0
SEQEND
  0
POLYLINE
  8
Top_Paste
  6
CONTINUOUS
  66
1
  70
0
  40
0.197
  41
0.197
  0
VERTEX
  8
Top_Paste
  10
11.4152
  20
27.5819
  42
1
  0
VERTEX
  8
Top_Paste
  10
11.6122
  20
27.5819
  42
1
  0
VERTEX
  8
Top_Paste
  10
11.4152
  20
27.5819
  42
1
  0
SEQEND
  0
SOLID
  8
Top_Paste
  10
11.5137
  20
27.3849
  11
10.5077
  21
27.3849
  12
10.3107
  22
28.3879
  13
10.3107
  23
27.5819
  0
SOLID
  8
Top_Paste
  10
11.5137
  20
27.3849
  11
10.3107
  21
28.3879
  12
11.5137
  22
28.5849
  13
10.5077
  23
28.5849
  0
SOLID
  8
Top_Paste
  10
11.5137
  20
27.3849
  11
11.5137
  21
28.5849
  12
11.7107
  22
27.5819
  13
11.7107
  23
28.3879
  0
POLYLINE
  8
Top_Paste
  6
CONTINUOUS
  66
1
  70
0
  40
0.197
  41
0.197
  0
VERTEX
  8
Top_Paste
  10
10.4092
  20
29.4819
  42
1
  0
VERTEX
  8
Top_Paste
  10
10.6062
  20
29.4819
  42
1
  0
VERTEX
  8
Top_Paste
  10
10.4092
  20
29.4819
  42
1
  0
SEQEND
  0
POLYLINE
  8
Top_Paste
  6
CONTINUOUS
  66
1
  70
0
  40
0.197
  41
0.197
  0
VERTEX
  8
Top_Paste
  10
10.4092
  20
30.2879
  42
1
  0
VERTEX
  8
Top_Paste
  10
10.6062
  20
30.2879
  42
1
  0
VERTEX
  8
Top_Paste
  10
10.4092
  20
30.2879
  42
1
  0
SEQEND
  0
POLYLINE
  8
Top_Paste
  6
CONTINUOUS
  66
1
  70
0
  40
0.197
  41
0.197
  0
VERTEX
  8
Top_Paste
  10
11.4152
  20
30.2879
  42
1
  0
VERTEX
  8
Top_Paste
  10
11.6122
  20
30.2879
  42
1
  0
VERTEX
  8
Top_Paste
  10
11.4152
  20
30.2879
  42
1
  0
SEQEND
  0
POLYLINE
  8
Top_Paste
  6
CONTINUOUS
  66
1
  70
0
  40
0.197
  41
0.197
  0
VERTEX
  8
Top_Paste
  10
11.4152
  20
29.4819
  42
1
  0
VERTEX
  8
Top_Paste
  10
11.6122
  20
29.4819
  42
1
  0
VERTEX
  8
Top_Paste
  10
11.4152
  20
29.4819
  42
1
  0
SEQEND
  0
SOLID
  8
Top_Paste
  10
11.5137
  20
29.2849
  11
10.5077
  21
29.2849
  12
10.3107
  22
30.2879
  13
10.3107
  23
29.4819
  0
SOLID
  8
Top_Paste
  10
11.5137
  20
29.2849
  11
10.3107
  21
30.2879
  12
11.5137
  22
30.4849
  13
10.5077
  23
30.4849
  0
SOLID
  8
Top_Paste
  10
11.5137
  20
29.2849
  11
11.5137
  21
30.4849
  12
11.7107
  22
29.4819
  13
11.7107
  23
30.2879
  0
POLYLINE
  8
Top_Paste
  6
CONTINUOUS
  66
1
  70
0
  40
0.197
  41
0.197
  0
VERTEX
  8
Top_Paste
  10
20.3767
  20
10.1741
  42
1
  0
VERTEX
  8
Top_Paste
  10
20.5737
  20
10.1741
  42
1
  0
VERTEX
  8
Top_Paste
  10
20.3767
  20
10.1741
  42
1
  0
SEQEND
  0
POLYLINE
  8
Top_Paste
  6
CONTINUOUS
  66
1
  70
0
  40
0.197
  41
0.197
  0
VERTEX
  8
Top_Paste
  10
21.1827
  20
10.1741
  42
1
  0
VERTEX
  8
Top_Paste
  10
21.3797
  20
10.1741
  42
1
  0
VERTEX
  8
Top_Paste
  10
21.1827
  20
10.1741
  42
1
  0
SEQEND
  0
POLYLINE
  8
Top_Paste
  6
CONTINUOUS
  66
1
  70
0
  40
0.197
  41
0.197
  0
VERTEX
  8
Top_Paste
  10
21.1827
  20
9.1681
  42
1
  0
VERTEX
  8
Top_Paste
  10
21.3797
  20
9.1681
  42
1
  0
VERTEX
  8
Top_Paste
  10
21.1827
  20
9.1681
  42
1
  0
SEQEND
  0
POLYLINE
  8
Top_Paste
  6
CONTINUOUS
  66
1
  70
0
  40
0.197
  41
0.197
  0
VERTEX
  8
Top_Paste
  10
20.3767
  20
9.1681
  42
1
  0
VERTEX
  8
Top_Paste
  10
20.5737
  20
9.1681
  42
1
  0
VERTEX
  8
Top_Paste
  10
20.3767
  20
9.1681
  42
1
  0
SEQEND
  0
SOLID
  8
Top_Paste
  10
20.2782
  20
9.1681
  11
20.2782
  21
10.1741
  12
21.2812
  22
10.3711
  13
20.4752
  23
10.3711
  0
SOLID
  8
Top_Paste
  10
20.2782
  20
9.1681
  11
21.2812
  21
10.3711
  12
21.4782
  22
9.1681
  13
21.4782
  23
10.1741
  0
SOLID
  8
Top_Paste
  10
20.2782
  20
9.1681
  11
21.4782
  21
9.1681
  12
20.4752
  22
8.9711
  13
21.2812
  23
8.9711
  0
POLYLINE
  8
Top_Paste
  6
CONTINUOUS
  66
1
  70
0
  40
0.197
  41
0.197
  0
VERTEX
  8
Top_Paste
  10
22.2767
  20
10.1741
  42
1
  0
VERTEX
  8
Top_Paste
  10
22.4737
  20
10.1741
  42
1
  0
VERTEX
  8
Top_Paste
  10
22.2767
  20
10.1741
  42
1
  0
SEQEND
  0
POLYLINE
  8
Top_Paste
  6
CONTINUOUS
  66
1
  70
0
  40
0.197
  41
0.197
  0
VERTEX
  8
Top_Paste
  10
23.0827
  20
10.1741
  42
1
  0
VERTEX
  8
Top_Paste
  10
23.2797
  20
10.1741
  42
1
  0
VERTEX
  8
Top_Paste
  10
23.0827
  20
10.1741
  42
1
  0
SEQEND
  0
POLYLINE
  8
Top_Paste
  6
CONTINUOUS
  66
1
  70
0
  40
0.197
  41
0.197
  0
VERTEX
  8
Top_Paste
  10
23.0827
  20
9.1681
  42
1
  0
VERTEX
  8
Top_Paste
  10
23.2797
  20
9.1681
  42
1
  0
VERTEX
  8
Top_Paste
  10
23.0827
  20
9.1681
  42
1
  0
SEQEND
  0
POLYLINE
  8
Top_Paste
  6
CONTINUOUS
  66
1
  70
0
  40
0.197
  41
0.197
  0
VERTEX
  8
Top_Paste
  10
22.2767
  20
9.1681
  42
1
  0
VERTEX
  8
Top_Paste
  10
22.4737
  20
9.1681
  42
1
  0
VERTEX
  8
Top_Paste
  10
22.2767
  20
9.1681
  42
1
  0
SEQEND
  0
SOLID
  8
Top_Paste
  10
22.1782
  20
9.1681
  11
22.1782
  21
10.1741
  12
23.1812
  22
10.3711
  13
22.3752
  23
10.3711
  0
SOLID
  8
Top_Paste
  10
22.1782
  20
9.1681
  11
23.1812
  21
10.3711
  12
23.3782
  22
9.1681
  13
23.3782
  23
10.1741
  0
SOLID
  8
Top_Paste
  10
22.1782
  20
9.1681
  11
23.3782
  21
9.1681
  12
22.3752
  22
8.9711
  13
23.1812
  23
8.9711
  0
POLYLINE
  8
Top_Paste
  6
CONTINUOUS
  66
1
  70
0
  40
0.197
  41
0.197
  0
VERTEX
  8
Top_Paste
  10
16.6338
  20
6.5477
  42
1
  0
VERTEX
  8
Top_Paste
  10
16.8308
  20
6.5477
  42
1
  0
VERTEX
  8
Top_Paste
  10
16.6338
  20
6.5477
  42
1
  0
SEQEND
  0
POLYLINE
  8
Top_Paste
  6
CONTINUOUS
  66
1
  70
0
  40
0.197
  41
0.197
  0
VERTEX
  8
Top_Paste
  10
15.8278
  20
6.5477
  42
1
  0
VERTEX
  8
Top_Paste
  10
16.0248
  20
6.5477
  42
1
  0
VERTEX
  8
Top_Paste
  10
15.8278
  20
6.5477
  42
1
  0
SEQEND
  0
POLYLINE
  8
Top_Paste
  6
CONTINUOUS
  66
1
  70
0
  40
0.197
  41
0.197
  0
VERTEX
  8
Top_Paste
  10
15.8278
  20
7.5537
  42
1
  0
VERTEX
  8
Top_Paste
  10
16.0248
  20
7.5537
  42
1
  0
VERTEX
  8
Top_Paste
  10
15.8278
  20
7.5537
  42
1
  0
SEQEND
  0
POLYLINE
  8
Top_Paste
  6
CONTINUOUS
  66
1
  70
0
  40
0.197
  41
0.197
  0
VERTEX
  8
Top_Paste
  10
16.6338
  20
7.5537
  42
1
  0
VERTEX
  8
Top_Paste
  10
16.8308
  20
7.5537
  42
1
  0
VERTEX
  8
Top_Paste
  10
16.6338
  20
7.5537
  42
1
  0
SEQEND
  0
SOLID
  8
Top_Paste
  10
16.9293
  20
7.5537
  11
16.9293
  21
6.5477
  12
15.9263
  22
6.3507
  13
16.7323
  23
6.3507
  0
SOLID
  8
Top_Paste
  10
16.9293
  20
7.5537
  11
15.9263
  21
6.3507
  12
15.7293
  22
7.5537
  13
15.7293
  23
6.5477
  0
SOLID
  8
Top_Paste
  10
16.9293
  20
7.5537
  11
15.7293
  21
7.5537
  12
16.7323
  22
7.7507
  13
15.9263
  23
7.7507
  0
POLYLINE
  8
Top_Paste
  6
CONTINUOUS
  66
1
  70
0
  40
0.197
  41
0.197
  0
VERTEX
  8
Top_Paste
  10
14.7338
  20
6.5477
  42
1
  0
VERTEX
  8
Top_Paste
  10
14.9308
  20
6.5477
  42
1
  0
VERTEX
  8
Top_Paste
  10
14.7338
  20
6.5477
  42
1
  0
SEQEND
  0
POLYLINE
  8
Top_Paste
  6
CONTINUOUS
  66
1
  70
0
  40
0.197
  41
0.197
  0
VERTEX
  8
Top_Paste
  10
13.9278
  20
6.5477
  42
1
  0
VERTEX
  8
Top_Paste
  10
14.1248
  20
6.5477
  42
1
  0
VERTEX
  8
Top_Paste
  10
13.9278
  20
6.5477
  42
1
  0
SEQEND
  0
POLYLINE
  8
Top_Paste
  6
CONTINUOUS
  66
1
  70
0
  40
0.197
  41
0.197
  0
VERTEX
  8
Top_Paste
  10
13.9278
  20
7.5537
  42
1
  0
VERTEX
  8
Top_Paste
  10
14.1248
  20
7.5537
  42
1
  0
VERTEX
  8
Top_Paste
  10
13.9278
  20
7.5537
  42
1
  0
SEQEND
  0
POLYLINE
  8
Top_Paste
  6
CONTINUOUS
  66
1
  70
0
  40
0.197
  41
0.197
  0
VERTEX
  8
Top_Paste
  10
14.7338
  20
7.5537
  42
1
  0
VERTEX
  8
Top_Paste
  10
14.9308
  20
7.5537
  42
1
  0
VERTEX
  8
Top_Paste
  10
14.7338
  20
7.5537
  42
1
  0
SEQEND
  0
SOLID
  8
Top_Paste
  10
15.0293
  20
7.5537
  11
15.0293
  21
6.5477
  12
14.0263
  22
6.3507
  13
14.8323
  23
6.3507
  0
SOLID
  8
Top_Paste
  10
15.0293
  20
7.5537
  11
14.0263
  21
6.3507
  12
13.8293
  22
7.5537
  13
13.8293
  23
6.5477
  0
SOLID
  8
Top_Paste
  10
15.0293
  20
7.5537
  11
13.8293
  21
7.5537
  12
14.8323
  22
7.7507
  13
14.0263
  23
7.7507
  0
POLYLINE
  8
Top_Paste
  6
CONTINUOUS
  66
1
  70
0
  40
0.197
  41
0.197
  0
VERTEX
  8
Top_Paste
  10
11.4152
  20
42.3855
  42
1
  0
VERTEX
  8
Top_Paste
  10
11.6122
  20
42.3855
  42
1
  0
VERTEX
  8
Top_Paste
  10
11.4152
  20
42.3855
  42
1
  0
SEQEND
  0
POLYLINE
  8
Top_Paste
  6
CONTINUOUS
  66
1
  70
0
  40
0.197
  41
0.197
  0
VERTEX
  8
Top_Paste
  10
11.4152
  20
41.5795
  42
1
  0
VERTEX
  8
Top_Paste
  10
11.6122
  20
41.5795
  42
1
  0
VERTEX
  8
Top_Paste
  10
11.4152
  20
41.5795
  42
1
  0
SEQEND
  0
POLYLINE
  8
Top_Paste
  6
CONTINUOUS
  66
1
  70
0
  40
0.197
  41
0.197
  0
VERTEX
  8
Top_Paste
  10
10.4092
  20
41.5795
  42
1
  0
VERTEX
  8
Top_Paste
  10
10.6062
  20
41.5795
  42
1
  0
VERTEX
  8
Top_Paste
  10
10.4092
  20
41.5795
  42
1
  0
SEQEND
  0
POLYLINE
  8
Top_Paste
  6
CONTINUOUS
  66
1
  70
0
  40
0.197
  41
0.197
  0
VERTEX
  8
Top_Paste
  10
10.4092
  20
42.3855
  42
1
  0
VERTEX
  8
Top_Paste
  10
10.6062
  20
42.3855
  42
1
  0
VERTEX
  8
Top_Paste
  10
10.4092
  20
42.3855
  42
1
  0
SEQEND
  0
SOLID
  8
Top_Paste
  10
10.5077
  20
42.5825
  11
11.5137
  21
42.5825
  12
11.7107
  22
41.5795
  13
11.7107
  23
42.3855
  0
SOLID
  8
Top_Paste
  10
10.5077
  20
42.5825
  11
11.7107
  21
41.5795
  12
10.5077
  22
41.3825
  13
11.5137
  23
41.3825
  0
SOLID
  8
Top_Paste
  10
10.5077
  20
42.5825
  11
10.5077
  21
41.3825
  12
10.3107
  22
42.3855
  13
10.3107
  23
41.5795
  0
POLYLINE
  8
Top_Paste
  6
CONTINUOUS
  66
1
  70
0
  40
0.197
  41
0.197
  0
VERTEX
  8
Top_Paste
  10
11.4152
  20
40.4855
  42
1
  0
VERTEX
  8
Top_Paste
  10
11.6122
  20
40.4855
  42
1
  0
VERTEX
  8
Top_Paste
  10
11.4152
  20
40.4855
  42
1
  0
SEQEND
  0
POLYLINE
  8
Top_Paste
  6
CONTINUOUS
  66
1
  70
0
  40
0.197
  41
0.197
  0
VERTEX
  8
Top_Paste
  10
11.4152
  20
39.6795
  42
1
  0
VERTEX
  8
Top_Paste
  10
11.6122
  20
39.6795
  42
1
  0
VERTEX
  8
Top_Paste
  10
11.4152
  20
39.6795
  42
1
  0
SEQEND
  0
POLYLINE
  8
Top_Paste
  6
CONTINUOUS
  66
1
  70
0
  40
0.197
  41
0.197
  0
VERTEX
  8
Top_Paste
  10
10.4092
  20
39.6795
  42
1
  0
VERTEX
  8
Top_Paste
  10
10.6062
  20
39.6795
  42
1
  0
VERTEX
  8
Top_Paste
  10
10.4092
  20
39.6795
  42
1
  0
SEQEND
  0
POLYLINE
  8
Top_Paste
  6
CONTINUOUS
  66
1
  70
0
  40
0.197
  41
0.197
  0
VERTEX
  8
Top_Paste
  10
10.4092
  20
40.4855
  42
1
  0
VERTEX
  8
Top_Paste
  10
10.6062
  20
40.4855
  42
1
  0
VERTEX
  8
Top_Paste
  10
10.4092
  20
40.4855
  42
1
  0
SEQEND
  0
SOLID
  8
Top_Paste
  10
10.5077
  20
40.6825
  11
11.5137
  21
40.6825
  12
11.7107
  22
39.6795
  13
11.7107
  23
40.4855
  0
SOLID
  8
Top_Paste
  10
10.5077
  20
40.6825
  11
11.7107
  21
39.6795
  12
10.5077
  22
39.4825
  13
11.5137
  23
39.4825
  0
SOLID
  8
Top_Paste
  10
10.5077
  20
40.6825
  11
10.5077
  21
39.4825
  12
10.3107
  22
40.4855
  13
10.3107
  23
39.6795
  0
POLYLINE
  8
Top_Paste
  6
CONTINUOUS
  66
1
  70
0
  40
0.197
  41
0.197
  0
VERTEX
  8
Top_Paste
  10
11.4152
  20
38.1881
  42
1
  0
VERTEX
  8
Top_Paste
  10
11.6122
  20
38.1881
  42
1
  0
VERTEX
  8
Top_Paste
  10
11.4152
  20
38.1881
  42
1
  0
SEQEND
  0
POLYLINE
  8
Top_Paste
  6
CONTINUOUS
  66
1
  70
0
  40
0.197
  41
0.197
  0
VERTEX
  8
Top_Paste
  10
11.4152
  20
37.3821
  42
1
  0
VERTEX
  8
Top_Paste
  10
11.6122
  20
37.3821
  42
1
  0
VERTEX
  8
Top_Paste
  10
11.4152
  20
37.3821
  42
1
  0
SEQEND
  0
POLYLINE
  8
Top_Paste
  6
CONTINUOUS
  66
1
  70
0
  40
0.197
  41
0.197
  0
VERTEX
  8
Top_Paste
  10
10.4092
  20
37.3821
  42
1
  0
VERTEX
  8
Top_Paste
  10
10.6062
  20
37.3821
  42
1
  0
VERTEX
  8
Top_Paste
  10
10.4092
  20
37.3821
  42
1
  0
SEQEND
  0
POLYLINE
  8
Top_Paste
  6
CONTINUOUS
  66
1
  70
0
  40
0.197
  41
0.197
  0
VERTEX
  8
Top_Paste
  10
10.4092
  20
38.1881
  42
1
  0
VERTEX
  8
Top_Paste
  10
10.6062
  20
38.1881
  42
1
  0
VERTEX
  8
Top_Paste
  10
10.4092
  20
38.1881
  42
1
  0
SEQEND
  0
SOLID
  8
Top_Paste
  10
10.5077
  20
38.3851
  11
11.5137
  21
38.3851
  12
11.7107
  22
37.3821
  13
11.7107
  23
38.1881
  0
SOLID
  8
Top_Paste
  10
10.5077
  20
38.3851
  11
11.7107
  21
37.3821
  12
10.5077
  22
37.1851
  13
11.5137
  23
37.1851
  0
SOLID
  8
Top_Paste
  10
10.5077
  20
38.3851
  11
10.5077
  21
37.1851
  12
10.3107
  22
38.1881
  13
10.3107
  23
37.3821
  0
POLYLINE
  8
Top_Paste
  6
CONTINUOUS
  66
1
  70
0
  40
0.197
  41
0.197
  0
VERTEX
  8
Top_Paste
  10
11.4152
  20
36.2881
  42
1
  0
VERTEX
  8
Top_Paste
  10
11.6122
  20
36.2881
  42
1
  0
VERTEX
  8
Top_Paste
  10
11.4152
  20
36.2881
  42
1
  0
SEQEND
  0
POLYLINE
  8
Top_Paste
  6
CONTINUOUS
  66
1
  70
0
  40
0.197
  41
0.197
  0
VERTEX
  8
Top_Paste
  10
11.4152
  20
35.4821
  42
1
  0
VERTEX
  8
Top_Paste
  10
11.6122
  20
35.4821
  42
1
  0
VERTEX
  8
Top_Paste
  10
11.4152
  20
35.4821
  42
1
  0
SEQEND
  0
POLYLINE
  8
Top_Paste
  6
CONTINUOUS
  66
1
  70
0
  40
0.197
  41
0.197
  0
VERTEX
  8
Top_Paste
  10
10.4092
  20
35.4821
  42
1
  0
VERTEX
  8
Top_Paste
  10
10.6062
  20
35.4821
  42
1
  0
VERTEX
  8
Top_Paste
  10
10.4092
  20
35.4821
  42
1
  0
SEQEND
  0
POLYLINE
  8
Top_Paste
  6
CONTINUOUS
  66
1
  70
0
  40
0.197
  41
0.197
  0
VERTEX
  8
Top_Paste
  10
10.4092
  20
36.2881
  42
1
  0
VERTEX
  8
Top_Paste
  10
10.6062
  20
36.2881
  42
1
  0
VERTEX
  8
Top_Paste
  10
10.4092
  20
36.2881
  42
1
  0
SEQEND
  0
SOLID
  8
Top_Paste
  10
10.5077
  20
36.4851
  11
11.5137
  21
36.4851
  12
11.7107
  22
35.4821
  13
11.7107
  23
36.2881
  0
SOLID
  8
Top_Paste
  10
10.5077
  20
36.4851
  11
11.7107
  21
35.4821
  12
10.5077
  22
35.2851
  13
11.5137
  23
35.2851
  0
SOLID
  8
Top_Paste
  10
10.5077
  20
36.4851
  11
10.5077
  21
35.2851
  12
10.3107
  22
36.2881
  13
10.3107
  23
35.4821
  0
POLYLINE
  8
Top_Paste
  6
CONTINUOUS
  66
1
  70
0
  40
0.197
  41
0.197
  0
VERTEX
  8
Top_Paste
  10
11.4152
  20
34.3101
  42
1
  0
VERTEX
  8
Top_Paste
  10
11.6122
  20
34.3101
  42
1
  0
VERTEX
  8
Top_Paste
  10
11.4152
  20
34.3101
  42
1
  0
SEQEND
  0
POLYLINE
  8
Top_Paste
  6
CONTINUOUS
  66
1
  70
0
  40
0.197
  41
0.197
  0
VERTEX
  8
Top_Paste
  10
11.4152
  20
33.5041
  42
1
  0
VERTEX
  8
Top_Paste
  10
11.6122
  20
33.5041
  42
1
  0
VERTEX
  8
Top_Paste
  10
11.4152
  20
33.5041
  42
1
  0
SEQEND
  0
POLYLINE
  8
Top_Paste
  6
CONTINUOUS
  66
1
  70
0
  40
0.197
  41
0.197
  0
VERTEX
  8
Top_Paste
  10
10.4092
  20
33.5041
  42
1
  0
VERTEX
  8
Top_Paste
  10
10.6062
  20
33.5041
  42
1
  0
VERTEX
  8
Top_Paste
  10
10.4092
  20
33.5041
  42
1
  0
SEQEND
  0
POLYLINE
  8
Top_Paste
  6
CONTINUOUS
  66
1
  70
0
  40
0.197
  41
0.197
  0
VERTEX
  8
Top_Paste
  10
10.4092
  20
34.3101
  42
1
  0
VERTEX
  8
Top_Paste
  10
10.6062
  20
34.3101
  42
1
  0
VERTEX
  8
Top_Paste
  10
10.4092
  20
34.3101
  42
1
  0
SEQEND
  0
SOLID
  8
Top_Paste
  10
10.5077
  20
34.5071
  11
11.5137
  21
34.5071
  12
11.7107
  22
33.5041
  13
11.7107
  23
34.3101
  0
SOLID
  8
Top_Paste
  10
10.5077
  20
34.5071
  11
11.7107
  21
33.5041
  12
10.5077
  22
33.3071
  13
11.5137
  23
33.3071
  0
SOLID
  8
Top_Paste
  10
10.5077
  20
34.5071
  11
10.5077
  21
33.3071
  12
10.3107
  22
34.3101
  13
10.3107
  23
33.5041
  0
POLYLINE
  8
Top_Paste
  6
CONTINUOUS
  66
1
  70
0
  40
0.197
  41
0.197
  0
VERTEX
  8
Top_Paste
  10
11.4152
  20
32.4101
  42
1
  0
VERTEX
  8
Top_Paste
  10
11.6122
  20
32.4101
  42
1
  0
VERTEX
  8
Top_Paste
  10
11.4152
  20
32.4101
  42
1
  0
SEQEND
  0
POLYLINE
  8
Top_Paste
  6
CONTINUOUS
  66
1
  70
0
  40
0.197
  41
0.197
  0
VERTEX
  8
Top_Paste
  10
11.4152
  20
31.6041
  42
1
  0
VERTEX
  8
Top_Paste
  10
11.6122
  20
31.6041
  42
1
  0
VERTEX
  8
Top_Paste
  10
11.4152
  20
31.6041
  42
1
  0
SEQEND
  0
POLYLINE
  8
Top_Paste
  6
CONTINUOUS
  66
1
  70
0
  40
0.197
  41
0.197
  0
VERTEX
  8
Top_Paste
  10
10.4092
  20
31.6041
  42
1
  0
VERTEX
  8
Top_Paste
  10
10.6062
  20
31.6041
  42
1
  0
VERTEX
  8
Top_Paste
  10
10.4092
  20
31.6041
  42
1
  0
SEQEND
  0
POLYLINE
  8
Top_Paste
  6
CONTINUOUS
  66
1
  70
0
  40
0.197
  41
0.197
  0
VERTEX
  8
Top_Paste
  10
10.4092
  20
32.4101
  42
1
  0
VERTEX
  8
Top_Paste
  10
10.6062
  20
32.4101
  42
1
  0
VERTEX
  8
Top_Paste
  10
10.4092
  20
32.4101
  42
1
  0
SEQEND
  0
SOLID
  8
Top_Paste
  10
10.5077
  20
32.6071
  11
11.5137
  21
32.6071
  12
11.7107
  22
31.6041
  13
11.7107
  23
32.4101
  0
SOLID
  8
Top_Paste
  10
10.5077
  20
32.6071
  11
11.7107
  21
31.6041
  12
10.5077
  22
31.4071
  13
11.5137
  23
31.4071
  0
SOLID
  8
Top_Paste
  10
10.5077
  20
32.6071
  11
10.5077
  21
31.4071
  12
10.3107
  22
32.4101
  13
10.3107
  23
31.6041
  0
POLYLINE
  8
Top_Paste
  6
CONTINUOUS
  66
1
  70
0
  40
0.197
  41
0.197
  0
VERTEX
  8
Top_Paste
  10
9.3546
  20
23.3888
  42
1
  0
VERTEX
  8
Top_Paste
  10
9.5516
  20
23.3888
  42
1
  0
VERTEX
  8
Top_Paste
  10
9.3546
  20
23.3888
  42
1
  0
SEQEND
  0
POLYLINE
  8
Top_Paste
  6
CONTINUOUS
  66
1
  70
0
  40
0.197
  41
0.197
  0
VERTEX
  8
Top_Paste
  10
9.3546
  20
24.1948
  42
1
  0
VERTEX
  8
Top_Paste
  10
9.5516
  20
24.1948
  42
1
  0
VERTEX
  8
Top_Paste
  10
9.3546
  20
24.1948
  42
1
  0
SEQEND
  0
POLYLINE
  8
Top_Paste
  6
CONTINUOUS
  66
1
  70
0
  40
0.197
  41
0.197
  0
VERTEX
  8
Top_Paste
  10
10.3606
  20
24.1948
  42
1
  0
VERTEX
  8
Top_Paste
  10
10.5576
  20
24.1948
  42
1
  0
VERTEX
  8
Top_Paste
  10
10.3606
  20
24.1948
  42
1
  0
SEQEND
  0
POLYLINE
  8
Top_Paste
  6
CONTINUOUS
  66
1
  70
0
  40
0.197
  41
0.197
  0
VERTEX
  8
Top_Paste
  10
10.3606
  20
23.3888
  42
1
  0
VERTEX
  8
Top_Paste
  10
10.5576
  20
23.3888
  42
1
  0
VERTEX
  8
Top_Paste
  10
10.3606
  20
23.3888
  42
1
  0
SEQEND
  0
SOLID
  8
Top_Paste
  10
10.4591
  20
23.1918
  11
9.4531
  21
23.1918
  12
9.2561
  22
24.1948
  13
9.2561
  23
23.3888
  0
SOLID
  8
Top_Paste
  10
10.4591
  20
23.1918
  11
9.2561
  21
24.1948
  12
10.4591
  22
24.3918
  13
9.4531
  23
24.3918
  0
SOLID
  8
Top_Paste
  10
10.4591
  20
23.1918
  11
10.4591
  21
24.3918
  12
10.6561
  22
23.3888
  13
10.6561
  23
24.1948
  0
POLYLINE
  8
Top_Paste
  6
CONTINUOUS
  66
1
  70
0
  40
0.197
  41
0.197
  0
VERTEX
  8
Top_Paste
  10
9.3546
  20
25.2888
  42
1
  0
VERTEX
  8
Top_Paste
  10
9.5516
  20
25.2888
  42
1
  0
VERTEX
  8
Top_Paste
  10
9.3546
  20
25.2888
  42
1
  0
SEQEND
  0
POLYLINE
  8
Top_Paste
  6
CONTINUOUS
  66
1
  70
0
  40
0.197
  41
0.197
  0
VERTEX
  8
Top_Paste
  10
9.3546
  20
26.0948
  42
1
  0
VERTEX
  8
Top_Paste
  10
9.5516
  20
26.0948
  42
1
  0
VERTEX
  8
Top_Paste
  10
9.3546
  20
26.0948
  42
1
  0
SEQEND
  0
POLYLINE
  8
Top_Paste
  6
CONTINUOUS
  66
1
  70
0
  40
0.197
  41
0.197
  0
VERTEX
  8
Top_Paste
  10
10.3606
  20
26.0948
  42
1
  0
VERTEX
  8
Top_Paste
  10
10.5576
  20
26.0948
  42
1
  0
VERTEX
  8
Top_Paste
  10
10.3606
  20
26.0948
  42
1
  0
SEQEND
  0
POLYLINE
  8
Top_Paste
  6
CONTINUOUS
  66
1
  70
0
  40
0.197
  41
0.197
  0
VERTEX
  8
Top_Paste
  10
10.3606
  20
25.2888
  42
1
  0
VERTEX
  8
Top_Paste
  10
10.5576
  20
25.2888
  42
1
  0
VERTEX
  8
Top_Paste
  10
10.3606
  20
25.2888
  42
1
  0
SEQEND
  0
SOLID
  8
Top_Paste
  10
10.4591
  20
25.0918
  11
9.4531
  21
25.0918
  12
9.2561
  22
26.0948
  13
9.2561
  23
25.2888
  0
SOLID
  8
Top_Paste
  10
10.4591
  20
25.0918
  11
9.2561
  21
26.0948
  12
10.4591
  22
26.2918
  13
9.4531
  23
26.2918
  0
SOLID
  8
Top_Paste
  10
10.4591
  20
25.0918
  11
10.4591
  21
26.2918
  12
10.6561
  22
25.2888
  13
10.6561
  23
26.0948
  0
POLYLINE
  8
Top_Paste
  6
CONTINUOUS
  66
1
  70
0
  40
0.197
  41
0.197
  0
VERTEX
  8
Top_Paste
  10
23.0074
  20
23.1538
  42
1
  0
VERTEX
  8
Top_Paste
  10
23.2044
  20
23.1538
  42
1
  0
VERTEX
  8
Top_Paste
  10
23.0074
  20
23.1538
  42
1
  0
SEQEND
  0
POLYLINE
  8
Top_Paste
  6
CONTINUOUS
  66
1
  70
0
  40
0.197
  41
0.197
  0
VERTEX
  8
Top_Paste
  10
22.2014
  20
23.1538
  42
1
  0
VERTEX
  8
Top_Paste
  10
22.3984
  20
23.1538
  42
1
  0
VERTEX
  8
Top_Paste
  10
22.2014
  20
23.1538
  42
1
  0
SEQEND
  0
POLYLINE
  8
Top_Paste
  6
CONTINUOUS
  66
1
  70
0
  40
0.197
  41
0.197
  0
VERTEX
  8
Top_Paste
  10
22.2014
  20
24.1598
  42
1
  0
VERTEX
  8
Top_Paste
  10
22.3984
  20
24.1598
  42
1
  0
VERTEX
  8
Top_Paste
  10
22.2014
  20
24.1598
  42
1
  0
SEQEND
  0
POLYLINE
  8
Top_Paste
  6
CONTINUOUS
  66
1
  70
0
  40
0.197
  41
0.197
  0
VERTEX
  8
Top_Paste
  10
23.0074
  20
24.1598
  42
1
  0
VERTEX
  8
Top_Paste
  10
23.2044
  20
24.1598
  42
1
  0
VERTEX
  8
Top_Paste
  10
23.0074
  20
24.1598
  42
1
  0
SEQEND
  0
SOLID
  8
Top_Paste
  10
23.3029
  20
24.1598
  11
23.3029
  21
23.1538
  12
22.2999
  22
22.9568
  13
23.1059
  23
22.9568
  0
SOLID
  8
Top_Paste
  10
23.3029
  20
24.1598
  11
22.2999
  21
22.9568
  12
22.1029
  22
24.1598
  13
22.1029
  23
23.1538
  0
SOLID
  8
Top_Paste
  10
23.3029
  20
24.1598
  11
22.1029
  21
24.1598
  12
23.1059
  22
24.3568
  13
22.2999
  23
24.3568
  0
POLYLINE
  8
Top_Paste
  6
CONTINUOUS
  66
1
  70
0
  40
0.197
  41
0.197
  0
VERTEX
  8
Top_Paste
  10
21.1074
  20
23.1538
  42
1
  0
VERTEX
  8
Top_Paste
  10
21.3044
  20
23.1538
  42
1
  0
VERTEX
  8
Top_Paste
  10
21.1074
  20
23.1538
  42
1
  0
SEQEND
  0
POLYLINE
  8
Top_Paste
  6
CONTINUOUS
  66
1
  70
0
  40
0.197
  41
0.197
  0
VERTEX
  8
Top_Paste
  10
20.3014
  20
23.1538
  42
1
  0
VERTEX
  8
Top_Paste
  10
20.4984
  20
23.1538
  42
1
  0
VERTEX
  8
Top_Paste
  10
20.3014
  20
23.1538
  42
1
  0
SEQEND
  0
POLYLINE
  8
Top_Paste
  6
CONTINUOUS
  66
1
  70
0
  40
0.197
  41
0.197
  0
VERTEX
  8
Top_Paste
  10
20.3014
  20
24.1598
  42
1
  0
VERTEX
  8
Top_Paste
  10
20.4984
  20
24.1598
  42
1
  0
VERTEX
  8
Top_Paste
  10
20.3014
  20
24.1598
  42
1
  0
SEQEND
  0
POLYLINE
  8
Top_Paste
  6
CONTINUOUS
  66
1
  70
0
  40
0.197
  41
0.197
  0
VERTEX
  8
Top_Paste
  10
21.1074
  20
24.1598
  42
1
  0
VERTEX
  8
Top_Paste
  10
21.3044
  20
24.1598
  42
1
  0
VERTEX
  8
Top_Paste
  10
21.1074
  20
24.1598
  42
1
  0
SEQEND
  0
SOLID
  8
Top_Paste
  10
21.4029
  20
24.1598
  11
21.4029
  21
23.1538
  12
20.3999
  22
22.9568
  13
21.2059
  23
22.9568
  0
SOLID
  8
Top_Paste
  10
21.4029
  20
24.1598
  11
20.3999
  21
22.9568
  12
20.2029
  22
24.1598
  13
20.2029
  23
23.1538
  0
SOLID
  8
Top_Paste
  10
21.4029
  20
24.1598
  11
20.2029
  21
24.1598
  12
21.2059
  22
24.3568
  13
20.3999
  23
24.3568
  0
POLYLINE
  8
Top_Paste
  6
CONTINUOUS
  66
1
  70
0
  40
0.197
  41
0.197
  0
VERTEX
  8
Top_Paste
  10
23.0827
  20
7.1153
  42
1
  0
VERTEX
  8
Top_Paste
  10
23.2797
  20
7.1153
  42
1
  0
VERTEX
  8
Top_Paste
  10
23.0827
  20
7.1153
  42
1
  0
SEQEND
  0
POLYLINE
  8
Top_Paste
  6
CONTINUOUS
  66
1
  70
0
  40
0.197
  41
0.197
  0
VERTEX
  8
Top_Paste
  10
22.2767
  20
7.1153
  42
1
  0
VERTEX
  8
Top_Paste
  10
22.4737
  20
7.1153
  42
1
  0
VERTEX
  8
Top_Paste
  10
22.2767
  20
7.1153
  42
1
  0
SEQEND
  0
POLYLINE
  8
Top_Paste
  6
CONTINUOUS
  66
1
  70
0
  40
0.197
  41
0.197
  0
VERTEX
  8
Top_Paste
  10
22.2767
  20
8.1213
  42
1
  0
VERTEX
  8
Top_Paste
  10
22.4737
  20
8.1213
  42
1
  0
VERTEX
  8
Top_Paste
  10
22.2767
  20
8.1213
  42
1
  0
SEQEND
  0
POLYLINE
  8
Top_Paste
  6
CONTINUOUS
  66
1
  70
0
  40
0.197
  41
0.197
  0
VERTEX
  8
Top_Paste
  10
23.0827
  20
8.1213
  42
1
  0
VERTEX
  8
Top_Paste
  10
23.2797
  20
8.1213
  42
1
  0
VERTEX
  8
Top_Paste
  10
23.0827
  20
8.1213
  42
1
  0
SEQEND
  0
SOLID
  8
Top_Paste
  10
23.3782
  20
8.1213
  11
23.3782
  21
7.1153
  12
22.3752
  22
6.9183
  13
23.1812
  23
6.9183
  0
SOLID
  8
Top_Paste
  10
23.3782
  20
8.1213
  11
22.3752
  21
6.9183
  12
22.1782
  22
8.1213
  13
22.1782
  23
7.1153
  0
SOLID
  8
Top_Paste
  10
23.3782
  20
8.1213
  11
22.1782
  21
8.1213
  12
23.1812
  22
8.3183
  13
22.3752
  23
8.3183
  0
POLYLINE
  8
Top_Paste
  6
CONTINUOUS
  66
1
  70
0
  40
0.197
  41
0.197
  0
VERTEX
  8
Top_Paste
  10
21.1827
  20
7.1153
  42
1
  0
VERTEX
  8
Top_Paste
  10
21.3797
  20
7.1153
  42
1
  0
VERTEX
  8
Top_Paste
  10
21.1827
  20
7.1153
  42
1
  0
SEQEND
  0
POLYLINE
  8
Top_Paste
  6
CONTINUOUS
  66
1
  70
0
  40
0.197
  41
0.197
  0
VERTEX
  8
Top_Paste
  10
20.3767
  20
7.1153
  42
1
  0
VERTEX
  8
Top_Paste
  10
20.5737
  20
7.1153
  42
1
  0
VERTEX
  8
Top_Paste
  10
20.3767
  20
7.1153
  42
1
  0
SEQEND
  0
POLYLINE
  8
Top_Paste
  6
CONTINUOUS
  66
1
  70
0
  40
0.197
  41
0.197
  0
VERTEX
  8
Top_Paste
  10
20.3767
  20
8.1213
  42
1
  0
VERTEX
  8
Top_Paste
  10
20.5737
  20
8.1213
  42
1
  0
VERTEX
  8
Top_Paste
  10
20.3767
  20
8.1213
  42
1
  0
SEQEND
  0
POLYLINE
  8
Top_Paste
  6
CONTINUOUS
  66
1
  70
0
  40
0.197
  41
0.197
  0
VERTEX
  8
Top_Paste
  10
21.1827
  20
8.1213
  42
1
  0
VERTEX
  8
Top_Paste
  10
21.3797
  20
8.1213
  42
1
  0
VERTEX
  8
Top_Paste
  10
21.1827
  20
8.1213
  42
1
  0
SEQEND
  0
SOLID
  8
Top_Paste
  10
21.4782
  20
8.1213
  11
21.4782
  21
7.1153
  12
20.4752
  22
6.9183
  13
21.2812
  23
6.9183
  0
SOLID
  8
Top_Paste
  10
21.4782
  20
8.1213
  11
20.4752
  21
6.9183
  12
20.2782
  22
8.1213
  13
20.2782
  23
7.1153
  0
SOLID
  8
Top_Paste
  10
21.4782
  20
8.1213
  11
20.2782
  21
8.1213
  12
21.2812
  22
8.3183
  13
20.4752
  23
8.3183
  0
SOLID
  8
Top_Paste
  10
12.2191
  20
25.3356
  11
13.6191
  21
25.3356
  12
12.2191
  22
24.7856
  13
13.6191
  23
24.7856
  0
SOLID
  8
Top_Paste
  10
12.2191
  20
24.0656
  11
13.6191
  21
24.0656
  12
12.2191
  22
23.5156
  13
13.6191
  23
23.5156
  0
SOLID
  8
Top_Paste
  10
12.2191
  20
22.7956
  11
13.6191
  21
22.7956
  12
12.2191
  22
22.2456
  13
13.6191
  23
22.2456
  0
SOLID
  8
Top_Paste
  10
12.2191
  20
21.5256
  11
13.6191
  21
21.5256
  12
12.2191
  22
20.9756
  13
13.6191
  23
20.9756
  0
SOLID
  8
Top_Paste
  10
17.6191
  20
21.5256
  11
19.0191
  21
21.5256
  12
17.6191
  22
20.9756
  13
19.0191
  23
20.9756
  0
SOLID
  8
Top_Paste
  10
17.6191
  20
22.7956
  11
19.0191
  21
22.7956
  12
17.6191
  22
22.2456
  13
19.0191
  23
22.2456
  0
SOLID
  8
Top_Paste
  10
17.6191
  20
24.0656
  11
19.0191
  21
24.0656
  12
17.6191
  22
23.5156
  13
19.0191
  23
23.5156
  0
SOLID
  8
Top_Paste
  10
17.6191
  20
25.3356
  11
19.0191
  21
25.3356
  12
17.6191
  22
24.7856
  13
19.0191
  23
24.7856
  0
SOLID
  8
Top_Paste
  10
14.3141
  20
24.7806
  11
16.9241
  21
24.7806
  12
14.3141
  22
21.5306
  13
16.9241
  23
21.5306
  0
SOLID
  8
Top_Paste
  10
16.3621
  20
39.0127
  11
21.6725
  21
39.0127
  12
16.3621
  22
36.2171
  13
21.6725
  23
36.2171
  0
SOLID
  8
Top_Paste
  10
16.3621
  20
29.1067
  11
21.6725
  21
29.1067
  12
16.3621
  22
26.3111
  13
21.6725
  23
26.3111
  0
POLYLINE
  8
Top_Paste
  6
CONTINUOUS
  66
1
  70
0
  40
0.197
  41
0.197
  0
VERTEX
  8
Top_Paste
  10
10.338
  20
17.9977
  42
1
  0
VERTEX
  8
Top_Paste
  10
10.535
  20
17.9977
  42
1
  0
VERTEX
  8
Top_Paste
  10
10.338
  20
17.9977
  42
1
  0
SEQEND
  0
POLYLINE
  8
Top_Paste
  6
CONTINUOUS
  66
1
  70
0
  40
0.197
  41
0.197
  0
VERTEX
  8
Top_Paste
  10
10.338
  20
18.8037
  42
1
  0
VERTEX
  8
Top_Paste
  10
10.535
  20
18.8037
  42
1
  0
VERTEX
  8
Top_Paste
  10
10.338
  20
18.8037
  42
1
  0
SEQEND
  0
POLYLINE
  8
Top_Paste
  6
CONTINUOUS
  66
1
  70
0
  40
0.197
  41
0.197
  0
VERTEX
  8
Top_Paste
  10
11.344
  20
18.8037
  42
1
  0
VERTEX
  8
Top_Paste
  10
11.541
  20
18.8037
  42
1
  0
VERTEX
  8
Top_Paste
  10
11.344
  20
18.8037
  42
1
  0
SEQEND
  0
POLYLINE
  8
Top_Paste
  6
CONTINUOUS
  66
1
  70
0
  40
0.197
  41
0.197
  0
VERTEX
  8
Top_Paste
  10
11.344
  20
17.9977
  42
1
  0
VERTEX
  8
Top_Paste
  10
11.541
  20
17.9977
  42
1
  0
VERTEX
  8
Top_Paste
  10
11.344
  20
17.9977
  42
1
  0
SEQEND
  0
SOLID
  8
Top_Paste
  10
11.4425
  20
17.8007
  11
10.4365
  21
17.8007
  12
10.2395
  22
18.8037
  13
10.2395
  23
17.9977
  0
SOLID
  8
Top_Paste
  10
11.4425
  20
17.8007
  11
10.2395
  21
18.8037
  12
11.4425
  22
19.0007
  13
10.4365
  23
19.0007
  0
SOLID
  8
Top_Paste
  10
11.4425
  20
17.8007
  11
11.4425
  21
19.0007
  12
11.6395
  22
17.9977
  13
11.6395
  23
18.8037
  0
POLYLINE
  8
Top_Paste
  6
CONTINUOUS
  66
1
  70
0
  40
0.197
  41
0.197
  0
VERTEX
  8
Top_Paste
  10
10.338
  20
19.8977
  42
1
  0
VERTEX
  8
Top_Paste
  10
10.535
  20
19.8977
  42
1
  0
VERTEX
  8
Top_Paste
  10
10.338
  20
19.8977
  42
1
  0
SEQEND
  0
POLYLINE
  8
Top_Paste
  6
CONTINUOUS
  66
1
  70
0
  40
0.197
  41
0.197
  0
VERTEX
  8
Top_Paste
  10
10.338
  20
20.7037
  42
1
  0
VERTEX
  8
Top_Paste
  10
10.535
  20
20.7037
  42
1
  0
VERTEX
  8
Top_Paste
  10
10.338
  20
20.7037
  42
1
  0
SEQEND
  0
POLYLINE
  8
Top_Paste
  6
CONTINUOUS
  66
1
  70
0
  40
0.197
  41
0.197
  0
VERTEX
  8
Top_Paste
  10
11.344
  20
20.7037
  42
1
  0
VERTEX
  8
Top_Paste
  10
11.541
  20
20.7037
  42
1
  0
VERTEX
  8
Top_Paste
  10
11.344
  20
20.7037
  42
1
  0
SEQEND
  0
POLYLINE
  8
Top_Paste
  6
CONTINUOUS
  66
1
  70
0
  40
0.197
  41
0.197
  0
VERTEX
  8
Top_Paste
  10
11.344
  20
19.8977
  42
1
  0
VERTEX
  8
Top_Paste
  10
11.541
  20
19.8977
  42
1
  0
VERTEX
  8
Top_Paste
  10
11.344
  20
19.8977
  42
1
  0
SEQEND
  0
SOLID
  8
Top_Paste
  10
11.4425
  20
19.7007
  11
10.4365
  21
19.7007
  12
10.2395
  22
20.7037
  13
10.2395
  23
19.8977
  0
SOLID
  8
Top_Paste
  10
11.4425
  20
19.7007
  11
10.2395
  21
20.7037
  12
11.4425
  22
20.9007
  13
10.4365
  23
20.9007
  0
SOLID
  8
Top_Paste
  10
11.4425
  20
19.7007
  11
11.4425
  21
20.9007
  12
11.6395
  22
19.8977
  13
11.6395
  23
20.7037
  0
POLYLINE
  8
Top_Paste
  6
CONTINUOUS
  66
1
  70
0
  40
0.197
  41
0.197
  0
VERTEX
  8
Top_Paste
  10
20.1795
  20
16.6904
  42
1
  0
VERTEX
  8
Top_Paste
  10
20.3765
  20
16.6904
  42
1
  0
VERTEX
  8
Top_Paste
  10
20.1795
  20
16.6904
  42
1
  0
SEQEND
  0
POLYLINE
  8
Top_Paste
  6
CONTINUOUS
  66
1
  70
0
  40
0.197
  41
0.197
  0
VERTEX
  8
Top_Paste
  10
20.9855
  20
16.6904
  42
1
  0
VERTEX
  8
Top_Paste
  10
21.1825
  20
16.6904
  42
1
  0
VERTEX
  8
Top_Paste
  10
20.9855
  20
16.6904
  42
1
  0
SEQEND
  0
POLYLINE
  8
Top_Paste
  6
CONTINUOUS
  66
1
  70
0
  40
0.197
  41
0.197
  0
VERTEX
  8
Top_Paste
  10
20.9855
  20
15.6844
  42
1
  0
VERTEX
  8
Top_Paste
  10
21.1825
  20
15.6844
  42
1
  0
VERTEX
  8
Top_Paste
  10
20.9855
  20
15.6844
  42
1
  0
SEQEND
  0
POLYLINE
  8
Top_Paste
  6
CONTINUOUS
  66
1
  70
0
  40
0.197
  41
0.197
  0
VERTEX
  8
Top_Paste
  10
20.1795
  20
15.6844
  42
1
  0
VERTEX
  8
Top_Paste
  10
20.3765
  20
15.6844
  42
1
  0
VERTEX
  8
Top_Paste
  10
20.1795
  20
15.6844
  42
1
  0
SEQEND
  0
SOLID
  8
Top_Paste
  10
20.081
  20
15.6844
  11
20.081
  21
16.6904
  12
21.084
  22
16.8874
  13
20.278
  23
16.8874
  0
SOLID
  8
Top_Paste
  10
20.081
  20
15.6844
  11
21.084
  21
16.8874
  12
21.281
  22
15.6844
  13
21.281
  23
16.6904
  0
SOLID
  8
Top_Paste
  10
20.081
  20
15.6844
  11
21.281
  21
15.6844
  12
20.278
  22
15.4874
  13
21.084
  23
15.4874
  0
POLYLINE
  8
Top_Paste
  6
CONTINUOUS
  66
1
  70
0
  40
0.197
  41
0.197
  0
VERTEX
  8
Top_Paste
  10
22.0795
  20
16.6904
  42
1
  0
VERTEX
  8
Top_Paste
  10
22.2765
  20
16.6904
  42
1
  0
VERTEX
  8
Top_Paste
  10
22.0795
  20
16.6904
  42
1
  0
SEQEND
  0
POLYLINE
  8
Top_Paste
  6
CONTINUOUS
  66
1
  70
0
  40
0.197
  41
0.197
  0
VERTEX
  8
Top_Paste
  10
22.8855
  20
16.6904
  42
1
  0
VERTEX
  8
Top_Paste
  10
23.0825
  20
16.6904
  42
1
  0
VERTEX
  8
Top_Paste
  10
22.8855
  20
16.6904
  42
1
  0
SEQEND
  0
POLYLINE
  8
Top_Paste
  6
CONTINUOUS
  66
1
  70
0
  40
0.197
  41
0.197
  0
VERTEX
  8
Top_Paste
  10
22.8855
  20
15.6844
  42
1
  0
VERTEX
  8
Top_Paste
  10
23.0825
  20
15.6844
  42
1
  0
VERTEX
  8
Top_Paste
  10
22.8855
  20
15.6844
  42
1
  0
SEQEND
  0
POLYLINE
  8
Top_Paste
  6
CONTINUOUS
  66
1
  70
0
  40
0.197
  41
0.197
  0
VERTEX
  8
Top_Paste
  10
22.0795
  20
15.6844
  42
1
  0
VERTEX
  8
Top_Paste
  10
22.2765
  20
15.6844
  42
1
  0
VERTEX
  8
Top_Paste
  10
22.0795
  20
15.6844
  42
1
  0
SEQEND
  0
SOLID
  8
Top_Paste
  10
21.981
  20
15.6844
  11
21.981
  21
16.6904
  12
22.984
  22
16.8874
  13
22.178
  23
16.8874
  0
SOLID
  8
Top_Paste
  10
21.981
  20
15.6844
  11
22.984
  21
16.8874
  12
23.181
  22
15.6844
  13
23.181
  23
16.6904
  0
SOLID
  8
Top_Paste
  10
21.981
  20
15.6844
  11
23.181
  21
15.6844
  12
22.178
  22
15.4874
  13
22.984
  23
15.4874
  0
POLYLINE
  8
Top_Paste
  6
CONTINUOUS
  66
1
  70
0
  40
0.197
  41
0.197
  0
VERTEX
  8
Top_Paste
  10
20.1795
  20
19.0037
  42
1
  0
VERTEX
  8
Top_Paste
  10
20.3765
  20
19.0037
  42
1
  0
VERTEX
  8
Top_Paste
  10
20.1795
  20
19.0037
  42
1
  0
SEQEND
  0
POLYLINE
  8
Top_Paste
  6
CONTINUOUS
  66
1
  70
0
  40
0.197
  41
0.197
  0
VERTEX
  8
Top_Paste
  10
20.9855
  20
19.0037
  42
1
  0
VERTEX
  8
Top_Paste
  10
21.1825
  20
19.0037
  42
1
  0
VERTEX
  8
Top_Paste
  10
20.9855
  20
19.0037
  42
1
  0
SEQEND
  0
POLYLINE
  8
Top_Paste
  6
CONTINUOUS
  66
1
  70
0
  40
0.197
  41
0.197
  0
VERTEX
  8
Top_Paste
  10
20.9855
  20
17.9977
  42
1
  0
VERTEX
  8
Top_Paste
  10
21.1825
  20
17.9977
  42
1
  0
VERTEX
  8
Top_Paste
  10
20.9855
  20
17.9977
  42
1
  0
SEQEND
  0
POLYLINE
  8
Top_Paste
  6
CONTINUOUS
  66
1
  70
0
  40
0.197
  41
0.197
  0
VERTEX
  8
Top_Paste
  10
20.1795
  20
17.9977
  42
1
  0
VERTEX
  8
Top_Paste
  10
20.3765
  20
17.9977
  42
1
  0
VERTEX
  8
Top_Paste
  10
20.1795
  20
17.9977
  42
1
  0
SEQEND
  0
SOLID
  8
Top_Paste
  10
20.081
  20
17.9977
  11
20.081
  21
19.0037
  12
21.084
  22
19.2007
  13
20.278
  23
19.2007
  0
SOLID
  8
Top_Paste
  10
20.081
  20
17.9977
  11
21.084
  21
19.2007
  12
21.281
  22
17.9977
  13
21.281
  23
19.0037
  0
SOLID
  8
Top_Paste
  10
20.081
  20
17.9977
  11
21.281
  21
17.9977
  12
20.278
  22
17.8007
  13
21.084
  23
17.8007
  0
POLYLINE
  8
Top_Paste
  6
CONTINUOUS
  66
1
  70
0
  40
0.197
  41
0.197
  0
VERTEX
  8
Top_Paste
  10
22.0795
  20
19.0037
  42
1
  0
VERTEX
  8
Top_Paste
  10
22.2765
  20
19.0037
  42
1
  0
VERTEX
  8
Top_Paste
  10
22.0795
  20
19.0037
  42
1
  0
SEQEND
  0
POLYLINE
  8
Top_Paste
  6
CONTINUOUS
  66
1
  70
0
  40
0.197
  41
0.197
  0
VERTEX
  8
Top_Paste
  10
22.8855
  20
19.0037
  42
1
  0
VERTEX
  8
Top_Paste
  10
23.0825
  20
19.0037
  42
1
  0
VERTEX
  8
Top_Paste
  10
22.8855
  20
19.0037
  42
1
  0
SEQEND
  0
POLYLINE
  8
Top_Paste
  6
CONTINUOUS
  66
1
  70
0
  40
0.197
  41
0.197
  0
VERTEX
  8
Top_Paste
  10
22.8855
  20
17.9977
  42
1
  0
VERTEX
  8
Top_Paste
  10
23.0825
  20
17.9977
  42
1
  0
VERTEX
  8
Top_Paste
  10
22.8855
  20
17.9977
  42
1
  0
SEQEND
  0
POLYLINE
  8
Top_Paste
  6
CONTINUOUS
  66
1
  70
0
  40
0.197
  41
0.197
  0
VERTEX
  8
Top_Paste
  10
22.0795
  20
17.9977
  42
1
  0
VERTEX
  8
Top_Paste
  10
22.2765
  20
17.9977
  42
1
  0
VERTEX
  8
Top_Paste
  10
22.0795
  20
17.9977
  42
1
  0
SEQEND
  0
SOLID
  8
Top_Paste
  10
21.981
  20
17.9977
  11
21.981
  21
19.0037
  12
22.984
  22
19.2007
  13
22.178
  23
19.2007
  0
SOLID
  8
Top_Paste
  10
21.981
  20
17.9977
  11
22.984
  21
19.2007
  12
23.181
  22
17.9977
  13
23.181
  23
19.0037
  0
SOLID
  8
Top_Paste
  10
21.981
  20
17.9977
  11
23.181
  21
17.9977
  12
22.178
  22
17.8007
  13
22.984
  23
17.8007
  0
POLYLINE
  8
Top_Paste
  6
CONTINUOUS
  66
1
  70
0
  40
0.2
  41
0.2
  0
VERTEX
  8
Top_Paste
  10
22.7054
  20
21.7409
  42
1
  0
VERTEX
  8
Top_Paste
  10
22.9054
  20
21.7409
  42
1
  0
VERTEX
  8
Top_Paste
  10
22.7054
  20
21.7409
  42
1
  0
SEQEND
  0
POLYLINE
  8
Top_Paste
  6
CONTINUOUS
  66
1
  70
0
  40
0.2
  41
0.2
  0
VERTEX
  8
Top_Paste
  10
22.1054
  20
21.7409
  42
1
  0
VERTEX
  8
Top_Paste
  10
22.3054
  20
21.7409
  42
1
  0
VERTEX
  8
Top_Paste
  10
22.1054
  20
21.7409
  42
1
  0
SEQEND
  0
POLYLINE
  8
Top_Paste
  6
CONTINUOUS
  66
1
  70
0
  40
0.2
  41
0.2
  0
VERTEX
  8
Top_Paste
  10
22.1054
  20
22.2409
  42
1
  0
VERTEX
  8
Top_Paste
  10
22.3054
  20
22.2409
  42
1
  0
VERTEX
  8
Top_Paste
  10
22.1054
  20
22.2409
  42
1
  0
SEQEND
  0
POLYLINE
  8
Top_Paste
  6
CONTINUOUS
  66
1
  70
0
  40
0.2
  41
0.2
  0
VERTEX
  8
Top_Paste
  10
22.7054
  20
22.2409
  42
1
  0
VERTEX
  8
Top_Paste
  10
22.9054
  20
22.2409
  42
1
  0
VERTEX
  8
Top_Paste
  10
22.7054
  20
22.2409
  42
1
  0
SEQEND
  0
SOLID
  8
Top_Paste
  10
23.0054
  20
22.2409
  11
23.0054
  21
21.7409
  12
22.2054
  22
21.5409
  13
22.8054
  23
21.5409
  0
SOLID
  8
Top_Paste
  10
23.0054
  20
22.2409
  11
22.2054
  21
21.5409
  12
22.0054
  22
22.2409
  13
22.0054
  23
21.7409
  0
SOLID
  8
Top_Paste
  10
23.0054
  20
22.2409
  11
22.0054
  21
22.2409
  12
22.8054
  22
22.4409
  13
22.2054
  23
22.4409
  0
POLYLINE
  8
Top_Paste
  6
CONTINUOUS
  66
1
  70
0
  40
0.2
  41
0.2
  0
VERTEX
  8
Top_Paste
  10
21.0054
  20
21.7409
  42
1
  0
VERTEX
  8
Top_Paste
  10
21.2054
  20
21.7409
  42
1
  0
VERTEX
  8
Top_Paste
  10
21.0054
  20
21.7409
  42
1
  0
SEQEND
  0
POLYLINE
  8
Top_Paste
  6
CONTINUOUS
  66
1
  70
0
  40
0.2
  41
0.2
  0
VERTEX
  8
Top_Paste
  10
20.4054
  20
21.7409
  42
1
  0
VERTEX
  8
Top_Paste
  10
20.6054
  20
21.7409
  42
1
  0
VERTEX
  8
Top_Paste
  10
20.4054
  20
21.7409
  42
1
  0
SEQEND
  0
POLYLINE
  8
Top_Paste
  6
CONTINUOUS
  66
1
  70
0
  40
0.2
  41
0.2
  0
VERTEX
  8
Top_Paste
  10
20.4054
  20
22.2409
  42
1
  0
VERTEX
  8
Top_Paste
  10
20.6054
  20
22.2409
  42
1
  0
VERTEX
  8
Top_Paste
  10
20.4054
  20
22.2409
  42
1
  0
SEQEND
  0
POLYLINE
  8
Top_Paste
  6
CONTINUOUS
  66
1
  70
0
  40
0.2
  41
0.2
  0
VERTEX
  8
Top_Paste
  10
21.0054
  20
22.2409
  42
1
  0
VERTEX
  8
Top_Paste
  10
21.2054
  20
22.2409
  42
1
  0
VERTEX
  8
Top_Paste
  10
21.0054
  20
22.2409
  42
1
  0
SEQEND
  0
SOLID
  8
Top_Paste
  10
21.3054
  20
22.2409
  11
21.3054
  21
21.7409
  12
20.5054
  22
21.5409
  13
21.1054
  23
21.5409
  0
SOLID
  8
Top_Paste
  10
21.3054
  20
22.2409
  11
20.5054
  21
21.5409
  12
20.3054
  22
22.2409
  13
20.3054
  23
21.7409
  0
SOLID
  8
Top_Paste
  10
21.3054
  20
22.2409
  11
20.3054
  21
22.2409
  12
21.1054
  22
22.4409
  13
20.5054
  23
22.4409
  0
POLYLINE
  8
Top_Paste
  6
CONTINUOUS
  66
1
  70
0
  40
0.197
  41
0.197
  0
VERTEX
  8
Top_Paste
  10
15.1291
  20
17.9977
  42
1
  0
VERTEX
  8
Top_Paste
  10
15.3261
  20
17.9977
  42
1
  0
VERTEX
  8
Top_Paste
  10
15.1291
  20
17.9977
  42
1
  0
SEQEND
  0
POLYLINE
  8
Top_Paste
  6
CONTINUOUS
  66
1
  70
0
  40
0.197
  41
0.197
  0
VERTEX
  8
Top_Paste
  10
14.3231
  20
17.9977
  42
1
  0
VERTEX
  8
Top_Paste
  10
14.5201
  20
17.9977
  42
1
  0
VERTEX
  8
Top_Paste
  10
14.3231
  20
17.9977
  42
1
  0
SEQEND
  0
POLYLINE
  8
Top_Paste
  6
CONTINUOUS
  66
1
  70
0
  40
0.197
  41
0.197
  0
VERTEX
  8
Top_Paste
  10
14.3231
  20
19.0037
  42
1
  0
VERTEX
  8
Top_Paste
  10
14.5201
  20
19.0037
  42
1
  0
VERTEX
  8
Top_Paste
  10
14.3231
  20
19.0037
  42
1
  0
SEQEND
  0
POLYLINE
  8
Top_Paste
  6
CONTINUOUS
  66
1
  70
0
  40
0.197
  41
0.197
  0
VERTEX
  8
Top_Paste
  10
15.1291
  20
19.0037
  42
1
  0
VERTEX
  8
Top_Paste
  10
15.3261
  20
19.0037
  42
1
  0
VERTEX
  8
Top_Paste
  10
15.1291
  20
19.0037
  42
1
  0
SEQEND
  0
SOLID
  8
Top_Paste
  10
15.4246
  20
19.0037
  11
15.4246
  21
17.9977
  12
14.4216
  22
17.8007
  13
15.2276
  23
17.8007
  0
SOLID
  8
Top_Paste
  10
15.4246
  20
19.0037
  11
14.4216
  21
17.8007
  12
14.2246
  22
19.0037
  13
14.2246
  23
17.9977
  0
SOLID
  8
Top_Paste
  10
15.4246
  20
19.0037
  11
14.2246
  21
19.0037
  12
15.2276
  22
19.2007
  13
14.4216
  23
19.2007
  0
POLYLINE
  8
Top_Paste
  6
CONTINUOUS
  66
1
  70
0
  40
0.197
  41
0.197
  0
VERTEX
  8
Top_Paste
  10
13.2291
  20
17.9977
  42
1
  0
VERTEX
  8
Top_Paste
  10
13.4261
  20
17.9977
  42
1
  0
VERTEX
  8
Top_Paste
  10
13.2291
  20
17.9977
  42
1
  0
SEQEND
  0
POLYLINE
  8
Top_Paste
  6
CONTINUOUS
  66
1
  70
0
  40
0.197
  41
0.197
  0
VERTEX
  8
Top_Paste
  10
12.4231
  20
17.9977
  42
1
  0
VERTEX
  8
Top_Paste
  10
12.6201
  20
17.9977
  42
1
  0
VERTEX
  8
Top_Paste
  10
12.4231
  20
17.9977
  42
1
  0
SEQEND
  0
POLYLINE
  8
Top_Paste
  6
CONTINUOUS
  66
1
  70
0
  40
0.197
  41
0.197
  0
VERTEX
  8
Top_Paste
  10
12.4231
  20
19.0037
  42
1
  0
VERTEX
  8
Top_Paste
  10
12.6201
  20
19.0037
  42
1
  0
VERTEX
  8
Top_Paste
  10
12.4231
  20
19.0037
  42
1
  0
SEQEND
  0
POLYLINE
  8
Top_Paste
  6
CONTINUOUS
  66
1
  70
0
  40
0.197
  41
0.197
  0
VERTEX
  8
Top_Paste
  10
13.2291
  20
19.0037
  42
1
  0
VERTEX
  8
Top_Paste
  10
13.4261
  20
19.0037
  42
1
  0
VERTEX
  8
Top_Paste
  10
13.2291
  20
19.0037
  42
1
  0
SEQEND
  0
SOLID
  8
Top_Paste
  10
13.5246
  20
19.0037
  11
13.5246
  21
17.9977
  12
12.5216
  22
17.8007
  13
13.3276
  23
17.8007
  0
SOLID
  8
Top_Paste
  10
13.5246
  20
19.0037
  11
12.5216
  21
17.8007
  12
12.3246
  22
19.0037
  13
12.3246
  23
17.9977
  0
SOLID
  8
Top_Paste
  10
13.5246
  20
19.0037
  11
12.3246
  21
19.0037
  12
13.3276
  22
19.2007
  13
12.5216
  23
19.2007
  0
POLYLINE
  8
Top_Paste
  6
CONTINUOUS
  66
1
  70
0
  40
0.197
  41
0.197
  0
VERTEX
  8
Top_Paste
  10
16.1778
  20
19.0037
  42
1
  0
VERTEX
  8
Top_Paste
  10
16.3748
  20
19.0037
  42
1
  0
VERTEX
  8
Top_Paste
  10
16.1778
  20
19.0037
  42
1
  0
SEQEND
  0
POLYLINE
  8
Top_Paste
  6
CONTINUOUS
  66
1
  70
0
  40
0.197
  41
0.197
  0
VERTEX
  8
Top_Paste
  10
16.9838
  20
19.0037
  42
1
  0
VERTEX
  8
Top_Paste
  10
17.1808
  20
19.0037
  42
1
  0
VERTEX
  8
Top_Paste
  10
16.9838
  20
19.0037
  42
1
  0
SEQEND
  0
POLYLINE
  8
Top_Paste
  6
CONTINUOUS
  66
1
  70
0
  40
0.197
  41
0.197
  0
VERTEX
  8
Top_Paste
  10
16.9838
  20
17.9977
  42
1
  0
VERTEX
  8
Top_Paste
  10
17.1808
  20
17.9977
  42
1
  0
VERTEX
  8
Top_Paste
  10
16.9838
  20
17.9977
  42
1
  0
SEQEND
  0
POLYLINE
  8
Top_Paste
  6
CONTINUOUS
  66
1
  70
0
  40
0.197
  41
0.197
  0
VERTEX
  8
Top_Paste
  10
16.1778
  20
17.9977
  42
1
  0
VERTEX
  8
Top_Paste
  10
16.3748
  20
17.9977
  42
1
  0
VERTEX
  8
Top_Paste
  10
16.1778
  20
17.9977
  42
1
  0
SEQEND
  0
SOLID
  8
Top_Paste
  10
16.0793
  20
17.9977
  11
16.0793
  21
19.0037
  12
17.0823
  22
19.2007
  13
16.2763
  23
19.2007
  0
SOLID
  8
Top_Paste
  10
16.0793
  20
17.9977
  11
17.0823
  21
19.2007
  12
17.2793
  22
17.9977
  13
17.2793
  23
19.0037
  0
SOLID
  8
Top_Paste
  10
16.0793
  20
17.9977
  11
17.2793
  21
17.9977
  12
16.2763
  22
17.8007
  13
17.0823
  23
17.8007
  0
POLYLINE
  8
Top_Paste
  6
CONTINUOUS
  66
1
  70
0
  40
0.197
  41
0.197
  0
VERTEX
  8
Top_Paste
  10
18.0778
  20
19.0037
  42
1
  0
VERTEX
  8
Top_Paste
  10
18.2748
  20
19.0037
  42
1
  0
VERTEX
  8
Top_Paste
  10
18.0778
  20
19.0037
  42
1
  0
SEQEND
  0
POLYLINE
  8
Top_Paste
  6
CONTINUOUS
  66
1
  70
0
  40
0.197
  41
0.197
  0
VERTEX
  8
Top_Paste
  10
18.8838
  20
19.0037
  42
1
  0
VERTEX
  8
Top_Paste
  10
19.0808
  20
19.0037
  42
1
  0
VERTEX
  8
Top_Paste
  10
18.8838
  20
19.0037
  42
1
  0
SEQEND
  0
POLYLINE
  8
Top_Paste
  6
CONTINUOUS
  66
1
  70
0
  40
0.197
  41
0.197
  0
VERTEX
  8
Top_Paste
  10
18.8838
  20
17.9977
  42
1
  0
VERTEX
  8
Top_Paste
  10
19.0808
  20
17.9977
  42
1
  0
VERTEX
  8
Top_Paste
  10
18.8838
  20
17.9977
  42
1
  0
SEQEND
  0
POLYLINE
  8
Top_Paste
  6
CONTINUOUS
  66
1
  70
0
  40
0.197
  41
0.197
  0
VERTEX
  8
Top_Paste
  10
18.0778
  20
17.9977
  42
1
  0
VERTEX
  8
Top_Paste
  10
18.2748
  20
17.9977
  42
1
  0
VERTEX
  8
Top_Paste
  10
18.0778
  20
17.9977
  42
1
  0
SEQEND
  0
SOLID
  8
Top_Paste
  10
17.9793
  20
17.9977
  11
17.9793
  21
19.0037
  12
18.9823
  22
19.2007
  13
18.1763
  23
19.2007
  0
SOLID
  8
Top_Paste
  10
17.9793
  20
17.9977
  11
18.9823
  21
19.2007
  12
19.1793
  22
17.9977
  13
19.1793
  23
19.0037
  0
SOLID
  8
Top_Paste
  10
17.9793
  20
17.9977
  11
19.1793
  21
17.9977
  12
18.1763
  22
17.8007
  13
18.9823
  23
17.8007
  0
POLYLINE
  8
Top_Paste
  6
CONTINUOUS
  66
1
  70
0
  40
0.197
  41
0.197
  0
VERTEX
  8
Top_Paste
  10
20.4394
  20
6.0288
  42
1
  0
VERTEX
  8
Top_Paste
  10
20.6364
  20
6.0288
  42
1
  0
VERTEX
  8
Top_Paste
  10
20.4394
  20
6.0288
  42
1
  0
SEQEND
  0
POLYLINE
  8
Top_Paste
  6
CONTINUOUS
  66
1
  70
0
  40
0.197
  41
0.197
  0
VERTEX
  8
Top_Paste
  10
21.2454
  20
6.0288
  42
1
  0
VERTEX
  8
Top_Paste
  10
21.4424
  20
6.0288
  42
1
  0
VERTEX
  8
Top_Paste
  10
21.2454
  20
6.0288
  42
1
  0
SEQEND
  0
POLYLINE
  8
Top_Paste
  6
CONTINUOUS
  66
1
  70
0
  40
0.197
  41
0.197
  0
VERTEX
  8
Top_Paste
  10
21.2454
  20
5.0228
  42
1
  0
VERTEX
  8
Top_Paste
  10
21.4424
  20
5.0228
  42
1
  0
VERTEX
  8
Top_Paste
  10
21.2454
  20
5.0228
  42
1
  0
SEQEND
  0
POLYLINE
  8
Top_Paste
  6
CONTINUOUS
  66
1
  70
0
  40
0.197
  41
0.197
  0
VERTEX
  8
Top_Paste
  10
20.4394
  20
5.0228
  42
1
  0
VERTEX
  8
Top_Paste
  10
20.6364
  20
5.0228
  42
1
  0
VERTEX
  8
Top_Paste
  10
20.4394
  20
5.0228
  42
1
  0
SEQEND
  0
SOLID
  8
Top_Paste
  10
20.3409
  20
5.0228
  11
20.3409
  21
6.0288
  12
21.3439
  22
6.2258
  13
20.5379
  23
6.2258
  0
SOLID
  8
Top_Paste
  10
20.3409
  20
5.0228
  11
21.3439
  21
6.2258
  12
21.5409
  22
5.0228
  13
21.5409
  23
6.0288
  0
SOLID
  8
Top_Paste
  10
20.3409
  20
5.0228
  11
21.5409
  21
5.0228
  12
20.5379
  22
4.8258
  13
21.3439
  23
4.8258
  0
POLYLINE
  8
Top_Paste
  6
CONTINUOUS
  66
1
  70
0
  40
0.197
  41
0.197
  0
VERTEX
  8
Top_Paste
  10
22.3394
  20
6.0288
  42
1
  0
VERTEX
  8
Top_Paste
  10
22.5364
  20
6.0288
  42
1
  0
VERTEX
  8
Top_Paste
  10
22.3394
  20
6.0288
  42
1
  0
SEQEND
  0
POLYLINE
  8
Top_Paste
  6
CONTINUOUS
  66
1
  70
0
  40
0.197
  41
0.197
  0
VERTEX
  8
Top_Paste
  10
23.1454
  20
6.0288
  42
1
  0
VERTEX
  8
Top_Paste
  10
23.3424
  20
6.0288
  42
1
  0
VERTEX
  8
Top_Paste
  10
23.1454
  20
6.0288
  42
1
  0
SEQEND
  0
POLYLINE
  8
Top_Paste
  6
CONTINUOUS
  66
1
  70
0
  40
0.197
  41
0.197
  0
VERTEX
  8
Top_Paste
  10
23.1454
  20
5.0228
  42
1
  0
VERTEX
  8
Top_Paste
  10
23.3424
  20
5.0228
  42
1
  0
VERTEX
  8
Top_Paste
  10
23.1454
  20
5.0228
  42
1
  0
SEQEND
  0
POLYLINE
  8
Top_Paste
  6
CONTINUOUS
  66
1
  70
0
  40
0.197
  41
0.197
  0
VERTEX
  8
Top_Paste
  10
22.3394
  20
5.0228
  42
1
  0
VERTEX
  8
Top_Paste
  10
22.5364
  20
5.0228
  42
1
  0
VERTEX
  8
Top_Paste
  10
22.3394
  20
5.0228
  42
1
  0
SEQEND
  0
SOLID
  8
Top_Paste
  10
22.2409
  20
5.0228
  11
22.2409
  21
6.0288
  12
23.2439
  22
6.2258
  13
22.4379
  23
6.2258
  0
SOLID
  8
Top_Paste
  10
22.2409
  20
5.0228
  11
23.2439
  21
6.2258
  12
23.4409
  22
5.0228
  13
23.4409
  23
6.0288
  0
SOLID
  8
Top_Paste
  10
22.2409
  20
5.0228
  11
23.4409
  21
5.0228
  12
22.4379
  22
4.8258
  13
23.2439
  23
4.8258
  0
SOLID
  8
Top_Paste
  10
13.598
  20
10.6804
  11
14.698
  21
10.6804
  12
13.598
  22
8.5804
  13
14.698
  23
8.5804
  0
SOLID
  8
Top_Paste
  10
15.898
  20
10.6804
  11
16.998
  21
10.6804
  12
15.898
  22
8.5804
  13
16.998
  23
8.5804
  0
SOLID
  8
Top_Paste
  10
18.198
  20
10.6804
  11
19.298
  21
10.6804
  12
18.198
  22
8.5804
  13
19.298
  23
8.5804
  0
SOLID
  8
Top_Paste
  10
14.748
  20
16.8804
  11
18.148
  21
16.8804
  12
14.748
  22
14.7804
  13
18.148
  23
14.7804
  0
ENDSEC
  0
EOF
