  0
SECTION
  2
HEADER
  9
$ACADVER
  1
AC1032
  9
$ACADMAINTVER
 90
      250
  9
$DWGCODEPAGE
  3
ANSI_1252
  9
$LASTSAVEDBY
  1
ellix
  9
$REQUIREDVERSIONS
160
                 0
  9
$INSBASE
 10
0.0
 20
0.0
 30
0.0
  9
$EXTMIN
 10
-33.80865836384055
 20
-24.7932136586316
 30
0.0
  9
$EXTMAX
 10
66.82000709515182
 20
74.89620340043308
 30
0.0
  9
$LIMMIN
 10
0.0
 20
0.0
  9
$LIMMAX
 10
12.0
 20
9.0
  9
$ORTHOMODE
 70
     0
  9
$REGENMODE
 70
     1
  9
$FILLMODE
 70
     1
  9
$QTEXTMODE
 70
     0
  9
$MIRRTEXT
 70
     0
  9
$LTSCALE
 40
1.0
  9
$ATTMODE
 70
     1
  9
$TEXTSIZE
 40
0.2
  9
$TRACEWID
 40
0.05
  9
$TEXTSTYLE
  7
Standard
  9
$CLAYER
  8
0
  9
$CELTYPE
  6
ByLayer
  9
$CECOLOR
 62
   256
  9
$CELTSCALE
 40
1.0
  9
$DISPSILH
 70
     0
  9
$DIMSCALE
 40
1.0
  9
$DIMASZ
 40
0.18
  9
$DIMEXO
 40
0.0625
  9
$DIMDLI
 40
0.38
  9
$DIMRND
 40
0.0
  9
$DIMDLE
 40
0.0
  9
$DIMEXE
 40
0.18
  9
$DIMTP
 40
0.0
  9
$DIMTM
 40
0.0
  9
$DIMTXT
 40
0.18
  9
$DIMCEN
 40
0.09
  9
$DIMTSZ
 40
0.0
  9
$DIMTOL
 70
     0
  9
$DIMLIM
 70
     0
  9
$DIMTIH
 70
     1
  9
$DIMTOH
 70
     1
  9
$DIMSE1
 70
     0
  9
$DIMSE2
 70
     0
  9
$DIMTAD
 70
     0
  9
$DIMZIN
 70
     0
  9
$DIMBLK
  1

  9
$DIMASO
 70
     1
  9
$DIMSHO
 70
     1
  9
$DIMPOST
  1

  9
$DIMAPOST
  1

  9
$DIMALT
 70
     0
  9
$DIMALTD
 70
     2
  9
$DIMALTF
 40
25.4
  9
$DIMLFAC
 40
1.0
  9
$DIMTOFL
 70
     0
  9
$DIMTVP
 40
0.0
  9
$DIMTIX
 70
     0
  9
$DIMSOXD
 70
     0
  9
$DIMSAH
 70
     0
  9
$DIMBLK1
  1

  9
$DIMBLK2
  1

  9
$DIMSTYLE
  2
Standard
  9
$DIMCLRD
 70
     0
  9
$DIMCLRE
 70
     0
  9
$DIMCLRT
 70
     0
  9
$DIMTFAC
 40
1.0
  9
$DIMGAP
 40
0.09
  9
$DIMJUST
 70
     0
  9
$DIMSD1
 70
     0
  9
$DIMSD2
 70
     0
  9
$DIMTOLJ
 70
     1
  9
$DIMTZIN
 70
     0
  9
$DIMALTZ
 70
     0
  9
$DIMALTTZ
 70
     0
  9
$DIMUPT
 70
     0
  9
$DIMDEC
 70
     4
  9
$DIMTDEC
 70
     4
  9
$DIMALTU
 70
     2
  9
$DIMALTTD
 70
     2
  9
$DIMTXSTY
  7
Standard
  9
$DIMAUNIT
 70
     0
  9
$DIMADEC
 70
     0
  9
$DIMALTRND
 40
0.0
  9
$DIMAZIN
 70
     0
  9
$DIMDSEP
 70
    46
  9
$DIMATFIT
 70
     3
  9
$DIMFRAC
 70
     0
  9
$DIMLDRBLK
  1

  9
$DIMLUNIT
 70
     2
  9
$DIMLWD
 70
    -2
  9
$DIMLWE
 70
    -2
  9
$DIMTMOVE
 70
     0
  9
$DIMFXL
 40
1.0
  9
$DIMFXLON
 70
     0
  9
$DIMJOGANG
 40
0.7853981633974483
  9
$DIMTFILL
 70
     0
  9
$DIMTFILLCLR
 70
     0
  9
$DIMARCSYM
 70
     0
  9
$DIMLTYPE
  6

  9
$DIMLTEX1
  6

  9
$DIMLTEX2
  6

  9
$DIMTXTDIRECTION
 70
     0
  9
$LUNITS
 70
     2
  9
$LUPREC
 70
     4
  9
$SKETCHINC
 40
0.1
  9
$FILLETRAD
 40
0.0
  9
$AUNITS
 70
     0
  9
$AUPREC
 70
     0
  9
$MENU
  1
.
  9
$ELEVATION
 40
0.0
  9
$PELEVATION
 40
0.0
  9
$THICKNESS
 40
0.0
  9
$LIMCHECK
 70
     0
  9
$CHAMFERA
 40
0.0
  9
$CHAMFERB
 40
0.0
  9
$CHAMFERC
 40
0.0
  9
$CHAMFERD
 40
0.0
  9
$SKPOLY
 70
     0
  9
$TDCREATE
 40
2460367.440567130
  9
$TDUCREATE
 40
2460367.648900463
  9
$TDUPDATE
 40
2460367.440914352
  9
$TDUUPDATE
 40
2460367.649247685
  9
$TDINDWG
 40
0.0003472222
  9
$TDUSRTIMER
 40
0.0003472222
  9
$USRTIMER
 70
     1
  9
$ANGBASE
 50
0.0
  9
$ANGDIR
 70
     0
  9
$PDMODE
 70
     0
  9
$PDSIZE
 40
0.0
  9
$PLINEWID
 40
0.0
  9
$SPLFRAME
 70
     0
  9
$SPLINETYPE
 70
     6
  9
$SPLINESEGS
 70
     8
  9
$HANDSEED
  5
382
  9
$SURFTAB1
 70
     6
  9
$SURFTAB2
 70
     6
  9
$SURFTYPE
 70
     6
  9
$SURFU
 70
     6
  9
$SURFV
 70
     6
  9
$UCSBASE
  2

  9
$UCSNAME
  2

  9
$UCSORG
 10
0.0
 20
0.0
 30
0.0
  9
$UCSXDIR
 10
1.0
 20
0.0
 30
0.0
  9
$UCSYDIR
 10
0.0
 20
1.0
 30
0.0
  9
$UCSORTHOREF
  2

  9
$UCSORTHOVIEW
 70
     0
  9
$UCSORGTOP
 10
0.0
 20
0.0
 30
0.0
  9
$UCSORGBOTTOM
 10
0.0
 20
0.0
 30
0.0
  9
$UCSORGLEFT
 10
0.0
 20
0.0
 30
0.0
  9
$UCSORGRIGHT
 10
0.0
 20
0.0
 30
0.0
  9
$UCSORGFRONT
 10
0.0
 20
0.0
 30
0.0
  9
$UCSORGBACK
 10
0.0
 20
0.0
 30
0.0
  9
$PUCSBASE
  2

  9
$PUCSNAME
  2

  9
$PUCSORG
 10
0.0
 20
0.0
 30
0.0
  9
$PUCSXDIR
 10
1.0
 20
0.0
 30
0.0
  9
$PUCSYDIR
 10
0.0
 20
1.0
 30
0.0
  9
$PUCSORTHOREF
  2

  9
$PUCSORTHOVIEW
 70
     0
  9
$PUCSORGTOP
 10
0.0
 20
0.0
 30
0.0
  9
$PUCSORGBOTTOM
 10
0.0
 20
0.0
 30
0.0
  9
$PUCSORGLEFT
 10
0.0
 20
0.0
 30
0.0
  9
$PUCSORGRIGHT
 10
0.0
 20
0.0
 30
0.0
  9
$PUCSORGFRONT
 10
0.0
 20
0.0
 30
0.0
  9
$PUCSORGBACK
 10
0.0
 20
0.0
 30
0.0
  9
$USERI1
 70
     0
  9
$USERI2
 70
     0
  9
$USERI3
 70
     0
  9
$USERI4
 70
     0
  9
$USERI5
 70
     0
  9
$USERR1
 40
0.0
  9
$USERR2
 40
0.0
  9
$USERR3
 40
0.0
  9
$USERR4
 40
0.0
  9
$USERR5
 40
0.0
  9
$WORLDVIEW
 70
     1
  9
$SHADEDGE
 70
     3
  9
$SHADEDIF
 70
    70
  9
$TILEMODE
 70
     1
  9
$MAXACTVP
 70
    64
  9
$PINSBASE
 10
0.0
 20
0.0
 30
0.0
  9
$PLIMCHECK
 70
     0
  9
$PEXTMIN
 10
1.000000000000000E+20
 20
1.000000000000000E+20
 30
1.000000000000000E+20
  9
$PEXTMAX
 10
-1.000000000000000E+20
 20
-1.000000000000000E+20
 30
-1.000000000000000E+20
  9
$PLIMMIN
 10
0.0
 20
0.0
  9
$PLIMMAX
 10
12.0
 20
9.0
  9
$UNITMODE
 70
     0
  9
$VISRETAIN
 70
     1
  9
$PLINEGEN
 70
     0
  9
$PSLTSCALE
 70
     1
  9
$TREEDEPTH
 70
  3020
  9
$CMLSTYLE
  2
Standard
  9
$CMLJUST
 70
     0
  9
$CMLSCALE
 40
1.0
  9
$PROXYGRAPHICS
 70
     1
  9
$MEASUREMENT
 70
     0
  9
$CELWEIGHT
370
    -1
  9
$ENDCAPS
280
     0
  9
$JOINSTYLE
280
     0
  9
$LWDISPLAY
290
     0
  9
$INSUNITS
 70
     0
  9
$HYPERLINKBASE
  1

  9
$STYLESHEET
  1

  9
$XEDIT
290
     1
  9
$CEPSNTYPE
380
     0
  9
$PSTYLEMODE
290
     1
  9
$FINGERPRINTGUID
  2
{3F9A6499-E512-D549-A5DA-12B2872139D5}
  9
$VERSIONGUID
  2
{177AFB65-B65D-9B4D-8CA3-A26B8859A9E4}
  9
$EXTNAMES
290
     1
  9
$PSVPSCALE
 40
0.0
  9
$OLESTARTUP
290
     0
  9
$SORTENTS
280
   127
  9
$INDEXCTL
280
     0
  9
$HIDETEXT
280
     0
  9
$XCLIPFRAME
280
     2
  9
$HALOGAP
280
     0
  9
$OBSCOLOR
 70
   257
  9
$OBSLTYPE
280
     0
  9
$INTERSECTIONDISPLAY
280
     0
  9
$INTERSECTIONCOLOR
 70
   257
  9
$DIMASSOC
280
     1
  9
$PROJECTNAME
  1

  9
$CAMERADISPLAY
290
     0
  9
$LENSLENGTH
 40
50.0
  9
$CAMERAHEIGHT
 40
0.0
  9
$STEPSPERSEC
 40
2.0
  9
$STEPSIZE
 40
6.0
  9
$3DDWFPREC
 40
2.0
  9
$PSOLWIDTH
 40
0.25
  9
$PSOLHEIGHT
 40
4.0
  9
$LOFTANG1
 40
1.570796326794896
  9
$LOFTANG2
 40
1.570796326794896
  9
$LOFTMAG1
 40
0.0
  9
$LOFTMAG2
 40
0.0
  9
$LOFTPARAM
 70
     7
  9
$LOFTNORMALS
280
     1
  9
$LATITUDE
 40
37.795
  9
$LONGITUDE
 40
-122.394
  9
$NORTHDIRECTION
 40
0.0
  9
$TIMEZONE
 70
 -8000
  9
$LIGHTGLYPHDISPLAY
280
     1
  9
$TILEMODELIGHTSYNCH
280
     1
  9
$CMATERIAL
347
11
  9
$SOLIDHIST
280
     0
  9
$SHOWHIST
280
     1
  9
$DWFFRAME
280
     2
  9
$DGNFRAME
280
     0
  9
$REALWORLDSCALE
290
     1
  9
$INTERFERECOLOR
 62
     1
  9
$INTERFEREOBJVS
345
33
  9
$INTERFEREVPVS
346
30
  9
$CSHADOW
280
     0
  9
$SHADOWPLANELOCATION
 40
0.0
  0
ENDSEC
  0
SECTION
  2
CLASSES
  0
CLASS
  1
ACDBDICTIONARYWDFLT
  2
AcDbDictionaryWithDefault
  3
ObjectDBX Classes
 90
        0
 91
        1
280
     0
281
     0
  0
CLASS
  1
MATERIAL
  2
AcDbMaterial
  3
ObjectDBX Classes
 90
     1153
 91
        3
280
     0
281
     0
  0
CLASS
  1
VISUALSTYLE
  2
AcDbVisualStyle
  3
ObjectDBX Classes
 90
     4095
 91
       24
280
     0
281
     0
  0
CLASS
  1
SCALE
  2
AcDbScale
  3
ObjectDBX Classes
 90
     1153
 91
       17
280
     0
281
     0
  0
CLASS
  1
TABLESTYLE
  2
AcDbTableStyle
  3
ObjectDBX Classes
 90
     4095
 91
        1
280
     0
281
     0
  0
CLASS
  1
MLEADERSTYLE
  2
AcDbMLeaderStyle
  3
ACDB_MLEADERSTYLE_CLASS
 90
     4095
 91
        1
280
     0
281
     0
  0
CLASS
  1
ACDBSECTIONVIEWSTYLE
  2
AcDbSectionViewStyle
  3
ObjectDBX Classes
 90
     1025
 91
        1
280
     0
281
     0
  0
CLASS
  1
ACDBDETAILVIEWSTYLE
  2
AcDbDetailViewStyle
  3
ObjectDBX Classes
 90
     1025
 91
        1
280
     0
281
     0
  0
CLASS
  1
DICTIONARYVAR
  2
AcDbDictionaryVar
  3
ObjectDBX Classes
 90
        0
 91
        9
280
     0
281
     0
  0
CLASS
  1
CELLSTYLEMAP
  2
AcDbCellStyleMap
  3
ObjectDBX Classes
 90
     1152
 91
        1
280
     0
281
     0
  0
ENDSEC
  0
SECTION
  2
TABLES
  0
TABLE
  2
VPORT
  5
8
330
0
100
AcDbSymbolTable
 70
     1
  0
VPORT
  5
75
330
8
100
AcDbSymbolTableRecord
100
AcDbViewportTableRecord
  2
*Active
 70
     0
 10
0.0
 20
0.0
 11
1.0
 21
1.0
 12
95.27767592226821
 22
-23.91360118158616
 13
0.0
 23
0.0
 14
1.0
 24
1.0
 15
0.0
 25
0.0
 16
0.0
 26
0.0
 36
1.0
 17
0.0
 27
0.0
 37
0.0
 40
257.1400545668313
 41
2.082191780821917
 42
50.0
 43
0.0
 44
0.0
 50
0.0
 51
0.0
 71
     0
 72
   100
 73
     1
 74
     1
 75
     0
 76
     0
 77
     0
 78
     0
281
     0
 65
     1
110
0.0
120
0.0
130
0.0
111
1.0
121
0.0
131
0.0
112
0.0
122
1.0
132
0.0
 79
     0
146
0.0
348
2F
 60
     3
 61
     5
292
     1
282
     1
141
0.0
142
0.0
 63
   250
421
  3355443
1001
ACAD_NAV_VCDISPLAY
1070
     3
  0
ENDTAB
  0
TABLE
  2
LTYPE
  5
5
330
0
100
AcDbSymbolTable
 70
     2
  0
LTYPE
  5
5A
330
5
100
AcDbSymbolTableRecord
100
AcDbLinetypeTableRecord
  2
ByBlock
 70
     0
  3

 72
    65
 73
     0
 40
0.0
  0
LTYPE
  5
5B
330
5
100
AcDbSymbolTableRecord
100
AcDbLinetypeTableRecord
  2
ByLayer
 70
     0
  3

 72
    65
 73
     0
 40
0.0
  0
LTYPE
  5
5C
330
5
100
AcDbSymbolTableRecord
100
AcDbLinetypeTableRecord
  2
Continuous
 70
     0
  3
Solid line
 72
    65
 73
     0
 40
0.0
  0
ENDTAB
  0
TABLE
  2
LAYER
  5
2
330
0
100
AcDbSymbolTable
 70
     2
  0
LAYER
  5
54
102
{ACAD_XDICTIONARY
360
370
102
}
330
2
100
AcDbSymbolTableRecord
100
AcDbLayerTableRecord
  2
0
 70
     0
 62
     7
  6
Continuous
370
    -3
390
F
347
21
348
0
  0
LAYER
  5
73
102
{ACAD_XDICTIONARY
360
372
102
}
330
2
100
AcDbSymbolTableRecord
100
AcDbLayerTableRecord
  2
TOP_PASTE
 70
     0
 62
     7
  6
Continuous
370
    -3
390
F
347
21
348
0
  0
ENDTAB
  0
TABLE
  2
STYLE
  5
3
330
0
100
AcDbSymbolTable
 70
     2
  0
STYLE
  5
55
330
3
100
AcDbSymbolTableRecord
100
AcDbTextStyleTableRecord
  2
Standard
 70
     0
 40
0.0
 41
1.0
 50
0.0
 71
     0
 42
0.2
  3
txt
  4

  0
STYLE
  5
59
330
3
100
AcDbSymbolTableRecord
100
AcDbTextStyleTableRecord
  2
Annotative
 70
     0
 40
0.0
 41
1.0
 50
0.0
 71
     0
 42
0.2
  3
txt
  4

1001
AcadAnnotative
1000
AnnotativeData
1002
{
1070
     1
1070
     1
1002
}
  0
ENDTAB
  0
TABLE
  2
VIEW
  5
6
330
0
100
AcDbSymbolTable
 70
     0
  0
ENDTAB
  0
TABLE
  2
UCS
  5
7
330
0
100
AcDbSymbolTable
 70
     0
  0
ENDTAB
  0
TABLE
  2
APPID
  5
9
330
0
100
AcDbSymbolTable
 70
     4
  0
APPID
  5
56
330
9
100
AcDbSymbolTableRecord
100
AcDbRegAppTableRecord
  2
ACAD
 70
     0
  0
APPID
  5
5D
330
9
100
AcDbSymbolTableRecord
100
AcDbRegAppTableRecord
  2
AcadAnnotative
 70
     0
  0
APPID
  5
367
330
9
100
AcDbSymbolTableRecord
100
AcDbRegAppTableRecord
  2
ACAD_EXEMPT_FROM_CAD_STANDARDS
 70
     0
  0
APPID
  5
37E
330
9
100
AcDbSymbolTableRecord
100
AcDbRegAppTableRecord
  2
ACAD_NAV_VCDISPLAY
 70
     0
  0
ENDTAB
  0
TABLE
  2
DIMSTYLE
  5
A
330
0
100
AcDbSymbolTable
 70
     3
100
AcDbDimStyleTable
 71
     1
340
57
  0
DIMSTYLE
105
57
330
A
100
AcDbSymbolTableRecord
100
AcDbDimStyleTableRecord
  2
Standard
 70
     0
340
55
  0
DIMSTYLE
105
58
330
A
100
AcDbSymbolTableRecord
100
AcDbDimStyleTableRecord
  2
Annotative
 70
     0
340
55
1001
AcadAnnotative
1000
AnnotativeData
1002
{
1070
     1
1070
     1
1002
}
  0
ENDTAB
  0
TABLE
  2
BLOCK_RECORD
  5
1
330
0
100
AcDbSymbolTable
 70
     1
  0
BLOCK_RECORD
  5
6F
330
1
100
AcDbSymbolTableRecord
100
AcDbBlockTableRecord
  2
*Model_Space
340
72
 70
     0
280
     1
281
     0
  0
BLOCK_RECORD
  5
6B
330
1
100
AcDbSymbolTableRecord
100
AcDbBlockTableRecord
  2
*Paper_Space
340
6E
 70
     0
280
     1
281
     0
  0
ENDTAB
  0
ENDSEC
  0
SECTION
  2
BLOCKS
  0
BLOCK
  5
70
330
6F
100
AcDbEntity
  8
0
100
AcDbBlockBegin
  2
*Model_Space
 70
     0
 10
0.0
 20
0.0
 30
0.0
  3
*Model_Space
  1

  0
ENDBLK
  5
71
330
6F
100
AcDbEntity
  8
0
100
AcDbBlockEnd
  0
BLOCK
  5
6C
330
6B
100
AcDbEntity
 67
     1
  8
0
100
AcDbBlockBegin
  2
*Paper_Space
 70
     0
 10
0.0
 20
0.0
 30
0.0
  3
*Paper_Space
  1

  0
ENDBLK
  5
6D
330
6B
100
AcDbEntity
 67
     1
  8
0
100
AcDbBlockEnd
  0
ENDSEC
  0
SECTION
  2
ENTITIES
  0
LWPOLYLINE
  5
76
330
6F
100
AcDbEntity
  8
TOP_PASTE
  6
Continuous
100
AcDbPolyline
 90
        3
 70
     0
 43
0.197
 10
10.4092
 20
27.5819
 42
1.0
 10
10.6062
 20
27.5819
 42
1.0
 10
10.4092
 20
27.5819
 42
1.0
  0
LWPOLYLINE
  5
7B
330
6F
100
AcDbEntity
  8
TOP_PASTE
  6
Continuous
100
AcDbPolyline
 90
        3
 70
     0
 43
0.197
 10
10.4092
 20
28.3879
 42
1.0
 10
10.6062
 20
28.3879
 42
1.0
 10
10.4092
 20
28.3879
 42
1.0
  0
LWPOLYLINE
  5
80
330
6F
100
AcDbEntity
  8
TOP_PASTE
  6
Continuous
100
AcDbPolyline
 90
        3
 70
     0
 43
0.197
 10
11.4152
 20
28.3879
 42
1.0
 10
11.6122
 20
28.3879
 42
1.0
 10
11.4152
 20
28.3879
 42
1.0
  0
LWPOLYLINE
  5
85
330
6F
100
AcDbEntity
  8
TOP_PASTE
  6
Continuous
100
AcDbPolyline
 90
        3
 70
     0
 43
0.197
 10
11.4152
 20
27.5819
 42
1.0
 10
11.6122
 20
27.5819
 42
1.0
 10
11.4152
 20
27.5819
 42
1.0
  0
SOLID
  5
8A
330
6F
100
AcDbEntity
  8
TOP_PASTE
100
AcDbTrace
 10
11.5137
 20
27.3849
 30
0.0
 11
10.5077
 21
27.3849
 31
0.0
 12
10.3107
 22
28.3879
 32
0.0
 13
10.3107
 23
27.5819
 33
0.0
  0
SOLID
  5
8B
330
6F
100
AcDbEntity
  8
TOP_PASTE
100
AcDbTrace
 10
11.5137
 20
27.3849
 30
0.0
 11
10.3107
 21
28.3879
 31
0.0
 12
11.5137
 22
28.5849
 32
0.0
 13
10.5077
 23
28.5849
 33
0.0
  0
SOLID
  5
8C
330
6F
100
AcDbEntity
  8
TOP_PASTE
100
AcDbTrace
 10
11.5137
 20
27.3849
 30
0.0
 11
11.5137
 21
28.5849
 31
0.0
 12
11.7107
 22
27.5819
 32
0.0
 13
11.7107
 23
28.3879
 33
0.0
  0
LWPOLYLINE
  5
8D
330
6F
100
AcDbEntity
  8
TOP_PASTE
  6
Continuous
100
AcDbPolyline
 90
        3
 70
     0
 43
0.197
 10
10.4092
 20
29.4819
 42
1.0
 10
10.6062
 20
29.4819
 42
1.0
 10
10.4092
 20
29.4819
 42
1.0
  0
LWPOLYLINE
  5
92
330
6F
100
AcDbEntity
  8
TOP_PASTE
  6
Continuous
100
AcDbPolyline
 90
        3
 70
     0
 43
0.197
 10
10.4092
 20
30.2879
 42
1.0
 10
10.6062
 20
30.2879
 42
1.0
 10
10.4092
 20
30.2879
 42
1.0
  0
LWPOLYLINE
  5
97
330
6F
100
AcDbEntity
  8
TOP_PASTE
  6
Continuous
100
AcDbPolyline
 90
        3
 70
     0
 43
0.197
 10
11.4152
 20
30.2879
 42
1.0
 10
11.6122
 20
30.2879
 42
1.0
 10
11.4152
 20
30.2879
 42
1.0
  0
LWPOLYLINE
  5
9C
330
6F
100
AcDbEntity
  8
TOP_PASTE
  6
Continuous
100
AcDbPolyline
 90
        3
 70
     0
 43
0.197
 10
11.4152
 20
29.4819
 42
1.0
 10
11.6122
 20
29.4819
 42
1.0
 10
11.4152
 20
29.4819
 42
1.0
  0
SOLID
  5
A1
330
6F
100
AcDbEntity
  8
TOP_PASTE
100
AcDbTrace
 10
11.5137
 20
29.2849
 30
0.0
 11
10.5077
 21
29.2849
 31
0.0
 12
10.3107
 22
30.2879
 32
0.0
 13
10.3107
 23
29.4819
 33
0.0
  0
SOLID
  5
A2
330
6F
100
AcDbEntity
  8
TOP_PASTE
100
AcDbTrace
 10
11.5137
 20
29.2849
 30
0.0
 11
10.3107
 21
30.2879
 31
0.0
 12
11.5137
 22
30.4849
 32
0.0
 13
10.5077
 23
30.4849
 33
0.0
  0
SOLID
  5
A3
330
6F
100
AcDbEntity
  8
TOP_PASTE
100
AcDbTrace
 10
11.5137
 20
29.2849
 30
0.0
 11
11.5137
 21
30.4849
 31
0.0
 12
11.7107
 22
29.4819
 32
0.0
 13
11.7107
 23
30.2879
 33
0.0
  0
LWPOLYLINE
  5
A4
330
6F
100
AcDbEntity
  8
TOP_PASTE
  6
Continuous
100
AcDbPolyline
 90
        3
 70
     0
 43
0.197
 10
20.3767
 20
10.1741
 42
1.0
 10
20.5737
 20
10.1741
 42
1.0
 10
20.3767
 20
10.1741
 42
1.0
  0
LWPOLYLINE
  5
A9
330
6F
100
AcDbEntity
  8
TOP_PASTE
  6
Continuous
100
AcDbPolyline
 90
        3
 70
     0
 43
0.197
 10
21.1827
 20
10.1741
 42
1.0
 10
21.3797
 20
10.1741
 42
1.0
 10
21.1827
 20
10.1741
 42
1.0
  0
LWPOLYLINE
  5
AE
330
6F
100
AcDbEntity
  8
TOP_PASTE
  6
Continuous
100
AcDbPolyline
 90
        3
 70
     0
 43
0.197
 10
21.1827
 20
9.1681
 42
1.0
 10
21.3797
 20
9.1681
 42
1.0
 10
21.1827
 20
9.1681
 42
1.0
  0
LWPOLYLINE
  5
B3
330
6F
100
AcDbEntity
  8
TOP_PASTE
  6
Continuous
100
AcDbPolyline
 90
        3
 70
     0
 43
0.197
 10
20.3767
 20
9.1681
 42
1.0
 10
20.5737
 20
9.1681
 42
1.0
 10
20.3767
 20
9.1681
 42
1.0
  0
SOLID
  5
B8
330
6F
100
AcDbEntity
  8
TOP_PASTE
100
AcDbTrace
 10
20.2782
 20
9.1681
 30
0.0
 11
20.2782
 21
10.1741
 31
0.0
 12
21.2812
 22
10.3711
 32
0.0
 13
20.4752
 23
10.3711
 33
0.0
  0
SOLID
  5
B9
330
6F
100
AcDbEntity
  8
TOP_PASTE
100
AcDbTrace
 10
20.2782
 20
9.1681
 30
0.0
 11
21.2812
 21
10.3711
 31
0.0
 12
21.4782
 22
9.1681
 32
0.0
 13
21.4782
 23
10.1741
 33
0.0
  0
SOLID
  5
BA
330
6F
100
AcDbEntity
  8
TOP_PASTE
100
AcDbTrace
 10
20.2782
 20
9.1681
 30
0.0
 11
21.4782
 21
9.1681
 31
0.0
 12
20.4752
 22
8.971099999999999
 32
0.0
 13
21.2812
 23
8.971099999999999
 33
0.0
  0
LWPOLYLINE
  5
BB
330
6F
100
AcDbEntity
  8
TOP_PASTE
  6
Continuous
100
AcDbPolyline
 90
        3
 70
     0
 43
0.197
 10
22.2767
 20
10.1741
 42
1.0
 10
22.4737
 20
10.1741
 42
1.0
 10
22.2767
 20
10.1741
 42
1.0
  0
LWPOLYLINE
  5
C0
330
6F
100
AcDbEntity
  8
TOP_PASTE
  6
Continuous
100
AcDbPolyline
 90
        3
 70
     0
 43
0.197
 10
23.0827
 20
10.1741
 42
1.0
 10
23.2797
 20
10.1741
 42
1.0
 10
23.0827
 20
10.1741
 42
1.0
  0
LWPOLYLINE
  5
C5
330
6F
100
AcDbEntity
  8
TOP_PASTE
  6
Continuous
100
AcDbPolyline
 90
        3
 70
     0
 43
0.197
 10
23.0827
 20
9.1681
 42
1.0
 10
23.2797
 20
9.1681
 42
1.0
 10
23.0827
 20
9.1681
 42
1.0
  0
LWPOLYLINE
  5
CA
330
6F
100
AcDbEntity
  8
TOP_PASTE
  6
Continuous
100
AcDbPolyline
 90
        3
 70
     0
 43
0.197
 10
22.2767
 20
9.1681
 42
1.0
 10
22.4737
 20
9.1681
 42
1.0
 10
22.2767
 20
9.1681
 42
1.0
  0
SOLID
  5
CF
330
6F
100
AcDbEntity
  8
TOP_PASTE
100
AcDbTrace
 10
22.1782
 20
9.1681
 30
0.0
 11
22.1782
 21
10.1741
 31
0.0
 12
23.1812
 22
10.3711
 32
0.0
 13
22.3752
 23
10.3711
 33
0.0
  0
SOLID
  5
D0
330
6F
100
AcDbEntity
  8
TOP_PASTE
100
AcDbTrace
 10
22.1782
 20
9.1681
 30
0.0
 11
23.1812
 21
10.3711
 31
0.0
 12
23.3782
 22
9.1681
 32
0.0
 13
23.3782
 23
10.1741
 33
0.0
  0
SOLID
  5
D1
330
6F
100
AcDbEntity
  8
TOP_PASTE
100
AcDbTrace
 10
22.1782
 20
9.1681
 30
0.0
 11
23.3782
 21
9.1681
 31
0.0
 12
22.3752
 22
8.971099999999999
 32
0.0
 13
23.1812
 23
8.971099999999999
 33
0.0
  0
LWPOLYLINE
  5
D2
330
6F
100
AcDbEntity
  8
TOP_PASTE
  6
Continuous
100
AcDbPolyline
 90
        3
 70
     0
 43
0.197
 10
16.6338
 20
6.547699999999999
 42
1.0
 10
16.8308
 20
6.547699999999999
 42
1.0
 10
16.6338
 20
6.547699999999999
 42
1.0
  0
LWPOLYLINE
  5
D7
330
6F
100
AcDbEntity
  8
TOP_PASTE
  6
Continuous
100
AcDbPolyline
 90
        3
 70
     0
 43
0.197
 10
15.8278
 20
6.547699999999999
 42
1.0
 10
16.0248
 20
6.547699999999999
 42
1.0
 10
15.8278
 20
6.547699999999999
 42
1.0
  0
LWPOLYLINE
  5
DC
330
6F
100
AcDbEntity
  8
TOP_PASTE
  6
Continuous
100
AcDbPolyline
 90
        3
 70
     0
 43
0.197
 10
15.8278
 20
7.5537
 42
1.0
 10
16.0248
 20
7.5537
 42
1.0
 10
15.8278
 20
7.5537
 42
1.0
  0
LWPOLYLINE
  5
E1
330
6F
100
AcDbEntity
  8
TOP_PASTE
  6
Continuous
100
AcDbPolyline
 90
        3
 70
     0
 43
0.197
 10
16.6338
 20
7.5537
 42
1.0
 10
16.8308
 20
7.5537
 42
1.0
 10
16.6338
 20
7.5537
 42
1.0
  0
SOLID
  5
E6
330
6F
100
AcDbEntity
  8
TOP_PASTE
100
AcDbTrace
 10
16.9293
 20
7.5537
 30
0.0
 11
16.9293
 21
6.547699999999999
 31
0.0
 12
15.9263
 22
6.350699999999999
 32
0.0
 13
16.7323
 23
6.350699999999999
 33
0.0
  0
SOLID
  5
E7
330
6F
100
AcDbEntity
  8
TOP_PASTE
100
AcDbTrace
 10
16.9293
 20
7.5537
 30
0.0
 11
15.9263
 21
6.350699999999999
 31
0.0
 12
15.7293
 22
7.5537
 32
0.0
 13
15.7293
 23
6.547699999999999
 33
0.0
  0
SOLID
  5
E8
330
6F
100
AcDbEntity
  8
TOP_PASTE
100
AcDbTrace
 10
16.9293
 20
7.5537
 30
0.0
 11
15.7293
 21
7.5537
 31
0.0
 12
16.7323
 22
7.7507
 32
0.0
 13
15.9263
 23
7.7507
 33
0.0
  0
LWPOLYLINE
  5
E9
330
6F
100
AcDbEntity
  8
TOP_PASTE
  6
Continuous
100
AcDbPolyline
 90
        3
 70
     0
 43
0.197
 10
14.7338
 20
6.547699999999999
 42
1.0
 10
14.9308
 20
6.547699999999999
 42
1.0
 10
14.7338
 20
6.547699999999999
 42
1.0
  0
LWPOLYLINE
  5
EE
330
6F
100
AcDbEntity
  8
TOP_PASTE
  6
Continuous
100
AcDbPolyline
 90
        3
 70
     0
 43
0.197
 10
13.9278
 20
6.547699999999999
 42
1.0
 10
14.1248
 20
6.547699999999999
 42
1.0
 10
13.9278
 20
6.547699999999999
 42
1.0
  0
LWPOLYLINE
  5
F3
330
6F
100
AcDbEntity
  8
TOP_PASTE
  6
Continuous
100
AcDbPolyline
 90
        3
 70
     0
 43
0.197
 10
13.9278
 20
7.5537
 42
1.0
 10
14.1248
 20
7.5537
 42
1.0
 10
13.9278
 20
7.5537
 42
1.0
  0
LWPOLYLINE
  5
F8
330
6F
100
AcDbEntity
  8
TOP_PASTE
  6
Continuous
100
AcDbPolyline
 90
        3
 70
     0
 43
0.197
 10
14.7338
 20
7.5537
 42
1.0
 10
14.9308
 20
7.5537
 42
1.0
 10
14.7338
 20
7.5537
 42
1.0
  0
SOLID
  5
FD
330
6F
100
AcDbEntity
  8
TOP_PASTE
100
AcDbTrace
 10
15.0293
 20
7.5537
 30
0.0
 11
15.0293
 21
6.547699999999999
 31
0.0
 12
14.0263
 22
6.350699999999999
 32
0.0
 13
14.8323
 23
6.350699999999999
 33
0.0
  0
SOLID
  5
FE
330
6F
100
AcDbEntity
  8
TOP_PASTE
100
AcDbTrace
 10
15.0293
 20
7.5537
 30
0.0
 11
14.0263
 21
6.350699999999999
 31
0.0
 12
13.8293
 22
7.5537
 32
0.0
 13
13.8293
 23
6.547699999999999
 33
0.0
  0
SOLID
  5
FF
330
6F
100
AcDbEntity
  8
TOP_PASTE
100
AcDbTrace
 10
15.0293
 20
7.5537
 30
0.0
 11
13.8293
 21
7.5537
 31
0.0
 12
14.8323
 22
7.7507
 32
0.0
 13
14.0263
 23
7.7507
 33
0.0
  0
LWPOLYLINE
  5
100
330
6F
100
AcDbEntity
  8
TOP_PASTE
  6
Continuous
100
AcDbPolyline
 90
        3
 70
     0
 43
0.197
 10
11.4152
 20
42.3855
 42
1.0
 10
11.6122
 20
42.3855
 42
1.0
 10
11.4152
 20
42.3855
 42
1.0
  0
LWPOLYLINE
  5
105
330
6F
100
AcDbEntity
  8
TOP_PASTE
  6
Continuous
100
AcDbPolyline
 90
        3
 70
     0
 43
0.197
 10
11.4152
 20
41.5795
 42
1.0
 10
11.6122
 20
41.5795
 42
1.0
 10
11.4152
 20
41.5795
 42
1.0
  0
LWPOLYLINE
  5
10A
330
6F
100
AcDbEntity
  8
TOP_PASTE
  6
Continuous
100
AcDbPolyline
 90
        3
 70
     0
 43
0.197
 10
10.4092
 20
41.5795
 42
1.0
 10
10.6062
 20
41.5795
 42
1.0
 10
10.4092
 20
41.5795
 42
1.0
  0
LWPOLYLINE
  5
10F
330
6F
100
AcDbEntity
  8
TOP_PASTE
  6
Continuous
100
AcDbPolyline
 90
        3
 70
     0
 43
0.197
 10
10.4092
 20
42.3855
 42
1.0
 10
10.6062
 20
42.3855
 42
1.0
 10
10.4092
 20
42.3855
 42
1.0
  0
SOLID
  5
114
330
6F
100
AcDbEntity
  8
TOP_PASTE
100
AcDbTrace
 10
10.5077
 20
42.5825
 30
0.0
 11
11.5137
 21
42.5825
 31
0.0
 12
11.7107
 22
41.5795
 32
0.0
 13
11.7107
 23
42.3855
 33
0.0
  0
SOLID
  5
115
330
6F
100
AcDbEntity
  8
TOP_PASTE
100
AcDbTrace
 10
10.5077
 20
42.5825
 30
0.0
 11
11.7107
 21
41.5795
 31
0.0
 12
10.5077
 22
41.3825
 32
0.0
 13
11.5137
 23
41.3825
 33
0.0
  0
SOLID
  5
116
330
6F
100
AcDbEntity
  8
TOP_PASTE
100
AcDbTrace
 10
10.5077
 20
42.5825
 30
0.0
 11
10.5077
 21
41.3825
 31
0.0
 12
10.3107
 22
42.3855
 32
0.0
 13
10.3107
 23
41.5795
 33
0.0
  0
LWPOLYLINE
  5
117
330
6F
100
AcDbEntity
  8
TOP_PASTE
  6
Continuous
100
AcDbPolyline
 90
        3
 70
     0
 43
0.197
 10
11.4152
 20
40.4855
 42
1.0
 10
11.6122
 20
40.4855
 42
1.0
 10
11.4152
 20
40.4855
 42
1.0
  0
LWPOLYLINE
  5
11C
330
6F
100
AcDbEntity
  8
TOP_PASTE
  6
Continuous
100
AcDbPolyline
 90
        3
 70
     0
 43
0.197
 10
11.4152
 20
39.6795
 42
1.0
 10
11.6122
 20
39.6795
 42
1.0
 10
11.4152
 20
39.6795
 42
1.0
  0
LWPOLYLINE
  5
121
330
6F
100
AcDbEntity
  8
TOP_PASTE
  6
Continuous
100
AcDbPolyline
 90
        3
 70
     0
 43
0.197
 10
10.4092
 20
39.6795
 42
1.0
 10
10.6062
 20
39.6795
 42
1.0
 10
10.4092
 20
39.6795
 42
1.0
  0
LWPOLYLINE
  5
126
330
6F
100
AcDbEntity
  8
TOP_PASTE
  6
Continuous
100
AcDbPolyline
 90
        3
 70
     0
 43
0.197
 10
10.4092
 20
40.4855
 42
1.0
 10
10.6062
 20
40.4855
 42
1.0
 10
10.4092
 20
40.4855
 42
1.0
  0
SOLID
  5
12B
330
6F
100
AcDbEntity
  8
TOP_PASTE
100
AcDbTrace
 10
10.5077
 20
40.68249999999999
 30
0.0
 11
11.5137
 21
40.68249999999999
 31
0.0
 12
11.7107
 22
39.6795
 32
0.0
 13
11.7107
 23
40.4855
 33
0.0
  0
SOLID
  5
12C
330
6F
100
AcDbEntity
  8
TOP_PASTE
100
AcDbTrace
 10
10.5077
 20
40.68249999999999
 30
0.0
 11
11.7107
 21
39.6795
 31
0.0
 12
10.5077
 22
39.4825
 32
0.0
 13
11.5137
 23
39.4825
 33
0.0
  0
SOLID
  5
12D
330
6F
100
AcDbEntity
  8
TOP_PASTE
100
AcDbTrace
 10
10.5077
 20
40.68249999999999
 30
0.0
 11
10.5077
 21
39.4825
 31
0.0
 12
10.3107
 22
40.4855
 32
0.0
 13
10.3107
 23
39.6795
 33
0.0
  0
LWPOLYLINE
  5
12E
330
6F
100
AcDbEntity
  8
TOP_PASTE
  6
Continuous
100
AcDbPolyline
 90
        3
 70
     0
 43
0.197
 10
11.4152
 20
38.1881
 42
1.0
 10
11.6122
 20
38.1881
 42
1.0
 10
11.4152
 20
38.1881
 42
1.0
  0
LWPOLYLINE
  5
133
330
6F
100
AcDbEntity
  8
TOP_PASTE
  6
Continuous
100
AcDbPolyline
 90
        3
 70
     0
 43
0.197
 10
11.4152
 20
37.3821
 42
1.0
 10
11.6122
 20
37.3821
 42
1.0
 10
11.4152
 20
37.3821
 42
1.0
  0
LWPOLYLINE
  5
138
330
6F
100
AcDbEntity
  8
TOP_PASTE
  6
Continuous
100
AcDbPolyline
 90
        3
 70
     0
 43
0.197
 10
10.4092
 20
37.3821
 42
1.0
 10
10.6062
 20
37.3821
 42
1.0
 10
10.4092
 20
37.3821
 42
1.0
  0
LWPOLYLINE
  5
13D
330
6F
100
AcDbEntity
  8
TOP_PASTE
  6
Continuous
100
AcDbPolyline
 90
        3
 70
     0
 43
0.197
 10
10.4092
 20
38.1881
 42
1.0
 10
10.6062
 20
38.1881
 42
1.0
 10
10.4092
 20
38.1881
 42
1.0
  0
SOLID
  5
142
330
6F
100
AcDbEntity
  8
TOP_PASTE
100
AcDbTrace
 10
10.5077
 20
38.3851
 30
0.0
 11
11.5137
 21
38.3851
 31
0.0
 12
11.7107
 22
37.3821
 32
0.0
 13
11.7107
 23
38.1881
 33
0.0
  0
SOLID
  5
143
330
6F
100
AcDbEntity
  8
TOP_PASTE
100
AcDbTrace
 10
10.5077
 20
38.3851
 30
0.0
 11
11.7107
 21
37.3821
 31
0.0
 12
10.5077
 22
37.1851
 32
0.0
 13
11.5137
 23
37.1851
 33
0.0
  0
SOLID
  5
144
330
6F
100
AcDbEntity
  8
TOP_PASTE
100
AcDbTrace
 10
10.5077
 20
38.3851
 30
0.0
 11
10.5077
 21
37.1851
 31
0.0
 12
10.3107
 22
38.1881
 32
0.0
 13
10.3107
 23
37.3821
 33
0.0
  0
LWPOLYLINE
  5
145
330
6F
100
AcDbEntity
  8
TOP_PASTE
  6
Continuous
100
AcDbPolyline
 90
        3
 70
     0
 43
0.197
 10
11.4152
 20
36.2881
 42
1.0
 10
11.6122
 20
36.2881
 42
1.0
 10
11.4152
 20
36.2881
 42
1.0
  0
LWPOLYLINE
  5
14A
330
6F
100
AcDbEntity
  8
TOP_PASTE
  6
Continuous
100
AcDbPolyline
 90
        3
 70
     0
 43
0.197
 10
11.4152
 20
35.4821
 42
1.0
 10
11.6122
 20
35.4821
 42
1.0
 10
11.4152
 20
35.4821
 42
1.0
  0
LWPOLYLINE
  5
14F
330
6F
100
AcDbEntity
  8
TOP_PASTE
  6
Continuous
100
AcDbPolyline
 90
        3
 70
     0
 43
0.197
 10
10.4092
 20
35.4821
 42
1.0
 10
10.6062
 20
35.4821
 42
1.0
 10
10.4092
 20
35.4821
 42
1.0
  0
LWPOLYLINE
  5
154
330
6F
100
AcDbEntity
  8
TOP_PASTE
  6
Continuous
100
AcDbPolyline
 90
        3
 70
     0
 43
0.197
 10
10.4092
 20
36.2881
 42
1.0
 10
10.6062
 20
36.2881
 42
1.0
 10
10.4092
 20
36.2881
 42
1.0
  0
SOLID
  5
159
330
6F
100
AcDbEntity
  8
TOP_PASTE
100
AcDbTrace
 10
10.5077
 20
36.4851
 30
0.0
 11
11.5137
 21
36.4851
 31
0.0
 12
11.7107
 22
35.4821
 32
0.0
 13
11.7107
 23
36.2881
 33
0.0
  0
SOLID
  5
15A
330
6F
100
AcDbEntity
  8
TOP_PASTE
100
AcDbTrace
 10
10.5077
 20
36.4851
 30
0.0
 11
11.7107
 21
35.4821
 31
0.0
 12
10.5077
 22
35.2851
 32
0.0
 13
11.5137
 23
35.2851
 33
0.0
  0
SOLID
  5
15B
330
6F
100
AcDbEntity
  8
TOP_PASTE
100
AcDbTrace
 10
10.5077
 20
36.4851
 30
0.0
 11
10.5077
 21
35.2851
 31
0.0
 12
10.3107
 22
36.2881
 32
0.0
 13
10.3107
 23
35.4821
 33
0.0
  0
LWPOLYLINE
  5
15C
330
6F
100
AcDbEntity
  8
TOP_PASTE
  6
Continuous
100
AcDbPolyline
 90
        3
 70
     0
 43
0.197
 10
11.4152
 20
34.3101
 42
1.0
 10
11.6122
 20
34.3101
 42
1.0
 10
11.4152
 20
34.3101
 42
1.0
  0
LWPOLYLINE
  5
161
330
6F
100
AcDbEntity
  8
TOP_PASTE
  6
Continuous
100
AcDbPolyline
 90
        3
 70
     0
 43
0.197
 10
11.4152
 20
33.5041
 42
1.0
 10
11.6122
 20
33.5041
 42
1.0
 10
11.4152
 20
33.5041
 42
1.0
  0
LWPOLYLINE
  5
166
330
6F
100
AcDbEntity
  8
TOP_PASTE
  6
Continuous
100
AcDbPolyline
 90
        3
 70
     0
 43
0.197
 10
10.4092
 20
33.5041
 42
1.0
 10
10.6062
 20
33.5041
 42
1.0
 10
10.4092
 20
33.5041
 42
1.0
  0
LWPOLYLINE
  5
16B
330
6F
100
AcDbEntity
  8
TOP_PASTE
  6
Continuous
100
AcDbPolyline
 90
        3
 70
     0
 43
0.197
 10
10.4092
 20
34.3101
 42
1.0
 10
10.6062
 20
34.3101
 42
1.0
 10
10.4092
 20
34.3101
 42
1.0
  0
SOLID
  5
170
330
6F
100
AcDbEntity
  8
TOP_PASTE
100
AcDbTrace
 10
10.5077
 20
34.5071
 30
0.0
 11
11.5137
 21
34.5071
 31
0.0
 12
11.7107
 22
33.5041
 32
0.0
 13
11.7107
 23
34.3101
 33
0.0
  0
SOLID
  5
171
330
6F
100
AcDbEntity
  8
TOP_PASTE
100
AcDbTrace
 10
10.5077
 20
34.5071
 30
0.0
 11
11.7107
 21
33.5041
 31
0.0
 12
10.5077
 22
33.3071
 32
0.0
 13
11.5137
 23
33.3071
 33
0.0
  0
SOLID
  5
172
330
6F
100
AcDbEntity
  8
TOP_PASTE
100
AcDbTrace
 10
10.5077
 20
34.5071
 30
0.0
 11
10.5077
 21
33.3071
 31
0.0
 12
10.3107
 22
34.3101
 32
0.0
 13
10.3107
 23
33.5041
 33
0.0
  0
LWPOLYLINE
  5
173
330
6F
100
AcDbEntity
  8
TOP_PASTE
  6
Continuous
100
AcDbPolyline
 90
        3
 70
     0
 43
0.197
 10
11.4152
 20
32.4101
 42
1.0
 10
11.6122
 20
32.4101
 42
1.0
 10
11.4152
 20
32.4101
 42
1.0
  0
LWPOLYLINE
  5
178
330
6F
100
AcDbEntity
  8
TOP_PASTE
  6
Continuous
100
AcDbPolyline
 90
        3
 70
     0
 43
0.197
 10
11.4152
 20
31.6041
 42
1.0
 10
11.6122
 20
31.6041
 42
1.0
 10
11.4152
 20
31.6041
 42
1.0
  0
LWPOLYLINE
  5
17D
330
6F
100
AcDbEntity
  8
TOP_PASTE
  6
Continuous
100
AcDbPolyline
 90
        3
 70
     0
 43
0.197
 10
10.4092
 20
31.6041
 42
1.0
 10
10.6062
 20
31.6041
 42
1.0
 10
10.4092
 20
31.6041
 42
1.0
  0
LWPOLYLINE
  5
182
330
6F
100
AcDbEntity
  8
TOP_PASTE
  6
Continuous
100
AcDbPolyline
 90
        3
 70
     0
 43
0.197
 10
10.4092
 20
32.4101
 42
1.0
 10
10.6062
 20
32.4101
 42
1.0
 10
10.4092
 20
32.4101
 42
1.0
  0
SOLID
  5
187
330
6F
100
AcDbEntity
  8
TOP_PASTE
100
AcDbTrace
 10
10.5077
 20
32.6071
 30
0.0
 11
11.5137
 21
32.6071
 31
0.0
 12
11.7107
 22
31.6041
 32
0.0
 13
11.7107
 23
32.4101
 33
0.0
  0
SOLID
  5
188
330
6F
100
AcDbEntity
  8
TOP_PASTE
100
AcDbTrace
 10
10.5077
 20
32.6071
 30
0.0
 11
11.7107
 21
31.6041
 31
0.0
 12
10.5077
 22
31.4071
 32
0.0
 13
11.5137
 23
31.4071
 33
0.0
  0
SOLID
  5
189
330
6F
100
AcDbEntity
  8
TOP_PASTE
100
AcDbTrace
 10
10.5077
 20
32.6071
 30
0.0
 11
10.5077
 21
31.4071
 31
0.0
 12
10.3107
 22
32.4101
 32
0.0
 13
10.3107
 23
31.6041
 33
0.0
  0
LWPOLYLINE
  5
18A
330
6F
100
AcDbEntity
  8
TOP_PASTE
  6
Continuous
100
AcDbPolyline
 90
        3
 70
     0
 43
0.197
 10
9.354599999999999
 20
23.3888
 42
1.0
 10
9.5516
 20
23.3888
 42
1.0
 10
9.354599999999999
 20
23.3888
 42
1.0
  0
LWPOLYLINE
  5
18F
330
6F
100
AcDbEntity
  8
TOP_PASTE
  6
Continuous
100
AcDbPolyline
 90
        3
 70
     0
 43
0.197
 10
9.354599999999999
 20
24.1948
 42
1.0
 10
9.5516
 20
24.1948
 42
1.0
 10
9.354599999999999
 20
24.1948
 42
1.0
  0
LWPOLYLINE
  5
194
330
6F
100
AcDbEntity
  8
TOP_PASTE
  6
Continuous
100
AcDbPolyline
 90
        3
 70
     0
 43
0.197
 10
10.3606
 20
24.1948
 42
1.0
 10
10.5576
 20
24.1948
 42
1.0
 10
10.3606
 20
24.1948
 42
1.0
  0
LWPOLYLINE
  5
199
330
6F
100
AcDbEntity
  8
TOP_PASTE
  6
Continuous
100
AcDbPolyline
 90
        3
 70
     0
 43
0.197
 10
10.3606
 20
23.3888
 42
1.0
 10
10.5576
 20
23.3888
 42
1.0
 10
10.3606
 20
23.3888
 42
1.0
  0
SOLID
  5
19E
330
6F
100
AcDbEntity
  8
TOP_PASTE
100
AcDbTrace
 10
10.4591
 20
23.1918
 30
0.0
 11
9.453099999999999
 21
23.1918
 31
0.0
 12
9.256099999999999
 22
24.1948
 32
0.0
 13
9.256099999999999
 23
23.3888
 33
0.0
  0
SOLID
  5
19F
330
6F
100
AcDbEntity
  8
TOP_PASTE
100
AcDbTrace
 10
10.4591
 20
23.1918
 30
0.0
 11
9.256099999999999
 21
24.1948
 31
0.0
 12
10.4591
 22
24.3918
 32
0.0
 13
9.453099999999999
 23
24.3918
 33
0.0
  0
SOLID
  5
1A0
330
6F
100
AcDbEntity
  8
TOP_PASTE
100
AcDbTrace
 10
10.4591
 20
23.1918
 30
0.0
 11
10.4591
 21
24.3918
 31
0.0
 12
10.6561
 22
23.3888
 32
0.0
 13
10.6561
 23
24.1948
 33
0.0
  0
LWPOLYLINE
  5
1A1
330
6F
100
AcDbEntity
  8
TOP_PASTE
  6
Continuous
100
AcDbPolyline
 90
        3
 70
     0
 43
0.197
 10
9.354599999999999
 20
25.2888
 42
1.0
 10
9.5516
 20
25.2888
 42
1.0
 10
9.354599999999999
 20
25.2888
 42
1.0
  0
LWPOLYLINE
  5
1A6
330
6F
100
AcDbEntity
  8
TOP_PASTE
  6
Continuous
100
AcDbPolyline
 90
        3
 70
     0
 43
0.197
 10
9.354599999999999
 20
26.0948
 42
1.0
 10
9.5516
 20
26.0948
 42
1.0
 10
9.354599999999999
 20
26.0948
 42
1.0
  0
LWPOLYLINE
  5
1AB
330
6F
100
AcDbEntity
  8
TOP_PASTE
  6
Continuous
100
AcDbPolyline
 90
        3
 70
     0
 43
0.197
 10
10.3606
 20
26.0948
 42
1.0
 10
10.5576
 20
26.0948
 42
1.0
 10
10.3606
 20
26.0948
 42
1.0
  0
LWPOLYLINE
  5
1B0
330
6F
100
AcDbEntity
  8
TOP_PASTE
  6
Continuous
100
AcDbPolyline
 90
        3
 70
     0
 43
0.197
 10
10.3606
 20
25.2888
 42
1.0
 10
10.5576
 20
25.2888
 42
1.0
 10
10.3606
 20
25.2888
 42
1.0
  0
SOLID
  5
1B5
330
6F
100
AcDbEntity
  8
TOP_PASTE
100
AcDbTrace
 10
10.4591
 20
25.0918
 30
0.0
 11
9.453099999999999
 21
25.0918
 31
0.0
 12
9.256099999999999
 22
26.0948
 32
0.0
 13
9.256099999999999
 23
25.2888
 33
0.0
  0
SOLID
  5
1B6
330
6F
100
AcDbEntity
  8
TOP_PASTE
100
AcDbTrace
 10
10.4591
 20
25.0918
 30
0.0
 11
9.256099999999999
 21
26.0948
 31
0.0
 12
10.4591
 22
26.2918
 32
0.0
 13
9.453099999999999
 23
26.2918
 33
0.0
  0
SOLID
  5
1B7
330
6F
100
AcDbEntity
  8
TOP_PASTE
100
AcDbTrace
 10
10.4591
 20
25.0918
 30
0.0
 11
10.4591
 21
26.2918
 31
0.0
 12
10.6561
 22
25.2888
 32
0.0
 13
10.6561
 23
26.0948
 33
0.0
  0
LWPOLYLINE
  5
1B8
330
6F
100
AcDbEntity
  8
TOP_PASTE
  6
Continuous
100
AcDbPolyline
 90
        3
 70
     0
 43
0.197
 10
23.0074
 20
23.1538
 42
1.0
 10
23.2044
 20
23.1538
 42
1.0
 10
23.0074
 20
23.1538
 42
1.0
  0
LWPOLYLINE
  5
1BD
330
6F
100
AcDbEntity
  8
TOP_PASTE
  6
Continuous
100
AcDbPolyline
 90
        3
 70
     0
 43
0.197
 10
22.2014
 20
23.1538
 42
1.0
 10
22.3984
 20
23.1538
 42
1.0
 10
22.2014
 20
23.1538
 42
1.0
  0
LWPOLYLINE
  5
1C2
330
6F
100
AcDbEntity
  8
TOP_PASTE
  6
Continuous
100
AcDbPolyline
 90
        3
 70
     0
 43
0.197
 10
22.2014
 20
24.1598
 42
1.0
 10
22.3984
 20
24.1598
 42
1.0
 10
22.2014
 20
24.1598
 42
1.0
  0
LWPOLYLINE
  5
1C7
330
6F
100
AcDbEntity
  8
TOP_PASTE
  6
Continuous
100
AcDbPolyline
 90
        3
 70
     0
 43
0.197
 10
23.0074
 20
24.1598
 42
1.0
 10
23.2044
 20
24.1598
 42
1.0
 10
23.0074
 20
24.1598
 42
1.0
  0
SOLID
  5
1CC
330
6F
100
AcDbEntity
  8
TOP_PASTE
100
AcDbTrace
 10
23.3029
 20
24.1598
 30
0.0
 11
23.3029
 21
23.1538
 31
0.0
 12
22.2999
 22
22.9568
 32
0.0
 13
23.1059
 23
22.9568
 33
0.0
  0
SOLID
  5
1CD
330
6F
100
AcDbEntity
  8
TOP_PASTE
100
AcDbTrace
 10
23.3029
 20
24.1598
 30
0.0
 11
22.2999
 21
22.9568
 31
0.0
 12
22.1029
 22
24.1598
 32
0.0
 13
22.1029
 23
23.1538
 33
0.0
  0
SOLID
  5
1CE
330
6F
100
AcDbEntity
  8
TOP_PASTE
100
AcDbTrace
 10
23.3029
 20
24.1598
 30
0.0
 11
22.1029
 21
24.1598
 31
0.0
 12
23.1059
 22
24.3568
 32
0.0
 13
22.2999
 23
24.3568
 33
0.0
  0
LWPOLYLINE
  5
1CF
330
6F
100
AcDbEntity
  8
TOP_PASTE
  6
Continuous
100
AcDbPolyline
 90
        3
 70
     0
 43
0.197
 10
21.1074
 20
23.1538
 42
1.0
 10
21.3044
 20
23.1538
 42
1.0
 10
21.1074
 20
23.1538
 42
1.0
  0
LWPOLYLINE
  5
1D4
330
6F
100
AcDbEntity
  8
TOP_PASTE
  6
Continuous
100
AcDbPolyline
 90
        3
 70
     0
 43
0.197
 10
20.3014
 20
23.1538
 42
1.0
 10
20.4984
 20
23.1538
 42
1.0
 10
20.3014
 20
23.1538
 42
1.0
  0
LWPOLYLINE
  5
1D9
330
6F
100
AcDbEntity
  8
TOP_PASTE
  6
Continuous
100
AcDbPolyline
 90
        3
 70
     0
 43
0.197
 10
20.3014
 20
24.1598
 42
1.0
 10
20.4984
 20
24.1598
 42
1.0
 10
20.3014
 20
24.1598
 42
1.0
  0
LWPOLYLINE
  5
1DE
330
6F
100
AcDbEntity
  8
TOP_PASTE
  6
Continuous
100
AcDbPolyline
 90
        3
 70
     0
 43
0.197
 10
21.1074
 20
24.1598
 42
1.0
 10
21.3044
 20
24.1598
 42
1.0
 10
21.1074
 20
24.1598
 42
1.0
  0
SOLID
  5
1E3
330
6F
100
AcDbEntity
  8
TOP_PASTE
100
AcDbTrace
 10
21.4029
 20
24.1598
 30
0.0
 11
21.4029
 21
23.1538
 31
0.0
 12
20.3999
 22
22.9568
 32
0.0
 13
21.2059
 23
22.9568
 33
0.0
  0
SOLID
  5
1E4
330
6F
100
AcDbEntity
  8
TOP_PASTE
100
AcDbTrace
 10
21.4029
 20
24.1598
 30
0.0
 11
20.3999
 21
22.9568
 31
0.0
 12
20.2029
 22
24.1598
 32
0.0
 13
20.2029
 23
23.1538
 33
0.0
  0
SOLID
  5
1E5
330
6F
100
AcDbEntity
  8
TOP_PASTE
100
AcDbTrace
 10
21.4029
 20
24.1598
 30
0.0
 11
20.2029
 21
24.1598
 31
0.0
 12
21.2059
 22
24.3568
 32
0.0
 13
20.3999
 23
24.3568
 33
0.0
  0
LWPOLYLINE
  5
1E6
330
6F
100
AcDbEntity
  8
TOP_PASTE
  6
Continuous
100
AcDbPolyline
 90
        3
 70
     0
 43
0.197
 10
23.0827
 20
7.1153
 42
1.0
 10
23.2797
 20
7.1153
 42
1.0
 10
23.0827
 20
7.1153
 42
1.0
  0
LWPOLYLINE
  5
1EB
330
6F
100
AcDbEntity
  8
TOP_PASTE
  6
Continuous
100
AcDbPolyline
 90
        3
 70
     0
 43
0.197
 10
22.2767
 20
7.1153
 42
1.0
 10
22.4737
 20
7.1153
 42
1.0
 10
22.2767
 20
7.1153
 42
1.0
  0
LWPOLYLINE
  5
1F0
330
6F
100
AcDbEntity
  8
TOP_PASTE
  6
Continuous
100
AcDbPolyline
 90
        3
 70
     0
 43
0.197
 10
22.2767
 20
8.121299999999999
 42
1.0
 10
22.4737
 20
8.121299999999999
 42
1.0
 10
22.2767
 20
8.121299999999999
 42
1.0
  0
LWPOLYLINE
  5
1F5
330
6F
100
AcDbEntity
  8
TOP_PASTE
  6
Continuous
100
AcDbPolyline
 90
        3
 70
     0
 43
0.197
 10
23.0827
 20
8.121299999999999
 42
1.0
 10
23.2797
 20
8.121299999999999
 42
1.0
 10
23.0827
 20
8.121299999999999
 42
1.0
  0
SOLID
  5
1FA
330
6F
100
AcDbEntity
  8
TOP_PASTE
100
AcDbTrace
 10
23.3782
 20
8.121299999999999
 30
0.0
 11
23.3782
 21
7.1153
 31
0.0
 12
22.3752
 22
6.9183
 32
0.0
 13
23.1812
 23
6.9183
 33
0.0
  0
SOLID
  5
1FB
330
6F
100
AcDbEntity
  8
TOP_PASTE
100
AcDbTrace
 10
23.3782
 20
8.121299999999999
 30
0.0
 11
22.3752
 21
6.9183
 31
0.0
 12
22.1782
 22
8.121299999999999
 32
0.0
 13
22.1782
 23
7.1153
 33
0.0
  0
SOLID
  5
1FC
330
6F
100
AcDbEntity
  8
TOP_PASTE
100
AcDbTrace
 10
23.3782
 20
8.121299999999999
 30
0.0
 11
22.1782
 21
8.121299999999999
 31
0.0
 12
23.1812
 22
8.3183
 32
0.0
 13
22.3752
 23
8.3183
 33
0.0
  0
LWPOLYLINE
  5
1FD
330
6F
100
AcDbEntity
  8
TOP_PASTE
  6
Continuous
100
AcDbPolyline
 90
        3
 70
     0
 43
0.197
 10
21.1827
 20
7.1153
 42
1.0
 10
21.3797
 20
7.1153
 42
1.0
 10
21.1827
 20
7.1153
 42
1.0
  0
LWPOLYLINE
  5
202
330
6F
100
AcDbEntity
  8
TOP_PASTE
  6
Continuous
100
AcDbPolyline
 90
        3
 70
     0
 43
0.197
 10
20.3767
 20
7.1153
 42
1.0
 10
20.5737
 20
7.1153
 42
1.0
 10
20.3767
 20
7.1153
 42
1.0
  0
LWPOLYLINE
  5
207
330
6F
100
AcDbEntity
  8
TOP_PASTE
  6
Continuous
100
AcDbPolyline
 90
        3
 70
     0
 43
0.197
 10
20.3767
 20
8.121299999999999
 42
1.0
 10
20.5737
 20
8.121299999999999
 42
1.0
 10
20.3767
 20
8.121299999999999
 42
1.0
  0
LWPOLYLINE
  5
20C
330
6F
100
AcDbEntity
  8
TOP_PASTE
  6
Continuous
100
AcDbPolyline
 90
        3
 70
     0
 43
0.197
 10
21.1827
 20
8.121299999999999
 42
1.0
 10
21.3797
 20
8.121299999999999
 42
1.0
 10
21.1827
 20
8.121299999999999
 42
1.0
  0
SOLID
  5
211
330
6F
100
AcDbEntity
  8
TOP_PASTE
100
AcDbTrace
 10
21.4782
 20
8.121299999999999
 30
0.0
 11
21.4782
 21
7.1153
 31
0.0
 12
20.4752
 22
6.9183
 32
0.0
 13
21.2812
 23
6.9183
 33
0.0
  0
SOLID
  5
212
330
6F
100
AcDbEntity
  8
TOP_PASTE
100
AcDbTrace
 10
21.4782
 20
8.121299999999999
 30
0.0
 11
20.4752
 21
6.9183
 31
0.0
 12
20.2782
 22
8.121299999999999
 32
0.0
 13
20.2782
 23
7.1153
 33
0.0
  0
SOLID
  5
213
330
6F
100
AcDbEntity
  8
TOP_PASTE
100
AcDbTrace
 10
21.4782
 20
8.121299999999999
 30
0.0
 11
20.2782
 21
8.121299999999999
 31
0.0
 12
21.2812
 22
8.3183
 32
0.0
 13
20.4752
 23
8.3183
 33
0.0
  0
SOLID
  5
214
330
6F
100
AcDbEntity
  8
TOP_PASTE
100
AcDbTrace
 10
12.2191
 20
25.3356
 30
0.0
 11
13.6191
 21
25.3356
 31
0.0
 12
12.2191
 22
24.7856
 32
0.0
 13
13.6191
 23
24.7856
 33
0.0
  0
SOLID
  5
215
330
6F
100
AcDbEntity
  8
TOP_PASTE
100
AcDbTrace
 10
12.2191
 20
24.0656
 30
0.0
 11
13.6191
 21
24.0656
 31
0.0
 12
12.2191
 22
23.5156
 32
0.0
 13
13.6191
 23
23.5156
 33
0.0
  0
SOLID
  5
216
330
6F
100
AcDbEntity
  8
TOP_PASTE
100
AcDbTrace
 10
12.2191
 20
22.7956
 30
0.0
 11
13.6191
 21
22.7956
 31
0.0
 12
12.2191
 22
22.2456
 32
0.0
 13
13.6191
 23
22.2456
 33
0.0
  0
SOLID
  5
217
330
6F
100
AcDbEntity
  8
TOP_PASTE
100
AcDbTrace
 10
12.2191
 20
21.5256
 30
0.0
 11
13.6191
 21
21.5256
 31
0.0
 12
12.2191
 22
20.9756
 32
0.0
 13
13.6191
 23
20.9756
 33
0.0
  0
SOLID
  5
218
330
6F
100
AcDbEntity
  8
TOP_PASTE
100
AcDbTrace
 10
17.6191
 20
21.5256
 30
0.0
 11
19.0191
 21
21.5256
 31
0.0
 12
17.6191
 22
20.9756
 32
0.0
 13
19.0191
 23
20.9756
 33
0.0
  0
SOLID
  5
219
330
6F
100
AcDbEntity
  8
TOP_PASTE
100
AcDbTrace
 10
17.6191
 20
22.7956
 30
0.0
 11
19.0191
 21
22.7956
 31
0.0
 12
17.6191
 22
22.2456
 32
0.0
 13
19.0191
 23
22.2456
 33
0.0
  0
SOLID
  5
21A
330
6F
100
AcDbEntity
  8
TOP_PASTE
100
AcDbTrace
 10
17.6191
 20
24.0656
 30
0.0
 11
19.0191
 21
24.0656
 31
0.0
 12
17.6191
 22
23.5156
 32
0.0
 13
19.0191
 23
23.5156
 33
0.0
  0
SOLID
  5
21B
330
6F
100
AcDbEntity
  8
TOP_PASTE
100
AcDbTrace
 10
17.6191
 20
25.3356
 30
0.0
 11
19.0191
 21
25.3356
 31
0.0
 12
17.6191
 22
24.7856
 32
0.0
 13
19.0191
 23
24.7856
 33
0.0
  0
SOLID
  5
21C
330
6F
100
AcDbEntity
  8
TOP_PASTE
100
AcDbTrace
 10
14.3141
 20
24.7806
 30
0.0
 11
16.9241
 21
24.7806
 31
0.0
 12
14.3141
 22
21.5306
 32
0.0
 13
16.9241
 23
21.5306
 33
0.0
  0
SOLID
  5
21D
330
6F
100
AcDbEntity
  8
TOP_PASTE
100
AcDbTrace
 10
16.3621
 20
39.0127
 30
0.0
 11
21.6725
 21
39.0127
 31
0.0
 12
16.3621
 22
36.2171
 32
0.0
 13
21.6725
 23
36.2171
 33
0.0
  0
SOLID
  5
21E
330
6F
100
AcDbEntity
  8
TOP_PASTE
100
AcDbTrace
 10
16.3621
 20
29.1067
 30
0.0
 11
21.6725
 21
29.1067
 31
0.0
 12
16.3621
 22
26.3111
 32
0.0
 13
21.6725
 23
26.3111
 33
0.0
  0
LWPOLYLINE
  5
21F
330
6F
100
AcDbEntity
  8
TOP_PASTE
  6
Continuous
100
AcDbPolyline
 90
        3
 70
     0
 43
0.197
 10
10.338
 20
17.9977
 42
1.0
 10
10.535
 20
17.9977
 42
1.0
 10
10.338
 20
17.9977
 42
1.0
  0
LWPOLYLINE
  5
224
330
6F
100
AcDbEntity
  8
TOP_PASTE
  6
Continuous
100
AcDbPolyline
 90
        3
 70
     0
 43
0.197
 10
10.338
 20
18.8037
 42
1.0
 10
10.535
 20
18.8037
 42
1.0
 10
10.338
 20
18.8037
 42
1.0
  0
LWPOLYLINE
  5
229
330
6F
100
AcDbEntity
  8
TOP_PASTE
  6
Continuous
100
AcDbPolyline
 90
        3
 70
     0
 43
0.197
 10
11.344
 20
18.8037
 42
1.0
 10
11.541
 20
18.8037
 42
1.0
 10
11.344
 20
18.8037
 42
1.0
  0
LWPOLYLINE
  5
22E
330
6F
100
AcDbEntity
  8
TOP_PASTE
  6
Continuous
100
AcDbPolyline
 90
        3
 70
     0
 43
0.197
 10
11.344
 20
17.9977
 42
1.0
 10
11.541
 20
17.9977
 42
1.0
 10
11.344
 20
17.9977
 42
1.0
  0
SOLID
  5
233
330
6F
100
AcDbEntity
  8
TOP_PASTE
100
AcDbTrace
 10
11.4425
 20
17.8007
 30
0.0
 11
10.4365
 21
17.8007
 31
0.0
 12
10.2395
 22
18.8037
 32
0.0
 13
10.2395
 23
17.9977
 33
0.0
  0
SOLID
  5
234
330
6F
100
AcDbEntity
  8
TOP_PASTE
100
AcDbTrace
 10
11.4425
 20
17.8007
 30
0.0
 11
10.2395
 21
18.8037
 31
0.0
 12
11.4425
 22
19.0007
 32
0.0
 13
10.4365
 23
19.0007
 33
0.0
  0
SOLID
  5
235
330
6F
100
AcDbEntity
  8
TOP_PASTE
100
AcDbTrace
 10
11.4425
 20
17.8007
 30
0.0
 11
11.4425
 21
19.0007
 31
0.0
 12
11.6395
 22
17.9977
 32
0.0
 13
11.6395
 23
18.8037
 33
0.0
  0
LWPOLYLINE
  5
236
330
6F
100
AcDbEntity
  8
TOP_PASTE
  6
Continuous
100
AcDbPolyline
 90
        3
 70
     0
 43
0.197
 10
10.338
 20
19.8977
 42
1.0
 10
10.535
 20
19.8977
 42
1.0
 10
10.338
 20
19.8977
 42
1.0
  0
LWPOLYLINE
  5
23B
330
6F
100
AcDbEntity
  8
TOP_PASTE
  6
Continuous
100
AcDbPolyline
 90
        3
 70
     0
 43
0.197
 10
10.338
 20
20.7037
 42
1.0
 10
10.535
 20
20.7037
 42
1.0
 10
10.338
 20
20.7037
 42
1.0
  0
LWPOLYLINE
  5
240
330
6F
100
AcDbEntity
  8
TOP_PASTE
  6
Continuous
100
AcDbPolyline
 90
        3
 70
     0
 43
0.197
 10
11.344
 20
20.7037
 42
1.0
 10
11.541
 20
20.7037
 42
1.0
 10
11.344
 20
20.7037
 42
1.0
  0
LWPOLYLINE
  5
245
330
6F
100
AcDbEntity
  8
TOP_PASTE
  6
Continuous
100
AcDbPolyline
 90
        3
 70
     0
 43
0.197
 10
11.344
 20
19.8977
 42
1.0
 10
11.541
 20
19.8977
 42
1.0
 10
11.344
 20
19.8977
 42
1.0
  0
SOLID
  5
24A
330
6F
100
AcDbEntity
  8
TOP_PASTE
100
AcDbTrace
 10
11.4425
 20
19.7007
 30
0.0
 11
10.4365
 21
19.7007
 31
0.0
 12
10.2395
 22
20.7037
 32
0.0
 13
10.2395
 23
19.8977
 33
0.0
  0
SOLID
  5
24B
330
6F
100
AcDbEntity
  8
TOP_PASTE
100
AcDbTrace
 10
11.4425
 20
19.7007
 30
0.0
 11
10.2395
 21
20.7037
 31
0.0
 12
11.4425
 22
20.9007
 32
0.0
 13
10.4365
 23
20.9007
 33
0.0
  0
SOLID
  5
24C
330
6F
100
AcDbEntity
  8
TOP_PASTE
100
AcDbTrace
 10
11.4425
 20
19.7007
 30
0.0
 11
11.4425
 21
20.9007
 31
0.0
 12
11.6395
 22
19.8977
 32
0.0
 13
11.6395
 23
20.7037
 33
0.0
  0
LWPOLYLINE
  5
24D
330
6F
100
AcDbEntity
  8
TOP_PASTE
  6
Continuous
100
AcDbPolyline
 90
        3
 70
     0
 43
0.197
 10
20.1795
 20
16.6904
 42
1.0
 10
20.3765
 20
16.6904
 42
1.0
 10
20.1795
 20
16.6904
 42
1.0
  0
LWPOLYLINE
  5
252
330
6F
100
AcDbEntity
  8
TOP_PASTE
  6
Continuous
100
AcDbPolyline
 90
        3
 70
     0
 43
0.197
 10
20.9855
 20
16.6904
 42
1.0
 10
21.1825
 20
16.6904
 42
1.0
 10
20.9855
 20
16.6904
 42
1.0
  0
LWPOLYLINE
  5
257
330
6F
100
AcDbEntity
  8
TOP_PASTE
  6
Continuous
100
AcDbPolyline
 90
        3
 70
     0
 43
0.197
 10
20.9855
 20
15.6844
 42
1.0
 10
21.1825
 20
15.6844
 42
1.0
 10
20.9855
 20
15.6844
 42
1.0
  0
LWPOLYLINE
  5
25C
330
6F
100
AcDbEntity
  8
TOP_PASTE
  6
Continuous
100
AcDbPolyline
 90
        3
 70
     0
 43
0.197
 10
20.1795
 20
15.6844
 42
1.0
 10
20.3765
 20
15.6844
 42
1.0
 10
20.1795
 20
15.6844
 42
1.0
  0
SOLID
  5
261
330
6F
100
AcDbEntity
  8
TOP_PASTE
100
AcDbTrace
 10
20.081
 20
15.6844
 30
0.0
 11
20.081
 21
16.6904
 31
0.0
 12
21.084
 22
16.8874
 32
0.0
 13
20.278
 23
16.8874
 33
0.0
  0
SOLID
  5
262
330
6F
100
AcDbEntity
  8
TOP_PASTE
100
AcDbTrace
 10
20.081
 20
15.6844
 30
0.0
 11
21.084
 21
16.8874
 31
0.0
 12
21.281
 22
15.6844
 32
0.0
 13
21.281
 23
16.6904
 33
0.0
  0
SOLID
  5
263
330
6F
100
AcDbEntity
  8
TOP_PASTE
100
AcDbTrace
 10
20.081
 20
15.6844
 30
0.0
 11
21.281
 21
15.6844
 31
0.0
 12
20.278
 22
15.4874
 32
0.0
 13
21.084
 23
15.4874
 33
0.0
  0
LWPOLYLINE
  5
264
330
6F
100
AcDbEntity
  8
TOP_PASTE
  6
Continuous
100
AcDbPolyline
 90
        3
 70
     0
 43
0.197
 10
22.0795
 20
16.6904
 42
1.0
 10
22.2765
 20
16.6904
 42
1.0
 10
22.0795
 20
16.6904
 42
1.0
  0
LWPOLYLINE
  5
269
330
6F
100
AcDbEntity
  8
TOP_PASTE
  6
Continuous
100
AcDbPolyline
 90
        3
 70
     0
 43
0.197
 10
22.8855
 20
16.6904
 42
1.0
 10
23.0825
 20
16.6904
 42
1.0
 10
22.8855
 20
16.6904
 42
1.0
  0
LWPOLYLINE
  5
26E
330
6F
100
AcDbEntity
  8
TOP_PASTE
  6
Continuous
100
AcDbPolyline
 90
        3
 70
     0
 43
0.197
 10
22.8855
 20
15.6844
 42
1.0
 10
23.0825
 20
15.6844
 42
1.0
 10
22.8855
 20
15.6844
 42
1.0
  0
LWPOLYLINE
  5
273
330
6F
100
AcDbEntity
  8
TOP_PASTE
  6
Continuous
100
AcDbPolyline
 90
        3
 70
     0
 43
0.197
 10
22.0795
 20
15.6844
 42
1.0
 10
22.2765
 20
15.6844
 42
1.0
 10
22.0795
 20
15.6844
 42
1.0
  0
SOLID
  5
278
330
6F
100
AcDbEntity
  8
TOP_PASTE
100
AcDbTrace
 10
21.981
 20
15.6844
 30
0.0
 11
21.981
 21
16.6904
 31
0.0
 12
22.984
 22
16.8874
 32
0.0
 13
22.178
 23
16.8874
 33
0.0
  0
SOLID
  5
279
330
6F
100
AcDbEntity
  8
TOP_PASTE
100
AcDbTrace
 10
21.981
 20
15.6844
 30
0.0
 11
22.984
 21
16.8874
 31
0.0
 12
23.181
 22
15.6844
 32
0.0
 13
23.181
 23
16.6904
 33
0.0
  0
SOLID
  5
27A
330
6F
100
AcDbEntity
  8
TOP_PASTE
100
AcDbTrace
 10
21.981
 20
15.6844
 30
0.0
 11
23.181
 21
15.6844
 31
0.0
 12
22.178
 22
15.4874
 32
0.0
 13
22.984
 23
15.4874
 33
0.0
  0
LWPOLYLINE
  5
27B
330
6F
100
AcDbEntity
  8
TOP_PASTE
  6
Continuous
100
AcDbPolyline
 90
        3
 70
     0
 43
0.197
 10
20.1795
 20
19.0037
 42
1.0
 10
20.3765
 20
19.0037
 42
1.0
 10
20.1795
 20
19.0037
 42
1.0
  0
LWPOLYLINE
  5
280
330
6F
100
AcDbEntity
  8
TOP_PASTE
  6
Continuous
100
AcDbPolyline
 90
        3
 70
     0
 43
0.197
 10
20.9855
 20
19.0037
 42
1.0
 10
21.1825
 20
19.0037
 42
1.0
 10
20.9855
 20
19.0037
 42
1.0
  0
LWPOLYLINE
  5
285
330
6F
100
AcDbEntity
  8
TOP_PASTE
  6
Continuous
100
AcDbPolyline
 90
        3
 70
     0
 43
0.197
 10
20.9855
 20
17.9977
 42
1.0
 10
21.1825
 20
17.9977
 42
1.0
 10
20.9855
 20
17.9977
 42
1.0
  0
LWPOLYLINE
  5
28A
330
6F
100
AcDbEntity
  8
TOP_PASTE
  6
Continuous
100
AcDbPolyline
 90
        3
 70
     0
 43
0.197
 10
20.1795
 20
17.9977
 42
1.0
 10
20.3765
 20
17.9977
 42
1.0
 10
20.1795
 20
17.9977
 42
1.0
  0
SOLID
  5
28F
330
6F
100
AcDbEntity
  8
TOP_PASTE
100
AcDbTrace
 10
20.081
 20
17.9977
 30
0.0
 11
20.081
 21
19.0037
 31
0.0
 12
21.084
 22
19.2007
 32
0.0
 13
20.278
 23
19.2007
 33
0.0
  0
SOLID
  5
290
330
6F
100
AcDbEntity
  8
TOP_PASTE
100
AcDbTrace
 10
20.081
 20
17.9977
 30
0.0
 11
21.084
 21
19.2007
 31
0.0
 12
21.281
 22
17.9977
 32
0.0
 13
21.281
 23
19.0037
 33
0.0
  0
SOLID
  5
291
330
6F
100
AcDbEntity
  8
TOP_PASTE
100
AcDbTrace
 10
20.081
 20
17.9977
 30
0.0
 11
21.281
 21
17.9977
 31
0.0
 12
20.278
 22
17.8007
 32
0.0
 13
21.084
 23
17.8007
 33
0.0
  0
LWPOLYLINE
  5
292
330
6F
100
AcDbEntity
  8
TOP_PASTE
  6
Continuous
100
AcDbPolyline
 90
        3
 70
     0
 43
0.197
 10
22.0795
 20
19.0037
 42
1.0
 10
22.2765
 20
19.0037
 42
1.0
 10
22.0795
 20
19.0037
 42
1.0
  0
LWPOLYLINE
  5
297
330
6F
100
AcDbEntity
  8
TOP_PASTE
  6
Continuous
100
AcDbPolyline
 90
        3
 70
     0
 43
0.197
 10
22.8855
 20
19.0037
 42
1.0
 10
23.0825
 20
19.0037
 42
1.0
 10
22.8855
 20
19.0037
 42
1.0
  0
LWPOLYLINE
  5
29C
330
6F
100
AcDbEntity
  8
TOP_PASTE
  6
Continuous
100
AcDbPolyline
 90
        3
 70
     0
 43
0.197
 10
22.8855
 20
17.9977
 42
1.0
 10
23.0825
 20
17.9977
 42
1.0
 10
22.8855
 20
17.9977
 42
1.0
  0
LWPOLYLINE
  5
2A1
330
6F
100
AcDbEntity
  8
TOP_PASTE
  6
Continuous
100
AcDbPolyline
 90
        3
 70
     0
 43
0.197
 10
22.0795
 20
17.9977
 42
1.0
 10
22.2765
 20
17.9977
 42
1.0
 10
22.0795
 20
17.9977
 42
1.0
  0
SOLID
  5
2A6
330
6F
100
AcDbEntity
  8
TOP_PASTE
100
AcDbTrace
 10
21.981
 20
17.9977
 30
0.0
 11
21.981
 21
19.0037
 31
0.0
 12
22.984
 22
19.2007
 32
0.0
 13
22.178
 23
19.2007
 33
0.0
  0
SOLID
  5
2A7
330
6F
100
AcDbEntity
  8
TOP_PASTE
100
AcDbTrace
 10
21.981
 20
17.9977
 30
0.0
 11
22.984
 21
19.2007
 31
0.0
 12
23.181
 22
17.9977
 32
0.0
 13
23.181
 23
19.0037
 33
0.0
  0
SOLID
  5
2A8
330
6F
100
AcDbEntity
  8
TOP_PASTE
100
AcDbTrace
 10
21.981
 20
17.9977
 30
0.0
 11
23.181
 21
17.9977
 31
0.0
 12
22.178
 22
17.8007
 32
0.0
 13
22.984
 23
17.8007
 33
0.0
  0
LWPOLYLINE
  5
2A9
330
6F
100
AcDbEntity
  8
TOP_PASTE
  6
Continuous
100
AcDbPolyline
 90
        3
 70
     0
 43
0.2
 10
22.7054
 20
21.7409
 42
1.0
 10
22.9054
 20
21.7409
 42
1.0
 10
22.7054
 20
21.7409
 42
1.0
  0
LWPOLYLINE
  5
2AE
330
6F
100
AcDbEntity
  8
TOP_PASTE
  6
Continuous
100
AcDbPolyline
 90
        3
 70
     0
 43
0.2
 10
22.1054
 20
21.7409
 42
1.0
 10
22.3054
 20
21.7409
 42
1.0
 10
22.1054
 20
21.7409
 42
1.0
  0
LWPOLYLINE
  5
2B3
330
6F
100
AcDbEntity
  8
TOP_PASTE
  6
Continuous
100
AcDbPolyline
 90
        3
 70
     0
 43
0.2
 10
22.1054
 20
22.2409
 42
1.0
 10
22.3054
 20
22.2409
 42
1.0
 10
22.1054
 20
22.2409
 42
1.0
  0
LWPOLYLINE
  5
2B8
330
6F
100
AcDbEntity
  8
TOP_PASTE
  6
Continuous
100
AcDbPolyline
 90
        3
 70
     0
 43
0.2
 10
22.7054
 20
22.2409
 42
1.0
 10
22.9054
 20
22.2409
 42
1.0
 10
22.7054
 20
22.2409
 42
1.0
  0
SOLID
  5
2BD
330
6F
100
AcDbEntity
  8
TOP_PASTE
100
AcDbTrace
 10
23.0054
 20
22.2409
 30
0.0
 11
23.0054
 21
21.7409
 31
0.0
 12
22.2054
 22
21.5409
 32
0.0
 13
22.8054
 23
21.5409
 33
0.0
  0
SOLID
  5
2BE
330
6F
100
AcDbEntity
  8
TOP_PASTE
100
AcDbTrace
 10
23.0054
 20
22.2409
 30
0.0
 11
22.2054
 21
21.5409
 31
0.0
 12
22.0054
 22
22.2409
 32
0.0
 13
22.0054
 23
21.7409
 33
0.0
  0
SOLID
  5
2BF
330
6F
100
AcDbEntity
  8
TOP_PASTE
100
AcDbTrace
 10
23.0054
 20
22.2409
 30
0.0
 11
22.0054
 21
22.2409
 31
0.0
 12
22.8054
 22
22.4409
 32
0.0
 13
22.2054
 23
22.4409
 33
0.0
  0
LWPOLYLINE
  5
2C0
330
6F
100
AcDbEntity
  8
TOP_PASTE
  6
Continuous
100
AcDbPolyline
 90
        3
 70
     0
 43
0.2
 10
21.0054
 20
21.7409
 42
1.0
 10
21.2054
 20
21.7409
 42
1.0
 10
21.0054
 20
21.7409
 42
1.0
  0
LWPOLYLINE
  5
2C5
330
6F
100
AcDbEntity
  8
TOP_PASTE
  6
Continuous
100
AcDbPolyline
 90
        3
 70
     0
 43
0.2
 10
20.4054
 20
21.7409
 42
1.0
 10
20.6054
 20
21.7409
 42
1.0
 10
20.4054
 20
21.7409
 42
1.0
  0
LWPOLYLINE
  5
2CA
330
6F
100
AcDbEntity
  8
TOP_PASTE
  6
Continuous
100
AcDbPolyline
 90
        3
 70
     0
 43
0.2
 10
20.4054
 20
22.2409
 42
1.0
 10
20.6054
 20
22.2409
 42
1.0
 10
20.4054
 20
22.2409
 42
1.0
  0
LWPOLYLINE
  5
2CF
330
6F
100
AcDbEntity
  8
TOP_PASTE
  6
Continuous
100
AcDbPolyline
 90
        3
 70
     0
 43
0.2
 10
21.0054
 20
22.2409
 42
1.0
 10
21.2054
 20
22.2409
 42
1.0
 10
21.0054
 20
22.2409
 42
1.0
  0
SOLID
  5
2D4
330
6F
100
AcDbEntity
  8
TOP_PASTE
100
AcDbTrace
 10
21.3054
 20
22.2409
 30
0.0
 11
21.3054
 21
21.7409
 31
0.0
 12
20.5054
 22
21.5409
 32
0.0
 13
21.1054
 23
21.5409
 33
0.0
  0
SOLID
  5
2D5
330
6F
100
AcDbEntity
  8
TOP_PASTE
100
AcDbTrace
 10
21.3054
 20
22.2409
 30
0.0
 11
20.5054
 21
21.5409
 31
0.0
 12
20.3054
 22
22.2409
 32
0.0
 13
20.3054
 23
21.7409
 33
0.0
  0
SOLID
  5
2D6
330
6F
100
AcDbEntity
  8
TOP_PASTE
100
AcDbTrace
 10
21.3054
 20
22.2409
 30
0.0
 11
20.3054
 21
22.2409
 31
0.0
 12
21.1054
 22
22.4409
 32
0.0
 13
20.5054
 23
22.4409
 33
0.0
  0
LWPOLYLINE
  5
2D7
330
6F
100
AcDbEntity
  8
TOP_PASTE
  6
Continuous
100
AcDbPolyline
 90
        3
 70
     0
 43
0.197
 10
15.1291
 20
17.9977
 42
1.0
 10
15.3261
 20
17.9977
 42
1.0
 10
15.1291
 20
17.9977
 42
1.0
  0
LWPOLYLINE
  5
2DC
330
6F
100
AcDbEntity
  8
TOP_PASTE
  6
Continuous
100
AcDbPolyline
 90
        3
 70
     0
 43
0.197
 10
14.3231
 20
17.9977
 42
1.0
 10
14.5201
 20
17.9977
 42
1.0
 10
14.3231
 20
17.9977
 42
1.0
  0
LWPOLYLINE
  5
2E1
330
6F
100
AcDbEntity
  8
TOP_PASTE
  6
Continuous
100
AcDbPolyline
 90
        3
 70
     0
 43
0.197
 10
14.3231
 20
19.0037
 42
1.0
 10
14.5201
 20
19.0037
 42
1.0
 10
14.3231
 20
19.0037
 42
1.0
  0
LWPOLYLINE
  5
2E6
330
6F
100
AcDbEntity
  8
TOP_PASTE
  6
Continuous
100
AcDbPolyline
 90
        3
 70
     0
 43
0.197
 10
15.1291
 20
19.0037
 42
1.0
 10
15.3261
 20
19.0037
 42
1.0
 10
15.1291
 20
19.0037
 42
1.0
  0
SOLID
  5
2EB
330
6F
100
AcDbEntity
  8
TOP_PASTE
100
AcDbTrace
 10
15.4246
 20
19.0037
 30
0.0
 11
15.4246
 21
17.9977
 31
0.0
 12
14.4216
 22
17.8007
 32
0.0
 13
15.2276
 23
17.8007
 33
0.0
  0
SOLID
  5
2EC
330
6F
100
AcDbEntity
  8
TOP_PASTE
100
AcDbTrace
 10
15.4246
 20
19.0037
 30
0.0
 11
14.4216
 21
17.8007
 31
0.0
 12
14.2246
 22
19.0037
 32
0.0
 13
14.2246
 23
17.9977
 33
0.0
  0
SOLID
  5
2ED
330
6F
100
AcDbEntity
  8
TOP_PASTE
100
AcDbTrace
 10
15.4246
 20
19.0037
 30
0.0
 11
14.2246
 21
19.0037
 31
0.0
 12
15.2276
 22
19.2007
 32
0.0
 13
14.4216
 23
19.2007
 33
0.0
  0
LWPOLYLINE
  5
2EE
330
6F
100
AcDbEntity
  8
TOP_PASTE
  6
Continuous
100
AcDbPolyline
 90
        3
 70
     0
 43
0.197
 10
13.2291
 20
17.9977
 42
1.0
 10
13.4261
 20
17.9977
 42
1.0
 10
13.2291
 20
17.9977
 42
1.0
  0
LWPOLYLINE
  5
2F3
330
6F
100
AcDbEntity
  8
TOP_PASTE
  6
Continuous
100
AcDbPolyline
 90
        3
 70
     0
 43
0.197
 10
12.4231
 20
17.9977
 42
1.0
 10
12.6201
 20
17.9977
 42
1.0
 10
12.4231
 20
17.9977
 42
1.0
  0
LWPOLYLINE
  5
2F8
330
6F
100
AcDbEntity
  8
TOP_PASTE
  6
Continuous
100
AcDbPolyline
 90
        3
 70
     0
 43
0.197
 10
12.4231
 20
19.0037
 42
1.0
 10
12.6201
 20
19.0037
 42
1.0
 10
12.4231
 20
19.0037
 42
1.0
  0
LWPOLYLINE
  5
2FD
330
6F
100
AcDbEntity
  8
TOP_PASTE
  6
Continuous
100
AcDbPolyline
 90
        3
 70
     0
 43
0.197
 10
13.2291
 20
19.0037
 42
1.0
 10
13.4261
 20
19.0037
 42
1.0
 10
13.2291
 20
19.0037
 42
1.0
  0
SOLID
  5
302
330
6F
100
AcDbEntity
  8
TOP_PASTE
100
AcDbTrace
 10
13.5246
 20
19.0037
 30
0.0
 11
13.5246
 21
17.9977
 31
0.0
 12
12.5216
 22
17.8007
 32
0.0
 13
13.3276
 23
17.8007
 33
0.0
  0
SOLID
  5
303
330
6F
100
AcDbEntity
  8
TOP_PASTE
100
AcDbTrace
 10
13.5246
 20
19.0037
 30
0.0
 11
12.5216
 21
17.8007
 31
0.0
 12
12.3246
 22
19.0037
 32
0.0
 13
12.3246
 23
17.9977
 33
0.0
  0
SOLID
  5
304
330
6F
100
AcDbEntity
  8
TOP_PASTE
100
AcDbTrace
 10
13.5246
 20
19.0037
 30
0.0
 11
12.3246
 21
19.0037
 31
0.0
 12
13.3276
 22
19.2007
 32
0.0
 13
12.5216
 23
19.2007
 33
0.0
  0
LWPOLYLINE
  5
305
330
6F
100
AcDbEntity
  8
TOP_PASTE
  6
Continuous
100
AcDbPolyline
 90
        3
 70
     0
 43
0.197
 10
16.1778
 20
19.0037
 42
1.0
 10
16.3748
 20
19.0037
 42
1.0
 10
16.1778
 20
19.0037
 42
1.0
  0
LWPOLYLINE
  5
30A
330
6F
100
AcDbEntity
  8
TOP_PASTE
  6
Continuous
100
AcDbPolyline
 90
        3
 70
     0
 43
0.197
 10
16.9838
 20
19.0037
 42
1.0
 10
17.1808
 20
19.0037
 42
1.0
 10
16.9838
 20
19.0037
 42
1.0
  0
LWPOLYLINE
  5
30F
330
6F
100
AcDbEntity
  8
TOP_PASTE
  6
Continuous
100
AcDbPolyline
 90
        3
 70
     0
 43
0.197
 10
16.9838
 20
17.9977
 42
1.0
 10
17.1808
 20
17.9977
 42
1.0
 10
16.9838
 20
17.9977
 42
1.0
  0
LWPOLYLINE
  5
314
330
6F
100
AcDbEntity
  8
TOP_PASTE
  6
Continuous
100
AcDbPolyline
 90
        3
 70
     0
 43
0.197
 10
16.1778
 20
17.9977
 42
1.0
 10
16.3748
 20
17.9977
 42
1.0
 10
16.1778
 20
17.9977
 42
1.0
  0
SOLID
  5
319
330
6F
100
AcDbEntity
  8
TOP_PASTE
100
AcDbTrace
 10
16.0793
 20
17.9977
 30
0.0
 11
16.0793
 21
19.0037
 31
0.0
 12
17.0823
 22
19.2007
 32
0.0
 13
16.2763
 23
19.2007
 33
0.0
  0
SOLID
  5
31A
330
6F
100
AcDbEntity
  8
TOP_PASTE
100
AcDbTrace
 10
16.0793
 20
17.9977
 30
0.0
 11
17.0823
 21
19.2007
 31
0.0
 12
17.2793
 22
17.9977
 32
0.0
 13
17.2793
 23
19.0037
 33
0.0
  0
SOLID
  5
31B
330
6F
100
AcDbEntity
  8
TOP_PASTE
100
AcDbTrace
 10
16.0793
 20
17.9977
 30
0.0
 11
17.2793
 21
17.9977
 31
0.0
 12
16.2763
 22
17.8007
 32
0.0
 13
17.0823
 23
17.8007
 33
0.0
  0
LWPOLYLINE
  5
31C
330
6F
100
AcDbEntity
  8
TOP_PASTE
  6
Continuous
100
AcDbPolyline
 90
        3
 70
     0
 43
0.197
 10
18.0778
 20
19.0037
 42
1.0
 10
18.2748
 20
19.0037
 42
1.0
 10
18.0778
 20
19.0037
 42
1.0
  0
LWPOLYLINE
  5
321
330
6F
100
AcDbEntity
  8
TOP_PASTE
  6
Continuous
100
AcDbPolyline
 90
        3
 70
     0
 43
0.197
 10
18.8838
 20
19.0037
 42
1.0
 10
19.0808
 20
19.0037
 42
1.0
 10
18.8838
 20
19.0037
 42
1.0
  0
LWPOLYLINE
  5
326
330
6F
100
AcDbEntity
  8
TOP_PASTE
  6
Continuous
100
AcDbPolyline
 90
        3
 70
     0
 43
0.197
 10
18.8838
 20
17.9977
 42
1.0
 10
19.0808
 20
17.9977
 42
1.0
 10
18.8838
 20
17.9977
 42
1.0
  0
LWPOLYLINE
  5
32B
330
6F
100
AcDbEntity
  8
TOP_PASTE
  6
Continuous
100
AcDbPolyline
 90
        3
 70
     0
 43
0.197
 10
18.0778
 20
17.9977
 42
1.0
 10
18.2748
 20
17.9977
 42
1.0
 10
18.0778
 20
17.9977
 42
1.0
  0
SOLID
  5
330
330
6F
100
AcDbEntity
  8
TOP_PASTE
100
AcDbTrace
 10
17.9793
 20
17.9977
 30
0.0
 11
17.9793
 21
19.0037
 31
0.0
 12
18.9823
 22
19.2007
 32
0.0
 13
18.1763
 23
19.2007
 33
0.0
  0
SOLID
  5
331
330
6F
100
AcDbEntity
  8
TOP_PASTE
100
AcDbTrace
 10
17.9793
 20
17.9977
 30
0.0
 11
18.9823
 21
19.2007
 31
0.0
 12
19.1793
 22
17.9977
 32
0.0
 13
19.1793
 23
19.0037
 33
0.0
  0
SOLID
  5
332
330
6F
100
AcDbEntity
  8
TOP_PASTE
100
AcDbTrace
 10
17.9793
 20
17.9977
 30
0.0
 11
19.1793
 21
17.9977
 31
0.0
 12
18.1763
 22
17.8007
 32
0.0
 13
18.9823
 23
17.8007
 33
0.0
  0
LWPOLYLINE
  5
333
330
6F
100
AcDbEntity
  8
TOP_PASTE
  6
Continuous
100
AcDbPolyline
 90
        3
 70
     0
 43
0.197
 10
20.4394
 20
6.0288
 42
1.0
 10
20.6364
 20
6.0288
 42
1.0
 10
20.4394
 20
6.0288
 42
1.0
  0
LWPOLYLINE
  5
338
330
6F
100
AcDbEntity
  8
TOP_PASTE
  6
Continuous
100
AcDbPolyline
 90
        3
 70
     0
 43
0.197
 10
21.2454
 20
6.0288
 42
1.0
 10
21.4424
 20
6.0288
 42
1.0
 10
21.2454
 20
6.0288
 42
1.0
  0
LWPOLYLINE
  5
33D
330
6F
100
AcDbEntity
  8
TOP_PASTE
  6
Continuous
100
AcDbPolyline
 90
        3
 70
     0
 43
0.197
 10
21.2454
 20
5.0228
 42
1.0
 10
21.4424
 20
5.0228
 42
1.0
 10
21.2454
 20
5.0228
 42
1.0
  0
LWPOLYLINE
  5
342
330
6F
100
AcDbEntity
  8
TOP_PASTE
  6
Continuous
100
AcDbPolyline
 90
        3
 70
     0
 43
0.197
 10
20.4394
 20
5.0228
 42
1.0
 10
20.6364
 20
5.0228
 42
1.0
 10
20.4394
 20
5.0228
 42
1.0
  0
SOLID
  5
347
330
6F
100
AcDbEntity
  8
TOP_PASTE
100
AcDbTrace
 10
20.3409
 20
5.0228
 30
0.0
 11
20.3409
 21
6.0288
 31
0.0
 12
21.3439
 22
6.225799999999999
 32
0.0
 13
20.5379
 23
6.225799999999999
 33
0.0
  0
SOLID
  5
348
330
6F
100
AcDbEntity
  8
TOP_PASTE
100
AcDbTrace
 10
20.3409
 20
5.0228
 30
0.0
 11
21.3439
 21
6.225799999999999
 31
0.0
 12
21.5409
 22
5.0228
 32
0.0
 13
21.5409
 23
6.0288
 33
0.0
  0
SOLID
  5
349
330
6F
100
AcDbEntity
  8
TOP_PASTE
100
AcDbTrace
 10
20.3409
 20
5.0228
 30
0.0
 11
21.5409
 21
5.0228
 31
0.0
 12
20.5379
 22
4.8258
 32
0.0
 13
21.3439
 23
4.8258
 33
0.0
  0
LWPOLYLINE
  5
34A
330
6F
100
AcDbEntity
  8
TOP_PASTE
  6
Continuous
100
AcDbPolyline
 90
        3
 70
     0
 43
0.197
 10
22.3394
 20
6.0288
 42
1.0
 10
22.5364
 20
6.0288
 42
1.0
 10
22.3394
 20
6.0288
 42
1.0
  0
LWPOLYLINE
  5
34F
330
6F
100
AcDbEntity
  8
TOP_PASTE
  6
Continuous
100
AcDbPolyline
 90
        3
 70
     0
 43
0.197
 10
23.1454
 20
6.0288
 42
1.0
 10
23.3424
 20
6.0288
 42
1.0
 10
23.1454
 20
6.0288
 42
1.0
  0
LWPOLYLINE
  5
354
330
6F
100
AcDbEntity
  8
TOP_PASTE
  6
Continuous
100
AcDbPolyline
 90
        3
 70
     0
 43
0.197
 10
23.1454
 20
5.0228
 42
1.0
 10
23.3424
 20
5.0228
 42
1.0
 10
23.1454
 20
5.0228
 42
1.0
  0
LWPOLYLINE
  5
359
330
6F
100
AcDbEntity
  8
TOP_PASTE
  6
Continuous
100
AcDbPolyline
 90
        3
 70
     0
 43
0.197
 10
22.3394
 20
5.0228
 42
1.0
 10
22.5364
 20
5.0228
 42
1.0
 10
22.3394
 20
5.0228
 42
1.0
  0
SOLID
  5
35E
330
6F
100
AcDbEntity
  8
TOP_PASTE
100
AcDbTrace
 10
22.2409
 20
5.0228
 30
0.0
 11
22.2409
 21
6.0288
 31
0.0
 12
23.2439
 22
6.225799999999999
 32
0.0
 13
22.4379
 23
6.225799999999999
 33
0.0
  0
SOLID
  5
35F
330
6F
100
AcDbEntity
  8
TOP_PASTE
100
AcDbTrace
 10
22.2409
 20
5.0228
 30
0.0
 11
23.2439
 21
6.225799999999999
 31
0.0
 12
23.4409
 22
5.0228
 32
0.0
 13
23.4409
 23
6.0288
 33
0.0
  0
SOLID
  5
360
330
6F
100
AcDbEntity
  8
TOP_PASTE
100
AcDbTrace
 10
22.2409
 20
5.0228
 30
0.0
 11
23.4409
 21
5.0228
 31
0.0
 12
22.4379
 22
4.8258
 32
0.0
 13
23.2439
 23
4.8258
 33
0.0
  0
SOLID
  5
361
330
6F
100
AcDbEntity
  8
TOP_PASTE
100
AcDbTrace
 10
13.598
 20
10.6804
 30
0.0
 11
14.698
 21
10.6804
 31
0.0
 12
13.598
 22
8.580399999999999
 32
0.0
 13
14.698
 23
8.580399999999999
 33
0.0
  0
SOLID
  5
362
330
6F
100
AcDbEntity
  8
TOP_PASTE
100
AcDbTrace
 10
15.898
 20
10.6804
 30
0.0
 11
16.998
 21
10.6804
 31
0.0
 12
15.898
 22
8.580399999999999
 32
0.0
 13
16.998
 23
8.580399999999999
 33
0.0
  0
SOLID
  5
363
330
6F
100
AcDbEntity
  8
TOP_PASTE
100
AcDbTrace
 10
18.198
 20
10.6804
 30
0.0
 11
19.298
 21
10.6804
 31
0.0
 12
18.198
 22
8.580399999999999
 32
0.0
 13
19.298
 23
8.580399999999999
 33
0.0
  0
SOLID
  5
364
330
6F
100
AcDbEntity
  8
TOP_PASTE
100
AcDbTrace
 10
14.748
 20
16.8804
 30
0.0
 11
18.148
 21
16.8804
 31
0.0
 12
14.748
 22
14.7804
 32
0.0
 13
18.148
 23
14.7804
 33
0.0
  0
LWPOLYLINE
  5
36E
330
6F
100
AcDbEntity
  8
0
100
AcDbPolyline
 90
        4
 70
     1
 43
0.0
 10
-33.80865836384055
 20
74.89620340043308
 10
66.82000709515182
 20
74.89620340043308
 10
66.82000709515182
 20
-24.7932136586316
 10
-33.80865836384055
 20
-24.7932136586316
  0
ENDSEC
  0
SECTION
  2
OBJECTS
  0
DICTIONARY
  5
C
330
0
100
AcDbDictionary
281
     1
  3
ACAD_CIP_PREVIOUS_PRODUCT_INFO
350
366
  3
ACAD_COLOR
350
62
  3
ACAD_DETAILVIEWSTYLE
350
69
  3
ACAD_GROUP
350
D
  3
ACAD_LAST_SAVED_VERSION_INFO
350
36F
  3
ACAD_LAYOUT
350
61
  3
ACAD_MATERIAL
350
10
  3
ACAD_MLEADERSTYLE
350
65
  3
ACAD_MLINESTYLE
350
5E
  3
ACAD_PLOTSETTINGS
350
60
  3
ACAD_PLOTSTYLENAME
350
E
  3
ACAD_SCALELIST
350
42
  3
ACAD_SECTIONVIEWSTYLE
350
67
  3
ACAD_TABLESTYLE
350
63
  3
ACAD_VISUALSTYLE
350
29
  3
ACDB_RECOMPOSE_DATA
350
381
  3
AcDbVariableDictionary
350
374
  0
DICTIONARY
  5
370
330
54
100
AcDbDictionary
280
     1
281
     1
  3
ADSK_XREC_LAYER_RECONCILED
360
371
  0
DICTIONARY
  5
372
330
73
100
AcDbDictionary
280
     1
281
     1
  3
ADSK_XREC_LAYER_RECONCILED
360
373
  0
XRECORD
  5
366
102
{ACAD_REACTORS
330
C
102
}
330
C
100
AcDbXrecord
280
     1
300
ACD
300
2024
300

  0
DICTIONARY
  5
62
102
{ACAD_REACTORS
330
C
102
}
330
C
100
AcDbDictionary
281
     1
  0
DICTIONARY
  5
69
102
{ACAD_REACTORS
330
C
102
}
330
C
100
AcDbDictionary
281
     1
  3
Imperial24
350
6A
  0
DICTIONARY
  5
D
102
{ACAD_REACTORS
330
C
102
}
330
C
100
AcDbDictionary
281
     1
  0
XRECORD
  5
36F
102
{ACAD_REACTORS
330
C
102
}
330
C
100
AcDbXrecord
280
     1
300
{177AFB65-B65D-9B4D-8CA3-A26B8859A9E4}
301
{D7F74CBB-B840-1D48-88C7-6EF8D2B9AC5E}
302
{177AFB65-B65D-9B4D-8CA3-A26B8859A9E4}
303
C:\Users\ellix\Documents Local\pipyns.github.io\ee\ppcb paste w box.dxf
  0
DICTIONARY
  5
61
102
{ACAD_REACTORS
330
C
102
}
330
C
100
AcDbDictionary
281
     1
  3
Layout1
350
6E
  3
Model
350
72
  0
DICTIONARY
  5
10
102
{ACAD_REACTORS
330
C
102
}
330
C
100
AcDbDictionary
281
     1
  3
ByBlock
350
19
  3
ByLayer
350
11
  3
Global
350
21
  0
DICTIONARY
  5
65
102
{ACAD_REACTORS
330
C
102
}
330
C
100
AcDbDictionary
281
     1
  3
Standard
350
66
  0
DICTIONARY
  5
5E
102
{ACAD_REACTORS
330
C
102
}
330
C
100
AcDbDictionary
281
     1
  3
Standard
350
5F
  0
DICTIONARY
  5
60
102
{ACAD_REACTORS
330
C
102
}
330
C
100
AcDbDictionary
281
     1
  0
ACDBDICTIONARYWDFLT
  5
E
102
{ACAD_REACTORS
330
C
102
}
330
C
100
AcDbDictionary
281
     1
  3
Normal
350
F
100
AcDbDictionaryWithDefault
340
F
  0
DICTIONARY
  5
42
102
{ACAD_REACTORS
330
C
102
}
330
C
100
AcDbDictionary
281
     1
  3
A0
350
43
  3
A1
350
44
  3
A2
350
45
  3
A3
350
46
  3
A4
350
47
  3
A5
350
48
  3
A6
350
49
  3
A7
350
4A
  3
A8
350
4B
  3
A9
350
4C
  3
B0
350
4D
  3
B1
350
4E
  3
B2
350
4F
  3
B3
350
50
  3
B4
350
51
  3
B5
350
52
  3
B6
350
53
  0
DICTIONARY
  5
67
102
{ACAD_REACTORS
330
C
102
}
330
C
100
AcDbDictionary
281
     1
  3
Imperial24
350
68
  0
DICTIONARY
  5
63
102
{ACAD_REACTORS
330
C
102
}
330
C
100
AcDbDictionary
281
     1
  3
Standard
350
64
  0
DICTIONARY
  5
29
102
{ACAD_REACTORS
330
C
102
}
330
C
100
AcDbDictionary
281
     1
  3
2dWireframe
350
2F
  3
Basic
350
2E
  3
Brighten
350
35
  3
ColorChange
350
39
  3
Conceptual
350
32
  3
Dim
350
34
  3
EdgeColorOff
350
41
  3
Facepattern
350
38
  3
Flat
350
2A
  3
FlatWithEdges
350
2B
  3
Gouraud
350
2C
  3
GouraudWithEdges
350
2D
  3
Hidden
350
31
  3
JitterOff
350
3F
  3
Linepattern
350
37
  3
OverhangOff
350
40
  3
Realistic
350
33
  3
Shaded
350
3E
  3
Shaded with edges
350
3D
  3
Shades of Gray
350
3A
  3
Sketchy
350
3B
  3
Thicken
350
36
  3
Wireframe
350
30
  3
X-Ray
350
3C
  0
XRECORD
  5
381
102
{ACAD_REACTORS
330
C
102
}
330
C
100
AcDbXrecord
280
     1
 90
        1
330
64
  0
DICTIONARY
  5
374
102
{ACAD_REACTORS
330
C
102
}
330
C
100
AcDbDictionary
281
     1
  3
CANNOSCALE
350
37A
  3
CMLEADERSTYLE
350
376
  3
CTABLESTYLE
350
375
  3
CVIEWDETAILSTYLE
350
377
  3
CVIEWSECTIONSTYLE
350
378
  3
LAYEREVAL
350
37C
  3
LAYERNOTIFY
350
37D
  3
LIGHTINGUNITS
350
37B
  3
MSLTSCALE
350
379
  0
XRECORD
  5
371
102
{ACAD_REACTORS
330
370
102
}
330
370
100
AcDbXrecord
280
     1
290
     1
  0
XRECORD
  5
373
102
{ACAD_REACTORS
330
372
102
}
330
372
100
AcDbXrecord
280
     1
290
     1
  0
ACDBDETAILVIEWSTYLE
  5
6A
102
{ACAD_REACTORS
330
69
102
}
330
69
100
AcDbModelDocViewStyle
 70
     0
  3
Imperial24
290
     0
300
Imperial24
 90
        0
100
AcDbDetailViewStyle
 70
     0
 71
     0
 90
        3
 71
     1
340
55
 62
   256
 40
0.24
340
0
 62
   256
 40
0.24
300

 40
0.36
280
     3
 71
     2
340
5C
 90
       25
 62
   256
 71
     3
340
55
 62
   256
 40
0.24
 90
        1
 40
0.75
 90
        1
300
%<\AcVar ViewType \f "%tc1">% %<\AcVar ViewDetailId>%\PSCALE %<\AcVar ViewScale \f "%sn">%
 71
     4
340
5C
 90
       25
 62
   256
340
5C
 90
       25
 62
   256
280
     0
  0
LAYOUT
  5
6E
102
{ACAD_REACTORS
330
61
102
}
330
61
100
AcDbPlotSettings
  1

  2
Microsoft Print to PDF
  4

  6

 40
0.0
 41
0.0
 42
0.0
 43
0.0
 44
0.0
 45
0.0
 46
0.0
 47
0.0
 48
0.0
 49
0.0
140
0.0
141
0.0
142
1.0
143
1.0
 70
   688
 72
     0
 73
     0
 74
     5
  7

 75
    16
147
1.0
 76
     0
 77
     2
 78
   300
148
0.0
149
0.0
100
AcDbLayout
  1
Layout1
 70
     1
 71
     1
 10
0.0
 20
0.0
 11
12.0
 21
9.0
 12
0.0
 22
0.0
 32
0.0
 14
1.000000000000000E+20
 24
1.000000000000000E+20
 34
1.000000000000000E+20
 15
-1.000000000000000E+20
 25
-1.000000000000000E+20
 35
-1.000000000000000E+20
146
0.0
 13
0.0
 23
0.0
 33
0.0
 16
1.0
 26
0.0
 36
0.0
 17
0.0
 27
1.0
 37
0.0
 76
     0
330
6B
  0
LAYOUT
  5
72
102
{ACAD_REACTORS
330
61
102
}
330
61
100
AcDbPlotSettings
  1

  2
Microsoft Print to PDF
  4

  6

 40
0.0
 41
0.0
 42
0.0
 43
0.0
 44
0.0
 45
0.0
 46
0.0
 47
0.0
 48
0.0
 49
0.0
140
0.0
141
0.0
142
1.0
143
1.0
 70
  1712
 72
     0
 73
     0
 74
     0
  7

 75
     0
147
1.0
 76
     0
 77
     2
 78
   300
148
0.0
149
0.0
100
AcDbLayout
  1
Model
 70
     1
 71
     0
 10
0.0
 20
0.0
 11
12.0
 21
9.0
 12
0.0
 22
0.0
 32
0.0
 14
0.0
 24
0.0
 34
0.0
 15
0.0
 25
0.0
 35
0.0
146
0.0
 13
0.0
 23
0.0
 33
0.0
 16
1.0
 26
0.0
 36
0.0
 17
0.0
 27
1.0
 37
0.0
 76
     0
330
6F
331
75
  0
MATERIAL
  5
19
102
{ACAD_XDICTIONARY
360
1A
102
}
102
{ACAD_REACTORS
330
10
102
}
330
10
100
AcDbMaterial
  1
ByBlock
 72
     0
 43
0.0208333333333333
 43
0.0
 43
0.0
 43
0.0
 43
0.0
 43
0.0208333333333333
 43
0.0
 43
0.0
 43
0.0
 43
0.0
 43
1.0
 43
0.0
 43
0.0
 43
0.0
 43
0.0
 43
1.0
 77
     0
 47
0.0208333333333333
 47
0.0
 47
0.0
 47
0.0
 47
0.0
 47
0.0208333333333333
 47
0.0
 47
0.0
 47
0.0
 47
0.0
 47
1.0
 47
0.0
 47
0.0
 47
0.0
 47
0.0
 47
1.0
171
     0
 49
0.0208333333333333
 49
0.0
 49
0.0
 49
0.0
 49
0.0
 49
0.0208333333333333
 49
0.0
 49
0.0
 49
0.0
 49
0.0
 49
1.0
 49
0.0
 49
0.0
 49
0.0
 49
0.0
 49
1.0
175
     0
142
0.0208333333333333
142
0.0
142
0.0
142
0.0
142
0.0
142
0.0208333333333333
142
0.0
142
0.0
142
0.0
142
0.0
142
1.0
142
0.0
142
0.0
142
0.0
142
0.0
142
1.0
179
     0
144
0.0208333333333333
144
0.0
144
0.0
144
0.0
144
0.0
144
0.0208333333333333
144
0.0
144
0.0
144
0.0
144
0.0
144
1.0
144
0.0
144
0.0
144
0.0
144
0.0
144
1.0
147
0.0208333333333333
147
0.0
147
0.0
147
0.0
147
0.0
147
0.0208333333333333
147
0.0
147
0.0
147
0.0
147
0.0
147
1.0
147
0.0
147
0.0
147
0.0
147
0.0
147
1.0
  0
MATERIAL
  5
11
102
{ACAD_XDICTIONARY
360
12
102
}
102
{ACAD_REACTORS
330
10
102
}
330
10
100
AcDbMaterial
  1
ByLayer
 72
     0
 43
0.0208333333333333
 43
0.0
 43
0.0
 43
0.0
 43
0.0
 43
0.0208333333333333
 43
0.0
 43
0.0
 43
0.0
 43
0.0
 43
1.0
 43
0.0
 43
0.0
 43
0.0
 43
0.0
 43
1.0
 77
     0
 47
0.0208333333333333
 47
0.0
 47
0.0
 47
0.0
 47
0.0
 47
0.0208333333333333
 47
0.0
 47
0.0
 47
0.0
 47
0.0
 47
1.0
 47
0.0
 47
0.0
 47
0.0
 47
0.0
 47
1.0
171
     0
 49
0.0208333333333333
 49
0.0
 49
0.0
 49
0.0
 49
0.0
 49
0.0208333333333333
 49
0.0
 49
0.0
 49
0.0
 49
0.0
 49
1.0
 49
0.0
 49
0.0
 49
0.0
 49
0.0
 49
1.0
175
     0
142
0.0208333333333333
142
0.0
142
0.0
142
0.0
142
0.0
142
0.0208333333333333
142
0.0
142
0.0
142
0.0
142
0.0
142
1.0
142
0.0
142
0.0
142
0.0
142
0.0
142
1.0
179
     0
144
0.0208333333333333
144
0.0
144
0.0
144
0.0
144
0.0
144
0.0208333333333333
144
0.0
144
0.0
144
0.0
144
0.0
144
1.0
144
0.0
144
0.0
144
0.0
144
0.0
144
1.0
147
0.0208333333333333
147
0.0
147
0.0
147
0.0
147
0.0
147
0.0208333333333333
147
0.0
147
0.0
147
0.0
147
0.0
147
1.0
147
0.0
147
0.0
147
0.0
147
0.0
147
1.0
  0
MATERIAL
  5
21
102
{ACAD_XDICTIONARY
360
22
102
}
102
{ACAD_REACTORS
330
10
102
}
330
10
100
AcDbMaterial
  1
Global
 72
     0
 43
0.0208333333333333
 43
0.0
 43
0.0
 43
0.0
 43
0.0
 43
0.0208333333333333
 43
0.0
 43
0.0
 43
0.0
 43
0.0
 43
1.0
 43
0.0
 43
0.0
 43
0.0
 43
0.0
 43
1.0
 77
     0
 47
0.0208333333333333
 47
0.0
 47
0.0
 47
0.0
 47
0.0
 47
0.0208333333333333
 47
0.0
 47
0.0
 47
0.0
 47
0.0
 47
1.0
 47
0.0
 47
0.0
 47
0.0
 47
0.0
 47
1.0
171
     0
 49
0.0208333333333333
 49
0.0
 49
0.0
 49
0.0
 49
0.0
 49
0.0208333333333333
 49
0.0
 49
0.0
 49
0.0
 49
0.0
 49
1.0
 49
0.0
 49
0.0
 49
0.0
 49
0.0
 49
1.0
175
     0
142
0.0208333333333333
142
0.0
142
0.0
142
0.0
142
0.0
142
0.0208333333333333
142
0.0
142
0.0
142
0.0
142
0.0
142
1.0
142
0.0
142
0.0
142
0.0
142
0.0
142
1.0
179
     0
144
0.0208333333333333
144
0.0
144
0.0
144
0.0
144
0.0
144
0.0208333333333333
144
0.0
144
0.0
144
0.0
144
0.0
144
1.0
144
0.0
144
0.0
144
0.0
144
0.0
144
1.0
147
0.0208333333333333
147
0.0
147
0.0
147
0.0
147
0.0
147
0.0208333333333333
147
0.0
147
0.0
147
0.0
147
0.0
147
1.0
147
0.0
147
0.0
147
0.0
147
0.0
147
1.0
  0
MLEADERSTYLE
  5
66
102
{ACAD_REACTORS
330
65
102
}
330
65
100
AcDbMLeaderStyle
179
     2
170
     2
171
     1
172
     0
 90
        2
 40
0.0
 41
0.0
173
     1
 91
-1056964608
340
5A
 92
       -2
290
     1
 42
0.09
291
     1
 43
0.36
  3
Standard
 44
0.18
300

342
55
174
     1
178
     6
175
     1
176
     0
 93
-1056964608
 45
0.18
292
     0
297
     0
 46
0.18
 94
-1056964608
 47
1.0
 49
1.0
140
1.0
293
     1
141
0.0
294
     1
177
     0
142
1.0
295
     0
296
     0
143
0.125
271
     0
272
     9
273
     9
298
     0
  0
MLINESTYLE
  5
5F
102
{ACAD_REACTORS
330
5E
102
}
330
5E
100
AcDbMlineStyle
  2
STANDARD
 70
     0
  3

 62
   256
 51
90.0
 52
90.0
 71
     2
 49
0.5
 62
   256
  6
BYLAYER
 49
-0.5
 62
   256
  6
BYLAYER
  0
ACDBPLACEHOLDER
  5
F
102
{ACAD_REACTORS
330
E
102
}
330
E
  0
SCALE
  5
43
102
{ACAD_REACTORS
330
42
102
}
330
42
100
AcDbScale
 70
     0
300
1:1
140
1.0
141
1.0
290
     1
  0
SCALE
  5
44
102
{ACAD_REACTORS
330
42
102
}
330
42
100
AcDbScale
 70
     0
300
1/128" = 1'-0"
140
0.0078125
141
12.0
290
     0
  0
SCALE
  5
45
102
{ACAD_REACTORS
330
42
102
}
330
42
100
AcDbScale
 70
     0
300
1/64" = 1'-0"
140
0.015625
141
12.0
290
     0
  0
SCALE
  5
46
102
{ACAD_REACTORS
330
42
102
}
330
42
100
AcDbScale
 70
     0
300
1/32" = 1'-0"
140
0.03125
141
12.0
290
     0
  0
SCALE
  5
47
102
{ACAD_REACTORS
330
42
102
}
330
42
100
AcDbScale
 70
     0
300
1/16" = 1'-0"
140
0.0625
141
12.0
290
     0
  0
SCALE
  5
48
102
{ACAD_REACTORS
330
42
102
}
330
42
100
AcDbScale
 70
     0
300
3/32" = 1'-0"
140
0.09375
141
12.0
290
     0
  0
SCALE
  5
49
102
{ACAD_REACTORS
330
42
102
}
330
42
100
AcDbScale
 70
     0
300
1/8" = 1'-0"
140
0.125
141
12.0
290
     0
  0
SCALE
  5
4A
102
{ACAD_REACTORS
330
42
102
}
330
42
100
AcDbScale
 70
     0
300
3/16" = 1'-0"
140
0.1875
141
12.0
290
     0
  0
SCALE
  5
4B
102
{ACAD_REACTORS
330
42
102
}
330
42
100
AcDbScale
 70
     0
300
1/4" = 1'-0"
140
0.25
141
12.0
290
     0
  0
SCALE
  5
4C
102
{ACAD_REACTORS
330
42
102
}
330
42
100
AcDbScale
 70
     0
300
3/8" = 1'-0"
140
0.375
141
12.0
290
     0
  0
SCALE
  5
4D
102
{ACAD_REACTORS
330
42
102
}
330
42
100
AcDbScale
 70
     0
300
1/2" = 1'-0"
140
0.5
141
12.0
290
     0
  0
SCALE
  5
4E
102
{ACAD_REACTORS
330
42
102
}
330
42
100
AcDbScale
 70
     0
300
3/4" = 1'-0"
140
0.75
141
12.0
290
     0
  0
SCALE
  5
4F
102
{ACAD_REACTORS
330
42
102
}
330
42
100
AcDbScale
 70
     0
300
1" = 1'-0"
140
1.0
141
12.0
290
     0
  0
SCALE
  5
50
102
{ACAD_REACTORS
330
42
102
}
330
42
100
AcDbScale
 70
     0
300
1-1/2" = 1'-0"
140
1.5
141
12.0
290
     0
  0
SCALE
  5
51
102
{ACAD_REACTORS
330
42
102
}
330
42
100
AcDbScale
 70
     0
300
3" = 1'-0"
140
3.0
141
12.0
290
     0
  0
SCALE
  5
52
102
{ACAD_REACTORS
330
42
102
}
330
42
100
AcDbScale
 70
     0
300
6" = 1'-0"
140
6.0
141
12.0
290
     0
  0
SCALE
  5
53
102
{ACAD_REACTORS
330
42
102
}
330
42
100
AcDbScale
 70
     0
300
1'-0" = 1'-0"
140
12.0
141
12.0
290
     0
  0
ACDBSECTIONVIEWSTYLE
  5
68
102
{ACAD_REACTORS
330
67
102
}
330
67
100
AcDbModelDocViewStyle
 70
     0
  3
Imperial24
290
     0
300
Imperial24
 90
        0
100
AcDbSectionViewStyle
 70
     0
 71
     0
 90
       78
 71
     1
340
55
 62
   256
 40
0.24
340
0
340
0
 62
   256
 40
0.24
300
I, O, Q, S, X, Z
 40
0.48
 90
        3
 40
0.18
 90
        1
 71
     2
340
5C
 90
       25
 62
   256
340
5C
 90
       50
 62
   256
 40
0.24
 40
0.0
 40
0.24
 71
     3
340
55
 62
   256
 40
0.24
 90
        1
 40
0.75
 90
        1
300
%<\AcVar ViewType \f "%tc1">% %<\AcVar ViewSectionStartId>%-%<\AcVar ViewSectionEndId>%\PSCALE %<\AcVar ViewScale \f "%sn">%
 71
     4
 62
   256
 62
   257
300
ANSI31
 40
1.0
 90
        0
290
     0
290
     0
 90
        6
 40
0.0
 40
1.570796326794896
 40
0.2617993877991494
 40
1.308996938995747
 40
-0.2617993877991494
 40
1.832595714594046
  0
TABLESTYLE
  5
64
102
{ACAD_XDICTIONARY
360
37F
102
}
102
{ACAD_REACTORS
330
63
102
}
330
63
100
AcDbTableStyle
280
     0
  3
Standard
 70
     0
 71
     0
 40
0.06
 41
0.06
280
     0
281
     0
  7
Standard
140
0.18
170
     2
 62
     0
 63
     7
283
     0
 90
      512
 91
        0
  1

274
    -2
284
     1
 64
     0
275
    -2
285
     1
 65
     0
276
    -2
286
     1
 66
     0
277
    -2
287
     1
 67
     0
278
    -2
288
     1
 68
     0
279
    -2
289
     1
 69
     0
  7
Standard
140
0.25
170
     5
 62
     0
 63
     7
283
     0
 90
      512
 91
        0
  1

274
    -2
284
     1
 64
     0
275
    -2
285
     1
 65
     0
276
    -2
286
     1
 66
     0
277
    -2
287
     1
 67
     0
278
    -2
288
     1
 68
     0
279
    -2
289
     1
 69
     0
  7
Standard
140
0.18
170
     5
 62
     0
 63
     7
283
     0
 90
      512
 91
        0
  1

274
    -2
284
     1
 64
     0
275
    -2
285
     1
 65
     0
276
    -2
286
     1
 66
     0
277
    -2
287
     1
 67
     0
278
    -2
288
     1
 68
     0
279
    -2
289
     1
 69
     0
  0
VISUALSTYLE
  5
2F
102
{ACAD_REACTORS
330
29
102
}
330
29
100
AcDbVisualStyle
  2
2dWireframe
 70
     4
177
     3
291
     0
 70
    58
 90
        0
176
     1
 90
        2
176
     1
 90
        0
176
     1
 90
        0
176
     1
 40
0.6
176
     1
 40
30.0
176
     1
 62
     7
420
 16777215
176
     1
 90
        1
176
     1
 90
        4
176
     1
 62
     7
176
     1
 62
   257
176
     1
 90
        1
176
     1
 90
        1
176
     1
 40
1.0
176
     1
 90
        0
176
     1
 62
   257
176
     1
 40
1.0
176
     1
 90
        1
176
     1
 90
        6
176
     1
 90
        2
176
     1
 62
     7
176
     1
 90
        5
176
     1
 90
        0
176
     1
 90
        0
176
     1
290
     0
176
     1
 90
        1
176
     1
 40
0.0
176
     1
 90
        0
176
     1
290
     1
176
     1
290
     1
176
     1
290
     0
176
     1
290
     0
176
     1
290
     0
176
     1
290
     0
176
     1
290
     0
176
     1
290
     0
176
     1
290
     0
176
     1
 90
       50
176
     1
 40
0.0
176
     1
 40
1.0
176
     1
 90
        0
176
     1
 62
    18
420
        0
176
     1
 90
       50
176
     1
 90
        3
176
     1
 62
     5
420
      255
176
     1
290
     0
176
     1
 90
       50
176
     1
 90
       50
176
     1
 90
       50
176
     1
290
     0
176
     1
 90
       50
176
     1
 62
   256
176
     0
 40
1.0
176
     0
 90
        2
176
     1
  1
strokes_ogs.tif
176
     1
290
     0
176
     1
 40
1.0
176
     1
 40
1.0
176
     1
  0
VISUALSTYLE
  5
2E
102
{ACAD_REACTORS
330
29
102
}
330
29
100
AcDbVisualStyle
  2
Basic
 70
     7
177
     3
291
     1
 70
    58
 90
        1
176
     1
 90
        0
176
     1
 90
        1
176
     1
 90
        0
176
     1
 40
0.6
176
     1
 40
30.0
176
     1
 62
     7
420
 16777215
176
     1
 90
        0
176
     1
 90
        4
176
     1
 62
     7
176
     1
 62
   257
176
     1
 90
        1
176
     1
 90
        1
176
     1
 40
1.0
176
     1
 90
        8
176
     1
 62
     7
176
     1
 40
1.0
176
     1
 90
        1
176
     1
 90
        6
176
     1
 90
        2
176
     1
 62
     7
176
     1
 90
        5
176
     1
 90
        0
176
     1
 90
        0
176
     1
290
     0
176
     1
 90
        1
176
     1
 40
0.0
176
     1
 90
        0
176
     1
290
     0
176
     1
290
     1
176
     1
290
     1
176
     1
290
     0
176
     1
290
     0
176
     1
290
     0
176
     1
290
     0
176
     1
290
     0
176
     1
290
     0
176
     1
 90
       50
176
     1
 40
0.0
176
     1
 40
1.0
176
     1
 90
        0
176
     1
 62
    18
420
        0
176
     1
 90
       50
176
     1
 90
        3
176
     1
 62
     5
420
      255
176
     1
290
     0
176
     1
 90
       50
176
     1
 90
       50
176
     1
 90
       50
176
     1
290
     0
176
     1
 90
       50
176
     1
 62
   256
176
     0
 40
1.0
176
     0
 90
        2
176
     1
  1
strokes_ogs.tif
176
     1
290
     0
176
     1
 40
1.0
176
     1
 40
1.0
176
     1
  0
VISUALSTYLE
  5
35
102
{ACAD_REACTORS
330
29
102
}
330
29
100
AcDbVisualStyle
  2
Brighten
 70
    12
177
     3
291
     1
 70
    58
 90
        2
176
     1
 90
        2
176
     1
 90
        0
176
     1
 90
        0
176
     1
 40
0.6
176
     1
 40
30.0
176
     1
 62
     7
420
 16777215
176
     1
 90
        1
176
     1
 90
        4
176
     1
 62
     7
176
     1
 62
   257
176
     1
 90
        1
176
     1
 90
        1
176
     1
 40
1.0
176
     1
 90
        8
176
     1
 62
     7
176
     1
 40
1.0
176
     1
 90
        1
176
     1
 90
        6
176
     1
 90
        2
176
     1
 62
     7
176
     1
 90
        5
176
     1
 90
        0
176
     1
 90
        0
176
     1
290
     0
176
     1
 90
        1
176
     1
 40
50.0
176
     1
 90
        0
176
     1
290
     0
176
     1
290
     1
176
     1
290
     1
176
     1
290
     0
176
     1
290
     0
176
     1
290
     0
176
     1
290
     0
176
     1
290
     0
176
     1
290
     0
176
     1
 90
       50
176
     1
 40
0.0
176
     1
 40
1.0
176
     1
 90
        0
176
     1
 62
    18
420
        0
176
     1
 90
       50
176
     1
 90
        3
176
     1
 62
     5
420
      255
176
     1
290
     0
176
     1
 90
       50
176
     1
 90
       50
176
     1
 90
       50
176
     1
290
     0
176
     1
 90
       50
176
     1
 62
   256
176
     0
 40
1.0
176
     0
 90
        2
176
     1
  1
strokes_ogs.tif
176
     1
290
     0
176
     1
 40
1.0
176
     1
 40
1.0
176
     1
  0
VISUALSTYLE
  5
39
102
{ACAD_REACTORS
330
29
102
}
330
29
100
AcDbVisualStyle
  2
ColorChange
 70
    16
177
     3
291
     1
 70
    58
 90
        2
176
     1
 90
        2
176
     1
 90
        3
176
     1
 90
        0
176
     1
 40
0.6
176
     1
 40
30.0
176
     1
 62
     8
420
  8421504
176
     1
 90
        1
176
     1
 90
        4
176
     1
 62
     7
176
     1
 62
   257
176
     1
 90
        1
176
     1
 90
        1
176
     1
 40
1.0
176
     1
 90
        8
176
     1
 62
     8
420
  8421504
176
     1
 40
1.0
176
     1
 90
        1
176
     1
 90
        6
176
     1
 90
        2
176
     1
 62
     7
176
     1
 90
        5
176
     1
 90
        0
176
     1
 90
        0
176
     1
290
     0
176
     1
 90
        1
176
     1
 40
0.0
176
     1
 90
        0
176
     1
290
     0
176
     1
290
     1
176
     1
290
     1
176
     1
290
     0
176
     1
290
     0
176
     1
290
     0
176
     1
290
     0
176
     1
290
     0
176
     1
290
     0
176
     1
 90
       50
176
     1
 40
0.0
176
     1
 40
1.0
176
     1
 90
        0
176
     1
 62
    18
420
        0
176
     1
 90
       50
176
     1
 90
        3
176
     1
 62
     5
420
      255
176
     1
290
     0
176
     1
 90
       50
176
     1
 90
       50
176
     1
 90
       50
176
     1
290
     0
176
     1
 90
       50
176
     1
 62
   256
176
     0
 40
1.0
176
     0
 90
        2
176
     1
  1
strokes_ogs.tif
176
     1
290
     0
176
     1
 40
1.0
176
     1
 40
1.0
176
     1
  0
VISUALSTYLE
  5
32
102
{ACAD_REACTORS
330
29
102
}
330
29
100
AcDbVisualStyle
  2
Conceptual
 70
     9
177
     3
291
     0
 70
    58
 90
        3
176
     1
 90
        2
176
     1
 90
        0
176
     1
 90
        0
176
     1
 40
0.6
176
     1
 40
30.0
176
     1
 62
     7
420
 16777215
176
     1
 90
        2
176
     1
 90
        2
176
     1
 62
     7
176
     1
 62
   257
176
     1
 90
        1
176
     1
 90
        1
176
     1
 40
179.0
176
     1
 90
        8
176
     1
 62
     7
176
     1
 40
1.0
176
     1
 90
        1
176
     1
 90
        6
176
     1
 90
        2
176
     1
 62
     7
176
     1
 90
        3
176
     1
 90
        0
176
     1
 90
        0
176
     1
290
     0
176
     1
 90
        1
176
     1
 40
0.0
176
     1
 90
        0
176
     1
290
     0
176
     1
290
     1
176
     1
290
     1
176
     1
290
     0
176
     1
290
     0
176
     1
290
     0
176
     1
290
     0
176
     1
290
     0
176
     1
290
     0
176
     1
 90
       50
176
     1
 40
0.0
176
     1
 40
1.0
176
     1
 90
        0
176
     1
 62
    18
420
        0
176
     1
 90
       50
176
     1
 90
        3
176
     1
 62
     5
420
      255
176
     1
290
     0
176
     1
 90
       50
176
     1
 90
       50
176
     1
 90
       50
176
     1
290
     0
176
     1
 90
       50
176
     1
 62
   256
176
     0
 40
1.0
176
     0
 90
        2
176
     1
  1
strokes_ogs.tif
176
     1
290
     0
176
     1
 40
1.0
176
     1
 40
1.0
176
     1
  0
VISUALSTYLE
  5
34
102
{ACAD_REACTORS
330
29
102
}
330
29
100
AcDbVisualStyle
  2
Dim
 70
    11
177
     3
291
     1
 70
    58
 90
        2
176
     1
 90
        2
176
     1
 90
        0
176
     1
 90
        0
176
     1
 40
0.6
176
     1
 40
30.0
176
     1
 62
     7
420
 16777215
176
     1
 90
        1
176
     1
 90
        4
176
     1
 62
     7
176
     1
 62
   257
176
     1
 90
        1
176
     1
 90
        1
176
     1
 40
1.0
176
     1
 90
        8
176
     1
 62
     7
176
     1
 40
1.0
176
     1
 90
        1
176
     1
 90
        6
176
     1
 90
        2
176
     1
 62
     7
176
     1
 90
        5
176
     1
 90
        0
176
     1
 90
        0
176
     1
290
     0
176
     1
 90
        1
176
     1
 40
-50.0
176
     1
 90
        0
176
     1
290
     0
176
     1
290
     1
176
     1
290
     1
176
     1
290
     0
176
     1
290
     0
176
     1
290
     0
176
     1
290
     0
176
     1
290
     0
176
     1
290
     0
176
     1
 90
       50
176
     1
 40
0.0
176
     1
 40
1.0
176
     1
 90
        0
176
     1
 62
    18
420
        0
176
     1
 90
       50
176
     1
 90
        3
176
     1
 62
     5
420
      255
176
     1
290
     0
176
     1
 90
       50
176
     1
 90
       50
176
     1
 90
       50
176
     1
290
     0
176
     1
 90
       50
176
     1
 62
   256
176
     0
 40
1.0
176
     0
 90
        2
176
     1
  1
strokes_ogs.tif
176
     1
290
     0
176
     1
 40
1.0
176
     1
 40
1.0
176
     1
  0
VISUALSTYLE
  5
41
102
{ACAD_REACTORS
330
29
102
}
330
29
100
AcDbVisualStyle
  2
EdgeColorOff
 70
    22
177
     3
291
     1
 70
    58
 90
        2
176
     0
 90
        2
176
     0
 90
        0
176
     0
 90
        0
176
     0
 40
0.6
176
     0
 40
30.0
176
     0
 62
     7
420
 16777215
176
     0
 90
        1
176
     0
 90
        4
176
     0
 62
     7
176
     0
 62
   257
176
     0
 90
        1
176
     0
 90
        1
176
     0
 40
1.0
176
     0
 90
        8
176
     2
 62
     7
176
     0
 40
1.0
176
     0
 90
        1
176
     0
 90
        6
176
     0
 90
        2
176
     0
 62
     7
176
     0
 90
        5
176
     0
 90
        0
176
     0
 90
        0
176
     0
290
     0
176
     0
 90
        1
176
     0
 40
0.0
176
     0
 90
        0
176
     0
290
     0
176
     1
290
     1
176
     1
290
     1
176
     1
290
     0
176
     1
290
     0
176
     1
290
     0
176
     1
290
     0
176
     1
290
     0
176
     1
290
     0
176
     1
 90
       50
176
     0
 40
0.0
176
     0
 40
1.0
176
     0
 90
        0
176
     0
 62
    18
420
        0
176
     0
 90
       50
176
     0
 90
        3
176
     0
 62
     5
420
      255
176
     0
290
     0
176
     1
 90
       50
176
     0
 90
       50
176
     0
 90
       50
176
     0
290
     0
176
     1
 90
       50
176
     0
 62
   256
176
     0
 40
1.0
176
     0
 90
        2
176
     0
  1
strokes_ogs.tif
176
     0
290
     0
176
     1
 40
1.0
176
     0
 40
1.0
176
     0
  0
VISUALSTYLE
  5
38
102
{ACAD_REACTORS
330
29
102
}
330
29
100
AcDbVisualStyle
  2
Facepattern
 70
    15
177
     3
291
     1
 70
    58
 90
        2
176
     1
 90
        2
176
     1
 90
        0
176
     1
 90
        0
176
     1
 40
0.6
176
     1
 40
30.0
176
     1
 62
     7
420
 16777215
176
     1
 90
        1
176
     1
 90
        4
176
     1
 62
     7
176
     1
 62
   257
176
     1
 90
        1
176
     1
 90
        1
176
     1
 40
1.0
176
     1
 90
        8
176
     1
 62
     7
176
     1
 40
1.0
176
     1
 90
        1
176
     1
 90
        6
176
     1
 90
        2
176
     1
 62
     7
176
     1
 90
        5
176
     1
 90
        0
176
     1
 90
        0
176
     1
290
     0
176
     1
 90
        1
176
     1
 40
0.0
176
     1
 90
        0
176
     1
290
     0
176
     1
290
     1
176
     1
290
     1
176
     1
290
     0
176
     1
290
     0
176
     1
290
     0
176
     1
290
     0
176
     1
290
     0
176
     1
290
     0
176
     1
 90
       50
176
     1
 40
0.0
176
     1
 40
1.0
176
     1
 90
        0
176
     1
 62
    18
420
        0
176
     1
 90
       50
176
     1
 90
        3
176
     1
 62
     5
420
      255
176
     1
290
     0
176
     1
 90
       50
176
     1
 90
       50
176
     1
 90
       50
176
     1
290
     0
176
     1
 90
       50
176
     1
 62
   256
176
     0
 40
1.0
176
     0
 90
        2
176
     1
  1
strokes_ogs.tif
176
     1
290
     0
176
     1
 40
1.0
176
     1
 40
1.0
176
     1
  0
VISUALSTYLE
  5
2A
102
{ACAD_REACTORS
330
29
102
}
330
29
100
AcDbVisualStyle
  2
Flat
 70
     0
177
     3
291
     1
 70
    58
 90
        2
176
     1
 90
        1
176
     1
 90
        1
176
     1
 90
        2
176
     1
 40
0.6
176
     1
 40
30.0
176
     1
 62
     7
420
 16777215
176
     1
 90
        0
176
     1
 90
        0
176
     1
 62
     7
176
     1
 62
   257
176
     1
 90
        1
176
     1
 90
        1
176
     1
 40
1.0
176
     1
 90
        8
176
     1
 62
     7
176
     1
 40
1.0
176
     1
 90
        1
176
     1
 90
        6
176
     1
 90
        2
176
     1
 62
     7
176
     1
 90
        5
176
     1
 90
        0
176
     1
 90
        0
176
     1
290
     0
176
     1
 90
       13
176
     1
 40
0.0
176
     1
 90
        0
176
     1
290
     0
176
     1
290
     1
176
     1
290
     1
176
     1
290
     0
176
     1
290
     0
176
     1
290
     0
176
     1
290
     0
176
     1
290
     0
176
     1
290
     0
176
     1
 90
       50
176
     1
 40
0.0
176
     1
 40
1.0
176
     1
 90
        0
176
     1
 62
    18
420
        0
176
     1
 90
       50
176
     1
 90
        3
176
     1
 62
     5
420
      255
176
     1
290
     0
176
     1
 90
       50
176
     1
 90
       50
176
     1
 90
       50
176
     1
290
     0
176
     1
 90
       50
176
     1
 62
   256
176
     0
 40
1.0
176
     0
 90
        2
176
     1
  1
strokes_ogs.tif
176
     1
290
     0
176
     1
 40
1.0
176
     1
 40
1.0
176
     1
  0
VISUALSTYLE
  5
2B
102
{ACAD_REACTORS
330
29
102
}
330
29
100
AcDbVisualStyle
  2
FlatWithEdges
 70
     1
177
     3
291
     1
 70
    58
 90
        2
176
     1
 90
        1
176
     1
 90
        1
176
     1
 90
        2
176
     1
 40
0.6
176
     1
 40
30.0
176
     1
 62
     7
420
 16777215
176
     1
 90
        1
176
     1
 90
        0
176
     1
 62
     7
176
     1
 62
   257
176
     1
 90
        1
176
     1
 90
        1
176
     1
 40
1.0
176
     1
 90
        0
176
     1
 62
   257
176
     1
 40
1.0
176
     1
 90
        1
176
     1
 90
        6
176
     1
 90
        2
176
     1
 62
     7
176
     1
 90
        5
176
     1
 90
        0
176
     1
 90
        0
176
     1
290
     0
176
     1
 90
       13
176
     1
 40
0.0
176
     1
 90
        0
176
     1
290
     0
176
     1
290
     1
176
     1
290
     1
176
     1
290
     0
176
     1
290
     0
176
     1
290
     0
176
     1
290
     0
176
     1
290
     0
176
     1
290
     0
176
     1
 90
       50
176
     1
 40
0.0
176
     1
 40
1.0
176
     1
 90
        0
176
     1
 62
    18
420
        0
176
     1
 90
       50
176
     1
 90
        3
176
     1
 62
     5
420
      255
176
     1
290
     0
176
     1
 90
       50
176
     1
 90
       50
176
     1
 90
       50
176
     1
290
     0
176
     1
 90
       50
176
     1
 62
   256
176
     0
 40
1.0
176
     0
 90
        2
176
     1
  1
strokes_ogs.tif
176
     1
290
     0
176
     1
 40
1.0
176
     1
 40
1.0
176
     1
  0
VISUALSTYLE
  5
2C
102
{ACAD_REACTORS
330
29
102
}
330
29
100
AcDbVisualStyle
  2
Gouraud
 70
     2
177
     3
291
     1
 70
    58
 90
        2
176
     1
 90
        2
176
     1
 90
        1
176
     1
 90
        2
176
     1
 40
0.6
176
     1
 40
30.0
176
     1
 62
     7
420
 16777215
176
     1
 90
        0
176
     1
 90
        0
176
     1
 62
     7
176
     1
 62
   257
176
     1
 90
        1
176
     1
 90
        1
176
     1
 40
1.0
176
     1
 90
        0
176
     1
 62
     7
176
     1
 40
1.0
176
     1
 90
        1
176
     1
 90
        6
176
     1
 90
        2
176
     1
 62
     7
176
     1
 90
        5
176
     1
 90
        0
176
     1
 90
        0
176
     1
290
     0
176
     1
 90
       13
176
     1
 40
0.0
176
     1
 90
        0
176
     1
290
     0
176
     1
290
     1
176
     1
290
     1
176
     1
290
     0
176
     1
290
     0
176
     1
290
     0
176
     1
290
     0
176
     1
290
     0
176
     1
290
     0
176
     1
 90
       50
176
     1
 40
0.0
176
     1
 40
1.0
176
     1
 90
        0
176
     1
 62
    18
420
        0
176
     1
 90
       50
176
     1
 90
        3
176
     1
 62
     5
420
      255
176
     1
290
     0
176
     1
 90
       50
176
     1
 90
       50
176
     1
 90
       50
176
     1
290
     0
176
     1
 90
       50
176
     1
 62
   256
176
     0
 40
1.0
176
     0
 90
        2
176
     1
  1
strokes_ogs.tif
176
     1
290
     0
176
     1
 40
1.0
176
     1
 40
1.0
176
     1
  0
VISUALSTYLE
  5
2D
102
{ACAD_REACTORS
330
29
102
}
330
29
100
AcDbVisualStyle
  2
GouraudWithEdges
 70
     3
177
     3
291
     1
 70
    58
 90
        2
176
     1
 90
        2
176
     1
 90
        1
176
     1
 90
        2
176
     1
 40
0.6
176
     1
 40
30.0
176
     1
 62
     7
420
 16777215
176
     1
 90
        1
176
     1
 90
        0
176
     1
 62
     7
176
     1
 62
   257
176
     1
 90
        1
176
     1
 90
        1
176
     1
 40
1.0
176
     1
 90
        0
176
     1
 62
   257
176
     1
 40
1.0
176
     1
 90
        1
176
     1
 90
        6
176
     1
 90
        2
176
     1
 62
     7
176
     1
 90
        5
176
     1
 90
        0
176
     1
 90
        0
176
     1
290
     0
176
     1
 90
       13
176
     1
 40
0.0
176
     1
 90
        0
176
     1
290
     0
176
     1
290
     1
176
     1
290
     1
176
     1
290
     0
176
     1
290
     0
176
     1
290
     0
176
     1
290
     0
176
     1
290
     0
176
     1
290
     0
176
     1
 90
       50
176
     1
 40
0.0
176
     1
 40
1.0
176
     1
 90
        0
176
     1
 62
    18
420
        0
176
     1
 90
       50
176
     1
 90
        3
176
     1
 62
     5
420
      255
176
     1
290
     0
176
     1
 90
       50
176
     1
 90
       50
176
     1
 90
       50
176
     1
290
     0
176
     1
 90
       50
176
     1
 62
   256
176
     0
 40
1.0
176
     0
 90
        2
176
     1
  1
strokes_ogs.tif
176
     1
290
     0
176
     1
 40
1.0
176
     1
 40
1.0
176
     1
  0
VISUALSTYLE
  5
31
102
{ACAD_REACTORS
330
29
102
}
330
29
100
AcDbVisualStyle
  2
Hidden
 70
     6
177
     3
291
     0
 70
    58
 90
        1
176
     1
 90
        2
176
     1
 90
        2
176
     1
 90
        0
176
     1
 40
0.6
176
     1
 40
30.0
176
     1
 62
     7
420
 16777215
176
     1
 90
        2
176
     1
 90
        2
176
     1
 62
     7
176
     1
 62
   257
176
     1
 90
        2
176
     1
 90
        1
176
     1
 40
40.0
176
     1
 90
        0
176
     1
 62
   257
176
     1
 40
1.0
176
     1
 90
        1
176
     1
 90
        6
176
     1
 90
        2
176
     1
 62
     7
176
     1
 90
        3
176
     1
 90
        0
176
     1
 90
        0
176
     1
290
     0
176
     1
 90
        1
176
     1
 40
0.0
176
     1
 90
        0
176
     1
290
     0
176
     1
290
     1
176
     1
290
     1
176
     1
290
     0
176
     1
290
     0
176
     1
290
     0
176
     1
290
     0
176
     1
290
     0
176
     1
290
     0
176
     1
 90
       50
176
     1
 40
0.0
176
     1
 40
1.0
176
     1
 90
        0
176
     1
 62
    18
420
        0
176
     1
 90
       50
176
     1
 90
        3
176
     1
 62
     5
420
      255
176
     1
290
     0
176
     1
 90
       50
176
     1
 90
       50
176
     1
 90
       50
176
     1
290
     0
176
     1
 90
       50
176
     1
 62
   256
176
     0
 40
1.0
176
     0
 90
        2
176
     1
  1
strokes_ogs.tif
176
     1
290
     0
176
     1
 40
1.0
176
     1
 40
1.0
176
     1
  0
VISUALSTYLE
  5
3F
102
{ACAD_REACTORS
330
29
102
}
330
29
100
AcDbVisualStyle
  2
JitterOff
 70
    20
177
     3
291
     1
 70
    58
 90
        2
176
     0
 90
        2
176
     0
 90
        0
176
     0
 90
        0
176
     0
 40
0.6
176
     0
 40
30.0
176
     0
 62
     7
420
 16777215
176
     0
 90
        1
176
     0
 90
        4
176
     0
 62
     7
176
     0
 62
   257
176
     0
 90
        1
176
     0
 90
        1
176
     0
 40
1.0
176
     0
 90
       10
176
     2
 62
     7
176
     0
 40
1.0
176
     0
 90
        1
176
     0
 90
        6
176
     0
 90
        2
176
     0
 62
     7
176
     0
 90
        5
176
     0
 90
        0
176
     0
 90
        0
176
     0
290
     0
176
     0
 90
        1
176
     0
 40
0.0
176
     0
 90
        0
176
     0
290
     0
176
     1
290
     1
176
     1
290
     1
176
     1
290
     0
176
     1
290
     0
176
     1
290
     0
176
     1
290
     0
176
     1
290
     0
176
     1
290
     0
176
     1
 90
       50
176
     0
 40
0.0
176
     0
 40
1.0
176
     0
 90
        0
176
     0
 62
    18
420
        0
176
     0
 90
       50
176
     0
 90
        3
176
     0
 62
     5
420
      255
176
     0
290
     0
176
     1
 90
       50
176
     0
 90
       50
176
     0
 90
       50
176
     0
290
     0
176
     1
 90
       50
176
     0
 62
   256
176
     0
 40
1.0
176
     0
 90
        2
176
     0
  1
strokes_ogs.tif
176
     0
290
     0
176
     1
 40
1.0
176
     0
 40
1.0
176
     0
  0
VISUALSTYLE
  5
37
102
{ACAD_REACTORS
330
29
102
}
330
29
100
AcDbVisualStyle
  2
Linepattern
 70
    14
177
     3
291
     1
 70
    58
 90
        2
176
     1
 90
        2
176
     1
 90
        0
176
     1
 90
        0
176
     1
 40
0.6
176
     1
 40
30.0
176
     1
 62
     7
420
 16777215
176
     1
 90
        1
176
     1
 90
        4
176
     1
 62
     7
176
     1
 62
   257
176
     1
 90
        7
176
     1
 90
        7
176
     1
 40
1.0
176
     1
 90
        8
176
     1
 62
     7
176
     1
 40
1.0
176
     1
 90
        1
176
     1
 90
        6
176
     1
 90
        2
176
     1
 62
     7
176
     1
 90
        5
176
     1
 90
        0
176
     1
 90
        0
176
     1
290
     0
176
     1
 90
        1
176
     1
 40
0.0
176
     1
 90
        0
176
     1
290
     0
176
     1
290
     1
176
     1
290
     1
176
     1
290
     0
176
     1
290
     0
176
     1
290
     0
176
     1
290
     0
176
     1
290
     0
176
     1
290
     0
176
     1
 90
       50
176
     1
 40
0.0
176
     1
 40
1.0
176
     1
 90
        0
176
     1
 62
    18
420
        0
176
     1
 90
       50
176
     1
 90
        3
176
     1
 62
     5
420
      255
176
     1
290
     0
176
     1
 90
       50
176
     1
 90
       50
176
     1
 90
       50
176
     1
290
     0
176
     1
 90
       50
176
     1
 62
   256
176
     0
 40
1.0
176
     0
 90
        2
176
     1
  1
strokes_ogs.tif
176
     1
290
     0
176
     1
 40
1.0
176
     1
 40
1.0
176
     1
  0
VISUALSTYLE
  5
40
102
{ACAD_REACTORS
330
29
102
}
330
29
100
AcDbVisualStyle
  2
OverhangOff
 70
    21
177
     3
291
     1
 70
    58
 90
        2
176
     0
 90
        2
176
     0
 90
        0
176
     0
 90
        0
176
     0
 40
0.6
176
     0
 40
30.0
176
     0
 62
     7
420
 16777215
176
     0
 90
        1
176
     0
 90
        4
176
     0
 62
     7
176
     0
 62
   257
176
     0
 90
        1
176
     0
 90
        1
176
     0
 40
1.0
176
     0
 90
        9
176
     2
 62
     7
176
     0
 40
1.0
176
     0
 90
        1
176
     0
 90
        6
176
     0
 90
        2
176
     0
 62
     7
176
     0
 90
        5
176
     0
 90
        0
176
     0
 90
        0
176
     0
290
     0
176
     0
 90
        1
176
     0
 40
0.0
176
     0
 90
        0
176
     0
290
     0
176
     1
290
     1
176
     1
290
     1
176
     1
290
     0
176
     1
290
     0
176
     1
290
     0
176
     1
290
     0
176
     1
290
     0
176
     1
290
     0
176
     1
 90
       50
176
     0
 40
0.0
176
     0
 40
1.0
176
     0
 90
        0
176
     0
 62
    18
420
        0
176
     0
 90
       50
176
     0
 90
        3
176
     0
 62
     5
420
      255
176
     0
290
     0
176
     1
 90
       50
176
     0
 90
       50
176
     0
 90
       50
176
     0
290
     0
176
     1
 90
       50
176
     0
 62
   256
176
     0
 40
1.0
176
     0
 90
        2
176
     0
  1
strokes_ogs.tif
176
     0
290
     0
176
     1
 40
1.0
176
     0
 40
1.0
176
     0
  0
VISUALSTYLE
  5
33
102
{ACAD_REACTORS
330
29
102
}
330
29
100
AcDbVisualStyle
  2
Realistic
 70
     8
177
     3
291
     0
 70
    58
 90
        2
176
     1
 90
        3
176
     1
 90
        0
176
     1
 90
        2
176
     1
 40
0.6
176
     1
 40
30.0
176
     1
 62
     7
420
 16777215
176
     1
 90
        0
176
     1
 90
        0
176
     1
 62
     7
176
     1
 62
   257
176
     1
 90
        1
176
     1
 90
        1
176
     1
 40
1.0
176
     1
 90
        8
176
     1
 62
   257
176
     1
 40
1.0
176
     1
 90
        1
176
     1
 90
        6
176
     1
 90
        2
176
     1
 62
     7
176
     1
 90
        3
176
     1
 90
        0
176
     1
 90
        0
176
     1
290
     0
176
     1
 90
       13
176
     1
 40
0.0
176
     1
 90
        0
176
     1
290
     0
176
     1
290
     1
176
     1
290
     1
176
     1
290
     0
176
     1
290
     0
176
     1
290
     0
176
     1
290
     0
176
     1
290
     0
176
     1
290
     0
176
     1
 90
       50
176
     1
 40
0.0
176
     1
 40
1.0
176
     1
 90
        0
176
     1
 62
    18
420
        0
176
     1
 90
       50
176
     1
 90
        3
176
     1
 62
     5
420
      255
176
     1
290
     0
176
     1
 90
       50
176
     1
 90
       50
176
     1
 90
       50
176
     1
290
     0
176
     1
 90
       50
176
     1
 62
   256
176
     0
 40
1.0
176
     0
 90
        2
176
     1
  1
strokes_ogs.tif
176
     1
290
     0
176
     1
 40
1.0
176
     1
 40
1.0
176
     1
  0
VISUALSTYLE
  5
3E
102
{ACAD_REACTORS
330
29
102
}
330
29
100
AcDbVisualStyle
  2
Shaded
 70
    27
177
     3
291
     0
 70
    58
 90
        2
176
     1
 90
        2
176
     1
 90
        1
176
     1
 90
        2
176
     1
 40
0.6
176
     1
 40
30.0
176
     1
 62
     7
420
 16777215
176
     1
 90
        0
176
     1
 90
        4
176
     1
 62
     7
176
     1
 62
   257
176
     1
 90
        1
176
     1
 90
        1
176
     1
 40
1.0
176
     1
 90
        8
176
     1
 62
   257
176
     1
 40
1.0
176
     1
 90
        1
176
     1
 90
        6
176
     1
 90
        2
176
     1
 62
     8
420
  7895160
176
     1
 90
        3
176
     1
 90
        0
176
     1
 90
        0
176
     1
290
     0
176
     1
 90
        5
176
     1
 40
0.0
176
     1
 90
        0
176
     1
290
     0
176
     1
290
     1
176
     1
290
     1
176
     1
290
     0
176
     1
290
     0
176
     1
290
     0
176
     1
290
     0
176
     1
290
     0
176
     1
290
     0
176
     1
 90
       50
176
     1
 40
0.0
176
     1
 40
1.0
176
     1
 90
        0
176
     1
 62
    18
420
        0
176
     1
 90
       50
176
     1
 90
        3
176
     1
 62
     5
420
      255
176
     1
290
     0
176
     1
 90
       50
176
     1
 90
       50
176
     1
 90
       50
176
     1
290
     0
176
     1
 90
       50
176
     1
 62
   256
176
     0
 40
1.0
176
     0
 90
        2
176
     1
  1
strokes_ogs.tif
176
     1
290
     0
176
     1
 40
1.0
176
     1
 40
1.0
176
     1
  0
VISUALSTYLE
  5
3D
102
{ACAD_REACTORS
330
29
102
}
330
29
100
AcDbVisualStyle
  2
Shaded with edges
 70
    26
177
     3
291
     0
 70
    58
 90
        2
176
     1
 90
        2
176
     1
 90
        1
176
     1
 90
        2
176
     1
 40
0.6
176
     1
 40
30.0
176
     1
 62
     7
420
 16777215
176
     1
 90
        1
176
     1
 90
        2
176
     1
 62
     7
176
     1
 62
   257
176
     1
 90
        2
176
     1
 90
        1
176
     1
 40
1.0
176
     1
 90
        8
176
     1
 62
   257
176
     1
 40
1.0
176
     1
 90
        1
176
     1
 90
        6
176
     1
 90
        2
176
     1
 62
     7
176
     1
 90
        3
176
     1
 90
        0
176
     1
 90
        0
176
     1
290
     0
176
     1
 90
        5
176
     1
 40
0.0
176
     1
 90
        0
176
     1
290
     0
176
     1
290
     1
176
     1
290
     1
176
     1
290
     0
176
     1
290
     0
176
     1
290
     0
176
     1
290
     0
176
     1
290
     0
176
     1
290
     0
176
     1
 90
       50
176
     1
 40
0.0
176
     1
 40
1.0
176
     1
 90
        0
176
     1
 62
    18
420
        0
176
     1
 90
       50
176
     1
 90
        3
176
     1
 62
     5
420
      255
176
     1
290
     0
176
     1
 90
       50
176
     1
 90
       50
176
     1
 90
       50
176
     1
290
     0
176
     1
 90
       50
176
     1
 62
   256
176
     0
 40
1.0
176
     0
 90
        2
176
     1
  1
strokes_ogs.tif
176
     1
290
     0
176
     1
 40
1.0
176
     1
 40
1.0
176
     1
  0
VISUALSTYLE
  5
3A
102
{ACAD_REACTORS
330
29
102
}
330
29
100
AcDbVisualStyle
  2
Shades of Gray
 70
    23
177
     3
291
     0
 70
    58
 90
        2
176
     1
 90
        2
176
     1
 90
        3
176
     1
 90
        0
176
     1
 40
0.6
176
     1
 40
30.0
176
     1
 62
     7
420
 16777215
176
     1
 90
        2
176
     1
 90
        2
176
     1
 62
     7
176
     1
 62
     7
176
     1
 90
        1
176
     1
 90
        1
176
     1
 40
40.0
176
     1
 90
        8
176
     1
 62
     7
176
     1
 40
1.0
176
     1
 90
        1
176
     1
 90
        6
176
     1
 90
        2
176
     1
 62
     7
176
     1
 90
        3
176
     1
 90
        0
176
     1
 90
        0
176
     1
290
     0
176
     1
 90
        1
176
     1
 40
0.0
176
     1
 90
        0
176
     1
290
     0
176
     1
290
     1
176
     1
290
     1
176
     1
290
     0
176
     1
290
     0
176
     1
290
     0
176
     1
290
     0
176
     1
290
     0
176
     1
290
     0
176
     1
 90
       50
176
     1
 40
0.0
176
     1
 40
1.0
176
     1
 90
        0
176
     1
 62
    18
420
        0
176
     1
 90
       50
176
     1
 90
        3
176
     1
 62
     5
420
      255
176
     1
290
     0
176
     1
 90
       50
176
     1
 90
       50
176
     1
 90
       50
176
     1
290
     0
176
     1
 90
       50
176
     1
 62
   256
176
     0
 40
1.0
176
     0
 90
        2
176
     1
  1
strokes_ogs.tif
176
     1
290
     0
176
     1
 40
1.0
176
     1
 40
1.0
176
     1
  0
VISUALSTYLE
  5
3B
102
{ACAD_REACTORS
330
29
102
}
330
29
100
AcDbVisualStyle
  2
Sketchy
 70
    24
177
     3
291
     0
 70
    58
 90
        1
176
     1
 90
        2
176
     1
 90
        2
176
     1
 90
        0
176
     1
 40
0.6
176
     1
 40
30.0
176
     1
 62
     7
420
 16777215
176
     1
 90
        2
176
     1
 90
        2
176
     1
 62
     7
176
     1
 62
     7
176
     1
 90
        1
176
     1
 90
        1
176
     1
 40
40.0
176
     1
 90
       11
176
     1
 62
     7
176
     1
 40
1.0
176
     1
 90
        1
176
     1
 90
        6
176
     1
 90
        2
176
     1
 62
     7
176
     1
 90
        6
176
     1
 90
        0
176
     1
 90
        0
176
     1
290
     0
176
     1
 90
        1
176
     1
 40
0.0
176
     1
 90
        0
176
     1
290
     0
176
     1
290
     1
176
     1
290
     1
176
     1
290
     0
176
     1
290
     0
176
     1
290
     0
176
     1
290
     0
176
     1
290
     0
176
     1
290
     0
176
     1
 90
       50
176
     1
 40
0.0
176
     1
 40
1.0
176
     1
 90
        0
176
     1
 62
    18
420
        0
176
     1
 90
       50
176
     1
 90
        3
176
     1
 62
     5
420
      255
176
     1
290
     0
176
     1
 90
       50
176
     1
 90
       50
176
     1
 90
       50
176
     1
290
     0
176
     1
 90
       50
176
     1
 62
   256
176
     0
 40
1.0
176
     0
 90
        2
176
     1
  1
strokes_ogs.tif
176
     1
290
     0
176
     1
 40
1.0
176
     1
 40
1.0
176
     1
  0
VISUALSTYLE
  5
36
102
{ACAD_REACTORS
330
29
102
}
330
29
100
AcDbVisualStyle
  2
Thicken
 70
    13
177
     3
291
     1
 70
    58
 90
        2
176
     1
 90
        2
176
     1
 90
        0
176
     1
 90
        0
176
     1
 40
0.6
176
     1
 40
30.0
176
     1
 62
     7
420
 16777215
176
     1
 90
        1
176
     1
 90
        4
176
     1
 62
     7
176
     1
 62
   257
176
     1
 90
        1
176
     1
 90
        1
176
     1
 40
1.0
176
     1
 90
       12
176
     1
 62
     7
176
     1
 40
1.0
176
     1
 90
        1
176
     1
 90
        6
176
     1
 90
        2
176
     1
 62
     7
176
     1
 90
        5
176
     1
 90
        0
176
     1
 90
        0
176
     1
290
     0
176
     1
 90
        1
176
     1
 40
0.0
176
     1
 90
        0
176
     1
290
     0
176
     1
290
     1
176
     1
290
     1
176
     1
290
     0
176
     1
290
     0
176
     1
290
     0
176
     1
290
     0
176
     1
290
     0
176
     1
290
     0
176
     1
 90
       50
176
     1
 40
0.0
176
     1
 40
1.0
176
     1
 90
        0
176
     1
 62
    18
420
        0
176
     1
 90
       50
176
     1
 90
        3
176
     1
 62
     5
420
      255
176
     1
290
     0
176
     1
 90
       50
176
     1
 90
       50
176
     1
 90
       50
176
     1
290
     0
176
     1
 90
       50
176
     1
 62
   256
176
     0
 40
1.0
176
     0
 90
        2
176
     1
  1
strokes_ogs.tif
176
     1
290
     0
176
     1
 40
1.0
176
     1
 40
1.0
176
     1
  0
VISUALSTYLE
  5
30
102
{ACAD_REACTORS
330
29
102
}
330
29
100
AcDbVisualStyle
  2
Wireframe
 70
     5
177
     3
291
     0
 70
    58
 90
        0
176
     1
 90
        2
176
     1
 90
        0
176
     1
 90
        0
176
     1
 40
0.6
176
     1
 40
30.0
176
     1
 62
     7
420
 16777215
176
     1
 90
        1
176
     1
 90
        4
176
     1
 62
     7
176
     1
 62
   257
176
     1
 90
        1
176
     1
 90
        1
176
     1
 40
1.0
176
     1
 90
        0
176
     1
 62
   257
176
     1
 40
1.0
176
     1
 90
        1
176
     1
 90
        6
176
     1
 90
        2
176
     1
 62
     7
176
     1
 90
        3
176
     1
 90
        0
176
     1
 90
        0
176
     1
290
     0
176
     1
 90
        1
176
     1
 40
0.0
176
     1
 90
        0
176
     1
290
     0
176
     1
290
     1
176
     1
290
     1
176
     1
290
     0
176
     1
290
     0
176
     1
290
     0
176
     1
290
     0
176
     1
290
     0
176
     1
290
     0
176
     1
 90
       50
176
     1
 40
0.0
176
     1
 40
1.0
176
     1
 90
        0
176
     1
 62
    18
420
        0
176
     1
 90
       50
176
     1
 90
        3
176
     1
 62
     5
420
      255
176
     1
290
     0
176
     1
 90
       50
176
     1
 90
       50
176
     1
 90
       50
176
     1
290
     0
176
     1
 90
       50
176
     1
 62
   256
176
     0
 40
1.0
176
     0
 90
        2
176
     1
  1
strokes_ogs.tif
176
     1
290
     0
176
     1
 40
1.0
176
     1
 40
1.0
176
     1
  0
VISUALSTYLE
  5
3C
102
{ACAD_REACTORS
330
29
102
}
330
29
100
AcDbVisualStyle
  2
X-Ray
 70
    25
177
     3
291
     0
 70
    58
 90
        2
176
     1
 90
        2
176
     1
 90
        1
176
     1
 90
        1
176
     1
 40
0.5
176
     1
 40
30.0
176
     1
 62
     7
420
 16777215
176
     1
 90
        1
176
     1
 90
        0
176
     1
 62
     7
176
     1
 62
   257
176
     1
 90
        1
176
     1
 90
        1
176
     1
 40
1.0
176
     1
 90
        8
176
     1
 62
     7
176
     1
 40
1.0
176
     1
 90
        1
176
     1
 90
        6
176
     1
 90
        2
176
     1
 62
     7
176
     1
 90
        3
176
     1
 90
        0
176
     1
 90
        0
176
     1
290
     0
176
     1
 90
       13
176
     1
 40
0.0
176
     1
 90
        0
176
     1
290
     0
176
     1
290
     1
176
     1
290
     1
176
     1
290
     0
176
     1
290
     0
176
     1
290
     0
176
     1
290
     0
176
     1
290
     0
176
     1
290
     0
176
     1
 90
       50
176
     1
 40
0.0
176
     1
 40
1.0
176
     1
 90
        0
176
     1
 62
    18
420
        0
176
     1
 90
       50
176
     1
 90
        3
176
     1
 62
     5
420
      255
176
     1
290
     0
176
     1
 90
       50
176
     1
 90
       50
176
     1
 90
       50
176
     1
290
     0
176
     1
 90
       50
176
     1
 62
   256
176
     0
 40
1.0
176
     0
 90
        2
176
     1
  1
strokes_ogs.tif
176
     1
290
     0
176
     1
 40
1.0
176
     1
 40
1.0
176
     1
  0
DICTIONARYVAR
  5
37A
102
{ACAD_REACTORS
330
374
102
}
330
374
100
DictionaryVariables
280
     0
  1
1:1
  0
DICTIONARYVAR
  5
376
102
{ACAD_REACTORS
330
374
102
}
330
374
100
DictionaryVariables
280
     0
  1
STANDARD
  0
DICTIONARYVAR
  5
375
102
{ACAD_REACTORS
330
374
102
}
330
374
100
DictionaryVariables
280
     0
  1
STANDARD
  0
DICTIONARYVAR
  5
377
102
{ACAD_REACTORS
330
374
102
}
330
374
100
DictionaryVariables
280
     0
  1
Imperial24
  0
DICTIONARYVAR
  5
378
102
{ACAD_REACTORS
330
374
102
}
330
374
100
DictionaryVariables
280
     0
  1
Imperial24
  0
DICTIONARYVAR
  5
37C
102
{ACAD_REACTORS
330
374
102
}
330
374
100
DictionaryVariables
280
     0
  1
1
  0
DICTIONARYVAR
  5
37D
102
{ACAD_REACTORS
330
374
102
}
330
374
100
DictionaryVariables
280
     0
  1
15
  0
DICTIONARYVAR
  5
37B
102
{ACAD_REACTORS
330
374
102
}
330
374
100
DictionaryVariables
280
     0
  1
0
  0
DICTIONARYVAR
  5
379
102
{ACAD_REACTORS
330
374
102
}
330
374
100
DictionaryVariables
280
     0
  1
0
  0
DICTIONARY
  5
1A
330
19
100
AcDbDictionary
280
     1
281
     1
  3
BUMPTILE
360
1C
  3
DIFFUSETILE
360
1B
  3
OPACITYTILE
360
1F
  3
REFLECTIONTILE
360
1E
  3
REFRACTIONTILE
360
20
  3
SPECULARTILE
360
1D
  0
DICTIONARY
  5
12
330
11
100
AcDbDictionary
280
     1
281
     1
  3
BUMPTILE
360
14
  3
DIFFUSETILE
360
13
  3
OPACITYTILE
360
17
  3
REFLECTIONTILE
360
16
  3
REFRACTIONTILE
360
18
  3
SPECULARTILE
360
15
  0
DICTIONARY
  5
22
330
21
100
AcDbDictionary
280
     1
281
     1
  3
BUMPTILE
360
24
  3
DIFFUSETILE
360
23
  3
OPACITYTILE
360
27
  3
REFLECTIONTILE
360
26
  3
REFRACTIONTILE
360
28
  3
SPECULARTILE
360
25
  0
DICTIONARY
  5
37F
330
64
100
AcDbDictionary
280
     1
281
     1
  3
ACAD_ROUNDTRIP_2008_TABLESTYLE_CELLSTYLEMAP
360
380
  0
XRECORD
  5
1C
102
{ACAD_REACTORS
330
1A
102
}
330
1A
100
AcDbXrecord
280
     1
270
     1
271
     1
  0
XRECORD
  5
1B
102
{ACAD_REACTORS
330
1A
102
}
330
1A
100
AcDbXrecord
280
     1
270
     1
271
     1
  0
XRECORD
  5
1F
102
{ACAD_REACTORS
330
1A
102
}
330
1A
100
AcDbXrecord
280
     1
270
     1
271
     1
  0
XRECORD
  5
1E
102
{ACAD_REACTORS
330
1A
102
}
330
1A
100
AcDbXrecord
280
     1
270
     1
271
     1
  0
XRECORD
  5
20
102
{ACAD_REACTORS
330
1A
102
}
330
1A
100
AcDbXrecord
280
     1
270
     1
271
     1
  0
XRECORD
  5
1D
102
{ACAD_REACTORS
330
1A
102
}
330
1A
100
AcDbXrecord
280
     1
270
     1
271
     1
  0
XRECORD
  5
14
102
{ACAD_REACTORS
330
12
102
}
330
12
100
AcDbXrecord
280
     1
270
     1
271
     1
  0
XRECORD
  5
13
102
{ACAD_REACTORS
330
12
102
}
330
12
100
AcDbXrecord
280
     1
270
     1
271
     1
  0
XRECORD
  5
17
102
{ACAD_REACTORS
330
12
102
}
330
12
100
AcDbXrecord
280
     1
270
     1
271
     1
  0
XRECORD
  5
16
102
{ACAD_REACTORS
330
12
102
}
330
12
100
AcDbXrecord
280
     1
270
     1
271
     1
  0
XRECORD
  5
18
102
{ACAD_REACTORS
330
12
102
}
330
12
100
AcDbXrecord
280
     1
270
     1
271
     1
  0
XRECORD
  5
15
102
{ACAD_REACTORS
330
12
102
}
330
12
100
AcDbXrecord
280
     1
270
     1
271
     1
  0
XRECORD
  5
24
102
{ACAD_REACTORS
330
22
102
}
330
22
100
AcDbXrecord
280
     1
270
     1
271
     1
  0
XRECORD
  5
23
102
{ACAD_REACTORS
330
22
102
}
330
22
100
AcDbXrecord
280
     1
270
     1
271
     1
  0
XRECORD
  5
27
102
{ACAD_REACTORS
330
22
102
}
330
22
100
AcDbXrecord
280
     1
270
     1
271
     1
  0
XRECORD
  5
26
102
{ACAD_REACTORS
330
22
102
}
330
22
100
AcDbXrecord
280
     1
270
     1
271
     1
  0
XRECORD
  5
28
102
{ACAD_REACTORS
330
22
102
}
330
22
100
AcDbXrecord
280
     1
270
     1
271
     1
  0
XRECORD
  5
25
102
{ACAD_REACTORS
330
22
102
}
330
22
100
AcDbXrecord
280
     1
270
     1
271
     1
  0
CELLSTYLEMAP
  5
380
102
{ACAD_REACTORS
330
37F
102
}
330
37F
100
AcDbCellStyleMap
 90
        3
300
CELLSTYLE
  1
TABLEFORMAT_BEGIN
 90
        5
170
     1
 91
        0
 92
    32768
 62
   257
 93
        1
300
CONTENTFORMAT
  1
CONTENTFORMAT_BEGIN
 90
        0
 91
        0
 92
      512
 93
        0
300

 40
0.0
140
1.0
 94
        5
 62
     0
340
55
144
0.25
309
CONTENTFORMAT_END
171
     0
 94
        0
309
TABLEFORMAT_END
  1
CELLSTYLE_BEGIN
 90
        1
 91
        1
300
_TITLE
309
CELLSTYLE_END
300
CELLSTYLE
  1
TABLEFORMAT_BEGIN
 90
        5
170
     1
 91
        0
 92
        0
 62
   257
 93
        1
300
CONTENTFORMAT
  1
CONTENTFORMAT_BEGIN
 90
        0
 91
        0
 92
      512
 93
        0
300

 40
0.0
140
1.0
 94
        5
 62
     0
340
55
144
0.18
309
CONTENTFORMAT_END
171
     0
 94
        0
309
TABLEFORMAT_END
  1
CELLSTYLE_BEGIN
 90
        2
 91
        1
300
_HEADER
309
CELLSTYLE_END
300
CELLSTYLE
  1
TABLEFORMAT_BEGIN
 90
        5
170
     1
 91
        0
 92
        0
 62
   257
 93
        1
300
CONTENTFORMAT
  1
CONTENTFORMAT_BEGIN
 90
        0
 91
        0
 92
      512
 93
        0
300

 40
0.0
140
1.0
 94
        2
 62
     0
340
55
144
0.18
309
CONTENTFORMAT_END
171
     0
 94
        0
309
TABLEFORMAT_END
  1
CELLSTYLE_BEGIN
 90
        3
 91
        2
300
_DATA
309
CELLSTYLE_END
  0
ENDSEC
  0
EOF
