  0
SECTION
  2
HEADER
  9
$ACADVER
  1
AC1009
  9
$ANGDIR
  70
0
  9
$CECOLOR
  62
256
  9
$CELTYPE
  6
BYLAYER
  9
$EXTMIN
  10
15.9896
  20
-40.209
  9
$EXTMAX
  10
76.377
  20
21.8738
  9
$FILLMODE
  70
1
  9
$MIRRTEXT
  70
0
  0
ENDSEC
  0
SECTION
  2
TABLES
  0
TABLE
  2
LAYER
  70
23
  0
LAYER
  2
Top_Paste
  70
64
  62
7
  6
CONTINUOUS
  0
ENDTAB
  0
ENDSEC
  0
SECTION
  2
ENTITIES
  0
POLYLINE
  8
Top_Paste
  6
CONTINUOUS
  66
1
  70
0
  40
0.197
  41
0.197
  0
VERTEX
  8
Top_Paste
  10
35.8805
  20
1.2553
  42
1
  0
VERTEX
  8
Top_Paste
  10
36.0775
  20
1.2553
  42
1
  0
VERTEX
  8
Top_Paste
  10
35.8805
  20
1.2553
  42
1
  0
SEQEND
  0
POLYLINE
  8
Top_Paste
  6
CONTINUOUS
  66
1
  70
0
  40
0.197
  41
0.197
  0
VERTEX
  8
Top_Paste
  10
35.0745
  20
1.2553
  42
1
  0
VERTEX
  8
Top_Paste
  10
35.2715
  20
1.2553
  42
1
  0
VERTEX
  8
Top_Paste
  10
35.0745
  20
1.2553
  42
1
  0
SEQEND
  0
POLYLINE
  8
Top_Paste
  6
CONTINUOUS
  66
1
  70
0
  40
0.197
  41
0.197
  0
VERTEX
  8
Top_Paste
  10
35.0745
  20
2.2613
  42
1
  0
VERTEX
  8
Top_Paste
  10
35.2715
  20
2.2613
  42
1
  0
VERTEX
  8
Top_Paste
  10
35.0745
  20
2.2613
  42
1
  0
SEQEND
  0
POLYLINE
  8
Top_Paste
  6
CONTINUOUS
  66
1
  70
0
  40
0.197
  41
0.197
  0
VERTEX
  8
Top_Paste
  10
35.8805
  20
2.2613
  42
1
  0
VERTEX
  8
Top_Paste
  10
36.0775
  20
2.2613
  42
1
  0
VERTEX
  8
Top_Paste
  10
35.8805
  20
2.2613
  42
1
  0
SEQEND
  0
SOLID
  8
Top_Paste
  10
36.176
  20
2.2613
  11
36.176
  21
1.2553
  12
35.173
  22
1.0583
  13
35.979
  23
1.0583
  0
SOLID
  8
Top_Paste
  10
36.176
  20
2.2613
  11
35.173
  21
1.0583
  12
34.976
  22
2.2613
  13
34.976
  23
1.2553
  0
SOLID
  8
Top_Paste
  10
36.176
  20
2.2613
  11
34.976
  21
2.2613
  12
35.979
  22
2.4583
  13
35.173
  23
2.4583
  0
POLYLINE
  8
Top_Paste
  6
CONTINUOUS
  66
1
  70
0
  40
0.197
  41
0.197
  0
VERTEX
  8
Top_Paste
  10
33.9805
  20
1.2553
  42
1
  0
VERTEX
  8
Top_Paste
  10
34.1775
  20
1.2553
  42
1
  0
VERTEX
  8
Top_Paste
  10
33.9805
  20
1.2553
  42
1
  0
SEQEND
  0
POLYLINE
  8
Top_Paste
  6
CONTINUOUS
  66
1
  70
0
  40
0.197
  41
0.197
  0
VERTEX
  8
Top_Paste
  10
33.1745
  20
1.2553
  42
1
  0
VERTEX
  8
Top_Paste
  10
33.3715
  20
1.2553
  42
1
  0
VERTEX
  8
Top_Paste
  10
33.1745
  20
1.2553
  42
1
  0
SEQEND
  0
POLYLINE
  8
Top_Paste
  6
CONTINUOUS
  66
1
  70
0
  40
0.197
  41
0.197
  0
VERTEX
  8
Top_Paste
  10
33.1745
  20
2.2613
  42
1
  0
VERTEX
  8
Top_Paste
  10
33.3715
  20
2.2613
  42
1
  0
VERTEX
  8
Top_Paste
  10
33.1745
  20
2.2613
  42
1
  0
SEQEND
  0
POLYLINE
  8
Top_Paste
  6
CONTINUOUS
  66
1
  70
0
  40
0.197
  41
0.197
  0
VERTEX
  8
Top_Paste
  10
33.9805
  20
2.2613
  42
1
  0
VERTEX
  8
Top_Paste
  10
34.1775
  20
2.2613
  42
1
  0
VERTEX
  8
Top_Paste
  10
33.9805
  20
2.2613
  42
1
  0
SEQEND
  0
SOLID
  8
Top_Paste
  10
34.276
  20
2.2613
  11
34.276
  21
1.2553
  12
33.273
  22
1.0583
  13
34.079
  23
1.0583
  0
SOLID
  8
Top_Paste
  10
34.276
  20
2.2613
  11
33.273
  21
1.0583
  12
33.076
  22
2.2613
  13
33.076
  23
1.2553
  0
SOLID
  8
Top_Paste
  10
34.276
  20
2.2613
  11
33.076
  21
2.2613
  12
34.079
  22
2.4583
  13
33.273
  23
2.4583
  0
POLYLINE
  8
Top_Paste
  6
CONTINUOUS
  66
1
  70
0
  40
0.197
  41
0.197
  0
VERTEX
  8
Top_Paste
  10
23.0139
  20
1.1991
  42
1
  0
VERTEX
  8
Top_Paste
  10
23.2109
  20
1.1991
  42
1
  0
VERTEX
  8
Top_Paste
  10
23.0139
  20
1.1991
  42
1
  0
SEQEND
  0
POLYLINE
  8
Top_Paste
  6
CONTINUOUS
  66
1
  70
0
  40
0.197
  41
0.197
  0
VERTEX
  8
Top_Paste
  10
23.0139
  20
2.0051
  42
1
  0
VERTEX
  8
Top_Paste
  10
23.2109
  20
2.0051
  42
1
  0
VERTEX
  8
Top_Paste
  10
23.0139
  20
2.0051
  42
1
  0
SEQEND
  0
POLYLINE
  8
Top_Paste
  6
CONTINUOUS
  66
1
  70
0
  40
0.197
  41
0.197
  0
VERTEX
  8
Top_Paste
  10
24.0199
  20
2.0051
  42
1
  0
VERTEX
  8
Top_Paste
  10
24.2169
  20
2.0051
  42
1
  0
VERTEX
  8
Top_Paste
  10
24.0199
  20
2.0051
  42
1
  0
SEQEND
  0
POLYLINE
  8
Top_Paste
  6
CONTINUOUS
  66
1
  70
0
  40
0.197
  41
0.197
  0
VERTEX
  8
Top_Paste
  10
24.0199
  20
1.1991
  42
1
  0
VERTEX
  8
Top_Paste
  10
24.2169
  20
1.1991
  42
1
  0
VERTEX
  8
Top_Paste
  10
24.0199
  20
1.1991
  42
1
  0
SEQEND
  0
SOLID
  8
Top_Paste
  10
24.1184
  20
1.0021
  11
23.1124
  21
1.0021
  12
22.9154
  22
2.0051
  13
22.9154
  23
1.1991
  0
SOLID
  8
Top_Paste
  10
24.1184
  20
1.0021
  11
22.9154
  21
2.0051
  12
24.1184
  22
2.2021
  13
23.1124
  23
2.2021
  0
SOLID
  8
Top_Paste
  10
24.1184
  20
1.0021
  11
24.1184
  21
2.2021
  12
24.3154
  22
1.1991
  13
24.3154
  23
2.0051
  0
POLYLINE
  8
Top_Paste
  6
CONTINUOUS
  66
1
  70
0
  40
0.197
  41
0.197
  0
VERTEX
  8
Top_Paste
  10
23.0139
  20
3.0991
  42
1
  0
VERTEX
  8
Top_Paste
  10
23.2109
  20
3.0991
  42
1
  0
VERTEX
  8
Top_Paste
  10
23.0139
  20
3.0991
  42
1
  0
SEQEND
  0
POLYLINE
  8
Top_Paste
  6
CONTINUOUS
  66
1
  70
0
  40
0.197
  41
0.197
  0
VERTEX
  8
Top_Paste
  10
23.0139
  20
3.9051
  42
1
  0
VERTEX
  8
Top_Paste
  10
23.2109
  20
3.9051
  42
1
  0
VERTEX
  8
Top_Paste
  10
23.0139
  20
3.9051
  42
1
  0
SEQEND
  0
POLYLINE
  8
Top_Paste
  6
CONTINUOUS
  66
1
  70
0
  40
0.197
  41
0.197
  0
VERTEX
  8
Top_Paste
  10
24.0199
  20
3.9051
  42
1
  0
VERTEX
  8
Top_Paste
  10
24.2169
  20
3.9051
  42
1
  0
VERTEX
  8
Top_Paste
  10
24.0199
  20
3.9051
  42
1
  0
SEQEND
  0
POLYLINE
  8
Top_Paste
  6
CONTINUOUS
  66
1
  70
0
  40
0.197
  41
0.197
  0
VERTEX
  8
Top_Paste
  10
24.0199
  20
3.0991
  42
1
  0
VERTEX
  8
Top_Paste
  10
24.2169
  20
3.0991
  42
1
  0
VERTEX
  8
Top_Paste
  10
24.0199
  20
3.0991
  42
1
  0
SEQEND
  0
SOLID
  8
Top_Paste
  10
24.1184
  20
2.9021
  11
23.1124
  21
2.9021
  12
22.9154
  22
3.9051
  13
22.9154
  23
3.0991
  0
SOLID
  8
Top_Paste
  10
24.1184
  20
2.9021
  11
22.9154
  21
3.9051
  12
24.1184
  22
4.1021
  13
23.1124
  23
4.1021
  0
SOLID
  8
Top_Paste
  10
24.1184
  20
2.9021
  11
24.1184
  21
4.1021
  12
24.3154
  22
3.0991
  13
24.3154
  23
3.9051
  0
POLYLINE
  8
Top_Paste
  6
CONTINUOUS
  66
1
  70
0
  40
0.197
  41
0.197
  0
VERTEX
  8
Top_Paste
  10
37.0383
  20
-1.8803
  42
1
  0
VERTEX
  8
Top_Paste
  10
37.2353
  20
-1.8803
  42
1
  0
VERTEX
  8
Top_Paste
  10
37.0383
  20
-1.8803
  42
1
  0
SEQEND
  0
POLYLINE
  8
Top_Paste
  6
CONTINUOUS
  66
1
  70
0
  40
0.197
  41
0.197
  0
VERTEX
  8
Top_Paste
  10
37.0383
  20
-1.0743
  42
1
  0
VERTEX
  8
Top_Paste
  10
37.2353
  20
-1.0743
  42
1
  0
VERTEX
  8
Top_Paste
  10
37.0383
  20
-1.0743
  42
1
  0
SEQEND
  0
POLYLINE
  8
Top_Paste
  6
CONTINUOUS
  66
1
  70
0
  40
0.197
  41
0.197
  0
VERTEX
  8
Top_Paste
  10
38.0443
  20
-1.0743
  42
1
  0
VERTEX
  8
Top_Paste
  10
38.2413
  20
-1.0743
  42
1
  0
VERTEX
  8
Top_Paste
  10
38.0443
  20
-1.0743
  42
1
  0
SEQEND
  0
POLYLINE
  8
Top_Paste
  6
CONTINUOUS
  66
1
  70
0
  40
0.197
  41
0.197
  0
VERTEX
  8
Top_Paste
  10
38.0443
  20
-1.8803
  42
1
  0
VERTEX
  8
Top_Paste
  10
38.2413
  20
-1.8803
  42
1
  0
VERTEX
  8
Top_Paste
  10
38.0443
  20
-1.8803
  42
1
  0
SEQEND
  0
SOLID
  8
Top_Paste
  10
38.1428
  20
-2.0773
  11
37.1368
  21
-2.0773
  12
36.9398
  22
-1.0743
  13
36.9398
  23
-1.8803
  0
SOLID
  8
Top_Paste
  10
38.1428
  20
-2.0773
  11
36.9398
  21
-1.0743
  12
38.1428
  22
-0.8773
  13
37.1368
  23
-0.8773
  0
SOLID
  8
Top_Paste
  10
38.1428
  20
-2.0773
  11
38.1428
  21
-0.8773
  12
38.3398
  22
-1.8803
  13
38.3398
  23
-1.0743
  0
POLYLINE
  8
Top_Paste
  6
CONTINUOUS
  66
1
  70
0
  40
0.197
  41
0.197
  0
VERTEX
  8
Top_Paste
  10
37.0383
  20
0.0197
  42
1
  0
VERTEX
  8
Top_Paste
  10
37.2353
  20
0.0197
  42
1
  0
VERTEX
  8
Top_Paste
  10
37.0383
  20
0.0197
  42
1
  0
SEQEND
  0
POLYLINE
  8
Top_Paste
  6
CONTINUOUS
  66
1
  70
0
  40
0.197
  41
0.197
  0
VERTEX
  8
Top_Paste
  10
37.0383
  20
0.8257
  42
1
  0
VERTEX
  8
Top_Paste
  10
37.2353
  20
0.8257
  42
1
  0
VERTEX
  8
Top_Paste
  10
37.0383
  20
0.8257
  42
1
  0
SEQEND
  0
POLYLINE
  8
Top_Paste
  6
CONTINUOUS
  66
1
  70
0
  40
0.197
  41
0.197
  0
VERTEX
  8
Top_Paste
  10
38.0443
  20
0.8257
  42
1
  0
VERTEX
  8
Top_Paste
  10
38.2413
  20
0.8257
  42
1
  0
VERTEX
  8
Top_Paste
  10
38.0443
  20
0.8257
  42
1
  0
SEQEND
  0
POLYLINE
  8
Top_Paste
  6
CONTINUOUS
  66
1
  70
0
  40
0.197
  41
0.197
  0
VERTEX
  8
Top_Paste
  10
38.0443
  20
0.0197
  42
1
  0
VERTEX
  8
Top_Paste
  10
38.2413
  20
0.0197
  42
1
  0
VERTEX
  8
Top_Paste
  10
38.0443
  20
0.0197
  42
1
  0
SEQEND
  0
SOLID
  8
Top_Paste
  10
38.1428
  20
-0.1773
  11
37.1368
  21
-0.1773
  12
36.9398
  22
0.8257
  13
36.9398
  23
0.0197
  0
SOLID
  8
Top_Paste
  10
38.1428
  20
-0.1773
  11
36.9398
  21
0.8257
  12
38.1428
  22
1.0227
  13
37.1368
  23
1.0227
  0
SOLID
  8
Top_Paste
  10
38.1428
  20
-0.1773
  11
38.1428
  21
1.0227
  12
38.3398
  22
0.0197
  13
38.3398
  23
0.8257
  0
POLYLINE
  8
Top_Paste
  6
CONTINUOUS
  66
1
  70
0
  40
0.197
  41
0.197
  0
VERTEX
  8
Top_Paste
  10
25.0059
  20
3.2197
  42
1
  0
VERTEX
  8
Top_Paste
  10
25.2029
  20
3.2197
  42
1
  0
VERTEX
  8
Top_Paste
  10
25.0059
  20
3.2197
  42
1
  0
SEQEND
  0
POLYLINE
  8
Top_Paste
  6
CONTINUOUS
  66
1
  70
0
  40
0.197
  41
0.197
  0
VERTEX
  8
Top_Paste
  10
25.0059
  20
4.0257
  42
1
  0
VERTEX
  8
Top_Paste
  10
25.2029
  20
4.0257
  42
1
  0
VERTEX
  8
Top_Paste
  10
25.0059
  20
4.0257
  42
1
  0
SEQEND
  0
POLYLINE
  8
Top_Paste
  6
CONTINUOUS
  66
1
  70
0
  40
0.197
  41
0.197
  0
VERTEX
  8
Top_Paste
  10
26.0119
  20
4.0257
  42
1
  0
VERTEX
  8
Top_Paste
  10
26.2089
  20
4.0257
  42
1
  0
VERTEX
  8
Top_Paste
  10
26.0119
  20
4.0257
  42
1
  0
SEQEND
  0
POLYLINE
  8
Top_Paste
  6
CONTINUOUS
  66
1
  70
0
  40
0.197
  41
0.197
  0
VERTEX
  8
Top_Paste
  10
26.0119
  20
3.2197
  42
1
  0
VERTEX
  8
Top_Paste
  10
26.2089
  20
3.2197
  42
1
  0
VERTEX
  8
Top_Paste
  10
26.0119
  20
3.2197
  42
1
  0
SEQEND
  0
SOLID
  8
Top_Paste
  10
26.1104
  20
3.0227
  11
25.1044
  21
3.0227
  12
24.9074
  22
4.0257
  13
24.9074
  23
3.2197
  0
SOLID
  8
Top_Paste
  10
26.1104
  20
3.0227
  11
24.9074
  21
4.0257
  12
26.1104
  22
4.2227
  13
25.1044
  23
4.2227
  0
SOLID
  8
Top_Paste
  10
26.1104
  20
3.0227
  11
26.1104
  21
4.2227
  12
26.3074
  22
3.2197
  13
26.3074
  23
4.0257
  0
POLYLINE
  8
Top_Paste
  6
CONTINUOUS
  66
1
  70
0
  40
0.197
  41
0.197
  0
VERTEX
  8
Top_Paste
  10
25.0059
  20
5.1197
  42
1
  0
VERTEX
  8
Top_Paste
  10
25.2029
  20
5.1197
  42
1
  0
VERTEX
  8
Top_Paste
  10
25.0059
  20
5.1197
  42
1
  0
SEQEND
  0
POLYLINE
  8
Top_Paste
  6
CONTINUOUS
  66
1
  70
0
  40
0.197
  41
0.197
  0
VERTEX
  8
Top_Paste
  10
25.0059
  20
5.9257
  42
1
  0
VERTEX
  8
Top_Paste
  10
25.2029
  20
5.9257
  42
1
  0
VERTEX
  8
Top_Paste
  10
25.0059
  20
5.9257
  42
1
  0
SEQEND
  0
POLYLINE
  8
Top_Paste
  6
CONTINUOUS
  66
1
  70
0
  40
0.197
  41
0.197
  0
VERTEX
  8
Top_Paste
  10
26.0119
  20
5.9257
  42
1
  0
VERTEX
  8
Top_Paste
  10
26.2089
  20
5.9257
  42
1
  0
VERTEX
  8
Top_Paste
  10
26.0119
  20
5.9257
  42
1
  0
SEQEND
  0
POLYLINE
  8
Top_Paste
  6
CONTINUOUS
  66
1
  70
0
  40
0.197
  41
0.197
  0
VERTEX
  8
Top_Paste
  10
26.0119
  20
5.1197
  42
1
  0
VERTEX
  8
Top_Paste
  10
26.2089
  20
5.1197
  42
1
  0
VERTEX
  8
Top_Paste
  10
26.0119
  20
5.1197
  42
1
  0
SEQEND
  0
SOLID
  8
Top_Paste
  10
26.1104
  20
4.9227
  11
25.1044
  21
4.9227
  12
24.9074
  22
5.9257
  13
24.9074
  23
5.1197
  0
SOLID
  8
Top_Paste
  10
26.1104
  20
4.9227
  11
24.9074
  21
5.9257
  12
26.1104
  22
6.1227
  13
25.1044
  23
6.1227
  0
SOLID
  8
Top_Paste
  10
26.1104
  20
4.9227
  11
26.1104
  21
6.1227
  12
26.3074
  22
5.1197
  13
26.3074
  23
5.9257
  0
POLYLINE
  8
Top_Paste
  6
CONTINUOUS
  66
1
  70
0
  40
0.197
  41
0.197
  0
VERTEX
  8
Top_Paste
  10
41.7285
  20
-13.467
  42
1
  0
VERTEX
  8
Top_Paste
  10
41.9255
  20
-13.467
  42
1
  0
VERTEX
  8
Top_Paste
  10
41.7285
  20
-13.467
  42
1
  0
SEQEND
  0
POLYLINE
  8
Top_Paste
  6
CONTINUOUS
  66
1
  70
0
  40
0.197
  41
0.197
  0
VERTEX
  8
Top_Paste
  10
42.5345
  20
-13.467
  42
1
  0
VERTEX
  8
Top_Paste
  10
42.7315
  20
-13.467
  42
1
  0
VERTEX
  8
Top_Paste
  10
42.5345
  20
-13.467
  42
1
  0
SEQEND
  0
POLYLINE
  8
Top_Paste
  6
CONTINUOUS
  66
1
  70
0
  40
0.197
  41
0.197
  0
VERTEX
  8
Top_Paste
  10
42.5345
  20
-14.473
  42
1
  0
VERTEX
  8
Top_Paste
  10
42.7315
  20
-14.473
  42
1
  0
VERTEX
  8
Top_Paste
  10
42.5345
  20
-14.473
  42
1
  0
SEQEND
  0
POLYLINE
  8
Top_Paste
  6
CONTINUOUS
  66
1
  70
0
  40
0.197
  41
0.197
  0
VERTEX
  8
Top_Paste
  10
41.7285
  20
-14.473
  42
1
  0
VERTEX
  8
Top_Paste
  10
41.9255
  20
-14.473
  42
1
  0
VERTEX
  8
Top_Paste
  10
41.7285
  20
-14.473
  42
1
  0
SEQEND
  0
SOLID
  8
Top_Paste
  10
41.63
  20
-14.473
  11
41.63
  21
-13.467
  12
42.633
  22
-13.27
  13
41.827
  23
-13.27
  0
SOLID
  8
Top_Paste
  10
41.63
  20
-14.473
  11
42.633
  21
-13.27
  12
42.83
  22
-14.473
  13
42.83
  23
-13.467
  0
SOLID
  8
Top_Paste
  10
41.63
  20
-14.473
  11
42.83
  21
-14.473
  12
41.827
  22
-14.67
  13
42.633
  23
-14.67
  0
POLYLINE
  8
Top_Paste
  6
CONTINUOUS
  66
1
  70
0
  40
0.197
  41
0.197
  0
VERTEX
  8
Top_Paste
  10
43.6285
  20
-13.467
  42
1
  0
VERTEX
  8
Top_Paste
  10
43.8255
  20
-13.467
  42
1
  0
VERTEX
  8
Top_Paste
  10
43.6285
  20
-13.467
  42
1
  0
SEQEND
  0
POLYLINE
  8
Top_Paste
  6
CONTINUOUS
  66
1
  70
0
  40
0.197
  41
0.197
  0
VERTEX
  8
Top_Paste
  10
44.4345
  20
-13.467
  42
1
  0
VERTEX
  8
Top_Paste
  10
44.6315
  20
-13.467
  42
1
  0
VERTEX
  8
Top_Paste
  10
44.4345
  20
-13.467
  42
1
  0
SEQEND
  0
POLYLINE
  8
Top_Paste
  6
CONTINUOUS
  66
1
  70
0
  40
0.197
  41
0.197
  0
VERTEX
  8
Top_Paste
  10
44.4345
  20
-14.473
  42
1
  0
VERTEX
  8
Top_Paste
  10
44.6315
  20
-14.473
  42
1
  0
VERTEX
  8
Top_Paste
  10
44.4345
  20
-14.473
  42
1
  0
SEQEND
  0
POLYLINE
  8
Top_Paste
  6
CONTINUOUS
  66
1
  70
0
  40
0.197
  41
0.197
  0
VERTEX
  8
Top_Paste
  10
43.6285
  20
-14.473
  42
1
  0
VERTEX
  8
Top_Paste
  10
43.8255
  20
-14.473
  42
1
  0
VERTEX
  8
Top_Paste
  10
43.6285
  20
-14.473
  42
1
  0
SEQEND
  0
SOLID
  8
Top_Paste
  10
43.53
  20
-14.473
  11
43.53
  21
-13.467
  12
44.533
  22
-13.27
  13
43.727
  23
-13.27
  0
SOLID
  8
Top_Paste
  10
43.53
  20
-14.473
  11
44.533
  21
-13.27
  12
44.73
  22
-14.473
  13
44.73
  23
-13.467
  0
SOLID
  8
Top_Paste
  10
43.53
  20
-14.473
  11
44.73
  21
-14.473
  12
43.727
  22
-14.67
  13
44.533
  23
-14.67
  0
POLYLINE
  8
Top_Paste
  6
CONTINUOUS
  66
1
  70
0
  40
0.197
  41
0.197
  0
VERTEX
  8
Top_Paste
  10
45.6005
  20
-13.467
  42
1
  0
VERTEX
  8
Top_Paste
  10
45.7975
  20
-13.467
  42
1
  0
VERTEX
  8
Top_Paste
  10
45.6005
  20
-13.467
  42
1
  0
SEQEND
  0
POLYLINE
  8
Top_Paste
  6
CONTINUOUS
  66
1
  70
0
  40
0.197
  41
0.197
  0
VERTEX
  8
Top_Paste
  10
46.4065
  20
-13.467
  42
1
  0
VERTEX
  8
Top_Paste
  10
46.6035
  20
-13.467
  42
1
  0
VERTEX
  8
Top_Paste
  10
46.4065
  20
-13.467
  42
1
  0
SEQEND
  0
POLYLINE
  8
Top_Paste
  6
CONTINUOUS
  66
1
  70
0
  40
0.197
  41
0.197
  0
VERTEX
  8
Top_Paste
  10
46.4065
  20
-14.473
  42
1
  0
VERTEX
  8
Top_Paste
  10
46.6035
  20
-14.473
  42
1
  0
VERTEX
  8
Top_Paste
  10
46.4065
  20
-14.473
  42
1
  0
SEQEND
  0
POLYLINE
  8
Top_Paste
  6
CONTINUOUS
  66
1
  70
0
  40
0.197
  41
0.197
  0
VERTEX
  8
Top_Paste
  10
45.6005
  20
-14.473
  42
1
  0
VERTEX
  8
Top_Paste
  10
45.7975
  20
-14.473
  42
1
  0
VERTEX
  8
Top_Paste
  10
45.6005
  20
-14.473
  42
1
  0
SEQEND
  0
SOLID
  8
Top_Paste
  10
45.502
  20
-14.473
  11
45.502
  21
-13.467
  12
46.505
  22
-13.27
  13
45.699
  23
-13.27
  0
SOLID
  8
Top_Paste
  10
45.502
  20
-14.473
  11
46.505
  21
-13.27
  12
46.702
  22
-14.473
  13
46.702
  23
-13.467
  0
SOLID
  8
Top_Paste
  10
45.502
  20
-14.473
  11
46.702
  21
-14.473
  12
45.699
  22
-14.67
  13
46.505
  23
-14.67
  0
POLYLINE
  8
Top_Paste
  6
CONTINUOUS
  66
1
  70
0
  40
0.197
  41
0.197
  0
VERTEX
  8
Top_Paste
  10
47.5005
  20
-13.467
  42
1
  0
VERTEX
  8
Top_Paste
  10
47.6975
  20
-13.467
  42
1
  0
VERTEX
  8
Top_Paste
  10
47.5005
  20
-13.467
  42
1
  0
SEQEND
  0
POLYLINE
  8
Top_Paste
  6
CONTINUOUS
  66
1
  70
0
  40
0.197
  41
0.197
  0
VERTEX
  8
Top_Paste
  10
48.3065
  20
-13.467
  42
1
  0
VERTEX
  8
Top_Paste
  10
48.5035
  20
-13.467
  42
1
  0
VERTEX
  8
Top_Paste
  10
48.3065
  20
-13.467
  42
1
  0
SEQEND
  0
POLYLINE
  8
Top_Paste
  6
CONTINUOUS
  66
1
  70
0
  40
0.197
  41
0.197
  0
VERTEX
  8
Top_Paste
  10
48.3065
  20
-14.473
  42
1
  0
VERTEX
  8
Top_Paste
  10
48.5035
  20
-14.473
  42
1
  0
VERTEX
  8
Top_Paste
  10
48.3065
  20
-14.473
  42
1
  0
SEQEND
  0
POLYLINE
  8
Top_Paste
  6
CONTINUOUS
  66
1
  70
0
  40
0.197
  41
0.197
  0
VERTEX
  8
Top_Paste
  10
47.5005
  20
-14.473
  42
1
  0
VERTEX
  8
Top_Paste
  10
47.6975
  20
-14.473
  42
1
  0
VERTEX
  8
Top_Paste
  10
47.5005
  20
-14.473
  42
1
  0
SEQEND
  0
SOLID
  8
Top_Paste
  10
47.402
  20
-14.473
  11
47.402
  21
-13.467
  12
48.405
  22
-13.27
  13
47.599
  23
-13.27
  0
SOLID
  8
Top_Paste
  10
47.402
  20
-14.473
  11
48.405
  21
-13.27
  12
48.602
  22
-14.473
  13
48.602
  23
-13.467
  0
SOLID
  8
Top_Paste
  10
47.402
  20
-14.473
  11
48.602
  21
-14.473
  12
47.599
  22
-14.67
  13
48.405
  23
-14.67
  0
POLYLINE
  8
Top_Paste
  6
CONTINUOUS
  66
1
  70
0
  40
0.197
  41
0.197
  0
VERTEX
  8
Top_Paste
  10
24.4443
  20
-25.5725
  42
1
  0
VERTEX
  8
Top_Paste
  10
24.6413
  20
-25.5725
  42
1
  0
VERTEX
  8
Top_Paste
  10
24.4443
  20
-25.5725
  42
1
  0
SEQEND
  0
POLYLINE
  8
Top_Paste
  6
CONTINUOUS
  66
1
  70
0
  40
0.197
  41
0.197
  0
VERTEX
  8
Top_Paste
  10
25.2503
  20
-25.5725
  42
1
  0
VERTEX
  8
Top_Paste
  10
25.4473
  20
-25.5725
  42
1
  0
VERTEX
  8
Top_Paste
  10
25.2503
  20
-25.5725
  42
1
  0
SEQEND
  0
POLYLINE
  8
Top_Paste
  6
CONTINUOUS
  66
1
  70
0
  40
0.197
  41
0.197
  0
VERTEX
  8
Top_Paste
  10
25.2503
  20
-26.5785
  42
1
  0
VERTEX
  8
Top_Paste
  10
25.4473
  20
-26.5785
  42
1
  0
VERTEX
  8
Top_Paste
  10
25.2503
  20
-26.5785
  42
1
  0
SEQEND
  0
POLYLINE
  8
Top_Paste
  6
CONTINUOUS
  66
1
  70
0
  40
0.197
  41
0.197
  0
VERTEX
  8
Top_Paste
  10
24.4443
  20
-26.5785
  42
1
  0
VERTEX
  8
Top_Paste
  10
24.6413
  20
-26.5785
  42
1
  0
VERTEX
  8
Top_Paste
  10
24.4443
  20
-26.5785
  42
1
  0
SEQEND
  0
SOLID
  8
Top_Paste
  10
24.3458
  20
-26.5785
  11
24.3458
  21
-25.5725
  12
25.3488
  22
-25.3755
  13
24.5428
  23
-25.3755
  0
SOLID
  8
Top_Paste
  10
24.3458
  20
-26.5785
  11
25.3488
  21
-25.3755
  12
25.5458
  22
-26.5785
  13
25.5458
  23
-25.5725
  0
SOLID
  8
Top_Paste
  10
24.3458
  20
-26.5785
  11
25.5458
  21
-26.5785
  12
24.5428
  22
-26.7755
  13
25.3488
  23
-26.7755
  0
POLYLINE
  8
Top_Paste
  6
CONTINUOUS
  66
1
  70
0
  40
0.197
  41
0.197
  0
VERTEX
  8
Top_Paste
  10
26.3443
  20
-25.5725
  42
1
  0
VERTEX
  8
Top_Paste
  10
26.5413
  20
-25.5725
  42
1
  0
VERTEX
  8
Top_Paste
  10
26.3443
  20
-25.5725
  42
1
  0
SEQEND
  0
POLYLINE
  8
Top_Paste
  6
CONTINUOUS
  66
1
  70
0
  40
0.197
  41
0.197
  0
VERTEX
  8
Top_Paste
  10
27.1503
  20
-25.5725
  42
1
  0
VERTEX
  8
Top_Paste
  10
27.3473
  20
-25.5725
  42
1
  0
VERTEX
  8
Top_Paste
  10
27.1503
  20
-25.5725
  42
1
  0
SEQEND
  0
POLYLINE
  8
Top_Paste
  6
CONTINUOUS
  66
1
  70
0
  40
0.197
  41
0.197
  0
VERTEX
  8
Top_Paste
  10
27.1503
  20
-26.5785
  42
1
  0
VERTEX
  8
Top_Paste
  10
27.3473
  20
-26.5785
  42
1
  0
VERTEX
  8
Top_Paste
  10
27.1503
  20
-26.5785
  42
1
  0
SEQEND
  0
POLYLINE
  8
Top_Paste
  6
CONTINUOUS
  66
1
  70
0
  40
0.197
  41
0.197
  0
VERTEX
  8
Top_Paste
  10
26.3443
  20
-26.5785
  42
1
  0
VERTEX
  8
Top_Paste
  10
26.5413
  20
-26.5785
  42
1
  0
VERTEX
  8
Top_Paste
  10
26.3443
  20
-26.5785
  42
1
  0
SEQEND
  0
SOLID
  8
Top_Paste
  10
26.2458
  20
-26.5785
  11
26.2458
  21
-25.5725
  12
27.2488
  22
-25.3755
  13
26.4428
  23
-25.3755
  0
SOLID
  8
Top_Paste
  10
26.2458
  20
-26.5785
  11
27.2488
  21
-25.3755
  12
27.4458
  22
-26.5785
  13
27.4458
  23
-25.5725
  0
SOLID
  8
Top_Paste
  10
26.2458
  20
-26.5785
  11
27.4458
  21
-26.5785
  12
26.4428
  22
-26.7755
  13
27.2488
  23
-26.7755
  0
POLYLINE
  8
Top_Paste
  6
CONTINUOUS
  66
1
  70
0
  40
0.197
  41
0.197
  0
VERTEX
  8
Top_Paste
  10
27.1503
  20
-23.7111
  42
1
  0
VERTEX
  8
Top_Paste
  10
27.3473
  20
-23.7111
  42
1
  0
VERTEX
  8
Top_Paste
  10
27.1503
  20
-23.7111
  42
1
  0
SEQEND
  0
POLYLINE
  8
Top_Paste
  6
CONTINUOUS
  66
1
  70
0
  40
0.197
  41
0.197
  0
VERTEX
  8
Top_Paste
  10
26.3443
  20
-23.7111
  42
1
  0
VERTEX
  8
Top_Paste
  10
26.5413
  20
-23.7111
  42
1
  0
VERTEX
  8
Top_Paste
  10
26.3443
  20
-23.7111
  42
1
  0
SEQEND
  0
POLYLINE
  8
Top_Paste
  6
CONTINUOUS
  66
1
  70
0
  40
0.197
  41
0.197
  0
VERTEX
  8
Top_Paste
  10
26.3443
  20
-22.7051
  42
1
  0
VERTEX
  8
Top_Paste
  10
26.5413
  20
-22.7051
  42
1
  0
VERTEX
  8
Top_Paste
  10
26.3443
  20
-22.7051
  42
1
  0
SEQEND
  0
POLYLINE
  8
Top_Paste
  6
CONTINUOUS
  66
1
  70
0
  40
0.197
  41
0.197
  0
VERTEX
  8
Top_Paste
  10
27.1503
  20
-22.7051
  42
1
  0
VERTEX
  8
Top_Paste
  10
27.3473
  20
-22.7051
  42
1
  0
VERTEX
  8
Top_Paste
  10
27.1503
  20
-22.7051
  42
1
  0
SEQEND
  0
SOLID
  8
Top_Paste
  10
27.4458
  20
-22.7051
  11
27.4458
  21
-23.7111
  12
26.4428
  22
-23.9081
  13
27.2488
  23
-23.9081
  0
SOLID
  8
Top_Paste
  10
27.4458
  20
-22.7051
  11
26.4428
  21
-23.9081
  12
26.2458
  22
-22.7051
  13
26.2458
  23
-23.7111
  0
SOLID
  8
Top_Paste
  10
27.4458
  20
-22.7051
  11
26.2458
  21
-22.7051
  12
27.2488
  22
-22.5081
  13
26.4428
  23
-22.5081
  0
POLYLINE
  8
Top_Paste
  6
CONTINUOUS
  66
1
  70
0
  40
0.197
  41
0.197
  0
VERTEX
  8
Top_Paste
  10
25.2503
  20
-23.7111
  42
1
  0
VERTEX
  8
Top_Paste
  10
25.4473
  20
-23.7111
  42
1
  0
VERTEX
  8
Top_Paste
  10
25.2503
  20
-23.7111
  42
1
  0
SEQEND
  0
POLYLINE
  8
Top_Paste
  6
CONTINUOUS
  66
1
  70
0
  40
0.197
  41
0.197
  0
VERTEX
  8
Top_Paste
  10
24.4443
  20
-23.7111
  42
1
  0
VERTEX
  8
Top_Paste
  10
24.6413
  20
-23.7111
  42
1
  0
VERTEX
  8
Top_Paste
  10
24.4443
  20
-23.7111
  42
1
  0
SEQEND
  0
POLYLINE
  8
Top_Paste
  6
CONTINUOUS
  66
1
  70
0
  40
0.197
  41
0.197
  0
VERTEX
  8
Top_Paste
  10
24.4443
  20
-22.7051
  42
1
  0
VERTEX
  8
Top_Paste
  10
24.6413
  20
-22.7051
  42
1
  0
VERTEX
  8
Top_Paste
  10
24.4443
  20
-22.7051
  42
1
  0
SEQEND
  0
POLYLINE
  8
Top_Paste
  6
CONTINUOUS
  66
1
  70
0
  40
0.197
  41
0.197
  0
VERTEX
  8
Top_Paste
  10
25.2503
  20
-22.7051
  42
1
  0
VERTEX
  8
Top_Paste
  10
25.4473
  20
-22.7051
  42
1
  0
VERTEX
  8
Top_Paste
  10
25.2503
  20
-22.7051
  42
1
  0
SEQEND
  0
SOLID
  8
Top_Paste
  10
25.5458
  20
-22.7051
  11
25.5458
  21
-23.7111
  12
24.5428
  22
-23.9081
  13
25.3488
  23
-23.9081
  0
SOLID
  8
Top_Paste
  10
25.5458
  20
-22.7051
  11
24.5428
  21
-23.9081
  12
24.3458
  22
-22.7051
  13
24.3458
  23
-23.7111
  0
SOLID
  8
Top_Paste
  10
25.5458
  20
-22.7051
  11
24.3458
  21
-22.7051
  12
25.3488
  22
-22.5081
  13
24.5428
  23
-22.5081
  0
POLYLINE
  8
Top_Paste
  6
CONTINUOUS
  66
1
  70
0
  40
0.197
  41
0.197
  0
VERTEX
  8
Top_Paste
  10
27.1503
  20
-30.9694
  42
1
  0
VERTEX
  8
Top_Paste
  10
27.3473
  20
-30.9694
  42
1
  0
VERTEX
  8
Top_Paste
  10
27.1503
  20
-30.9694
  42
1
  0
SEQEND
  0
POLYLINE
  8
Top_Paste
  6
CONTINUOUS
  66
1
  70
0
  40
0.197
  41
0.197
  0
VERTEX
  8
Top_Paste
  10
26.3443
  20
-30.9694
  42
1
  0
VERTEX
  8
Top_Paste
  10
26.5413
  20
-30.9694
  42
1
  0
VERTEX
  8
Top_Paste
  10
26.3443
  20
-30.9694
  42
1
  0
SEQEND
  0
POLYLINE
  8
Top_Paste
  6
CONTINUOUS
  66
1
  70
0
  40
0.197
  41
0.197
  0
VERTEX
  8
Top_Paste
  10
26.3443
  20
-29.9634
  42
1
  0
VERTEX
  8
Top_Paste
  10
26.5413
  20
-29.9634
  42
1
  0
VERTEX
  8
Top_Paste
  10
26.3443
  20
-29.9634
  42
1
  0
SEQEND
  0
POLYLINE
  8
Top_Paste
  6
CONTINUOUS
  66
1
  70
0
  40
0.197
  41
0.197
  0
VERTEX
  8
Top_Paste
  10
27.1503
  20
-29.9634
  42
1
  0
VERTEX
  8
Top_Paste
  10
27.3473
  20
-29.9634
  42
1
  0
VERTEX
  8
Top_Paste
  10
27.1503
  20
-29.9634
  42
1
  0
SEQEND
  0
SOLID
  8
Top_Paste
  10
27.4458
  20
-29.9634
  11
27.4458
  21
-30.9694
  12
26.4428
  22
-31.1664
  13
27.2488
  23
-31.1664
  0
SOLID
  8
Top_Paste
  10
27.4458
  20
-29.9634
  11
26.4428
  21
-31.1664
  12
26.2458
  22
-29.9634
  13
26.2458
  23
-30.9694
  0
SOLID
  8
Top_Paste
  10
27.4458
  20
-29.9634
  11
26.2458
  21
-29.9634
  12
27.2488
  22
-29.7664
  13
26.4428
  23
-29.7664
  0
POLYLINE
  8
Top_Paste
  6
CONTINUOUS
  66
1
  70
0
  40
0.197
  41
0.197
  0
VERTEX
  8
Top_Paste
  10
25.2503
  20
-30.9694
  42
1
  0
VERTEX
  8
Top_Paste
  10
25.4473
  20
-30.9694
  42
1
  0
VERTEX
  8
Top_Paste
  10
25.2503
  20
-30.9694
  42
1
  0
SEQEND
  0
POLYLINE
  8
Top_Paste
  6
CONTINUOUS
  66
1
  70
0
  40
0.197
  41
0.197
  0
VERTEX
  8
Top_Paste
  10
24.4443
  20
-30.9694
  42
1
  0
VERTEX
  8
Top_Paste
  10
24.6413
  20
-30.9694
  42
1
  0
VERTEX
  8
Top_Paste
  10
24.4443
  20
-30.9694
  42
1
  0
SEQEND
  0
POLYLINE
  8
Top_Paste
  6
CONTINUOUS
  66
1
  70
0
  40
0.197
  41
0.197
  0
VERTEX
  8
Top_Paste
  10
24.4443
  20
-29.9634
  42
1
  0
VERTEX
  8
Top_Paste
  10
24.6413
  20
-29.9634
  42
1
  0
VERTEX
  8
Top_Paste
  10
24.4443
  20
-29.9634
  42
1
  0
SEQEND
  0
POLYLINE
  8
Top_Paste
  6
CONTINUOUS
  66
1
  70
0
  40
0.197
  41
0.197
  0
VERTEX
  8
Top_Paste
  10
25.2503
  20
-29.9634
  42
1
  0
VERTEX
  8
Top_Paste
  10
25.4473
  20
-29.9634
  42
1
  0
VERTEX
  8
Top_Paste
  10
25.2503
  20
-29.9634
  42
1
  0
SEQEND
  0
SOLID
  8
Top_Paste
  10
25.5458
  20
-29.9634
  11
25.5458
  21
-30.9694
  12
24.5428
  22
-31.1664
  13
25.3488
  23
-31.1664
  0
SOLID
  8
Top_Paste
  10
25.5458
  20
-29.9634
  11
24.5428
  21
-31.1664
  12
24.3458
  22
-29.9634
  13
24.3458
  23
-30.9694
  0
SOLID
  8
Top_Paste
  10
25.5458
  20
-29.9634
  11
24.3458
  21
-29.9634
  12
25.3488
  22
-29.7664
  13
24.5428
  23
-29.7664
  0
POLYLINE
  8
Top_Paste
  6
CONTINUOUS
  66
1
  70
0
  40
0.197
  41
0.197
  0
VERTEX
  8
Top_Paste
  10
24.0199
  20
-0.7673
  42
1
  0
VERTEX
  8
Top_Paste
  10
24.2169
  20
-0.7673
  42
1
  0
VERTEX
  8
Top_Paste
  10
24.0199
  20
-0.7673
  42
1
  0
SEQEND
  0
POLYLINE
  8
Top_Paste
  6
CONTINUOUS
  66
1
  70
0
  40
0.197
  41
0.197
  0
VERTEX
  8
Top_Paste
  10
24.0199
  20
-1.5733
  42
1
  0
VERTEX
  8
Top_Paste
  10
24.2169
  20
-1.5733
  42
1
  0
VERTEX
  8
Top_Paste
  10
24.0199
  20
-1.5733
  42
1
  0
SEQEND
  0
POLYLINE
  8
Top_Paste
  6
CONTINUOUS
  66
1
  70
0
  40
0.197
  41
0.197
  0
VERTEX
  8
Top_Paste
  10
23.0139
  20
-1.5733
  42
1
  0
VERTEX
  8
Top_Paste
  10
23.2109
  20
-1.5733
  42
1
  0
VERTEX
  8
Top_Paste
  10
23.0139
  20
-1.5733
  42
1
  0
SEQEND
  0
POLYLINE
  8
Top_Paste
  6
CONTINUOUS
  66
1
  70
0
  40
0.197
  41
0.197
  0
VERTEX
  8
Top_Paste
  10
23.0139
  20
-0.7673
  42
1
  0
VERTEX
  8
Top_Paste
  10
23.2109
  20
-0.7673
  42
1
  0
VERTEX
  8
Top_Paste
  10
23.0139
  20
-0.7673
  42
1
  0
SEQEND
  0
SOLID
  8
Top_Paste
  10
23.1124
  20
-0.5703
  11
24.1184
  21
-0.5703
  12
24.3154
  22
-1.5733
  13
24.3154
  23
-0.7673
  0
SOLID
  8
Top_Paste
  10
23.1124
  20
-0.5703
  11
24.3154
  21
-1.5733
  12
23.1124
  22
-1.7703
  13
24.1184
  23
-1.7703
  0
SOLID
  8
Top_Paste
  10
23.1124
  20
-0.5703
  11
23.1124
  21
-1.7703
  12
22.9154
  22
-0.7673
  13
22.9154
  23
-1.5733
  0
POLYLINE
  8
Top_Paste
  6
CONTINUOUS
  66
1
  70
0
  40
0.197
  41
0.197
  0
VERTEX
  8
Top_Paste
  10
24.0199
  20
-2.6673
  42
1
  0
VERTEX
  8
Top_Paste
  10
24.2169
  20
-2.6673
  42
1
  0
VERTEX
  8
Top_Paste
  10
24.0199
  20
-2.6673
  42
1
  0
SEQEND
  0
POLYLINE
  8
Top_Paste
  6
CONTINUOUS
  66
1
  70
0
  40
0.197
  41
0.197
  0
VERTEX
  8
Top_Paste
  10
24.0199
  20
-3.4733
  42
1
  0
VERTEX
  8
Top_Paste
  10
24.2169
  20
-3.4733
  42
1
  0
VERTEX
  8
Top_Paste
  10
24.0199
  20
-3.4733
  42
1
  0
SEQEND
  0
POLYLINE
  8
Top_Paste
  6
CONTINUOUS
  66
1
  70
0
  40
0.197
  41
0.197
  0
VERTEX
  8
Top_Paste
  10
23.0139
  20
-3.4733
  42
1
  0
VERTEX
  8
Top_Paste
  10
23.2109
  20
-3.4733
  42
1
  0
VERTEX
  8
Top_Paste
  10
23.0139
  20
-3.4733
  42
1
  0
SEQEND
  0
POLYLINE
  8
Top_Paste
  6
CONTINUOUS
  66
1
  70
0
  40
0.197
  41
0.197
  0
VERTEX
  8
Top_Paste
  10
23.0139
  20
-2.6673
  42
1
  0
VERTEX
  8
Top_Paste
  10
23.2109
  20
-2.6673
  42
1
  0
VERTEX
  8
Top_Paste
  10
23.0139
  20
-2.6673
  42
1
  0
SEQEND
  0
SOLID
  8
Top_Paste
  10
23.1124
  20
-2.4703
  11
24.1184
  21
-2.4703
  12
24.3154
  22
-3.4733
  13
24.3154
  23
-2.6673
  0
SOLID
  8
Top_Paste
  10
23.1124
  20
-2.4703
  11
24.3154
  21
-3.4733
  12
23.1124
  22
-3.6703
  13
24.1184
  23
-3.6703
  0
SOLID
  8
Top_Paste
  10
23.1124
  20
-2.4703
  11
23.1124
  21
-3.6703
  12
22.9154
  22
-2.6673
  13
22.9154
  23
-3.4733
  0
POLYLINE
  8
Top_Paste
  6
CONTINUOUS
  66
1
  70
0
  40
0.197
  41
0.197
  0
VERTEX
  8
Top_Paste
  10
30.219
  20
-20.5107
  42
1
  0
VERTEX
  8
Top_Paste
  10
30.416
  20
-20.5107
  42
1
  0
VERTEX
  8
Top_Paste
  10
30.219
  20
-20.5107
  42
1
  0
SEQEND
  0
POLYLINE
  8
Top_Paste
  6
CONTINUOUS
  66
1
  70
0
  40
0.197
  41
0.197
  0
VERTEX
  8
Top_Paste
  10
31.025
  20
-20.5107
  42
1
  0
VERTEX
  8
Top_Paste
  10
31.222
  20
-20.5107
  42
1
  0
VERTEX
  8
Top_Paste
  10
31.025
  20
-20.5107
  42
1
  0
SEQEND
  0
POLYLINE
  8
Top_Paste
  6
CONTINUOUS
  66
1
  70
0
  40
0.197
  41
0.197
  0
VERTEX
  8
Top_Paste
  10
31.025
  20
-21.5167
  42
1
  0
VERTEX
  8
Top_Paste
  10
31.222
  20
-21.5167
  42
1
  0
VERTEX
  8
Top_Paste
  10
31.025
  20
-21.5167
  42
1
  0
SEQEND
  0
POLYLINE
  8
Top_Paste
  6
CONTINUOUS
  66
1
  70
0
  40
0.197
  41
0.197
  0
VERTEX
  8
Top_Paste
  10
30.219
  20
-21.5167
  42
1
  0
VERTEX
  8
Top_Paste
  10
30.416
  20
-21.5167
  42
1
  0
VERTEX
  8
Top_Paste
  10
30.219
  20
-21.5167
  42
1
  0
SEQEND
  0
SOLID
  8
Top_Paste
  10
30.1205
  20
-21.5167
  11
30.1205
  21
-20.5107
  12
31.1235
  22
-20.3137
  13
30.3175
  23
-20.3137
  0
SOLID
  8
Top_Paste
  10
30.1205
  20
-21.5167
  11
31.1235
  21
-20.3137
  12
31.3205
  22
-21.5167
  13
31.3205
  23
-20.5107
  0
SOLID
  8
Top_Paste
  10
30.1205
  20
-21.5167
  11
31.3205
  21
-21.5167
  12
30.3175
  22
-21.7137
  13
31.1235
  23
-21.7137
  0
POLYLINE
  8
Top_Paste
  6
CONTINUOUS
  66
1
  70
0
  40
0.197
  41
0.197
  0
VERTEX
  8
Top_Paste
  10
32.119
  20
-20.5107
  42
1
  0
VERTEX
  8
Top_Paste
  10
32.316
  20
-20.5107
  42
1
  0
VERTEX
  8
Top_Paste
  10
32.119
  20
-20.5107
  42
1
  0
SEQEND
  0
POLYLINE
  8
Top_Paste
  6
CONTINUOUS
  66
1
  70
0
  40
0.197
  41
0.197
  0
VERTEX
  8
Top_Paste
  10
32.925
  20
-20.5107
  42
1
  0
VERTEX
  8
Top_Paste
  10
33.122
  20
-20.5107
  42
1
  0
VERTEX
  8
Top_Paste
  10
32.925
  20
-20.5107
  42
1
  0
SEQEND
  0
POLYLINE
  8
Top_Paste
  6
CONTINUOUS
  66
1
  70
0
  40
0.197
  41
0.197
  0
VERTEX
  8
Top_Paste
  10
32.925
  20
-21.5167
  42
1
  0
VERTEX
  8
Top_Paste
  10
33.122
  20
-21.5167
  42
1
  0
VERTEX
  8
Top_Paste
  10
32.925
  20
-21.5167
  42
1
  0
SEQEND
  0
POLYLINE
  8
Top_Paste
  6
CONTINUOUS
  66
1
  70
0
  40
0.197
  41
0.197
  0
VERTEX
  8
Top_Paste
  10
32.119
  20
-21.5167
  42
1
  0
VERTEX
  8
Top_Paste
  10
32.316
  20
-21.5167
  42
1
  0
VERTEX
  8
Top_Paste
  10
32.119
  20
-21.5167
  42
1
  0
SEQEND
  0
SOLID
  8
Top_Paste
  10
32.0205
  20
-21.5167
  11
32.0205
  21
-20.5107
  12
33.0235
  22
-20.3137
  13
32.2175
  23
-20.3137
  0
SOLID
  8
Top_Paste
  10
32.0205
  20
-21.5167
  11
33.0235
  21
-20.3137
  12
33.2205
  22
-21.5167
  13
33.2205
  23
-20.5107
  0
SOLID
  8
Top_Paste
  10
32.0205
  20
-21.5167
  11
33.2205
  21
-21.5167
  12
32.2175
  22
-21.7137
  13
33.0235
  23
-21.7137
  0
POLYLINE
  8
Top_Paste
  6
CONTINUOUS
  66
1
  70
0
  40
0.197
  41
0.197
  0
VERTEX
  8
Top_Paste
  10
68.9397
  20
19.2387
  42
1
  0
VERTEX
  8
Top_Paste
  10
69.1367
  20
19.2387
  42
1
  0
VERTEX
  8
Top_Paste
  10
68.9397
  20
19.2387
  42
1
  0
SEQEND
  0
POLYLINE
  8
Top_Paste
  6
CONTINUOUS
  66
1
  70
0
  40
0.197
  41
0.197
  0
VERTEX
  8
Top_Paste
  10
68.1337
  20
19.2387
  42
1
  0
VERTEX
  8
Top_Paste
  10
68.3307
  20
19.2387
  42
1
  0
VERTEX
  8
Top_Paste
  10
68.1337
  20
19.2387
  42
1
  0
SEQEND
  0
POLYLINE
  8
Top_Paste
  6
CONTINUOUS
  66
1
  70
0
  40
0.197
  41
0.197
  0
VERTEX
  8
Top_Paste
  10
68.1337
  20
20.2447
  42
1
  0
VERTEX
  8
Top_Paste
  10
68.3307
  20
20.2447
  42
1
  0
VERTEX
  8
Top_Paste
  10
68.1337
  20
20.2447
  42
1
  0
SEQEND
  0
POLYLINE
  8
Top_Paste
  6
CONTINUOUS
  66
1
  70
0
  40
0.197
  41
0.197
  0
VERTEX
  8
Top_Paste
  10
68.9397
  20
20.2447
  42
1
  0
VERTEX
  8
Top_Paste
  10
69.1367
  20
20.2447
  42
1
  0
VERTEX
  8
Top_Paste
  10
68.9397
  20
20.2447
  42
1
  0
SEQEND
  0
SOLID
  8
Top_Paste
  10
69.2352
  20
20.2447
  11
69.2352
  21
19.2387
  12
68.2322
  22
19.0417
  13
69.0382
  23
19.0417
  0
SOLID
  8
Top_Paste
  10
69.2352
  20
20.2447
  11
68.2322
  21
19.0417
  12
68.0352
  22
20.2447
  13
68.0352
  23
19.2387
  0
SOLID
  8
Top_Paste
  10
69.2352
  20
20.2447
  11
68.0352
  21
20.2447
  12
69.0382
  22
20.4417
  13
68.2322
  23
20.4417
  0
POLYLINE
  8
Top_Paste
  6
CONTINUOUS
  66
1
  70
0
  40
0.197
  41
0.197
  0
VERTEX
  8
Top_Paste
  10
67.0397
  20
19.2387
  42
1
  0
VERTEX
  8
Top_Paste
  10
67.2367
  20
19.2387
  42
1
  0
VERTEX
  8
Top_Paste
  10
67.0397
  20
19.2387
  42
1
  0
SEQEND
  0
POLYLINE
  8
Top_Paste
  6
CONTINUOUS
  66
1
  70
0
  40
0.197
  41
0.197
  0
VERTEX
  8
Top_Paste
  10
66.2337
  20
19.2387
  42
1
  0
VERTEX
  8
Top_Paste
  10
66.4307
  20
19.2387
  42
1
  0
VERTEX
  8
Top_Paste
  10
66.2337
  20
19.2387
  42
1
  0
SEQEND
  0
POLYLINE
  8
Top_Paste
  6
CONTINUOUS
  66
1
  70
0
  40
0.197
  41
0.197
  0
VERTEX
  8
Top_Paste
  10
66.2337
  20
20.2447
  42
1
  0
VERTEX
  8
Top_Paste
  10
66.4307
  20
20.2447
  42
1
  0
VERTEX
  8
Top_Paste
  10
66.2337
  20
20.2447
  42
1
  0
SEQEND
  0
POLYLINE
  8
Top_Paste
  6
CONTINUOUS
  66
1
  70
0
  40
0.197
  41
0.197
  0
VERTEX
  8
Top_Paste
  10
67.0397
  20
20.2447
  42
1
  0
VERTEX
  8
Top_Paste
  10
67.2367
  20
20.2447
  42
1
  0
VERTEX
  8
Top_Paste
  10
67.0397
  20
20.2447
  42
1
  0
SEQEND
  0
SOLID
  8
Top_Paste
  10
67.3352
  20
20.2447
  11
67.3352
  21
19.2387
  12
66.3322
  22
19.0417
  13
67.1382
  23
19.0417
  0
SOLID
  8
Top_Paste
  10
67.3352
  20
20.2447
  11
66.3322
  21
19.0417
  12
66.1352
  22
20.2447
  13
66.1352
  23
19.2387
  0
SOLID
  8
Top_Paste
  10
67.3352
  20
20.2447
  11
66.1352
  21
20.2447
  12
67.1382
  22
20.4417
  13
66.3322
  23
20.4417
  0
POLYLINE
  8
Top_Paste
  6
CONTINUOUS
  66
1
  70
0
  40
0.197
  41
0.197
  0
VERTEX
  8
Top_Paste
  10
68.884
  20
-1.582
  42
1
  0
VERTEX
  8
Top_Paste
  10
69.081
  20
-1.582
  42
1
  0
VERTEX
  8
Top_Paste
  10
68.884
  20
-1.582
  42
1
  0
SEQEND
  0
POLYLINE
  8
Top_Paste
  6
CONTINUOUS
  66
1
  70
0
  40
0.197
  41
0.197
  0
VERTEX
  8
Top_Paste
  10
68.078
  20
-1.582
  42
1
  0
VERTEX
  8
Top_Paste
  10
68.275
  20
-1.582
  42
1
  0
VERTEX
  8
Top_Paste
  10
68.078
  20
-1.582
  42
1
  0
SEQEND
  0
POLYLINE
  8
Top_Paste
  6
CONTINUOUS
  66
1
  70
0
  40
0.197
  41
0.197
  0
VERTEX
  8
Top_Paste
  10
68.0779
  20
-0.576
  42
1
  0
VERTEX
  8
Top_Paste
  10
68.2749
  20
-0.576
  42
1
  0
VERTEX
  8
Top_Paste
  10
68.0779
  20
-0.576
  42
1
  0
SEQEND
  0
POLYLINE
  8
Top_Paste
  6
CONTINUOUS
  66
1
  70
0
  40
0.197
  41
0.197
  0
VERTEX
  8
Top_Paste
  10
68.8839
  20
-0.576
  42
1
  0
VERTEX
  8
Top_Paste
  10
69.0809
  20
-0.576
  42
1
  0
VERTEX
  8
Top_Paste
  10
68.8839
  20
-0.576
  42
1
  0
SEQEND
  0
SOLID
  8
Top_Paste
  10
69.1794
  20
-0.576
  11
69.1795
  21
-1.582
  12
68.1765
  22
-1.779
  13
68.9825
  23
-1.779
  0
SOLID
  8
Top_Paste
  10
69.1794
  20
-0.576
  11
68.1765
  21
-1.779
  12
67.9794
  22
-0.5761
  13
67.9795
  23
-1.5821
  0
SOLID
  8
Top_Paste
  10
69.1794
  20
-0.576
  11
67.9794
  21
-0.5761
  12
68.9824
  22
-0.379
  13
68.1764
  23
-0.379
  0
POLYLINE
  8
Top_Paste
  6
CONTINUOUS
  66
1
  70
0
  40
0.197
  41
0.197
  0
VERTEX
  8
Top_Paste
  10
66.984
  20
-1.5821
  42
1
  0
VERTEX
  8
Top_Paste
  10
67.181
  20
-1.5821
  42
1
  0
VERTEX
  8
Top_Paste
  10
66.984
  20
-1.5821
  42
1
  0
SEQEND
  0
POLYLINE
  8
Top_Paste
  6
CONTINUOUS
  66
1
  70
0
  40
0.197
  41
0.197
  0
VERTEX
  8
Top_Paste
  10
66.178
  20
-1.5821
  42
1
  0
VERTEX
  8
Top_Paste
  10
66.375
  20
-1.5821
  42
1
  0
VERTEX
  8
Top_Paste
  10
66.178
  20
-1.5821
  42
1
  0
SEQEND
  0
POLYLINE
  8
Top_Paste
  6
CONTINUOUS
  66
1
  70
0
  40
0.197
  41
0.197
  0
VERTEX
  8
Top_Paste
  10
66.1779
  20
-0.5761
  42
1
  0
VERTEX
  8
Top_Paste
  10
66.3749
  20
-0.5761
  42
1
  0
VERTEX
  8
Top_Paste
  10
66.1779
  20
-0.5761
  42
1
  0
SEQEND
  0
POLYLINE
  8
Top_Paste
  6
CONTINUOUS
  66
1
  70
0
  40
0.197
  41
0.197
  0
VERTEX
  8
Top_Paste
  10
66.9839
  20
-0.5761
  42
1
  0
VERTEX
  8
Top_Paste
  10
67.1809
  20
-0.5761
  42
1
  0
VERTEX
  8
Top_Paste
  10
66.9839
  20
-0.5761
  42
1
  0
SEQEND
  0
SOLID
  8
Top_Paste
  10
67.2794
  20
-0.5761
  11
67.2795
  21
-1.5821
  12
66.2765
  22
-1.7791
  13
67.0825
  23
-1.7791
  0
SOLID
  8
Top_Paste
  10
67.2794
  20
-0.5761
  11
66.2765
  21
-1.7791
  12
66.0794
  22
-0.5761
  13
66.0795
  23
-1.5821
  0
SOLID
  8
Top_Paste
  10
67.2794
  20
-0.5761
  11
66.0794
  21
-0.5761
  12
67.0824
  22
-0.3791
  13
66.2764
  23
-0.3791
  0
POLYLINE
  8
Top_Paste
  6
CONTINUOUS
  66
1
  70
0
  40
0.197
  41
0.197
  0
VERTEX
  8
Top_Paste
  10
68.8839
  20
-7.5026
  42
1
  0
VERTEX
  8
Top_Paste
  10
69.0809
  20
-7.5026
  42
1
  0
VERTEX
  8
Top_Paste
  10
68.8839
  20
-7.5026
  42
1
  0
SEQEND
  0
POLYLINE
  8
Top_Paste
  6
CONTINUOUS
  66
1
  70
0
  40
0.197
  41
0.197
  0
VERTEX
  8
Top_Paste
  10
68.0779
  20
-7.5026
  42
1
  0
VERTEX
  8
Top_Paste
  10
68.2749
  20
-7.5026
  42
1
  0
VERTEX
  8
Top_Paste
  10
68.0779
  20
-7.5026
  42
1
  0
SEQEND
  0
POLYLINE
  8
Top_Paste
  6
CONTINUOUS
  66
1
  70
0
  40
0.197
  41
0.197
  0
VERTEX
  8
Top_Paste
  10
68.0779
  20
-6.4966
  42
1
  0
VERTEX
  8
Top_Paste
  10
68.2749
  20
-6.4966
  42
1
  0
VERTEX
  8
Top_Paste
  10
68.0779
  20
-6.4966
  42
1
  0
SEQEND
  0
POLYLINE
  8
Top_Paste
  6
CONTINUOUS
  66
1
  70
0
  40
0.197
  41
0.197
  0
VERTEX
  8
Top_Paste
  10
68.8839
  20
-6.4966
  42
1
  0
VERTEX
  8
Top_Paste
  10
69.0809
  20
-6.4966
  42
1
  0
VERTEX
  8
Top_Paste
  10
68.8839
  20
-6.4966
  42
1
  0
SEQEND
  0
SOLID
  8
Top_Paste
  10
69.1794
  20
-6.4966
  11
69.1794
  21
-7.5026
  12
68.1764
  22
-7.6996
  13
68.9824
  23
-7.6996
  0
SOLID
  8
Top_Paste
  10
69.1794
  20
-6.4966
  11
68.1764
  21
-7.6996
  12
67.9794
  22
-6.4966
  13
67.9794
  23
-7.5026
  0
SOLID
  8
Top_Paste
  10
69.1794
  20
-6.4966
  11
67.9794
  21
-6.4966
  12
68.9824
  22
-6.2996
  13
68.1764
  23
-6.2996
  0
POLYLINE
  8
Top_Paste
  6
CONTINUOUS
  66
1
  70
0
  40
0.197
  41
0.197
  0
VERTEX
  8
Top_Paste
  10
66.9839
  20
-7.5026
  42
1
  0
VERTEX
  8
Top_Paste
  10
67.1809
  20
-7.5026
  42
1
  0
VERTEX
  8
Top_Paste
  10
66.9839
  20
-7.5026
  42
1
  0
SEQEND
  0
POLYLINE
  8
Top_Paste
  6
CONTINUOUS
  66
1
  70
0
  40
0.197
  41
0.197
  0
VERTEX
  8
Top_Paste
  10
66.1779
  20
-7.5026
  42
1
  0
VERTEX
  8
Top_Paste
  10
66.3749
  20
-7.5026
  42
1
  0
VERTEX
  8
Top_Paste
  10
66.1779
  20
-7.5026
  42
1
  0
SEQEND
  0
POLYLINE
  8
Top_Paste
  6
CONTINUOUS
  66
1
  70
0
  40
0.197
  41
0.197
  0
VERTEX
  8
Top_Paste
  10
66.1779
  20
-6.4966
  42
1
  0
VERTEX
  8
Top_Paste
  10
66.3749
  20
-6.4966
  42
1
  0
VERTEX
  8
Top_Paste
  10
66.1779
  20
-6.4966
  42
1
  0
SEQEND
  0
POLYLINE
  8
Top_Paste
  6
CONTINUOUS
  66
1
  70
0
  40
0.197
  41
0.197
  0
VERTEX
  8
Top_Paste
  10
66.9839
  20
-6.4966
  42
1
  0
VERTEX
  8
Top_Paste
  10
67.1809
  20
-6.4966
  42
1
  0
VERTEX
  8
Top_Paste
  10
66.9839
  20
-6.4966
  42
1
  0
SEQEND
  0
SOLID
  8
Top_Paste
  10
67.2794
  20
-6.4966
  11
67.2794
  21
-7.5026
  12
66.2764
  22
-7.6996
  13
67.0824
  23
-7.6996
  0
SOLID
  8
Top_Paste
  10
67.2794
  20
-6.4966
  11
66.2764
  21
-7.6996
  12
66.0794
  22
-6.4966
  13
66.0794
  23
-7.5026
  0
SOLID
  8
Top_Paste
  10
67.2794
  20
-6.4966
  11
66.0794
  21
-6.4966
  12
67.0824
  22
-6.2996
  13
66.2764
  23
-6.2996
  0
POLYLINE
  8
Top_Paste
  6
CONTINUOUS
  66
1
  70
0
  40
0.197
  41
0.197
  0
VERTEX
  8
Top_Paste
  10
25.3636
  20
15.8854
  42
1
  0
VERTEX
  8
Top_Paste
  10
25.5606
  20
15.8854
  42
1
  0
VERTEX
  8
Top_Paste
  10
25.3636
  20
15.8854
  42
1
  0
SEQEND
  0
POLYLINE
  8
Top_Paste
  6
CONTINUOUS
  66
1
  70
0
  40
0.197
  41
0.197
  0
VERTEX
  8
Top_Paste
  10
25.3635
  20
16.6914
  42
1
  0
VERTEX
  8
Top_Paste
  10
25.5605
  20
16.6914
  42
1
  0
VERTEX
  8
Top_Paste
  10
25.3635
  20
16.6914
  42
1
  0
SEQEND
  0
POLYLINE
  8
Top_Paste
  6
CONTINUOUS
  66
1
  70
0
  40
0.197
  41
0.197
  0
VERTEX
  8
Top_Paste
  10
26.3695
  20
16.6914
  42
1
  0
VERTEX
  8
Top_Paste
  10
26.5665
  20
16.6914
  42
1
  0
VERTEX
  8
Top_Paste
  10
26.3695
  20
16.6914
  42
1
  0
SEQEND
  0
POLYLINE
  8
Top_Paste
  6
CONTINUOUS
  66
1
  70
0
  40
0.197
  41
0.197
  0
VERTEX
  8
Top_Paste
  10
26.3696
  20
15.8854
  42
1
  0
VERTEX
  8
Top_Paste
  10
26.5666
  20
15.8854
  42
1
  0
VERTEX
  8
Top_Paste
  10
26.3696
  20
15.8854
  42
1
  0
SEQEND
  0
SOLID
  8
Top_Paste
  10
26.4681
  20
15.6884
  11
25.4621
  21
15.6884
  12
25.265
  22
16.6914
  13
25.2651
  23
15.8854
  0
SOLID
  8
Top_Paste
  10
26.4681
  20
15.6884
  11
25.265
  21
16.6914
  12
26.468
  22
16.8884
  13
25.462
  23
16.8884
  0
SOLID
  8
Top_Paste
  10
26.4681
  20
15.6884
  11
26.468
  21
16.8884
  12
26.6651
  22
15.8854
  13
26.665
  23
16.6914
  0
POLYLINE
  8
Top_Paste
  6
CONTINUOUS
  66
1
  70
0
  40
0.197
  41
0.197
  0
VERTEX
  8
Top_Paste
  10
25.3635
  20
17.7854
  42
1
  0
VERTEX
  8
Top_Paste
  10
25.5605
  20
17.7854
  42
1
  0
VERTEX
  8
Top_Paste
  10
25.3635
  20
17.7854
  42
1
  0
SEQEND
  0
POLYLINE
  8
Top_Paste
  6
CONTINUOUS
  66
1
  70
0
  40
0.197
  41
0.197
  0
VERTEX
  8
Top_Paste
  10
25.3635
  20
18.5914
  42
1
  0
VERTEX
  8
Top_Paste
  10
25.5605
  20
18.5914
  42
1
  0
VERTEX
  8
Top_Paste
  10
25.3635
  20
18.5914
  42
1
  0
SEQEND
  0
POLYLINE
  8
Top_Paste
  6
CONTINUOUS
  66
1
  70
0
  40
0.197
  41
0.197
  0
VERTEX
  8
Top_Paste
  10
26.3695
  20
18.5914
  42
1
  0
VERTEX
  8
Top_Paste
  10
26.5665
  20
18.5914
  42
1
  0
VERTEX
  8
Top_Paste
  10
26.3695
  20
18.5914
  42
1
  0
SEQEND
  0
POLYLINE
  8
Top_Paste
  6
CONTINUOUS
  66
1
  70
0
  40
0.197
  41
0.197
  0
VERTEX
  8
Top_Paste
  10
26.3695
  20
17.7854
  42
1
  0
VERTEX
  8
Top_Paste
  10
26.5665
  20
17.7854
  42
1
  0
VERTEX
  8
Top_Paste
  10
26.3695
  20
17.7854
  42
1
  0
SEQEND
  0
SOLID
  8
Top_Paste
  10
26.468
  20
17.5884
  11
25.462
  21
17.5884
  12
25.265
  22
18.5914
  13
25.265
  23
17.7854
  0
SOLID
  8
Top_Paste
  10
26.468
  20
17.5884
  11
25.265
  21
18.5914
  12
26.468
  22
18.7884
  13
25.462
  23
18.7884
  0
SOLID
  8
Top_Paste
  10
26.468
  20
17.5884
  11
26.468
  21
18.7884
  12
26.665
  22
17.7854
  13
26.665
  23
18.5914
  0
POLYLINE
  8
Top_Paste
  6
CONTINUOUS
  66
1
  70
0
  40
0.197
  41
0.197
  0
VERTEX
  8
Top_Paste
  10
41.4315
  20
14.533
  42
1
  0
VERTEX
  8
Top_Paste
  10
41.6285
  20
14.533
  42
1
  0
VERTEX
  8
Top_Paste
  10
41.4315
  20
14.533
  42
1
  0
SEQEND
  0
POLYLINE
  8
Top_Paste
  6
CONTINUOUS
  66
1
  70
0
  40
0.197
  41
0.197
  0
VERTEX
  8
Top_Paste
  10
41.4315
  20
15.339
  42
1
  0
VERTEX
  8
Top_Paste
  10
41.6285
  20
15.339
  42
1
  0
VERTEX
  8
Top_Paste
  10
41.4315
  20
15.339
  42
1
  0
SEQEND
  0
POLYLINE
  8
Top_Paste
  6
CONTINUOUS
  66
1
  70
0
  40
0.197
  41
0.197
  0
VERTEX
  8
Top_Paste
  10
42.4375
  20
15.339
  42
1
  0
VERTEX
  8
Top_Paste
  10
42.6345
  20
15.339
  42
1
  0
VERTEX
  8
Top_Paste
  10
42.4375
  20
15.339
  42
1
  0
SEQEND
  0
POLYLINE
  8
Top_Paste
  6
CONTINUOUS
  66
1
  70
0
  40
0.197
  41
0.197
  0
VERTEX
  8
Top_Paste
  10
42.4375
  20
14.533
  42
1
  0
VERTEX
  8
Top_Paste
  10
42.6345
  20
14.533
  42
1
  0
VERTEX
  8
Top_Paste
  10
42.4375
  20
14.533
  42
1
  0
SEQEND
  0
SOLID
  8
Top_Paste
  10
42.536
  20
14.336
  11
41.53
  21
14.336
  12
41.333
  22
15.339
  13
41.333
  23
14.533
  0
SOLID
  8
Top_Paste
  10
42.536
  20
14.336
  11
41.333
  21
15.339
  12
42.536
  22
15.536
  13
41.53
  23
15.536
  0
SOLID
  8
Top_Paste
  10
42.536
  20
14.336
  11
42.536
  21
15.536
  12
42.733
  22
14.533
  13
42.733
  23
15.339
  0
POLYLINE
  8
Top_Paste
  6
CONTINUOUS
  66
1
  70
0
  40
0.197
  41
0.197
  0
VERTEX
  8
Top_Paste
  10
41.4315
  20
16.433
  42
1
  0
VERTEX
  8
Top_Paste
  10
41.6285
  20
16.433
  42
1
  0
VERTEX
  8
Top_Paste
  10
41.4315
  20
16.433
  42
1
  0
SEQEND
  0
POLYLINE
  8
Top_Paste
  6
CONTINUOUS
  66
1
  70
0
  40
0.197
  41
0.197
  0
VERTEX
  8
Top_Paste
  10
41.4315
  20
17.239
  42
1
  0
VERTEX
  8
Top_Paste
  10
41.6285
  20
17.239
  42
1
  0
VERTEX
  8
Top_Paste
  10
41.4315
  20
17.239
  42
1
  0
SEQEND
  0
POLYLINE
  8
Top_Paste
  6
CONTINUOUS
  66
1
  70
0
  40
0.197
  41
0.197
  0
VERTEX
  8
Top_Paste
  10
42.4375
  20
17.239
  42
1
  0
VERTEX
  8
Top_Paste
  10
42.6345
  20
17.239
  42
1
  0
VERTEX
  8
Top_Paste
  10
42.4375
  20
17.239
  42
1
  0
SEQEND
  0
POLYLINE
  8
Top_Paste
  6
CONTINUOUS
  66
1
  70
0
  40
0.197
  41
0.197
  0
VERTEX
  8
Top_Paste
  10
42.4375
  20
16.433
  42
1
  0
VERTEX
  8
Top_Paste
  10
42.6345
  20
16.433
  42
1
  0
VERTEX
  8
Top_Paste
  10
42.4375
  20
16.433
  42
1
  0
SEQEND
  0
SOLID
  8
Top_Paste
  10
42.536
  20
16.236
  11
41.53
  21
16.236
  12
41.333
  22
17.239
  13
41.333
  23
16.433
  0
SOLID
  8
Top_Paste
  10
42.536
  20
16.236
  11
41.333
  21
17.239
  12
42.536
  22
17.436
  13
41.53
  23
17.436
  0
SOLID
  8
Top_Paste
  10
42.536
  20
16.236
  11
42.536
  21
17.436
  12
42.733
  22
16.433
  13
42.733
  23
17.239
  0
POLYLINE
  8
Top_Paste
  6
CONTINUOUS
  66
1
  70
0
  40
0.197
  41
0.197
  0
VERTEX
  8
Top_Paste
  10
39.6538
  20
-21.1136
  42
1
  0
VERTEX
  8
Top_Paste
  10
39.8508
  20
-21.1136
  42
1
  0
VERTEX
  8
Top_Paste
  10
39.6538
  20
-21.1136
  42
1
  0
SEQEND
  0
POLYLINE
  8
Top_Paste
  6
CONTINUOUS
  66
1
  70
0
  40
0.197
  41
0.197
  0
VERTEX
  8
Top_Paste
  10
40.4598
  20
-21.1136
  42
1
  0
VERTEX
  8
Top_Paste
  10
40.6568
  20
-21.1136
  42
1
  0
VERTEX
  8
Top_Paste
  10
40.4598
  20
-21.1136
  42
1
  0
SEQEND
  0
POLYLINE
  8
Top_Paste
  6
CONTINUOUS
  66
1
  70
0
  40
0.197
  41
0.197
  0
VERTEX
  8
Top_Paste
  10
40.4598
  20
-22.1196
  42
1
  0
VERTEX
  8
Top_Paste
  10
40.6568
  20
-22.1196
  42
1
  0
VERTEX
  8
Top_Paste
  10
40.4598
  20
-22.1196
  42
1
  0
SEQEND
  0
POLYLINE
  8
Top_Paste
  6
CONTINUOUS
  66
1
  70
0
  40
0.197
  41
0.197
  0
VERTEX
  8
Top_Paste
  10
39.6538
  20
-22.1196
  42
1
  0
VERTEX
  8
Top_Paste
  10
39.8508
  20
-22.1196
  42
1
  0
VERTEX
  8
Top_Paste
  10
39.6538
  20
-22.1196
  42
1
  0
SEQEND
  0
SOLID
  8
Top_Paste
  10
39.5553
  20
-22.1196
  11
39.5553
  21
-21.1136
  12
40.5583
  22
-20.9166
  13
39.7523
  23
-20.9166
  0
SOLID
  8
Top_Paste
  10
39.5553
  20
-22.1196
  11
40.5583
  21
-20.9166
  12
40.7553
  22
-22.1196
  13
40.7553
  23
-21.1136
  0
SOLID
  8
Top_Paste
  10
39.5553
  20
-22.1196
  11
40.7553
  21
-22.1196
  12
39.7523
  22
-22.3166
  13
40.5583
  23
-22.3166
  0
POLYLINE
  8
Top_Paste
  6
CONTINUOUS
  66
1
  70
0
  40
0.197
  41
0.197
  0
VERTEX
  8
Top_Paste
  10
41.5538
  20
-21.1136
  42
1
  0
VERTEX
  8
Top_Paste
  10
41.7508
  20
-21.1136
  42
1
  0
VERTEX
  8
Top_Paste
  10
41.5538
  20
-21.1136
  42
1
  0
SEQEND
  0
POLYLINE
  8
Top_Paste
  6
CONTINUOUS
  66
1
  70
0
  40
0.197
  41
0.197
  0
VERTEX
  8
Top_Paste
  10
42.3598
  20
-21.1136
  42
1
  0
VERTEX
  8
Top_Paste
  10
42.5568
  20
-21.1136
  42
1
  0
VERTEX
  8
Top_Paste
  10
42.3598
  20
-21.1136
  42
1
  0
SEQEND
  0
POLYLINE
  8
Top_Paste
  6
CONTINUOUS
  66
1
  70
0
  40
0.197
  41
0.197
  0
VERTEX
  8
Top_Paste
  10
42.3598
  20
-22.1196
  42
1
  0
VERTEX
  8
Top_Paste
  10
42.5568
  20
-22.1196
  42
1
  0
VERTEX
  8
Top_Paste
  10
42.3598
  20
-22.1196
  42
1
  0
SEQEND
  0
POLYLINE
  8
Top_Paste
  6
CONTINUOUS
  66
1
  70
0
  40
0.197
  41
0.197
  0
VERTEX
  8
Top_Paste
  10
41.5538
  20
-22.1196
  42
1
  0
VERTEX
  8
Top_Paste
  10
41.7508
  20
-22.1196
  42
1
  0
VERTEX
  8
Top_Paste
  10
41.5538
  20
-22.1196
  42
1
  0
SEQEND
  0
SOLID
  8
Top_Paste
  10
41.4553
  20
-22.1196
  11
41.4553
  21
-21.1136
  12
42.4583
  22
-20.9166
  13
41.6523
  23
-20.9166
  0
SOLID
  8
Top_Paste
  10
41.4553
  20
-22.1196
  11
42.4583
  21
-20.9166
  12
42.6553
  22
-22.1196
  13
42.6553
  23
-21.1136
  0
SOLID
  8
Top_Paste
  10
41.4553
  20
-22.1196
  11
42.6553
  21
-22.1196
  12
41.6523
  22
-22.3166
  13
42.4583
  23
-22.3166
  0
POLYLINE
  8
Top_Paste
  6
CONTINUOUS
  66
1
  70
0
  40
0.197
  41
0.197
  0
VERTEX
  8
Top_Paste
  10
66.1779
  20
-3.0037
  42
1
  0
VERTEX
  8
Top_Paste
  10
66.3749
  20
-3.0037
  42
1
  0
VERTEX
  8
Top_Paste
  10
66.1779
  20
-3.0037
  42
1
  0
SEQEND
  0
POLYLINE
  8
Top_Paste
  6
CONTINUOUS
  66
1
  70
0
  40
0.197
  41
0.197
  0
VERTEX
  8
Top_Paste
  10
66.9839
  20
-3.0037
  42
1
  0
VERTEX
  8
Top_Paste
  10
67.1809
  20
-3.0037
  42
1
  0
VERTEX
  8
Top_Paste
  10
66.9839
  20
-3.0037
  42
1
  0
SEQEND
  0
POLYLINE
  8
Top_Paste
  6
CONTINUOUS
  66
1
  70
0
  40
0.197
  41
0.197
  0
VERTEX
  8
Top_Paste
  10
66.9839
  20
-4.0097
  42
1
  0
VERTEX
  8
Top_Paste
  10
67.1809
  20
-4.0097
  42
1
  0
VERTEX
  8
Top_Paste
  10
66.9839
  20
-4.0097
  42
1
  0
SEQEND
  0
POLYLINE
  8
Top_Paste
  6
CONTINUOUS
  66
1
  70
0
  40
0.197
  41
0.197
  0
VERTEX
  8
Top_Paste
  10
66.1779
  20
-4.0097
  42
1
  0
VERTEX
  8
Top_Paste
  10
66.3749
  20
-4.0097
  42
1
  0
VERTEX
  8
Top_Paste
  10
66.1779
  20
-4.0097
  42
1
  0
SEQEND
  0
SOLID
  8
Top_Paste
  10
66.0794
  20
-4.0097
  11
66.0794
  21
-3.0037
  12
67.0824
  22
-2.8067
  13
66.2764
  23
-2.8067
  0
SOLID
  8
Top_Paste
  10
66.0794
  20
-4.0097
  11
67.0824
  21
-2.8067
  12
67.2794
  22
-4.0097
  13
67.2794
  23
-3.0037
  0
SOLID
  8
Top_Paste
  10
66.0794
  20
-4.0097
  11
67.2794
  21
-4.0097
  12
66.2765
  22
-4.2067
  13
67.0825
  23
-4.2067
  0
POLYLINE
  8
Top_Paste
  6
CONTINUOUS
  66
1
  70
0
  40
0.197
  41
0.197
  0
VERTEX
  8
Top_Paste
  10
68.0779
  20
-3.0037
  42
1
  0
VERTEX
  8
Top_Paste
  10
68.2749
  20
-3.0037
  42
1
  0
VERTEX
  8
Top_Paste
  10
68.0779
  20
-3.0037
  42
1
  0
SEQEND
  0
POLYLINE
  8
Top_Paste
  6
CONTINUOUS
  66
1
  70
0
  40
0.197
  41
0.197
  0
VERTEX
  8
Top_Paste
  10
68.8839
  20
-3.0036
  42
1
  0
VERTEX
  8
Top_Paste
  10
69.0809
  20
-3.0036
  42
1
  0
VERTEX
  8
Top_Paste
  10
68.8839
  20
-3.0036
  42
1
  0
SEQEND
  0
POLYLINE
  8
Top_Paste
  6
CONTINUOUS
  66
1
  70
0
  40
0.197
  41
0.197
  0
VERTEX
  8
Top_Paste
  10
68.8839
  20
-4.0096
  42
1
  0
VERTEX
  8
Top_Paste
  10
69.0809
  20
-4.0096
  42
1
  0
VERTEX
  8
Top_Paste
  10
68.8839
  20
-4.0096
  42
1
  0
SEQEND
  0
POLYLINE
  8
Top_Paste
  6
CONTINUOUS
  66
1
  70
0
  40
0.197
  41
0.197
  0
VERTEX
  8
Top_Paste
  10
68.0779
  20
-4.0097
  42
1
  0
VERTEX
  8
Top_Paste
  10
68.2749
  20
-4.0097
  42
1
  0
VERTEX
  8
Top_Paste
  10
68.0779
  20
-4.0097
  42
1
  0
SEQEND
  0
SOLID
  8
Top_Paste
  10
67.9794
  20
-4.0097
  11
67.9794
  21
-3.0037
  12
68.9824
  22
-2.8066
  13
68.1764
  23
-2.8067
  0
SOLID
  8
Top_Paste
  10
67.9794
  20
-4.0097
  11
68.9824
  21
-2.8066
  12
69.1794
  22
-4.0096
  13
69.1794
  23
-3.0036
  0
SOLID
  8
Top_Paste
  10
67.9794
  20
-4.0097
  11
69.1794
  21
-4.0096
  12
68.1765
  22
-4.2067
  13
68.9825
  23
-4.2066
  0
POLYLINE
  8
Top_Paste
  6
CONTINUOUS
  66
1
  70
0
  40
0.197
  41
0.197
  0
VERTEX
  8
Top_Paste
  10
66.1779
  20
-8.9756
  42
1
  0
VERTEX
  8
Top_Paste
  10
66.3749
  20
-8.9756
  42
1
  0
VERTEX
  8
Top_Paste
  10
66.1779
  20
-8.9756
  42
1
  0
SEQEND
  0
POLYLINE
  8
Top_Paste
  6
CONTINUOUS
  66
1
  70
0
  40
0.197
  41
0.197
  0
VERTEX
  8
Top_Paste
  10
66.9839
  20
-8.9756
  42
1
  0
VERTEX
  8
Top_Paste
  10
67.1809
  20
-8.9756
  42
1
  0
VERTEX
  8
Top_Paste
  10
66.9839
  20
-8.9756
  42
1
  0
SEQEND
  0
POLYLINE
  8
Top_Paste
  6
CONTINUOUS
  66
1
  70
0
  40
0.197
  41
0.197
  0
VERTEX
  8
Top_Paste
  10
66.9839
  20
-9.9816
  42
1
  0
VERTEX
  8
Top_Paste
  10
67.1809
  20
-9.9816
  42
1
  0
VERTEX
  8
Top_Paste
  10
66.9839
  20
-9.9816
  42
1
  0
SEQEND
  0
POLYLINE
  8
Top_Paste
  6
CONTINUOUS
  66
1
  70
0
  40
0.197
  41
0.197
  0
VERTEX
  8
Top_Paste
  10
66.1779
  20
-9.9816
  42
1
  0
VERTEX
  8
Top_Paste
  10
66.3749
  20
-9.9816
  42
1
  0
VERTEX
  8
Top_Paste
  10
66.1779
  20
-9.9816
  42
1
  0
SEQEND
  0
SOLID
  8
Top_Paste
  10
66.0794
  20
-9.9816
  11
66.0794
  21
-8.9756
  12
67.0824
  22
-8.7786
  13
66.2764
  23
-8.7786
  0
SOLID
  8
Top_Paste
  10
66.0794
  20
-9.9816
  11
67.0824
  21
-8.7786
  12
67.2794
  22
-9.9816
  13
67.2794
  23
-8.9756
  0
SOLID
  8
Top_Paste
  10
66.0794
  20
-9.9816
  11
67.2794
  21
-9.9816
  12
66.2764
  22
-10.1786
  13
67.0824
  23
-10.1786
  0
POLYLINE
  8
Top_Paste
  6
CONTINUOUS
  66
1
  70
0
  40
0.197
  41
0.197
  0
VERTEX
  8
Top_Paste
  10
68.0779
  20
-8.9756
  42
1
  0
VERTEX
  8
Top_Paste
  10
68.2749
  20
-8.9756
  42
1
  0
VERTEX
  8
Top_Paste
  10
68.0779
  20
-8.9756
  42
1
  0
SEQEND
  0
POLYLINE
  8
Top_Paste
  6
CONTINUOUS
  66
1
  70
0
  40
0.197
  41
0.197
  0
VERTEX
  8
Top_Paste
  10
68.8839
  20
-8.9756
  42
1
  0
VERTEX
  8
Top_Paste
  10
69.0809
  20
-8.9756
  42
1
  0
VERTEX
  8
Top_Paste
  10
68.8839
  20
-8.9756
  42
1
  0
SEQEND
  0
POLYLINE
  8
Top_Paste
  6
CONTINUOUS
  66
1
  70
0
  40
0.197
  41
0.197
  0
VERTEX
  8
Top_Paste
  10
68.8839
  20
-9.9816
  42
1
  0
VERTEX
  8
Top_Paste
  10
69.0809
  20
-9.9816
  42
1
  0
VERTEX
  8
Top_Paste
  10
68.8839
  20
-9.9816
  42
1
  0
SEQEND
  0
POLYLINE
  8
Top_Paste
  6
CONTINUOUS
  66
1
  70
0
  40
0.197
  41
0.197
  0
VERTEX
  8
Top_Paste
  10
68.0779
  20
-9.9816
  42
1
  0
VERTEX
  8
Top_Paste
  10
68.2749
  20
-9.9816
  42
1
  0
VERTEX
  8
Top_Paste
  10
68.0779
  20
-9.9816
  42
1
  0
SEQEND
  0
SOLID
  8
Top_Paste
  10
67.9794
  20
-9.9816
  11
67.9794
  21
-8.9756
  12
68.9824
  22
-8.7786
  13
68.1764
  23
-8.7786
  0
SOLID
  8
Top_Paste
  10
67.9794
  20
-9.9816
  11
68.9824
  21
-8.7786
  12
69.1794
  22
-9.9816
  13
69.1794
  23
-8.9756
  0
SOLID
  8
Top_Paste
  10
67.9794
  20
-9.9816
  11
69.1794
  21
-9.9816
  12
68.1764
  22
-10.1786
  13
68.9824
  23
-10.1786
  0
POLYLINE
  8
Top_Paste
  6
CONTINUOUS
  66
1
  70
0
  40
0.197
  41
0.197
  0
VERTEX
  8
Top_Paste
  10
66.2337
  20
17.5679
  42
1
  0
VERTEX
  8
Top_Paste
  10
66.4307
  20
17.5679
  42
1
  0
VERTEX
  8
Top_Paste
  10
66.2337
  20
17.5679
  42
1
  0
SEQEND
  0
POLYLINE
  8
Top_Paste
  6
CONTINUOUS
  66
1
  70
0
  40
0.197
  41
0.197
  0
VERTEX
  8
Top_Paste
  10
67.0397
  20
17.5679
  42
1
  0
VERTEX
  8
Top_Paste
  10
67.2367
  20
17.5679
  42
1
  0
VERTEX
  8
Top_Paste
  10
67.0397
  20
17.5679
  42
1
  0
SEQEND
  0
POLYLINE
  8
Top_Paste
  6
CONTINUOUS
  66
1
  70
0
  40
0.197
  41
0.197
  0
VERTEX
  8
Top_Paste
  10
67.0397
  20
16.5619
  42
1
  0
VERTEX
  8
Top_Paste
  10
67.2367
  20
16.5619
  42
1
  0
VERTEX
  8
Top_Paste
  10
67.0397
  20
16.5619
  42
1
  0
SEQEND
  0
POLYLINE
  8
Top_Paste
  6
CONTINUOUS
  66
1
  70
0
  40
0.197
  41
0.197
  0
VERTEX
  8
Top_Paste
  10
66.2337
  20
16.5619
  42
1
  0
VERTEX
  8
Top_Paste
  10
66.4307
  20
16.5619
  42
1
  0
VERTEX
  8
Top_Paste
  10
66.2337
  20
16.5619
  42
1
  0
SEQEND
  0
SOLID
  8
Top_Paste
  10
66.1352
  20
16.5619
  11
66.1352
  21
17.5679
  12
67.1382
  22
17.7649
  13
66.3322
  23
17.7649
  0
SOLID
  8
Top_Paste
  10
66.1352
  20
16.5619
  11
67.1382
  21
17.7649
  12
67.3352
  22
16.5619
  13
67.3352
  23
17.5679
  0
SOLID
  8
Top_Paste
  10
66.1352
  20
16.5619
  11
67.3352
  21
16.5619
  12
66.3322
  22
16.3649
  13
67.1382
  23
16.3649
  0
POLYLINE
  8
Top_Paste
  6
CONTINUOUS
  66
1
  70
0
  40
0.197
  41
0.197
  0
VERTEX
  8
Top_Paste
  10
68.1337
  20
17.5679
  42
1
  0
VERTEX
  8
Top_Paste
  10
68.3307
  20
17.5679
  42
1
  0
VERTEX
  8
Top_Paste
  10
68.1337
  20
17.5679
  42
1
  0
SEQEND
  0
POLYLINE
  8
Top_Paste
  6
CONTINUOUS
  66
1
  70
0
  40
0.197
  41
0.197
  0
VERTEX
  8
Top_Paste
  10
68.9397
  20
17.5679
  42
1
  0
VERTEX
  8
Top_Paste
  10
69.1367
  20
17.5679
  42
1
  0
VERTEX
  8
Top_Paste
  10
68.9397
  20
17.5679
  42
1
  0
SEQEND
  0
POLYLINE
  8
Top_Paste
  6
CONTINUOUS
  66
1
  70
0
  40
0.197
  41
0.197
  0
VERTEX
  8
Top_Paste
  10
68.9397
  20
16.5619
  42
1
  0
VERTEX
  8
Top_Paste
  10
69.1367
  20
16.5619
  42
1
  0
VERTEX
  8
Top_Paste
  10
68.9397
  20
16.5619
  42
1
  0
SEQEND
  0
POLYLINE
  8
Top_Paste
  6
CONTINUOUS
  66
1
  70
0
  40
0.197
  41
0.197
  0
VERTEX
  8
Top_Paste
  10
68.1337
  20
16.5619
  42
1
  0
VERTEX
  8
Top_Paste
  10
68.3307
  20
16.5619
  42
1
  0
VERTEX
  8
Top_Paste
  10
68.1337
  20
16.5619
  42
1
  0
SEQEND
  0
SOLID
  8
Top_Paste
  10
68.0352
  20
16.5619
  11
68.0352
  21
17.5679
  12
69.0382
  22
17.7649
  13
68.2322
  23
17.7649
  0
SOLID
  8
Top_Paste
  10
68.0352
  20
16.5619
  11
69.0382
  21
17.7649
  12
69.2352
  22
16.5619
  13
69.2352
  23
17.5679
  0
SOLID
  8
Top_Paste
  10
68.0352
  20
16.5619
  11
69.2352
  21
16.5619
  12
68.2322
  22
16.3649
  13
69.0382
  23
16.3649
  0
POLYLINE
  8
Top_Paste
  6
CONTINUOUS
  66
1
  70
0
  40
0.197
  41
0.197
  0
VERTEX
  8
Top_Paste
  10
25.3636
  20
10.365
  42
1
  0
VERTEX
  8
Top_Paste
  10
25.5606
  20
10.365
  42
1
  0
VERTEX
  8
Top_Paste
  10
25.3636
  20
10.365
  42
1
  0
SEQEND
  0
POLYLINE
  8
Top_Paste
  6
CONTINUOUS
  66
1
  70
0
  40
0.197
  41
0.197
  0
VERTEX
  8
Top_Paste
  10
25.3635
  20
11.171
  42
1
  0
VERTEX
  8
Top_Paste
  10
25.5605
  20
11.171
  42
1
  0
VERTEX
  8
Top_Paste
  10
25.3635
  20
11.171
  42
1
  0
SEQEND
  0
POLYLINE
  8
Top_Paste
  6
CONTINUOUS
  66
1
  70
0
  40
0.197
  41
0.197
  0
VERTEX
  8
Top_Paste
  10
26.3695
  20
11.171
  42
1
  0
VERTEX
  8
Top_Paste
  10
26.5665
  20
11.171
  42
1
  0
VERTEX
  8
Top_Paste
  10
26.3695
  20
11.171
  42
1
  0
SEQEND
  0
POLYLINE
  8
Top_Paste
  6
CONTINUOUS
  66
1
  70
0
  40
0.197
  41
0.197
  0
VERTEX
  8
Top_Paste
  10
26.3696
  20
10.365
  42
1
  0
VERTEX
  8
Top_Paste
  10
26.5666
  20
10.365
  42
1
  0
VERTEX
  8
Top_Paste
  10
26.3696
  20
10.365
  42
1
  0
SEQEND
  0
SOLID
  8
Top_Paste
  10
26.4681
  20
10.168
  11
25.4621
  21
10.168
  12
25.265
  22
11.171
  13
25.2651
  23
10.365
  0
SOLID
  8
Top_Paste
  10
26.4681
  20
10.168
  11
25.265
  21
11.171
  12
26.468
  22
11.368
  13
25.462
  23
11.368
  0
SOLID
  8
Top_Paste
  10
26.4681
  20
10.168
  11
26.468
  21
11.368
  12
26.6651
  22
10.365
  13
26.665
  23
11.171
  0
POLYLINE
  8
Top_Paste
  6
CONTINUOUS
  66
1
  70
0
  40
0.197
  41
0.197
  0
VERTEX
  8
Top_Paste
  10
25.3635
  20
12.265
  42
1
  0
VERTEX
  8
Top_Paste
  10
25.5605
  20
12.265
  42
1
  0
VERTEX
  8
Top_Paste
  10
25.3635
  20
12.265
  42
1
  0
SEQEND
  0
POLYLINE
  8
Top_Paste
  6
CONTINUOUS
  66
1
  70
0
  40
0.197
  41
0.197
  0
VERTEX
  8
Top_Paste
  10
25.3635
  20
13.071
  42
1
  0
VERTEX
  8
Top_Paste
  10
25.5605
  20
13.071
  42
1
  0
VERTEX
  8
Top_Paste
  10
25.3635
  20
13.071
  42
1
  0
SEQEND
  0
POLYLINE
  8
Top_Paste
  6
CONTINUOUS
  66
1
  70
0
  40
0.197
  41
0.197
  0
VERTEX
  8
Top_Paste
  10
26.3695
  20
13.071
  42
1
  0
VERTEX
  8
Top_Paste
  10
26.5665
  20
13.071
  42
1
  0
VERTEX
  8
Top_Paste
  10
26.3695
  20
13.071
  42
1
  0
SEQEND
  0
POLYLINE
  8
Top_Paste
  6
CONTINUOUS
  66
1
  70
0
  40
0.197
  41
0.197
  0
VERTEX
  8
Top_Paste
  10
26.3695
  20
12.265
  42
1
  0
VERTEX
  8
Top_Paste
  10
26.5665
  20
12.265
  42
1
  0
VERTEX
  8
Top_Paste
  10
26.3695
  20
12.265
  42
1
  0
SEQEND
  0
SOLID
  8
Top_Paste
  10
26.468
  20
12.068
  11
25.462
  21
12.068
  12
25.265
  22
13.071
  13
25.265
  23
12.265
  0
SOLID
  8
Top_Paste
  10
26.468
  20
12.068
  11
25.265
  21
13.071
  12
26.468
  22
13.268
  13
25.462
  23
13.268
  0
SOLID
  8
Top_Paste
  10
26.468
  20
12.068
  11
26.468
  21
13.268
  12
26.665
  22
12.265
  13
26.665
  23
13.071
  0
POLYLINE
  8
Top_Paste
  6
CONTINUOUS
  66
1
  70
0
  40
0.197
  41
0.197
  0
VERTEX
  8
Top_Paste
  10
27.7734
  20
2.5796
  42
1
  0
VERTEX
  8
Top_Paste
  10
27.9704
  20
2.5796
  42
1
  0
VERTEX
  8
Top_Paste
  10
27.7734
  20
2.5796
  42
1
  0
SEQEND
  0
POLYLINE
  8
Top_Paste
  6
CONTINUOUS
  66
1
  70
0
  40
0.197
  41
0.197
  0
VERTEX
  8
Top_Paste
  10
28.5794
  20
2.5796
  42
1
  0
VERTEX
  8
Top_Paste
  10
28.7764
  20
2.5796
  42
1
  0
VERTEX
  8
Top_Paste
  10
28.5794
  20
2.5796
  42
1
  0
SEQEND
  0
POLYLINE
  8
Top_Paste
  6
CONTINUOUS
  66
1
  70
0
  40
0.197
  41
0.197
  0
VERTEX
  8
Top_Paste
  10
28.5794
  20
1.5736
  42
1
  0
VERTEX
  8
Top_Paste
  10
28.7764
  20
1.5736
  42
1
  0
VERTEX
  8
Top_Paste
  10
28.5794
  20
1.5736
  42
1
  0
SEQEND
  0
POLYLINE
  8
Top_Paste
  6
CONTINUOUS
  66
1
  70
0
  40
0.197
  41
0.197
  0
VERTEX
  8
Top_Paste
  10
27.7734
  20
1.5736
  42
1
  0
VERTEX
  8
Top_Paste
  10
27.9704
  20
1.5736
  42
1
  0
VERTEX
  8
Top_Paste
  10
27.7734
  20
1.5736
  42
1
  0
SEQEND
  0
SOLID
  8
Top_Paste
  10
27.6749
  20
1.5736
  11
27.6749
  21
2.5796
  12
28.6779
  22
2.7766
  13
27.8719
  23
2.7766
  0
SOLID
  8
Top_Paste
  10
27.6749
  20
1.5736
  11
28.6779
  21
2.7766
  12
28.8749
  22
1.5736
  13
28.8749
  23
2.5796
  0
SOLID
  8
Top_Paste
  10
27.6749
  20
1.5736
  11
28.8749
  21
1.5736
  12
27.8719
  22
1.3766
  13
28.6779
  23
1.3766
  0
POLYLINE
  8
Top_Paste
  6
CONTINUOUS
  66
1
  70
0
  40
0.197
  41
0.197
  0
VERTEX
  8
Top_Paste
  10
29.6734
  20
2.5796
  42
1
  0
VERTEX
  8
Top_Paste
  10
29.8704
  20
2.5796
  42
1
  0
VERTEX
  8
Top_Paste
  10
29.6734
  20
2.5796
  42
1
  0
SEQEND
  0
POLYLINE
  8
Top_Paste
  6
CONTINUOUS
  66
1
  70
0
  40
0.197
  41
0.197
  0
VERTEX
  8
Top_Paste
  10
30.4794
  20
2.5796
  42
1
  0
VERTEX
  8
Top_Paste
  10
30.6764
  20
2.5796
  42
1
  0
VERTEX
  8
Top_Paste
  10
30.4794
  20
2.5796
  42
1
  0
SEQEND
  0
POLYLINE
  8
Top_Paste
  6
CONTINUOUS
  66
1
  70
0
  40
0.197
  41
0.197
  0
VERTEX
  8
Top_Paste
  10
30.4794
  20
1.5736
  42
1
  0
VERTEX
  8
Top_Paste
  10
30.6764
  20
1.5736
  42
1
  0
VERTEX
  8
Top_Paste
  10
30.4794
  20
1.5736
  42
1
  0
SEQEND
  0
POLYLINE
  8
Top_Paste
  6
CONTINUOUS
  66
1
  70
0
  40
0.197
  41
0.197
  0
VERTEX
  8
Top_Paste
  10
29.6734
  20
1.5736
  42
1
  0
VERTEX
  8
Top_Paste
  10
29.8704
  20
1.5736
  42
1
  0
VERTEX
  8
Top_Paste
  10
29.6734
  20
1.5736
  42
1
  0
SEQEND
  0
SOLID
  8
Top_Paste
  10
29.5749
  20
1.5736
  11
29.5749
  21
2.5796
  12
30.5779
  22
2.7766
  13
29.7719
  23
2.7766
  0
SOLID
  8
Top_Paste
  10
29.5749
  20
1.5736
  11
30.5779
  21
2.7766
  12
30.7749
  22
1.5736
  13
30.7749
  23
2.5796
  0
SOLID
  8
Top_Paste
  10
29.5749
  20
1.5736
  11
30.7749
  21
1.5736
  12
29.7719
  22
1.3766
  13
30.5779
  23
1.3766
  0
POLYLINE
  8
Top_Paste
  6
CONTINUOUS
  66
1
  70
0
  40
0.2
  41
0.2
  0
VERTEX
  8
Top_Paste
  10
26.9458
  20
-28.5517
  42
1
  0
VERTEX
  8
Top_Paste
  10
27.1458
  20
-28.5517
  42
1
  0
VERTEX
  8
Top_Paste
  10
26.9458
  20
-28.5517
  42
1
  0
SEQEND
  0
POLYLINE
  8
Top_Paste
  6
CONTINUOUS
  66
1
  70
0
  40
0.2
  41
0.2
  0
VERTEX
  8
Top_Paste
  10
26.3458
  20
-28.5517
  42
1
  0
VERTEX
  8
Top_Paste
  10
26.5458
  20
-28.5517
  42
1
  0
VERTEX
  8
Top_Paste
  10
26.3458
  20
-28.5517
  42
1
  0
SEQEND
  0
POLYLINE
  8
Top_Paste
  6
CONTINUOUS
  66
1
  70
0
  40
0.2
  41
0.2
  0
VERTEX
  8
Top_Paste
  10
26.3458
  20
-28.0517
  42
1
  0
VERTEX
  8
Top_Paste
  10
26.5458
  20
-28.0517
  42
1
  0
VERTEX
  8
Top_Paste
  10
26.3458
  20
-28.0517
  42
1
  0
SEQEND
  0
POLYLINE
  8
Top_Paste
  6
CONTINUOUS
  66
1
  70
0
  40
0.2
  41
0.2
  0
VERTEX
  8
Top_Paste
  10
26.9458
  20
-28.0517
  42
1
  0
VERTEX
  8
Top_Paste
  10
27.1458
  20
-28.0517
  42
1
  0
VERTEX
  8
Top_Paste
  10
26.9458
  20
-28.0517
  42
1
  0
SEQEND
  0
SOLID
  8
Top_Paste
  10
27.2458
  20
-28.0517
  11
27.2458
  21
-28.5517
  12
26.4458
  22
-28.7517
  13
27.0458
  23
-28.7517
  0
SOLID
  8
Top_Paste
  10
27.2458
  20
-28.0517
  11
26.4458
  21
-28.7517
  12
26.2458
  22
-28.0517
  13
26.2458
  23
-28.5517
  0
SOLID
  8
Top_Paste
  10
27.2458
  20
-28.0517
  11
26.2458
  21
-28.0517
  12
27.0458
  22
-27.8517
  13
26.4458
  23
-27.8517
  0
POLYLINE
  8
Top_Paste
  6
CONTINUOUS
  66
1
  70
0
  40
0.2
  41
0.2
  0
VERTEX
  8
Top_Paste
  10
25.2458
  20
-28.5517
  42
1
  0
VERTEX
  8
Top_Paste
  10
25.4458
  20
-28.5517
  42
1
  0
VERTEX
  8
Top_Paste
  10
25.2458
  20
-28.5517
  42
1
  0
SEQEND
  0
POLYLINE
  8
Top_Paste
  6
CONTINUOUS
  66
1
  70
0
  40
0.2
  41
0.2
  0
VERTEX
  8
Top_Paste
  10
24.6458
  20
-28.5517
  42
1
  0
VERTEX
  8
Top_Paste
  10
24.8458
  20
-28.5517
  42
1
  0
VERTEX
  8
Top_Paste
  10
24.6458
  20
-28.5517
  42
1
  0
SEQEND
  0
POLYLINE
  8
Top_Paste
  6
CONTINUOUS
  66
1
  70
0
  40
0.2
  41
0.2
  0
VERTEX
  8
Top_Paste
  10
24.6458
  20
-28.0517
  42
1
  0
VERTEX
  8
Top_Paste
  10
24.8458
  20
-28.0517
  42
1
  0
VERTEX
  8
Top_Paste
  10
24.6458
  20
-28.0517
  42
1
  0
SEQEND
  0
POLYLINE
  8
Top_Paste
  6
CONTINUOUS
  66
1
  70
0
  40
0.2
  41
0.2
  0
VERTEX
  8
Top_Paste
  10
25.2458
  20
-28.0517
  42
1
  0
VERTEX
  8
Top_Paste
  10
25.4458
  20
-28.0517
  42
1
  0
VERTEX
  8
Top_Paste
  10
25.2458
  20
-28.0517
  42
1
  0
SEQEND
  0
SOLID
  8
Top_Paste
  10
25.5458
  20
-28.0517
  11
25.5458
  21
-28.5517
  12
24.7458
  22
-28.7517
  13
25.3458
  23
-28.7517
  0
SOLID
  8
Top_Paste
  10
25.5458
  20
-28.0517
  11
24.7458
  21
-28.7517
  12
24.5458
  22
-28.0517
  13
24.5458
  23
-28.5517
  0
SOLID
  8
Top_Paste
  10
25.5458
  20
-28.0517
  11
24.5458
  21
-28.0517
  12
25.3458
  22
-27.8517
  13
24.7458
  23
-27.8517
  0
POLYLINE
  8
Top_Paste
  6
CONTINUOUS
  66
1
  70
0
  40
0.197
  41
0.197
  0
VERTEX
  8
Top_Paste
  10
27.1503
  20
-21.5531
  42
1
  0
VERTEX
  8
Top_Paste
  10
27.3473
  20
-21.5531
  42
1
  0
VERTEX
  8
Top_Paste
  10
27.1503
  20
-21.5531
  42
1
  0
SEQEND
  0
POLYLINE
  8
Top_Paste
  6
CONTINUOUS
  66
1
  70
0
  40
0.197
  41
0.197
  0
VERTEX
  8
Top_Paste
  10
26.3443
  20
-21.5531
  42
1
  0
VERTEX
  8
Top_Paste
  10
26.5413
  20
-21.5531
  42
1
  0
VERTEX
  8
Top_Paste
  10
26.3443
  20
-21.5531
  42
1
  0
SEQEND
  0
POLYLINE
  8
Top_Paste
  6
CONTINUOUS
  66
1
  70
0
  40
0.197
  41
0.197
  0
VERTEX
  8
Top_Paste
  10
26.3443
  20
-20.5471
  42
1
  0
VERTEX
  8
Top_Paste
  10
26.5413
  20
-20.5471
  42
1
  0
VERTEX
  8
Top_Paste
  10
26.3443
  20
-20.5471
  42
1
  0
SEQEND
  0
POLYLINE
  8
Top_Paste
  6
CONTINUOUS
  66
1
  70
0
  40
0.197
  41
0.197
  0
VERTEX
  8
Top_Paste
  10
27.1503
  20
-20.5471
  42
1
  0
VERTEX
  8
Top_Paste
  10
27.3473
  20
-20.5471
  42
1
  0
VERTEX
  8
Top_Paste
  10
27.1503
  20
-20.5471
  42
1
  0
SEQEND
  0
SOLID
  8
Top_Paste
  10
27.4458
  20
-20.5471
  11
27.4458
  21
-21.5531
  12
26.4428
  22
-21.7501
  13
27.2488
  23
-21.7501
  0
SOLID
  8
Top_Paste
  10
27.4458
  20
-20.5471
  11
26.4428
  21
-21.7501
  12
26.2458
  22
-20.5471
  13
26.2458
  23
-21.5531
  0
SOLID
  8
Top_Paste
  10
27.4458
  20
-20.5471
  11
26.2458
  21
-20.5471
  12
27.2488
  22
-20.3501
  13
26.4428
  23
-20.3501
  0
POLYLINE
  8
Top_Paste
  6
CONTINUOUS
  66
1
  70
0
  40
0.197
  41
0.197
  0
VERTEX
  8
Top_Paste
  10
25.2503
  20
-21.5531
  42
1
  0
VERTEX
  8
Top_Paste
  10
25.4473
  20
-21.5531
  42
1
  0
VERTEX
  8
Top_Paste
  10
25.2503
  20
-21.5531
  42
1
  0
SEQEND
  0
POLYLINE
  8
Top_Paste
  6
CONTINUOUS
  66
1
  70
0
  40
0.197
  41
0.197
  0
VERTEX
  8
Top_Paste
  10
24.4443
  20
-21.5531
  42
1
  0
VERTEX
  8
Top_Paste
  10
24.6413
  20
-21.5531
  42
1
  0
VERTEX
  8
Top_Paste
  10
24.4443
  20
-21.5531
  42
1
  0
SEQEND
  0
POLYLINE
  8
Top_Paste
  6
CONTINUOUS
  66
1
  70
0
  40
0.197
  41
0.197
  0
VERTEX
  8
Top_Paste
  10
24.4443
  20
-20.5471
  42
1
  0
VERTEX
  8
Top_Paste
  10
24.6413
  20
-20.5471
  42
1
  0
VERTEX
  8
Top_Paste
  10
24.4443
  20
-20.5471
  42
1
  0
SEQEND
  0
POLYLINE
  8
Top_Paste
  6
CONTINUOUS
  66
1
  70
0
  40
0.197
  41
0.197
  0
VERTEX
  8
Top_Paste
  10
25.2503
  20
-20.5471
  42
1
  0
VERTEX
  8
Top_Paste
  10
25.4473
  20
-20.5471
  42
1
  0
VERTEX
  8
Top_Paste
  10
25.2503
  20
-20.5471
  42
1
  0
SEQEND
  0
SOLID
  8
Top_Paste
  10
25.5458
  20
-20.5471
  11
25.5458
  21
-21.5531
  12
24.5428
  22
-21.7501
  13
25.3488
  23
-21.7501
  0
SOLID
  8
Top_Paste
  10
25.5458
  20
-20.5471
  11
24.5428
  21
-21.7501
  12
24.3458
  22
-20.5471
  13
24.3458
  23
-21.5531
  0
SOLID
  8
Top_Paste
  10
25.5458
  20
-20.5471
  11
24.3458
  21
-20.5471
  12
25.3488
  22
-20.3501
  13
24.5428
  23
-20.3501
  0
POLYLINE
  8
Top_Paste
  6
CONTINUOUS
  66
1
  70
0
  40
0.197
  41
0.197
  0
VERTEX
  8
Top_Paste
  10
30.219
  20
-23.0507
  42
1
  0
VERTEX
  8
Top_Paste
  10
30.416
  20
-23.0507
  42
1
  0
VERTEX
  8
Top_Paste
  10
30.219
  20
-23.0507
  42
1
  0
SEQEND
  0
POLYLINE
  8
Top_Paste
  6
CONTINUOUS
  66
1
  70
0
  40
0.197
  41
0.197
  0
VERTEX
  8
Top_Paste
  10
31.025
  20
-23.0507
  42
1
  0
VERTEX
  8
Top_Paste
  10
31.222
  20
-23.0507
  42
1
  0
VERTEX
  8
Top_Paste
  10
31.025
  20
-23.0507
  42
1
  0
SEQEND
  0
POLYLINE
  8
Top_Paste
  6
CONTINUOUS
  66
1
  70
0
  40
0.197
  41
0.197
  0
VERTEX
  8
Top_Paste
  10
31.025
  20
-24.0567
  42
1
  0
VERTEX
  8
Top_Paste
  10
31.222
  20
-24.0567
  42
1
  0
VERTEX
  8
Top_Paste
  10
31.025
  20
-24.0567
  42
1
  0
SEQEND
  0
POLYLINE
  8
Top_Paste
  6
CONTINUOUS
  66
1
  70
0
  40
0.197
  41
0.197
  0
VERTEX
  8
Top_Paste
  10
30.219
  20
-24.0567
  42
1
  0
VERTEX
  8
Top_Paste
  10
30.416
  20
-24.0567
  42
1
  0
VERTEX
  8
Top_Paste
  10
30.219
  20
-24.0567
  42
1
  0
SEQEND
  0
SOLID
  8
Top_Paste
  10
30.1205
  20
-24.0567
  11
30.1205
  21
-23.0507
  12
31.1235
  22
-22.8537
  13
30.3175
  23
-22.8537
  0
SOLID
  8
Top_Paste
  10
30.1205
  20
-24.0567
  11
31.1235
  21
-22.8537
  12
31.3205
  22
-24.0567
  13
31.3205
  23
-23.0507
  0
SOLID
  8
Top_Paste
  10
30.1205
  20
-24.0567
  11
31.3205
  21
-24.0567
  12
30.3175
  22
-24.2537
  13
31.1235
  23
-24.2537
  0
POLYLINE
  8
Top_Paste
  6
CONTINUOUS
  66
1
  70
0
  40
0.197
  41
0.197
  0
VERTEX
  8
Top_Paste
  10
32.119
  20
-23.0507
  42
1
  0
VERTEX
  8
Top_Paste
  10
32.316
  20
-23.0507
  42
1
  0
VERTEX
  8
Top_Paste
  10
32.119
  20
-23.0507
  42
1
  0
SEQEND
  0
POLYLINE
  8
Top_Paste
  6
CONTINUOUS
  66
1
  70
0
  40
0.197
  41
0.197
  0
VERTEX
  8
Top_Paste
  10
32.925
  20
-23.0507
  42
1
  0
VERTEX
  8
Top_Paste
  10
33.122
  20
-23.0507
  42
1
  0
VERTEX
  8
Top_Paste
  10
32.925
  20
-23.0507
  42
1
  0
SEQEND
  0
POLYLINE
  8
Top_Paste
  6
CONTINUOUS
  66
1
  70
0
  40
0.197
  41
0.197
  0
VERTEX
  8
Top_Paste
  10
32.925
  20
-24.0567
  42
1
  0
VERTEX
  8
Top_Paste
  10
33.122
  20
-24.0567
  42
1
  0
VERTEX
  8
Top_Paste
  10
32.925
  20
-24.0567
  42
1
  0
SEQEND
  0
POLYLINE
  8
Top_Paste
  6
CONTINUOUS
  66
1
  70
0
  40
0.197
  41
0.197
  0
VERTEX
  8
Top_Paste
  10
32.119
  20
-24.0567
  42
1
  0
VERTEX
  8
Top_Paste
  10
32.316
  20
-24.0567
  42
1
  0
VERTEX
  8
Top_Paste
  10
32.119
  20
-24.0567
  42
1
  0
SEQEND
  0
SOLID
  8
Top_Paste
  10
32.0205
  20
-24.0567
  11
32.0205
  21
-23.0507
  12
33.0235
  22
-22.8537
  13
32.2175
  23
-22.8537
  0
SOLID
  8
Top_Paste
  10
32.0205
  20
-24.0567
  11
33.0235
  21
-22.8537
  12
33.2205
  22
-24.0567
  13
33.2205
  23
-23.0507
  0
SOLID
  8
Top_Paste
  10
32.0205
  20
-24.0567
  11
33.2205
  21
-24.0567
  12
32.2175
  22
-24.2537
  13
33.0235
  23
-24.2537
  0
SOLID
  8
Top_Paste
  10
35.765
  20
-18.275
  11
37.235
  21
-18.275
  12
35.765
  22
-18.585
  13
37.235
  23
-18.585
  0
SOLID
  8
Top_Paste
  10
41.505
  20
-17.625
  11
42.975
  21
-17.625
  12
41.505
  22
-17.935
  13
42.975
  23
-17.935
  0
SOLID
  8
Top_Paste
  10
41.505
  20
-18.275
  11
42.975
  21
-18.275
  12
41.505
  22
-18.585
  13
42.975
  23
-18.585
  0
SOLID
  8
Top_Paste
  10
35.765
  20
-15.675
  11
37.235
  21
-15.675
  12
35.765
  22
-15.985
  13
37.235
  23
-15.985
  0
SOLID
  8
Top_Paste
  10
41.505
  20
-16.975
  11
42.975
  21
-16.975
  12
41.505
  22
-17.285
  13
42.975
  23
-17.285
  0
SOLID
  8
Top_Paste
  10
35.765
  20
-16.975
  11
37.235
  21
-16.975
  12
35.765
  22
-17.285
  13
37.235
  23
-17.285
  0
SOLID
  8
Top_Paste
  10
35.765
  20
-17.625
  11
37.235
  21
-17.625
  12
35.765
  22
-17.935
  13
37.235
  23
-17.935
  0
SOLID
  8
Top_Paste
  10
41.505
  20
-15.675
  11
42.975
  21
-15.675
  12
41.505
  22
-15.985
  13
42.975
  23
-15.985
  0
SOLID
  8
Top_Paste
  10
41.505
  20
-18.925
  11
42.975
  21
-18.925
  12
41.505
  22
-19.235
  13
42.975
  23
-19.235
  0
SOLID
  8
Top_Paste
  10
41.505
  20
-19.575
  11
42.975
  21
-19.575
  12
41.505
  22
-19.885
  13
42.975
  23
-19.885
  0
SOLID
  8
Top_Paste
  10
35.765
  20
-16.325
  11
37.235
  21
-16.325
  12
35.765
  22
-16.635
  13
37.235
  23
-16.635
  0
SOLID
  8
Top_Paste
  10
41.505
  20
-16.325
  11
42.975
  21
-16.325
  12
41.505
  22
-16.635
  13
42.975
  23
-16.635
  0
SOLID
  8
Top_Paste
  10
35.765
  20
-19.575
  11
37.235
  21
-19.575
  12
35.765
  22
-19.885
  13
37.235
  23
-19.885
  0
SOLID
  8
Top_Paste
  10
35.765
  20
-18.925
  11
37.235
  21
-18.925
  12
35.765
  22
-19.235
  13
37.235
  23
-19.235
  0
SOLID
  8
Top_Paste
  10
26.875
  20
-7.2
  11
28.345
  21
-7.2
  12
26.875
  22
-7.51
  13
28.345
  23
-7.51
  0
SOLID
  8
Top_Paste
  10
32.615
  20
-2.65
  11
34.085
  21
-2.65
  12
32.615
  22
-2.96
  13
34.085
  23
-2.96
  0
SOLID
  8
Top_Paste
  10
26.875
  20
-4.6
  11
28.345
  21
-4.6
  12
26.875
  22
-4.91
  13
28.345
  23
-4.91
  0
SOLID
  8
Top_Paste
  10
32.615
  20
-6.55
  11
34.085
  21
-6.55
  12
32.615
  22
-6.86
  13
34.085
  23
-6.86
  0
SOLID
  8
Top_Paste
  10
32.615
  20
-9.15
  11
34.085
  21
-9.15
  12
32.615
  22
-9.46
  13
34.085
  23
-9.46
  0
SOLID
  8
Top_Paste
  10
26.875
  20
-3.3
  11
28.345
  21
-3.3
  12
26.875
  22
-3.61
  13
28.345
  23
-3.61
  0
SOLID
  8
Top_Paste
  10
32.615
  20
-7.85
  11
34.085
  21
-7.85
  12
32.615
  22
-8.16
  13
34.085
  23
-8.16
  0
SOLID
  8
Top_Paste
  10
26.875
  20
-0.7
  11
28.345
  21
-0.7
  12
26.875
  22
-1.01
  13
28.345
  23
-1.01
  0
SOLID
  8
Top_Paste
  10
26.875
  20
-1.35
  11
28.345
  21
-1.35
  12
26.875
  22
-1.66
  13
28.345
  23
-1.66
  0
SOLID
  8
Top_Paste
  10
32.615
  20
-7.2
  11
34.085
  21
-7.2
  12
32.615
  22
-7.51
  13
34.085
  23
-7.51
  0
SOLID
  8
Top_Paste
  10
32.615
  20
-5.9
  11
34.085
  21
-5.9
  12
32.615
  22
-6.21
  13
34.085
  23
-6.21
  0
SOLID
  8
Top_Paste
  10
32.615
  20
-8.5
  11
34.085
  21
-8.5
  12
32.615
  22
-8.81
  13
34.085
  23
-8.81
  0
SOLID
  8
Top_Paste
  10
26.875
  20
-2.0
  11
28.345
  21
-2.0
  12
26.875
  22
-2.31
  13
28.345
  23
-2.31
  0
SOLID
  8
Top_Paste
  10
32.615
  20
-3.95
  11
34.085
  21
-3.95
  12
32.615
  22
-4.26
  13
34.085
  23
-4.26
  0
SOLID
  8
Top_Paste
  10
32.615
  20
-3.3
  11
34.085
  21
-3.3
  12
32.615
  22
-3.61
  13
34.085
  23
-3.61
  0
SOLID
  8
Top_Paste
  10
32.615
  20
-4.6
  11
34.085
  21
-4.6
  12
32.615
  22
-4.91
  13
34.085
  23
-4.91
  0
SOLID
  8
Top_Paste
  10
26.875
  20
-7.85
  11
28.345
  21
-7.85
  12
26.875
  22
-8.16
  13
28.345
  23
-8.16
  0
SOLID
  8
Top_Paste
  10
26.875
  20
-2.65
  11
28.345
  21
-2.65
  12
26.875
  22
-2.96
  13
28.345
  23
-2.96
  0
SOLID
  8
Top_Paste
  10
26.875
  20
-3.95
  11
28.345
  21
-3.95
  12
26.875
  22
-4.26
  13
28.345
  23
-4.26
  0
SOLID
  8
Top_Paste
  10
26.875
  20
-6.55
  11
28.345
  21
-6.55
  12
26.875
  22
-6.86
  13
28.345
  23
-6.86
  0
SOLID
  8
Top_Paste
  10
26.875
  20
-5.25
  11
28.345
  21
-5.25
  12
26.875
  22
-5.56
  13
28.345
  23
-5.56
  0
SOLID
  8
Top_Paste
  10
26.875
  20
-5.9
  11
28.345
  21
-5.9
  12
26.875
  22
-6.21
  13
28.345
  23
-6.21
  0
SOLID
  8
Top_Paste
  10
32.615
  20
-5.25
  11
34.085
  21
-5.25
  12
32.615
  22
-5.56
  13
34.085
  23
-5.56
  0
SOLID
  8
Top_Paste
  10
26.875
  20
-8.5
  11
28.345
  21
-8.5
  12
26.875
  22
-8.81
  13
28.345
  23
-8.81
  0
SOLID
  8
Top_Paste
  10
26.875
  20
-9.15
  11
28.345
  21
-9.15
  12
26.875
  22
-9.46
  13
28.345
  23
-9.46
  0
SOLID
  8
Top_Paste
  10
32.615
  20
-0.7
  11
34.085
  21
-0.7
  12
32.615
  22
-1.01
  13
34.085
  23
-1.01
  0
SOLID
  8
Top_Paste
  10
32.615
  20
-1.35
  11
34.085
  21
-1.35
  12
32.615
  22
-1.66
  13
34.085
  23
-1.66
  0
SOLID
  8
Top_Paste
  10
32.615
  20
-2.0
  11
34.085
  21
-2.0
  12
32.615
  22
-2.31
  13
34.085
  23
-2.31
  0
SOLID
  8
Top_Paste
  10
32.0828
  20
-25.7137
  11
33.0828
  21
-25.7137
  12
32.0828
  22
-26.9137
  13
33.0828
  23
-26.9137
  0
SOLID
  8
Top_Paste
  10
30.4328
  20
-25.7137
  11
31.4328
  21
-25.7137
  12
30.4328
  22
-26.9137
  13
31.4328
  23
-26.9137
  0
SOLID
  8
Top_Paste
  10
30.4328
  20
-27.8137
  11
31.4328
  21
-27.8137
  12
30.4328
  22
-29.0137
  13
31.4328
  23
-29.0137
  0
SOLID
  8
Top_Paste
  10
32.0828
  20
-27.8137
  11
33.0828
  21
-27.8137
  12
32.0828
  22
-29.0137
  13
33.0828
  23
-29.0137
  0
ENDSEC
  0
EOF
