  0
SECTION
  2
HEADER
  9
$ACADVER
  1
AC1032
  9
$ACADMAINTVER
 90
      250
  9
$DWGCODEPAGE
  3
ANSI_1252
  9
$LASTSAVEDBY
  1
ellix
  9
$REQUIREDVERSIONS
160
                 0
  9
$INSBASE
 10
0.0
 20
0.0
 30
0.0
  9
$EXTMIN
 10
-14.37713171107231
 20
-61.08449222091289
 30
0.0
  9
$EXTMAX
 10
119.1070579210818
 20
57.49780375522428
 30
0.0
  9
$LIMMIN
 10
0.0
 20
0.0
  9
$LIMMAX
 10
12.0
 20
9.0
  9
$ORTHOMODE
 70
     0
  9
$REGENMODE
 70
     1
  9
$FILLMODE
 70
     1
  9
$QTEXTMODE
 70
     0
  9
$MIRRTEXT
 70
     0
  9
$LTSCALE
 40
1.0
  9
$ATTMODE
 70
     1
  9
$TEXTSIZE
 40
0.2
  9
$TRACEWID
 40
0.05
  9
$TEXTSTYLE
  7
Standard
  9
$CLAYER
  8
0
  9
$CELTYPE
  6
ByLayer
  9
$CECOLOR
 62
   256
  9
$CELTSCALE
 40
1.0
  9
$DISPSILH
 70
     0
  9
$DIMSCALE
 40
1.0
  9
$DIMASZ
 40
0.18
  9
$DIMEXO
 40
0.0625
  9
$DIMDLI
 40
0.38
  9
$DIMRND
 40
0.0
  9
$DIMDLE
 40
0.0
  9
$DIMEXE
 40
0.18
  9
$DIMTP
 40
0.0
  9
$DIMTM
 40
0.0
  9
$DIMTXT
 40
0.18
  9
$DIMCEN
 40
0.09
  9
$DIMTSZ
 40
0.0
  9
$DIMTOL
 70
     0
  9
$DIMLIM
 70
     0
  9
$DIMTIH
 70
     1
  9
$DIMTOH
 70
     1
  9
$DIMSE1
 70
     0
  9
$DIMSE2
 70
     0
  9
$DIMTAD
 70
     0
  9
$DIMZIN
 70
     0
  9
$DIMBLK
  1

  9
$DIMASO
 70
     1
  9
$DIMSHO
 70
     1
  9
$DIMPOST
  1

  9
$DIMAPOST
  1

  9
$DIMALT
 70
     0
  9
$DIMALTD
 70
     2
  9
$DIMALTF
 40
25.4
  9
$DIMLFAC
 40
1.0
  9
$DIMTOFL
 70
     0
  9
$DIMTVP
 40
0.0
  9
$DIMTIX
 70
     0
  9
$DIMSOXD
 70
     0
  9
$DIMSAH
 70
     0
  9
$DIMBLK1
  1

  9
$DIMBLK2
  1

  9
$DIMSTYLE
  2
Standard
  9
$DIMCLRD
 70
     0
  9
$DIMCLRE
 70
     0
  9
$DIMCLRT
 70
     0
  9
$DIMTFAC
 40
1.0
  9
$DIMGAP
 40
0.09
  9
$DIMJUST
 70
     0
  9
$DIMSD1
 70
     0
  9
$DIMSD2
 70
     0
  9
$DIMTOLJ
 70
     1
  9
$DIMTZIN
 70
     0
  9
$DIMALTZ
 70
     0
  9
$DIMALTTZ
 70
     0
  9
$DIMUPT
 70
     0
  9
$DIMDEC
 70
     4
  9
$DIMTDEC
 70
     4
  9
$DIMALTU
 70
     2
  9
$DIMALTTD
 70
     2
  9
$DIMTXSTY
  7
Standard
  9
$DIMAUNIT
 70
     0
  9
$DIMADEC
 70
     0
  9
$DIMALTRND
 40
0.0
  9
$DIMAZIN
 70
     0
  9
$DIMDSEP
 70
    46
  9
$DIMATFIT
 70
     3
  9
$DIMFRAC
 70
     0
  9
$DIMLDRBLK
  1

  9
$DIMLUNIT
 70
     2
  9
$DIMLWD
 70
    -2
  9
$DIMLWE
 70
    -2
  9
$DIMTMOVE
 70
     0
  9
$DIMFXL
 40
1.0
  9
$DIMFXLON
 70
     0
  9
$DIMJOGANG
 40
0.7853981633974483
  9
$DIMTFILL
 70
     0
  9
$DIMTFILLCLR
 70
     0
  9
$DIMARCSYM
 70
     0
  9
$DIMLTYPE
  6

  9
$DIMLTEX1
  6

  9
$DIMLTEX2
  6

  9
$DIMTXTDIRECTION
 70
     0
  9
$LUNITS
 70
     2
  9
$LUPREC
 70
     4
  9
$SKETCHINC
 40
0.1
  9
$FILLETRAD
 40
0.0
  9
$AUNITS
 70
     0
  9
$AUPREC
 70
     0
  9
$MENU
  1
.
  9
$ELEVATION
 40
0.0
  9
$PELEVATION
 40
0.0
  9
$THICKNESS
 40
0.0
  9
$LIMCHECK
 70
     0
  9
$CHAMFERA
 40
0.0
  9
$CHAMFERB
 40
0.0
  9
$CHAMFERC
 40
0.0
  9
$CHAMFERD
 40
0.0
  9
$SKPOLY
 70
     0
  9
$TDCREATE
 40
2460367.436203704
  9
$TDUCREATE
 40
2460367.644537037
  9
$TDUPDATE
 40
2460367.437905093
  9
$TDUUPDATE
 40
2460367.646238426
  9
$TDINDWG
 40
0.0017013889
  9
$TDUSRTIMER
 40
0.0017013889
  9
$USRTIMER
 70
     1
  9
$ANGBASE
 50
0.0
  9
$ANGDIR
 70
     0
  9
$PDMODE
 70
     0
  9
$PDSIZE
 40
0.0
  9
$PLINEWID
 40
0.0
  9
$SPLFRAME
 70
     0
  9
$SPLINETYPE
 70
     6
  9
$SPLINESEGS
 70
     8
  9
$HANDSEED
  5
549
  9
$SURFTAB1
 70
     6
  9
$SURFTAB2
 70
     6
  9
$SURFTYPE
 70
     6
  9
$SURFU
 70
     6
  9
$SURFV
 70
     6
  9
$UCSBASE
  2

  9
$UCSNAME
  2

  9
$UCSORG
 10
0.0
 20
0.0
 30
0.0
  9
$UCSXDIR
 10
1.0
 20
0.0
 30
0.0
  9
$UCSYDIR
 10
0.0
 20
1.0
 30
0.0
  9
$UCSORTHOREF
  2

  9
$UCSORTHOVIEW
 70
     0
  9
$UCSORGTOP
 10
0.0
 20
0.0
 30
0.0
  9
$UCSORGBOTTOM
 10
0.0
 20
0.0
 30
0.0
  9
$UCSORGLEFT
 10
0.0
 20
0.0
 30
0.0
  9
$UCSORGRIGHT
 10
0.0
 20
0.0
 30
0.0
  9
$UCSORGFRONT
 10
0.0
 20
0.0
 30
0.0
  9
$UCSORGBACK
 10
0.0
 20
0.0
 30
0.0
  9
$PUCSBASE
  2

  9
$PUCSNAME
  2

  9
$PUCSORG
 10
0.0
 20
0.0
 30
0.0
  9
$PUCSXDIR
 10
1.0
 20
0.0
 30
0.0
  9
$PUCSYDIR
 10
0.0
 20
1.0
 30
0.0
  9
$PUCSORTHOREF
  2

  9
$PUCSORTHOVIEW
 70
     0
  9
$PUCSORGTOP
 10
0.0
 20
0.0
 30
0.0
  9
$PUCSORGBOTTOM
 10
0.0
 20
0.0
 30
0.0
  9
$PUCSORGLEFT
 10
0.0
 20
0.0
 30
0.0
  9
$PUCSORGRIGHT
 10
0.0
 20
0.0
 30
0.0
  9
$PUCSORGFRONT
 10
0.0
 20
0.0
 30
0.0
  9
$PUCSORGBACK
 10
0.0
 20
0.0
 30
0.0
  9
$USERI1
 70
     0
  9
$USERI2
 70
     0
  9
$USERI3
 70
     0
  9
$USERI4
 70
     0
  9
$USERI5
 70
     0
  9
$USERR1
 40
0.0
  9
$USERR2
 40
0.0
  9
$USERR3
 40
0.0
  9
$USERR4
 40
0.0
  9
$USERR5
 40
0.0
  9
$WORLDVIEW
 70
     1
  9
$SHADEDGE
 70
     3
  9
$SHADEDIF
 70
    70
  9
$TILEMODE
 70
     1
  9
$MAXACTVP
 70
    64
  9
$PINSBASE
 10
0.0
 20
0.0
 30
0.0
  9
$PLIMCHECK
 70
     0
  9
$PEXTMIN
 10
1.000000000000000E+20
 20
1.000000000000000E+20
 30
1.000000000000000E+20
  9
$PEXTMAX
 10
-1.000000000000000E+20
 20
-1.000000000000000E+20
 30
-1.000000000000000E+20
  9
$PLIMMIN
 10
0.0
 20
0.0
  9
$PLIMMAX
 10
12.0
 20
9.0
  9
$UNITMODE
 70
     0
  9
$VISRETAIN
 70
     1
  9
$PLINEGEN
 70
     0
  9
$PSLTSCALE
 70
     1
  9
$TREEDEPTH
 70
  3020
  9
$CMLSTYLE
  2
Standard
  9
$CMLJUST
 70
     0
  9
$CMLSCALE
 40
1.0
  9
$PROXYGRAPHICS
 70
     1
  9
$MEASUREMENT
 70
     0
  9
$CELWEIGHT
370
    -1
  9
$ENDCAPS
280
     0
  9
$JOINSTYLE
280
     0
  9
$LWDISPLAY
290
     0
  9
$INSUNITS
 70
     0
  9
$HYPERLINKBASE
  1

  9
$STYLESHEET
  1

  9
$XEDIT
290
     1
  9
$CEPSNTYPE
380
     0
  9
$PSTYLEMODE
290
     1
  9
$FINGERPRINTGUID
  2
{E7439A11-6238-F642-B14A-5E6D1EFB415C}
  9
$VERSIONGUID
  2
{FB03862F-D1BB-0F46-9B77-C130363F020C}
  9
$EXTNAMES
290
     1
  9
$PSVPSCALE
 40
0.0
  9
$OLESTARTUP
290
     0
  9
$SORTENTS
280
   127
  9
$INDEXCTL
280
     0
  9
$HIDETEXT
280
     0
  9
$XCLIPFRAME
280
     2
  9
$HALOGAP
280
     0
  9
$OBSCOLOR
 70
   257
  9
$OBSLTYPE
280
     0
  9
$INTERSECTIONDISPLAY
280
     0
  9
$INTERSECTIONCOLOR
 70
   257
  9
$DIMASSOC
280
     1
  9
$PROJECTNAME
  1

  9
$CAMERADISPLAY
290
     0
  9
$LENSLENGTH
 40
50.0
  9
$CAMERAHEIGHT
 40
0.0
  9
$STEPSPERSEC
 40
2.0
  9
$STEPSIZE
 40
6.0
  9
$3DDWFPREC
 40
2.0
  9
$PSOLWIDTH
 40
0.25
  9
$PSOLHEIGHT
 40
4.0
  9
$LOFTANG1
 40
1.570796326794896
  9
$LOFTANG2
 40
1.570796326794896
  9
$LOFTMAG1
 40
0.0
  9
$LOFTMAG2
 40
0.0
  9
$LOFTPARAM
 70
     7
  9
$LOFTNORMALS
280
     1
  9
$LATITUDE
 40
37.795
  9
$LONGITUDE
 40
-122.394
  9
$NORTHDIRECTION
 40
0.0
  9
$TIMEZONE
 70
 -8000
  9
$LIGHTGLYPHDISPLAY
280
     1
  9
$TILEMODELIGHTSYNCH
280
     1
  9
$CMATERIAL
347
11
  9
$SOLIDHIST
280
     0
  9
$SHOWHIST
280
     1
  9
$DWFFRAME
280
     2
  9
$DGNFRAME
280
     0
  9
$REALWORLDSCALE
290
     1
  9
$INTERFERECOLOR
 62
     1
  9
$INTERFEREOBJVS
345
33
  9
$INTERFEREVPVS
346
30
  9
$CSHADOW
280
     0
  9
$SHADOWPLANELOCATION
 40
0.0
  0
ENDSEC
  0
SECTION
  2
CLASSES
  0
CLASS
  1
ACDBDICTIONARYWDFLT
  2
AcDbDictionaryWithDefault
  3
ObjectDBX Classes
 90
        0
 91
        1
280
     0
281
     0
  0
CLASS
  1
MATERIAL
  2
AcDbMaterial
  3
ObjectDBX Classes
 90
     1153
 91
        3
280
     0
281
     0
  0
CLASS
  1
VISUALSTYLE
  2
AcDbVisualStyle
  3
ObjectDBX Classes
 90
     4095
 91
       24
280
     0
281
     0
  0
CLASS
  1
SCALE
  2
AcDbScale
  3
ObjectDBX Classes
 90
     1153
 91
       17
280
     0
281
     0
  0
CLASS
  1
TABLESTYLE
  2
AcDbTableStyle
  3
ObjectDBX Classes
 90
     4095
 91
        1
280
     0
281
     0
  0
CLASS
  1
MLEADERSTYLE
  2
AcDbMLeaderStyle
  3
ACDB_MLEADERSTYLE_CLASS
 90
     4095
 91
        1
280
     0
281
     0
  0
CLASS
  1
ACDBSECTIONVIEWSTYLE
  2
AcDbSectionViewStyle
  3
ObjectDBX Classes
 90
     1025
 91
        1
280
     0
281
     0
  0
CLASS
  1
ACDBDETAILVIEWSTYLE
  2
AcDbDetailViewStyle
  3
ObjectDBX Classes
 90
     1025
 91
        1
280
     0
281
     0
  0
CLASS
  1
DICTIONARYVAR
  2
AcDbDictionaryVar
  3
ObjectDBX Classes
 90
        0
 91
       18
280
     0
281
     0
  0
CLASS
  1
CELLSTYLEMAP
  2
AcDbCellStyleMap
  3
ObjectDBX Classes
 90
     1152
 91
        1
280
     0
281
     0
  0
ENDSEC
  0
SECTION
  2
TABLES
  0
TABLE
  2
VPORT
  5
8
330
0
100
AcDbSymbolTable
 70
     1
  0
VPORT
  5
75
330
8
100
AcDbSymbolTableRecord
100
AcDbViewportTableRecord
  2
*Active
 70
     0
 10
0.0
 20
0.0
 11
1.0
 21
1.0
 12
10.79751797180802
 22
15.56491948710906
 13
0.0
 23
0.0
 14
1.0
 24
1.0
 15
0.0
 25
0.0
 16
0.0
 26
0.0
 36
1.0
 17
0.0
 27
0.0
 37
0.0
 40
171.0471602417074
 41
2.082191780821917
 42
50.0
 43
0.0
 44
0.0
 50
0.0
 51
0.0
 71
     0
 72
   100
 73
     1
 74
     1
 75
     0
 76
     1
 77
     0
 78
     0
281
     0
 65
     1
110
0.0
120
0.0
130
0.0
111
1.0
121
0.0
131
0.0
112
0.0
122
1.0
132
0.0
 79
     0
146
0.0
348
2F
 60
     3
 61
     5
292
     1
282
     1
141
0.0
142
0.0
 63
   250
421
  3355443
1001
ACAD_NAV_VCDISPLAY
1070
     3
  0
ENDTAB
  0
TABLE
  2
LTYPE
  5
5
330
0
100
AcDbSymbolTable
 70
     2
  0
LTYPE
  5
5A
330
5
100
AcDbSymbolTableRecord
100
AcDbLinetypeTableRecord
  2
ByBlock
 70
     0
  3

 72
    65
 73
     0
 40
0.0
  0
LTYPE
  5
5B
330
5
100
AcDbSymbolTableRecord
100
AcDbLinetypeTableRecord
  2
ByLayer
 70
     0
  3

 72
    65
 73
     0
 40
0.0
  0
LTYPE
  5
5C
330
5
100
AcDbSymbolTableRecord
100
AcDbLinetypeTableRecord
  2
Continuous
 70
     0
  3
Solid line
 72
    65
 73
     0
 40
0.0
  0
ENDTAB
  0
TABLE
  2
LAYER
  5
2
330
0
100
AcDbSymbolTable
 70
     2
  0
LAYER
  5
54
102
{ACAD_XDICTIONARY
360
52D
102
}
330
2
100
AcDbSymbolTableRecord
100
AcDbLayerTableRecord
  2
0
 70
     0
 62
     7
  6
Continuous
370
    -3
390
F
347
21
348
0
  0
LAYER
  5
73
102
{ACAD_XDICTIONARY
360
52F
102
}
330
2
100
AcDbSymbolTableRecord
100
AcDbLayerTableRecord
  2
TOP_PASTE
 70
     0
 62
     7
  6
Continuous
370
    -3
390
F
347
21
348
0
  0
ENDTAB
  0
TABLE
  2
STYLE
  5
3
330
0
100
AcDbSymbolTable
 70
     2
  0
STYLE
  5
55
330
3
100
AcDbSymbolTableRecord
100
AcDbTextStyleTableRecord
  2
Standard
 70
     0
 40
0.0
 41
1.0
 50
0.0
 71
     0
 42
0.2
  3
txt
  4

  0
STYLE
  5
59
330
3
100
AcDbSymbolTableRecord
100
AcDbTextStyleTableRecord
  2
Annotative
 70
     0
 40
0.0
 41
1.0
 50
0.0
 71
     0
 42
0.2
  3
txt
  4

1001
AcadAnnotative
1000
AnnotativeData
1002
{
1070
     1
1070
     1
1002
}
  0
ENDTAB
  0
TABLE
  2
VIEW
  5
6
330
0
100
AcDbSymbolTable
 70
     0
  0
ENDTAB
  0
TABLE
  2
UCS
  5
7
330
0
100
AcDbSymbolTable
 70
     0
  0
ENDTAB
  0
TABLE
  2
APPID
  5
9
330
0
100
AcDbSymbolTable
 70
     4
  0
APPID
  5
56
330
9
100
AcDbSymbolTableRecord
100
AcDbRegAppTableRecord
  2
ACAD
 70
     0
  0
APPID
  5
5D
330
9
100
AcDbSymbolTableRecord
100
AcDbRegAppTableRecord
  2
AcadAnnotative
 70
     0
  0
APPID
  5
524
330
9
100
AcDbSymbolTableRecord
100
AcDbRegAppTableRecord
  2
ACAD_EXEMPT_FROM_CAD_STANDARDS
 70
     0
  0
APPID
  5
531
330
9
100
AcDbSymbolTableRecord
100
AcDbRegAppTableRecord
  2
ACAD_NAV_VCDISPLAY
 70
     0
  0
ENDTAB
  0
TABLE
  2
DIMSTYLE
  5
A
330
0
100
AcDbSymbolTable
 70
     3
100
AcDbDimStyleTable
 71
     1
340
57
  0
DIMSTYLE
105
57
330
A
100
AcDbSymbolTableRecord
100
AcDbDimStyleTableRecord
  2
Standard
 70
     0
340
55
  0
DIMSTYLE
105
58
330
A
100
AcDbSymbolTableRecord
100
AcDbDimStyleTableRecord
  2
Annotative
 70
     0
340
55
1001
AcadAnnotative
1000
AnnotativeData
1002
{
1070
     1
1070
     1
1002
}
  0
ENDTAB
  0
TABLE
  2
BLOCK_RECORD
  5
1
330
0
100
AcDbSymbolTable
 70
     1
  0
BLOCK_RECORD
  5
6F
330
1
100
AcDbSymbolTableRecord
100
AcDbBlockTableRecord
  2
*Model_Space
340
72
 70
     0
280
     1
281
     0
  0
BLOCK_RECORD
  5
6B
330
1
100
AcDbSymbolTableRecord
100
AcDbBlockTableRecord
  2
*Paper_Space
340
6E
 70
     0
280
     1
281
     0
  0
ENDTAB
  0
ENDSEC
  0
SECTION
  2
BLOCKS
  0
BLOCK
  5
70
330
6F
100
AcDbEntity
  8
0
100
AcDbBlockBegin
  2
*Model_Space
 70
     0
 10
0.0
 20
0.0
 30
0.0
  3
*Model_Space
  1

  0
ENDBLK
  5
71
330
6F
100
AcDbEntity
  8
0
100
AcDbBlockEnd
  0
BLOCK
  5
6C
330
6B
100
AcDbEntity
 67
     1
  8
0
100
AcDbBlockBegin
  2
*Paper_Space
 70
     0
 10
0.0
 20
0.0
 30
0.0
  3
*Paper_Space
  1

  0
ENDBLK
  5
6D
330
6B
100
AcDbEntity
 67
     1
  8
0
100
AcDbBlockEnd
  0
ENDSEC
  0
SECTION
  2
ENTITIES
  0
LWPOLYLINE
  5
76
330
6F
100
AcDbEntity
  8
TOP_PASTE
  6
Continuous
100
AcDbPolyline
 90
        3
 70
     0
 43
0.197
 10
35.8805
 20
1.2553
 42
1.0
 10
36.0775
 20
1.2553
 42
1.0
 10
35.8805
 20
1.2553
 42
1.0
  0
LWPOLYLINE
  5
7B
330
6F
100
AcDbEntity
  8
TOP_PASTE
  6
Continuous
100
AcDbPolyline
 90
        3
 70
     0
 43
0.197
 10
35.0745
 20
1.2553
 42
1.0
 10
35.27150000000001
 20
1.2553
 42
1.0
 10
35.0745
 20
1.2553
 42
1.0
  0
LWPOLYLINE
  5
80
330
6F
100
AcDbEntity
  8
TOP_PASTE
  6
Continuous
100
AcDbPolyline
 90
        3
 70
     0
 43
0.197
 10
35.0745
 20
2.261299999999999
 42
1.0
 10
35.27150000000001
 20
2.261299999999999
 42
1.0
 10
35.0745
 20
2.261299999999999
 42
1.0
  0
LWPOLYLINE
  5
85
330
6F
100
AcDbEntity
  8
TOP_PASTE
  6
Continuous
100
AcDbPolyline
 90
        3
 70
     0
 43
0.197
 10
35.8805
 20
2.261299999999999
 42
1.0
 10
36.0775
 20
2.261299999999999
 42
1.0
 10
35.8805
 20
2.261299999999999
 42
1.0
  0
SOLID
  5
8A
330
6F
100
AcDbEntity
  8
TOP_PASTE
100
AcDbTrace
 10
36.176
 20
2.261299999999999
 30
0.0
 11
36.176
 21
1.2553
 31
0.0
 12
35.173
 22
1.0583
 32
0.0
 13
35.979
 23
1.0583
 33
0.0
  0
SOLID
  5
8B
330
6F
100
AcDbEntity
  8
TOP_PASTE
100
AcDbTrace
 10
36.176
 20
2.261299999999999
 30
0.0
 11
35.173
 21
1.0583
 31
0.0
 12
34.976
 22
2.261299999999999
 32
0.0
 13
34.976
 23
1.2553
 33
0.0
  0
SOLID
  5
8C
330
6F
100
AcDbEntity
  8
TOP_PASTE
100
AcDbTrace
 10
36.176
 20
2.261299999999999
 30
0.0
 11
34.976
 21
2.261299999999999
 31
0.0
 12
35.979
 22
2.458299999999999
 32
0.0
 13
35.173
 23
2.458299999999999
 33
0.0
  0
LWPOLYLINE
  5
8D
330
6F
100
AcDbEntity
  8
TOP_PASTE
  6
Continuous
100
AcDbPolyline
 90
        3
 70
     0
 43
0.197
 10
33.9805
 20
1.2553
 42
1.0
 10
34.1775
 20
1.2553
 42
1.0
 10
33.9805
 20
1.2553
 42
1.0
  0
LWPOLYLINE
  5
92
330
6F
100
AcDbEntity
  8
TOP_PASTE
  6
Continuous
100
AcDbPolyline
 90
        3
 70
     0
 43
0.197
 10
33.1745
 20
1.2553
 42
1.0
 10
33.3715
 20
1.2553
 42
1.0
 10
33.1745
 20
1.2553
 42
1.0
  0
LWPOLYLINE
  5
97
330
6F
100
AcDbEntity
  8
TOP_PASTE
  6
Continuous
100
AcDbPolyline
 90
        3
 70
     0
 43
0.197
 10
33.1745
 20
2.261299999999999
 42
1.0
 10
33.3715
 20
2.261299999999999
 42
1.0
 10
33.1745
 20
2.261299999999999
 42
1.0
  0
LWPOLYLINE
  5
9C
330
6F
100
AcDbEntity
  8
TOP_PASTE
  6
Continuous
100
AcDbPolyline
 90
        3
 70
     0
 43
0.197
 10
33.9805
 20
2.261299999999999
 42
1.0
 10
34.1775
 20
2.261299999999999
 42
1.0
 10
33.9805
 20
2.261299999999999
 42
1.0
  0
SOLID
  5
A1
330
6F
100
AcDbEntity
  8
TOP_PASTE
100
AcDbTrace
 10
34.276
 20
2.261299999999999
 30
0.0
 11
34.276
 21
1.2553
 31
0.0
 12
33.27300000000001
 22
1.0583
 32
0.0
 13
34.079
 23
1.0583
 33
0.0
  0
SOLID
  5
A2
330
6F
100
AcDbEntity
  8
TOP_PASTE
100
AcDbTrace
 10
34.276
 20
2.261299999999999
 30
0.0
 11
33.27300000000001
 21
1.0583
 31
0.0
 12
33.076
 22
2.261299999999999
 32
0.0
 13
33.076
 23
1.2553
 33
0.0
  0
SOLID
  5
A3
330
6F
100
AcDbEntity
  8
TOP_PASTE
100
AcDbTrace
 10
34.276
 20
2.261299999999999
 30
0.0
 11
33.076
 21
2.261299999999999
 31
0.0
 12
34.079
 22
2.458299999999999
 32
0.0
 13
33.27300000000001
 23
2.458299999999999
 33
0.0
  0
LWPOLYLINE
  5
A4
330
6F
100
AcDbEntity
  8
TOP_PASTE
  6
Continuous
100
AcDbPolyline
 90
        3
 70
     0
 43
0.197
 10
23.0139
 20
1.1991
 42
1.0
 10
23.2109
 20
1.1991
 42
1.0
 10
23.0139
 20
1.1991
 42
1.0
  0
LWPOLYLINE
  5
A9
330
6F
100
AcDbEntity
  8
TOP_PASTE
  6
Continuous
100
AcDbPolyline
 90
        3
 70
     0
 43
0.197
 10
23.0139
 20
2.0051
 42
1.0
 10
23.2109
 20
2.0051
 42
1.0
 10
23.0139
 20
2.0051
 42
1.0
  0
LWPOLYLINE
  5
AE
330
6F
100
AcDbEntity
  8
TOP_PASTE
  6
Continuous
100
AcDbPolyline
 90
        3
 70
     0
 43
0.197
 10
24.0199
 20
2.0051
 42
1.0
 10
24.2169
 20
2.0051
 42
1.0
 10
24.0199
 20
2.0051
 42
1.0
  0
LWPOLYLINE
  5
B3
330
6F
100
AcDbEntity
  8
TOP_PASTE
  6
Continuous
100
AcDbPolyline
 90
        3
 70
     0
 43
0.197
 10
24.0199
 20
1.1991
 42
1.0
 10
24.2169
 20
1.1991
 42
1.0
 10
24.0199
 20
1.1991
 42
1.0
  0
SOLID
  5
B8
330
6F
100
AcDbEntity
  8
TOP_PASTE
100
AcDbTrace
 10
24.1184
 20
1.002099999999999
 30
0.0
 11
23.1124
 21
1.002099999999999
 31
0.0
 12
22.9154
 22
2.0051
 32
0.0
 13
22.9154
 23
1.1991
 33
0.0
  0
SOLID
  5
B9
330
6F
100
AcDbEntity
  8
TOP_PASTE
100
AcDbTrace
 10
24.1184
 20
1.002099999999999
 30
0.0
 11
22.9154
 21
2.0051
 31
0.0
 12
24.1184
 22
2.2021
 32
0.0
 13
23.1124
 23
2.2021
 33
0.0
  0
SOLID
  5
BA
330
6F
100
AcDbEntity
  8
TOP_PASTE
100
AcDbTrace
 10
24.1184
 20
1.002099999999999
 30
0.0
 11
24.1184
 21
2.2021
 31
0.0
 12
24.3154
 22
1.1991
 32
0.0
 13
24.3154
 23
2.0051
 33
0.0
  0
LWPOLYLINE
  5
BB
330
6F
100
AcDbEntity
  8
TOP_PASTE
  6
Continuous
100
AcDbPolyline
 90
        3
 70
     0
 43
0.197
 10
23.0139
 20
3.099099999999999
 42
1.0
 10
23.2109
 20
3.099099999999999
 42
1.0
 10
23.0139
 20
3.099099999999999
 42
1.0
  0
LWPOLYLINE
  5
C0
330
6F
100
AcDbEntity
  8
TOP_PASTE
  6
Continuous
100
AcDbPolyline
 90
        3
 70
     0
 43
0.197
 10
23.0139
 20
3.9051
 42
1.0
 10
23.2109
 20
3.9051
 42
1.0
 10
23.0139
 20
3.9051
 42
1.0
  0
LWPOLYLINE
  5
C5
330
6F
100
AcDbEntity
  8
TOP_PASTE
  6
Continuous
100
AcDbPolyline
 90
        3
 70
     0
 43
0.197
 10
24.0199
 20
3.9051
 42
1.0
 10
24.2169
 20
3.9051
 42
1.0
 10
24.0199
 20
3.9051
 42
1.0
  0
LWPOLYLINE
  5
CA
330
6F
100
AcDbEntity
  8
TOP_PASTE
  6
Continuous
100
AcDbPolyline
 90
        3
 70
     0
 43
0.197
 10
24.0199
 20
3.099099999999999
 42
1.0
 10
24.2169
 20
3.099099999999999
 42
1.0
 10
24.0199
 20
3.099099999999999
 42
1.0
  0
SOLID
  5
CF
330
6F
100
AcDbEntity
  8
TOP_PASTE
100
AcDbTrace
 10
24.1184
 20
2.902099999999999
 30
0.0
 11
23.1124
 21
2.902099999999999
 31
0.0
 12
22.9154
 22
3.9051
 32
0.0
 13
22.9154
 23
3.099099999999999
 33
0.0
  0
SOLID
  5
D0
330
6F
100
AcDbEntity
  8
TOP_PASTE
100
AcDbTrace
 10
24.1184
 20
2.902099999999999
 30
0.0
 11
22.9154
 21
3.9051
 31
0.0
 12
24.1184
 22
4.1021
 32
0.0
 13
23.1124
 23
4.1021
 33
0.0
  0
SOLID
  5
D1
330
6F
100
AcDbEntity
  8
TOP_PASTE
100
AcDbTrace
 10
24.1184
 20
2.902099999999999
 30
0.0
 11
24.1184
 21
4.1021
 31
0.0
 12
24.3154
 22
3.099099999999999
 32
0.0
 13
24.3154
 23
3.9051
 33
0.0
  0
LWPOLYLINE
  5
D2
330
6F
100
AcDbEntity
  8
TOP_PASTE
  6
Continuous
100
AcDbPolyline
 90
        3
 70
     0
 43
0.197
 10
37.0383
 20
-1.8803
 42
1.0
 10
37.2353
 20
-1.8803
 42
1.0
 10
37.0383
 20
-1.8803
 42
1.0
  0
LWPOLYLINE
  5
D7
330
6F
100
AcDbEntity
  8
TOP_PASTE
  6
Continuous
100
AcDbPolyline
 90
        3
 70
     0
 43
0.197
 10
37.0383
 20
-1.0743
 42
1.0
 10
37.2353
 20
-1.0743
 42
1.0
 10
37.0383
 20
-1.0743
 42
1.0
  0
LWPOLYLINE
  5
DC
330
6F
100
AcDbEntity
  8
TOP_PASTE
  6
Continuous
100
AcDbPolyline
 90
        3
 70
     0
 43
0.197
 10
38.0443
 20
-1.0743
 42
1.0
 10
38.2413
 20
-1.0743
 42
1.0
 10
38.0443
 20
-1.0743
 42
1.0
  0
LWPOLYLINE
  5
E1
330
6F
100
AcDbEntity
  8
TOP_PASTE
  6
Continuous
100
AcDbPolyline
 90
        3
 70
     0
 43
0.197
 10
38.0443
 20
-1.8803
 42
1.0
 10
38.2413
 20
-1.8803
 42
1.0
 10
38.0443
 20
-1.8803
 42
1.0
  0
SOLID
  5
E6
330
6F
100
AcDbEntity
  8
TOP_PASTE
100
AcDbTrace
 10
38.1428
 20
-2.0773
 30
0.0
 11
37.1368
 21
-2.0773
 31
0.0
 12
36.9398
 22
-1.0743
 32
0.0
 13
36.9398
 23
-1.8803
 33
0.0
  0
SOLID
  5
E7
330
6F
100
AcDbEntity
  8
TOP_PASTE
100
AcDbTrace
 10
38.1428
 20
-2.0773
 30
0.0
 11
36.9398
 21
-1.0743
 31
0.0
 12
38.1428
 22
-0.8772999999999999
 32
0.0
 13
37.1368
 23
-0.8772999999999999
 33
0.0
  0
SOLID
  5
E8
330
6F
100
AcDbEntity
  8
TOP_PASTE
100
AcDbTrace
 10
38.1428
 20
-2.0773
 30
0.0
 11
38.1428
 21
-0.8772999999999999
 31
0.0
 12
38.3398
 22
-1.8803
 32
0.0
 13
38.3398
 23
-1.0743
 33
0.0
  0
LWPOLYLINE
  5
E9
330
6F
100
AcDbEntity
  8
TOP_PASTE
  6
Continuous
100
AcDbPolyline
 90
        3
 70
     0
 43
0.197
 10
37.0383
 20
0.0197
 42
1.0
 10
37.2353
 20
0.0197
 42
1.0
 10
37.0383
 20
0.0197
 42
1.0
  0
LWPOLYLINE
  5
EE
330
6F
100
AcDbEntity
  8
TOP_PASTE
  6
Continuous
100
AcDbPolyline
 90
        3
 70
     0
 43
0.197
 10
37.0383
 20
0.8256999999999999
 42
1.0
 10
37.2353
 20
0.8256999999999999
 42
1.0
 10
37.0383
 20
0.8256999999999999
 42
1.0
  0
LWPOLYLINE
  5
F3
330
6F
100
AcDbEntity
  8
TOP_PASTE
  6
Continuous
100
AcDbPolyline
 90
        3
 70
     0
 43
0.197
 10
38.0443
 20
0.8256999999999999
 42
1.0
 10
38.2413
 20
0.8256999999999999
 42
1.0
 10
38.0443
 20
0.8256999999999999
 42
1.0
  0
LWPOLYLINE
  5
F8
330
6F
100
AcDbEntity
  8
TOP_PASTE
  6
Continuous
100
AcDbPolyline
 90
        3
 70
     0
 43
0.197
 10
38.0443
 20
0.0197
 42
1.0
 10
38.2413
 20
0.0197
 42
1.0
 10
38.0443
 20
0.0197
 42
1.0
  0
SOLID
  5
FD
330
6F
100
AcDbEntity
  8
TOP_PASTE
100
AcDbTrace
 10
38.1428
 20
-0.1773
 30
0.0
 11
37.1368
 21
-0.1773
 31
0.0
 12
36.9398
 22
0.8256999999999999
 32
0.0
 13
36.9398
 23
0.0197
 33
0.0
  0
SOLID
  5
FE
330
6F
100
AcDbEntity
  8
TOP_PASTE
100
AcDbTrace
 10
38.1428
 20
-0.1773
 30
0.0
 11
36.9398
 21
0.8256999999999999
 31
0.0
 12
38.1428
 22
1.022699999999999
 32
0.0
 13
37.1368
 23
1.022699999999999
 33
0.0
  0
SOLID
  5
FF
330
6F
100
AcDbEntity
  8
TOP_PASTE
100
AcDbTrace
 10
38.1428
 20
-0.1773
 30
0.0
 11
38.1428
 21
1.022699999999999
 31
0.0
 12
38.3398
 22
0.0197
 32
0.0
 13
38.3398
 23
0.8256999999999999
 33
0.0
  0
LWPOLYLINE
  5
100
330
6F
100
AcDbEntity
  8
TOP_PASTE
  6
Continuous
100
AcDbPolyline
 90
        3
 70
     0
 43
0.197
 10
25.0059
 20
3.2197
 42
1.0
 10
25.2029
 20
3.2197
 42
1.0
 10
25.0059
 20
3.2197
 42
1.0
  0
LWPOLYLINE
  5
105
330
6F
100
AcDbEntity
  8
TOP_PASTE
  6
Continuous
100
AcDbPolyline
 90
        3
 70
     0
 43
0.197
 10
25.0059
 20
4.025699999999999
 42
1.0
 10
25.2029
 20
4.025699999999999
 42
1.0
 10
25.0059
 20
4.025699999999999
 42
1.0
  0
LWPOLYLINE
  5
10A
330
6F
100
AcDbEntity
  8
TOP_PASTE
  6
Continuous
100
AcDbPolyline
 90
        3
 70
     0
 43
0.197
 10
26.0119
 20
4.025699999999999
 42
1.0
 10
26.2089
 20
4.025699999999999
 42
1.0
 10
26.0119
 20
4.025699999999999
 42
1.0
  0
LWPOLYLINE
  5
10F
330
6F
100
AcDbEntity
  8
TOP_PASTE
  6
Continuous
100
AcDbPolyline
 90
        3
 70
     0
 43
0.197
 10
26.0119
 20
3.2197
 42
1.0
 10
26.2089
 20
3.2197
 42
1.0
 10
26.0119
 20
3.2197
 42
1.0
  0
SOLID
  5
114
330
6F
100
AcDbEntity
  8
TOP_PASTE
100
AcDbTrace
 10
26.1104
 20
3.022699999999999
 30
0.0
 11
25.1044
 21
3.022699999999999
 31
0.0
 12
24.9074
 22
4.025699999999999
 32
0.0
 13
24.9074
 23
3.2197
 33
0.0
  0
SOLID
  5
115
330
6F
100
AcDbEntity
  8
TOP_PASTE
100
AcDbTrace
 10
26.1104
 20
3.022699999999999
 30
0.0
 11
24.9074
 21
4.025699999999999
 31
0.0
 12
26.1104
 22
4.222699999999999
 32
0.0
 13
25.1044
 23
4.222699999999999
 33
0.0
  0
SOLID
  5
116
330
6F
100
AcDbEntity
  8
TOP_PASTE
100
AcDbTrace
 10
26.1104
 20
3.022699999999999
 30
0.0
 11
26.1104
 21
4.222699999999999
 31
0.0
 12
26.3074
 22
3.2197
 32
0.0
 13
26.3074
 23
4.025699999999999
 33
0.0
  0
LWPOLYLINE
  5
117
330
6F
100
AcDbEntity
  8
TOP_PASTE
  6
Continuous
100
AcDbPolyline
 90
        3
 70
     0
 43
0.197
 10
25.0059
 20
5.119699999999999
 42
1.0
 10
25.2029
 20
5.119699999999999
 42
1.0
 10
25.0059
 20
5.119699999999999
 42
1.0
  0
LWPOLYLINE
  5
11C
330
6F
100
AcDbEntity
  8
TOP_PASTE
  6
Continuous
100
AcDbPolyline
 90
        3
 70
     0
 43
0.197
 10
25.0059
 20
5.925699999999999
 42
1.0
 10
25.2029
 20
5.925699999999999
 42
1.0
 10
25.0059
 20
5.925699999999999
 42
1.0
  0
LWPOLYLINE
  5
121
330
6F
100
AcDbEntity
  8
TOP_PASTE
  6
Continuous
100
AcDbPolyline
 90
        3
 70
     0
 43
0.197
 10
26.0119
 20
5.925699999999999
 42
1.0
 10
26.2089
 20
5.925699999999999
 42
1.0
 10
26.0119
 20
5.925699999999999
 42
1.0
  0
LWPOLYLINE
  5
126
330
6F
100
AcDbEntity
  8
TOP_PASTE
  6
Continuous
100
AcDbPolyline
 90
        3
 70
     0
 43
0.197
 10
26.0119
 20
5.119699999999999
 42
1.0
 10
26.2089
 20
5.119699999999999
 42
1.0
 10
26.0119
 20
5.119699999999999
 42
1.0
  0
SOLID
  5
12B
330
6F
100
AcDbEntity
  8
TOP_PASTE
100
AcDbTrace
 10
26.1104
 20
4.922699999999999
 30
0.0
 11
25.1044
 21
4.922699999999999
 31
0.0
 12
24.9074
 22
5.925699999999999
 32
0.0
 13
24.9074
 23
5.119699999999999
 33
0.0
  0
SOLID
  5
12C
330
6F
100
AcDbEntity
  8
TOP_PASTE
100
AcDbTrace
 10
26.1104
 20
4.922699999999999
 30
0.0
 11
24.9074
 21
5.925699999999999
 31
0.0
 12
26.1104
 22
6.1227
 32
0.0
 13
25.1044
 23
6.1227
 33
0.0
  0
SOLID
  5
12D
330
6F
100
AcDbEntity
  8
TOP_PASTE
100
AcDbTrace
 10
26.1104
 20
4.922699999999999
 30
0.0
 11
26.1104
 21
6.1227
 31
0.0
 12
26.3074
 22
5.119699999999999
 32
0.0
 13
26.3074
 23
5.925699999999999
 33
0.0
  0
LWPOLYLINE
  5
12E
330
6F
100
AcDbEntity
  8
TOP_PASTE
  6
Continuous
100
AcDbPolyline
 90
        3
 70
     0
 43
0.197
 10
41.72849999999999
 20
-13.467
 42
1.0
 10
41.92549999999999
 20
-13.467
 42
1.0
 10
41.72849999999999
 20
-13.467
 42
1.0
  0
LWPOLYLINE
  5
133
330
6F
100
AcDbEntity
  8
TOP_PASTE
  6
Continuous
100
AcDbPolyline
 90
        3
 70
     0
 43
0.197
 10
42.53449999999999
 20
-13.467
 42
1.0
 10
42.7315
 20
-13.467
 42
1.0
 10
42.53449999999999
 20
-13.467
 42
1.0
  0
LWPOLYLINE
  5
138
330
6F
100
AcDbEntity
  8
TOP_PASTE
  6
Continuous
100
AcDbPolyline
 90
        3
 70
     0
 43
0.197
 10
42.53449999999999
 20
-14.473
 42
1.0
 10
42.7315
 20
-14.473
 42
1.0
 10
42.53449999999999
 20
-14.473
 42
1.0
  0
LWPOLYLINE
  5
13D
330
6F
100
AcDbEntity
  8
TOP_PASTE
  6
Continuous
100
AcDbPolyline
 90
        3
 70
     0
 43
0.197
 10
41.72849999999999
 20
-14.473
 42
1.0
 10
41.92549999999999
 20
-14.473
 42
1.0
 10
41.72849999999999
 20
-14.473
 42
1.0
  0
SOLID
  5
142
330
6F
100
AcDbEntity
  8
TOP_PASTE
100
AcDbTrace
 10
41.63
 20
-14.473
 30
0.0
 11
41.63
 21
-13.467
 31
0.0
 12
42.633
 22
-13.27
 32
0.0
 13
41.82699999999999
 23
-13.27
 33
0.0
  0
SOLID
  5
143
330
6F
100
AcDbEntity
  8
TOP_PASTE
100
AcDbTrace
 10
41.63
 20
-14.473
 30
0.0
 11
42.633
 21
-13.27
 31
0.0
 12
42.83
 22
-14.473
 32
0.0
 13
42.83
 23
-13.467
 33
0.0
  0
SOLID
  5
144
330
6F
100
AcDbEntity
  8
TOP_PASTE
100
AcDbTrace
 10
41.63
 20
-14.473
 30
0.0
 11
42.83
 21
-14.473
 31
0.0
 12
41.82699999999999
 22
-14.67
 32
0.0
 13
42.633
 23
-14.67
 33
0.0
  0
LWPOLYLINE
  5
145
330
6F
100
AcDbEntity
  8
TOP_PASTE
  6
Continuous
100
AcDbPolyline
 90
        3
 70
     0
 43
0.197
 10
43.6285
 20
-13.467
 42
1.0
 10
43.8255
 20
-13.467
 42
1.0
 10
43.6285
 20
-13.467
 42
1.0
  0
LWPOLYLINE
  5
14A
330
6F
100
AcDbEntity
  8
TOP_PASTE
  6
Continuous
100
AcDbPolyline
 90
        3
 70
     0
 43
0.197
 10
44.4345
 20
-13.467
 42
1.0
 10
44.6315
 20
-13.467
 42
1.0
 10
44.4345
 20
-13.467
 42
1.0
  0
LWPOLYLINE
  5
14F
330
6F
100
AcDbEntity
  8
TOP_PASTE
  6
Continuous
100
AcDbPolyline
 90
        3
 70
     0
 43
0.197
 10
44.4345
 20
-14.473
 42
1.0
 10
44.6315
 20
-14.473
 42
1.0
 10
44.4345
 20
-14.473
 42
1.0
  0
LWPOLYLINE
  5
154
330
6F
100
AcDbEntity
  8
TOP_PASTE
  6
Continuous
100
AcDbPolyline
 90
        3
 70
     0
 43
0.197
 10
43.6285
 20
-14.473
 42
1.0
 10
43.8255
 20
-14.473
 42
1.0
 10
43.6285
 20
-14.473
 42
1.0
  0
SOLID
  5
159
330
6F
100
AcDbEntity
  8
TOP_PASTE
100
AcDbTrace
 10
43.53
 20
-14.473
 30
0.0
 11
43.53
 21
-13.467
 31
0.0
 12
44.533
 22
-13.27
 32
0.0
 13
43.727
 23
-13.27
 33
0.0
  0
SOLID
  5
15A
330
6F
100
AcDbEntity
  8
TOP_PASTE
100
AcDbTrace
 10
43.53
 20
-14.473
 30
0.0
 11
44.533
 21
-13.27
 31
0.0
 12
44.72999999999999
 22
-14.473
 32
0.0
 13
44.72999999999999
 23
-13.467
 33
0.0
  0
SOLID
  5
15B
330
6F
100
AcDbEntity
  8
TOP_PASTE
100
AcDbTrace
 10
43.53
 20
-14.473
 30
0.0
 11
44.72999999999999
 21
-14.473
 31
0.0
 12
43.727
 22
-14.67
 32
0.0
 13
44.533
 23
-14.67
 33
0.0
  0
LWPOLYLINE
  5
15C
330
6F
100
AcDbEntity
  8
TOP_PASTE
  6
Continuous
100
AcDbPolyline
 90
        3
 70
     0
 43
0.197
 10
45.60049999999999
 20
-13.467
 42
1.0
 10
45.79749999999999
 20
-13.467
 42
1.0
 10
45.60049999999999
 20
-13.467
 42
1.0
  0
LWPOLYLINE
  5
161
330
6F
100
AcDbEntity
  8
TOP_PASTE
  6
Continuous
100
AcDbPolyline
 90
        3
 70
     0
 43
0.197
 10
46.40649999999999
 20
-13.467
 42
1.0
 10
46.6035
 20
-13.467
 42
1.0
 10
46.40649999999999
 20
-13.467
 42
1.0
  0
LWPOLYLINE
  5
166
330
6F
100
AcDbEntity
  8
TOP_PASTE
  6
Continuous
100
AcDbPolyline
 90
        3
 70
     0
 43
0.197
 10
46.40649999999999
 20
-14.473
 42
1.0
 10
46.6035
 20
-14.473
 42
1.0
 10
46.40649999999999
 20
-14.473
 42
1.0
  0
LWPOLYLINE
  5
16B
330
6F
100
AcDbEntity
  8
TOP_PASTE
  6
Continuous
100
AcDbPolyline
 90
        3
 70
     0
 43
0.197
 10
45.60049999999999
 20
-14.473
 42
1.0
 10
45.79749999999999
 20
-14.473
 42
1.0
 10
45.60049999999999
 20
-14.473
 42
1.0
  0
SOLID
  5
170
330
6F
100
AcDbEntity
  8
TOP_PASTE
100
AcDbTrace
 10
45.50199999999999
 20
-14.473
 30
0.0
 11
45.50199999999999
 21
-13.467
 31
0.0
 12
46.505
 22
-13.27
 32
0.0
 13
45.69899999999999
 23
-13.27
 33
0.0
  0
SOLID
  5
171
330
6F
100
AcDbEntity
  8
TOP_PASTE
100
AcDbTrace
 10
45.50199999999999
 20
-14.473
 30
0.0
 11
46.505
 21
-13.27
 31
0.0
 12
46.702
 22
-14.473
 32
0.0
 13
46.702
 23
-13.467
 33
0.0
  0
SOLID
  5
172
330
6F
100
AcDbEntity
  8
TOP_PASTE
100
AcDbTrace
 10
45.50199999999999
 20
-14.473
 30
0.0
 11
46.702
 21
-14.473
 31
0.0
 12
45.69899999999999
 22
-14.67
 32
0.0
 13
46.505
 23
-14.67
 33
0.0
  0
LWPOLYLINE
  5
173
330
6F
100
AcDbEntity
  8
TOP_PASTE
  6
Continuous
100
AcDbPolyline
 90
        3
 70
     0
 43
0.197
 10
47.5005
 20
-13.467
 42
1.0
 10
47.6975
 20
-13.467
 42
1.0
 10
47.5005
 20
-13.467
 42
1.0
  0
LWPOLYLINE
  5
178
330
6F
100
AcDbEntity
  8
TOP_PASTE
  6
Continuous
100
AcDbPolyline
 90
        3
 70
     0
 43
0.197
 10
48.3065
 20
-13.467
 42
1.0
 10
48.5035
 20
-13.467
 42
1.0
 10
48.3065
 20
-13.467
 42
1.0
  0
LWPOLYLINE
  5
17D
330
6F
100
AcDbEntity
  8
TOP_PASTE
  6
Continuous
100
AcDbPolyline
 90
        3
 70
     0
 43
0.197
 10
48.3065
 20
-14.473
 42
1.0
 10
48.5035
 20
-14.473
 42
1.0
 10
48.3065
 20
-14.473
 42
1.0
  0
LWPOLYLINE
  5
182
330
6F
100
AcDbEntity
  8
TOP_PASTE
  6
Continuous
100
AcDbPolyline
 90
        3
 70
     0
 43
0.197
 10
47.5005
 20
-14.473
 42
1.0
 10
47.6975
 20
-14.473
 42
1.0
 10
47.5005
 20
-14.473
 42
1.0
  0
SOLID
  5
187
330
6F
100
AcDbEntity
  8
TOP_PASTE
100
AcDbTrace
 10
47.402
 20
-14.473
 30
0.0
 11
47.402
 21
-13.467
 31
0.0
 12
48.405
 22
-13.27
 32
0.0
 13
47.599
 23
-13.27
 33
0.0
  0
SOLID
  5
188
330
6F
100
AcDbEntity
  8
TOP_PASTE
100
AcDbTrace
 10
47.402
 20
-14.473
 30
0.0
 11
48.405
 21
-13.27
 31
0.0
 12
48.60199999999999
 22
-14.473
 32
0.0
 13
48.60199999999999
 23
-13.467
 33
0.0
  0
SOLID
  5
189
330
6F
100
AcDbEntity
  8
TOP_PASTE
100
AcDbTrace
 10
47.402
 20
-14.473
 30
0.0
 11
48.60199999999999
 21
-14.473
 31
0.0
 12
47.599
 22
-14.67
 32
0.0
 13
48.405
 23
-14.67
 33
0.0
  0
LWPOLYLINE
  5
18A
330
6F
100
AcDbEntity
  8
TOP_PASTE
  6
Continuous
100
AcDbPolyline
 90
        3
 70
     0
 43
0.197
 10
24.4443
 20
-25.5725
 42
1.0
 10
24.6413
 20
-25.5725
 42
1.0
 10
24.4443
 20
-25.5725
 42
1.0
  0
LWPOLYLINE
  5
18F
330
6F
100
AcDbEntity
  8
TOP_PASTE
  6
Continuous
100
AcDbPolyline
 90
        3
 70
     0
 43
0.197
 10
25.2503
 20
-25.5725
 42
1.0
 10
25.4473
 20
-25.5725
 42
1.0
 10
25.2503
 20
-25.5725
 42
1.0
  0
LWPOLYLINE
  5
194
330
6F
100
AcDbEntity
  8
TOP_PASTE
  6
Continuous
100
AcDbPolyline
 90
        3
 70
     0
 43
0.197
 10
25.2503
 20
-26.5785
 42
1.0
 10
25.4473
 20
-26.5785
 42
1.0
 10
25.2503
 20
-26.5785
 42
1.0
  0
LWPOLYLINE
  5
199
330
6F
100
AcDbEntity
  8
TOP_PASTE
  6
Continuous
100
AcDbPolyline
 90
        3
 70
     0
 43
0.197
 10
24.4443
 20
-26.5785
 42
1.0
 10
24.6413
 20
-26.5785
 42
1.0
 10
24.4443
 20
-26.5785
 42
1.0
  0
SOLID
  5
19E
330
6F
100
AcDbEntity
  8
TOP_PASTE
100
AcDbTrace
 10
24.3458
 20
-26.5785
 30
0.0
 11
24.3458
 21
-25.5725
 31
0.0
 12
25.3488
 22
-25.3755
 32
0.0
 13
24.5428
 23
-25.3755
 33
0.0
  0
SOLID
  5
19F
330
6F
100
AcDbEntity
  8
TOP_PASTE
100
AcDbTrace
 10
24.3458
 20
-26.5785
 30
0.0
 11
25.3488
 21
-25.3755
 31
0.0
 12
25.5458
 22
-26.5785
 32
0.0
 13
25.5458
 23
-25.5725
 33
0.0
  0
SOLID
  5
1A0
330
6F
100
AcDbEntity
  8
TOP_PASTE
100
AcDbTrace
 10
24.3458
 20
-26.5785
 30
0.0
 11
25.5458
 21
-26.5785
 31
0.0
 12
24.5428
 22
-26.7755
 32
0.0
 13
25.3488
 23
-26.7755
 33
0.0
  0
LWPOLYLINE
  5
1A1
330
6F
100
AcDbEntity
  8
TOP_PASTE
  6
Continuous
100
AcDbPolyline
 90
        3
 70
     0
 43
0.197
 10
26.3443
 20
-25.5725
 42
1.0
 10
26.5413
 20
-25.5725
 42
1.0
 10
26.3443
 20
-25.5725
 42
1.0
  0
LWPOLYLINE
  5
1A6
330
6F
100
AcDbEntity
  8
TOP_PASTE
  6
Continuous
100
AcDbPolyline
 90
        3
 70
     0
 43
0.197
 10
27.1503
 20
-25.5725
 42
1.0
 10
27.3473
 20
-25.5725
 42
1.0
 10
27.1503
 20
-25.5725
 42
1.0
  0
LWPOLYLINE
  5
1AB
330
6F
100
AcDbEntity
  8
TOP_PASTE
  6
Continuous
100
AcDbPolyline
 90
        3
 70
     0
 43
0.197
 10
27.1503
 20
-26.5785
 42
1.0
 10
27.3473
 20
-26.5785
 42
1.0
 10
27.1503
 20
-26.5785
 42
1.0
  0
LWPOLYLINE
  5
1B0
330
6F
100
AcDbEntity
  8
TOP_PASTE
  6
Continuous
100
AcDbPolyline
 90
        3
 70
     0
 43
0.197
 10
26.3443
 20
-26.5785
 42
1.0
 10
26.5413
 20
-26.5785
 42
1.0
 10
26.3443
 20
-26.5785
 42
1.0
  0
SOLID
  5
1B5
330
6F
100
AcDbEntity
  8
TOP_PASTE
100
AcDbTrace
 10
26.2458
 20
-26.5785
 30
0.0
 11
26.2458
 21
-25.5725
 31
0.0
 12
27.2488
 22
-25.3755
 32
0.0
 13
26.4428
 23
-25.3755
 33
0.0
  0
SOLID
  5
1B6
330
6F
100
AcDbEntity
  8
TOP_PASTE
100
AcDbTrace
 10
26.2458
 20
-26.5785
 30
0.0
 11
27.2488
 21
-25.3755
 31
0.0
 12
27.4458
 22
-26.5785
 32
0.0
 13
27.4458
 23
-25.5725
 33
0.0
  0
SOLID
  5
1B7
330
6F
100
AcDbEntity
  8
TOP_PASTE
100
AcDbTrace
 10
26.2458
 20
-26.5785
 30
0.0
 11
27.4458
 21
-26.5785
 31
0.0
 12
26.4428
 22
-26.7755
 32
0.0
 13
27.2488
 23
-26.7755
 33
0.0
  0
LWPOLYLINE
  5
1B8
330
6F
100
AcDbEntity
  8
TOP_PASTE
  6
Continuous
100
AcDbPolyline
 90
        3
 70
     0
 43
0.197
 10
27.1503
 20
-23.7111
 42
1.0
 10
27.3473
 20
-23.7111
 42
1.0
 10
27.1503
 20
-23.7111
 42
1.0
  0
LWPOLYLINE
  5
1BD
330
6F
100
AcDbEntity
  8
TOP_PASTE
  6
Continuous
100
AcDbPolyline
 90
        3
 70
     0
 43
0.197
 10
26.3443
 20
-23.7111
 42
1.0
 10
26.5413
 20
-23.7111
 42
1.0
 10
26.3443
 20
-23.7111
 42
1.0
  0
LWPOLYLINE
  5
1C2
330
6F
100
AcDbEntity
  8
TOP_PASTE
  6
Continuous
100
AcDbPolyline
 90
        3
 70
     0
 43
0.197
 10
26.3443
 20
-22.7051
 42
1.0
 10
26.5413
 20
-22.7051
 42
1.0
 10
26.3443
 20
-22.7051
 42
1.0
  0
LWPOLYLINE
  5
1C7
330
6F
100
AcDbEntity
  8
TOP_PASTE
  6
Continuous
100
AcDbPolyline
 90
        3
 70
     0
 43
0.197
 10
27.1503
 20
-22.7051
 42
1.0
 10
27.3473
 20
-22.7051
 42
1.0
 10
27.1503
 20
-22.7051
 42
1.0
  0
SOLID
  5
1CC
330
6F
100
AcDbEntity
  8
TOP_PASTE
100
AcDbTrace
 10
27.4458
 20
-22.7051
 30
0.0
 11
27.4458
 21
-23.7111
 31
0.0
 12
26.4428
 22
-23.9081
 32
0.0
 13
27.2488
 23
-23.9081
 33
0.0
  0
SOLID
  5
1CD
330
6F
100
AcDbEntity
  8
TOP_PASTE
100
AcDbTrace
 10
27.4458
 20
-22.7051
 30
0.0
 11
26.4428
 21
-23.9081
 31
0.0
 12
26.2458
 22
-22.7051
 32
0.0
 13
26.2458
 23
-23.7111
 33
0.0
  0
SOLID
  5
1CE
330
6F
100
AcDbEntity
  8
TOP_PASTE
100
AcDbTrace
 10
27.4458
 20
-22.7051
 30
0.0
 11
26.2458
 21
-22.7051
 31
0.0
 12
27.2488
 22
-22.5081
 32
0.0
 13
26.4428
 23
-22.5081
 33
0.0
  0
LWPOLYLINE
  5
1CF
330
6F
100
AcDbEntity
  8
TOP_PASTE
  6
Continuous
100
AcDbPolyline
 90
        3
 70
     0
 43
0.197
 10
25.2503
 20
-23.7111
 42
1.0
 10
25.4473
 20
-23.7111
 42
1.0
 10
25.2503
 20
-23.7111
 42
1.0
  0
LWPOLYLINE
  5
1D4
330
6F
100
AcDbEntity
  8
TOP_PASTE
  6
Continuous
100
AcDbPolyline
 90
        3
 70
     0
 43
0.197
 10
24.4443
 20
-23.7111
 42
1.0
 10
24.6413
 20
-23.7111
 42
1.0
 10
24.4443
 20
-23.7111
 42
1.0
  0
LWPOLYLINE
  5
1D9
330
6F
100
AcDbEntity
  8
TOP_PASTE
  6
Continuous
100
AcDbPolyline
 90
        3
 70
     0
 43
0.197
 10
24.4443
 20
-22.7051
 42
1.0
 10
24.6413
 20
-22.7051
 42
1.0
 10
24.4443
 20
-22.7051
 42
1.0
  0
LWPOLYLINE
  5
1DE
330
6F
100
AcDbEntity
  8
TOP_PASTE
  6
Continuous
100
AcDbPolyline
 90
        3
 70
     0
 43
0.197
 10
25.2503
 20
-22.7051
 42
1.0
 10
25.4473
 20
-22.7051
 42
1.0
 10
25.2503
 20
-22.7051
 42
1.0
  0
SOLID
  5
1E3
330
6F
100
AcDbEntity
  8
TOP_PASTE
100
AcDbTrace
 10
25.5458
 20
-22.7051
 30
0.0
 11
25.5458
 21
-23.7111
 31
0.0
 12
24.5428
 22
-23.9081
 32
0.0
 13
25.3488
 23
-23.9081
 33
0.0
  0
SOLID
  5
1E4
330
6F
100
AcDbEntity
  8
TOP_PASTE
100
AcDbTrace
 10
25.5458
 20
-22.7051
 30
0.0
 11
24.5428
 21
-23.9081
 31
0.0
 12
24.3458
 22
-22.7051
 32
0.0
 13
24.3458
 23
-23.7111
 33
0.0
  0
SOLID
  5
1E5
330
6F
100
AcDbEntity
  8
TOP_PASTE
100
AcDbTrace
 10
25.5458
 20
-22.7051
 30
0.0
 11
24.3458
 21
-22.7051
 31
0.0
 12
25.3488
 22
-22.5081
 32
0.0
 13
24.5428
 23
-22.5081
 33
0.0
  0
LWPOLYLINE
  5
1E6
330
6F
100
AcDbEntity
  8
TOP_PASTE
  6
Continuous
100
AcDbPolyline
 90
        3
 70
     0
 43
0.197
 10
27.1503
 20
-30.9694
 42
1.0
 10
27.3473
 20
-30.9694
 42
1.0
 10
27.1503
 20
-30.9694
 42
1.0
  0
LWPOLYLINE
  5
1EB
330
6F
100
AcDbEntity
  8
TOP_PASTE
  6
Continuous
100
AcDbPolyline
 90
        3
 70
     0
 43
0.197
 10
26.3443
 20
-30.9694
 42
1.0
 10
26.5413
 20
-30.9694
 42
1.0
 10
26.3443
 20
-30.9694
 42
1.0
  0
LWPOLYLINE
  5
1F0
330
6F
100
AcDbEntity
  8
TOP_PASTE
  6
Continuous
100
AcDbPolyline
 90
        3
 70
     0
 43
0.197
 10
26.3443
 20
-29.9634
 42
1.0
 10
26.5413
 20
-29.9634
 42
1.0
 10
26.3443
 20
-29.9634
 42
1.0
  0
LWPOLYLINE
  5
1F5
330
6F
100
AcDbEntity
  8
TOP_PASTE
  6
Continuous
100
AcDbPolyline
 90
        3
 70
     0
 43
0.197
 10
27.1503
 20
-29.9634
 42
1.0
 10
27.3473
 20
-29.9634
 42
1.0
 10
27.1503
 20
-29.9634
 42
1.0
  0
SOLID
  5
1FA
330
6F
100
AcDbEntity
  8
TOP_PASTE
100
AcDbTrace
 10
27.4458
 20
-29.9634
 30
0.0
 11
27.4458
 21
-30.9694
 31
0.0
 12
26.4428
 22
-31.1664
 32
0.0
 13
27.2488
 23
-31.1664
 33
0.0
  0
SOLID
  5
1FB
330
6F
100
AcDbEntity
  8
TOP_PASTE
100
AcDbTrace
 10
27.4458
 20
-29.9634
 30
0.0
 11
26.4428
 21
-31.1664
 31
0.0
 12
26.2458
 22
-29.9634
 32
0.0
 13
26.2458
 23
-30.9694
 33
0.0
  0
SOLID
  5
1FC
330
6F
100
AcDbEntity
  8
TOP_PASTE
100
AcDbTrace
 10
27.4458
 20
-29.9634
 30
0.0
 11
26.2458
 21
-29.9634
 31
0.0
 12
27.2488
 22
-29.7664
 32
0.0
 13
26.4428
 23
-29.7664
 33
0.0
  0
LWPOLYLINE
  5
1FD
330
6F
100
AcDbEntity
  8
TOP_PASTE
  6
Continuous
100
AcDbPolyline
 90
        3
 70
     0
 43
0.197
 10
25.2503
 20
-30.9694
 42
1.0
 10
25.4473
 20
-30.9694
 42
1.0
 10
25.2503
 20
-30.9694
 42
1.0
  0
LWPOLYLINE
  5
202
330
6F
100
AcDbEntity
  8
TOP_PASTE
  6
Continuous
100
AcDbPolyline
 90
        3
 70
     0
 43
0.197
 10
24.4443
 20
-30.9694
 42
1.0
 10
24.6413
 20
-30.9694
 42
1.0
 10
24.4443
 20
-30.9694
 42
1.0
  0
LWPOLYLINE
  5
207
330
6F
100
AcDbEntity
  8
TOP_PASTE
  6
Continuous
100
AcDbPolyline
 90
        3
 70
     0
 43
0.197
 10
24.4443
 20
-29.9634
 42
1.0
 10
24.6413
 20
-29.9634
 42
1.0
 10
24.4443
 20
-29.9634
 42
1.0
  0
LWPOLYLINE
  5
20C
330
6F
100
AcDbEntity
  8
TOP_PASTE
  6
Continuous
100
AcDbPolyline
 90
        3
 70
     0
 43
0.197
 10
25.2503
 20
-29.9634
 42
1.0
 10
25.4473
 20
-29.9634
 42
1.0
 10
25.2503
 20
-29.9634
 42
1.0
  0
SOLID
  5
211
330
6F
100
AcDbEntity
  8
TOP_PASTE
100
AcDbTrace
 10
25.5458
 20
-29.9634
 30
0.0
 11
25.5458
 21
-30.9694
 31
0.0
 12
24.5428
 22
-31.1664
 32
0.0
 13
25.3488
 23
-31.1664
 33
0.0
  0
SOLID
  5
212
330
6F
100
AcDbEntity
  8
TOP_PASTE
100
AcDbTrace
 10
25.5458
 20
-29.9634
 30
0.0
 11
24.5428
 21
-31.1664
 31
0.0
 12
24.3458
 22
-29.9634
 32
0.0
 13
24.3458
 23
-30.9694
 33
0.0
  0
SOLID
  5
213
330
6F
100
AcDbEntity
  8
TOP_PASTE
100
AcDbTrace
 10
25.5458
 20
-29.9634
 30
0.0
 11
24.3458
 21
-29.9634
 31
0.0
 12
25.3488
 22
-29.7664
 32
0.0
 13
24.5428
 23
-29.7664
 33
0.0
  0
LWPOLYLINE
  5
214
330
6F
100
AcDbEntity
  8
TOP_PASTE
  6
Continuous
100
AcDbPolyline
 90
        3
 70
     0
 43
0.197
 10
24.0199
 20
-0.7673
 42
1.0
 10
24.2169
 20
-0.7673
 42
1.0
 10
24.0199
 20
-0.7673
 42
1.0
  0
LWPOLYLINE
  5
219
330
6F
100
AcDbEntity
  8
TOP_PASTE
  6
Continuous
100
AcDbPolyline
 90
        3
 70
     0
 43
0.197
 10
24.0199
 20
-1.573299999999999
 42
1.0
 10
24.2169
 20
-1.573299999999999
 42
1.0
 10
24.0199
 20
-1.573299999999999
 42
1.0
  0
LWPOLYLINE
  5
21E
330
6F
100
AcDbEntity
  8
TOP_PASTE
  6
Continuous
100
AcDbPolyline
 90
        3
 70
     0
 43
0.197
 10
23.0139
 20
-1.573299999999999
 42
1.0
 10
23.2109
 20
-1.573299999999999
 42
1.0
 10
23.0139
 20
-1.573299999999999
 42
1.0
  0
LWPOLYLINE
  5
223
330
6F
100
AcDbEntity
  8
TOP_PASTE
  6
Continuous
100
AcDbPolyline
 90
        3
 70
     0
 43
0.197
 10
23.0139
 20
-0.7673
 42
1.0
 10
23.2109
 20
-0.7673
 42
1.0
 10
23.0139
 20
-0.7673
 42
1.0
  0
SOLID
  5
228
330
6F
100
AcDbEntity
  8
TOP_PASTE
100
AcDbTrace
 10
23.1124
 20
-0.5703000000000001
 30
0.0
 11
24.1184
 21
-0.5703000000000001
 31
0.0
 12
24.3154
 22
-1.573299999999999
 32
0.0
 13
24.3154
 23
-0.7673
 33
0.0
  0
SOLID
  5
229
330
6F
100
AcDbEntity
  8
TOP_PASTE
100
AcDbTrace
 10
23.1124
 20
-0.5703000000000001
 30
0.0
 11
24.3154
 21
-1.573299999999999
 31
0.0
 12
23.1124
 22
-1.770299999999999
 32
0.0
 13
24.1184
 23
-1.770299999999999
 33
0.0
  0
SOLID
  5
22A
330
6F
100
AcDbEntity
  8
TOP_PASTE
100
AcDbTrace
 10
23.1124
 20
-0.5703000000000001
 30
0.0
 11
23.1124
 21
-1.770299999999999
 31
0.0
 12
22.9154
 22
-0.7673
 32
0.0
 13
22.9154
 23
-1.573299999999999
 33
0.0
  0
LWPOLYLINE
  5
22B
330
6F
100
AcDbEntity
  8
TOP_PASTE
  6
Continuous
100
AcDbPolyline
 90
        3
 70
     0
 43
0.197
 10
24.0199
 20
-2.6673
 42
1.0
 10
24.2169
 20
-2.6673
 42
1.0
 10
24.0199
 20
-2.6673
 42
1.0
  0
LWPOLYLINE
  5
230
330
6F
100
AcDbEntity
  8
TOP_PASTE
  6
Continuous
100
AcDbPolyline
 90
        3
 70
     0
 43
0.197
 10
24.0199
 20
-3.4733
 42
1.0
 10
24.2169
 20
-3.4733
 42
1.0
 10
24.0199
 20
-3.4733
 42
1.0
  0
LWPOLYLINE
  5
235
330
6F
100
AcDbEntity
  8
TOP_PASTE
  6
Continuous
100
AcDbPolyline
 90
        3
 70
     0
 43
0.197
 10
23.0139
 20
-3.4733
 42
1.0
 10
23.2109
 20
-3.4733
 42
1.0
 10
23.0139
 20
-3.4733
 42
1.0
  0
LWPOLYLINE
  5
23A
330
6F
100
AcDbEntity
  8
TOP_PASTE
  6
Continuous
100
AcDbPolyline
 90
        3
 70
     0
 43
0.197
 10
23.0139
 20
-2.6673
 42
1.0
 10
23.2109
 20
-2.6673
 42
1.0
 10
23.0139
 20
-2.6673
 42
1.0
  0
SOLID
  5
23F
330
6F
100
AcDbEntity
  8
TOP_PASTE
100
AcDbTrace
 10
23.1124
 20
-2.470299999999999
 30
0.0
 11
24.1184
 21
-2.470299999999999
 31
0.0
 12
24.3154
 22
-3.4733
 32
0.0
 13
24.3154
 23
-2.6673
 33
0.0
  0
SOLID
  5
240
330
6F
100
AcDbEntity
  8
TOP_PASTE
100
AcDbTrace
 10
23.1124
 20
-2.470299999999999
 30
0.0
 11
24.3154
 21
-3.4733
 31
0.0
 12
23.1124
 22
-3.6703
 32
0.0
 13
24.1184
 23
-3.6703
 33
0.0
  0
SOLID
  5
241
330
6F
100
AcDbEntity
  8
TOP_PASTE
100
AcDbTrace
 10
23.1124
 20
-2.470299999999999
 30
0.0
 11
23.1124
 21
-3.6703
 31
0.0
 12
22.9154
 22
-2.6673
 32
0.0
 13
22.9154
 23
-3.4733
 33
0.0
  0
LWPOLYLINE
  5
242
330
6F
100
AcDbEntity
  8
TOP_PASTE
  6
Continuous
100
AcDbPolyline
 90
        3
 70
     0
 43
0.197
 10
30.219
 20
-20.5107
 42
1.0
 10
30.416
 20
-20.5107
 42
1.0
 10
30.219
 20
-20.5107
 42
1.0
  0
LWPOLYLINE
  5
247
330
6F
100
AcDbEntity
  8
TOP_PASTE
  6
Continuous
100
AcDbPolyline
 90
        3
 70
     0
 43
0.197
 10
31.025
 20
-20.5107
 42
1.0
 10
31.222
 20
-20.5107
 42
1.0
 10
31.025
 20
-20.5107
 42
1.0
  0
LWPOLYLINE
  5
24C
330
6F
100
AcDbEntity
  8
TOP_PASTE
  6
Continuous
100
AcDbPolyline
 90
        3
 70
     0
 43
0.197
 10
31.025
 20
-21.5167
 42
1.0
 10
31.222
 20
-21.5167
 42
1.0
 10
31.025
 20
-21.5167
 42
1.0
  0
LWPOLYLINE
  5
251
330
6F
100
AcDbEntity
  8
TOP_PASTE
  6
Continuous
100
AcDbPolyline
 90
        3
 70
     0
 43
0.197
 10
30.219
 20
-21.5167
 42
1.0
 10
30.416
 20
-21.5167
 42
1.0
 10
30.219
 20
-21.5167
 42
1.0
  0
SOLID
  5
256
330
6F
100
AcDbEntity
  8
TOP_PASTE
100
AcDbTrace
 10
30.1205
 20
-21.5167
 30
0.0
 11
30.1205
 21
-20.5107
 31
0.0
 12
31.1235
 22
-20.3137
 32
0.0
 13
30.3175
 23
-20.3137
 33
0.0
  0
SOLID
  5
257
330
6F
100
AcDbEntity
  8
TOP_PASTE
100
AcDbTrace
 10
30.1205
 20
-21.5167
 30
0.0
 11
31.1235
 21
-20.3137
 31
0.0
 12
31.3205
 22
-21.5167
 32
0.0
 13
31.3205
 23
-20.5107
 33
0.0
  0
SOLID
  5
258
330
6F
100
AcDbEntity
  8
TOP_PASTE
100
AcDbTrace
 10
30.1205
 20
-21.5167
 30
0.0
 11
31.3205
 21
-21.5167
 31
0.0
 12
30.3175
 22
-21.7137
 32
0.0
 13
31.1235
 23
-21.7137
 33
0.0
  0
LWPOLYLINE
  5
259
330
6F
100
AcDbEntity
  8
TOP_PASTE
  6
Continuous
100
AcDbPolyline
 90
        3
 70
     0
 43
0.197
 10
32.119
 20
-20.5107
 42
1.0
 10
32.316
 20
-20.5107
 42
1.0
 10
32.119
 20
-20.5107
 42
1.0
  0
LWPOLYLINE
  5
25E
330
6F
100
AcDbEntity
  8
TOP_PASTE
  6
Continuous
100
AcDbPolyline
 90
        3
 70
     0
 43
0.197
 10
32.925
 20
-20.5107
 42
1.0
 10
33.122
 20
-20.5107
 42
1.0
 10
32.925
 20
-20.5107
 42
1.0
  0
LWPOLYLINE
  5
263
330
6F
100
AcDbEntity
  8
TOP_PASTE
  6
Continuous
100
AcDbPolyline
 90
        3
 70
     0
 43
0.197
 10
32.925
 20
-21.5167
 42
1.0
 10
33.122
 20
-21.5167
 42
1.0
 10
32.925
 20
-21.5167
 42
1.0
  0
LWPOLYLINE
  5
268
330
6F
100
AcDbEntity
  8
TOP_PASTE
  6
Continuous
100
AcDbPolyline
 90
        3
 70
     0
 43
0.197
 10
32.119
 20
-21.5167
 42
1.0
 10
32.316
 20
-21.5167
 42
1.0
 10
32.119
 20
-21.5167
 42
1.0
  0
SOLID
  5
26D
330
6F
100
AcDbEntity
  8
TOP_PASTE
100
AcDbTrace
 10
32.0205
 20
-21.5167
 30
0.0
 11
32.0205
 21
-20.5107
 31
0.0
 12
33.0235
 22
-20.3137
 32
0.0
 13
32.2175
 23
-20.3137
 33
0.0
  0
SOLID
  5
26E
330
6F
100
AcDbEntity
  8
TOP_PASTE
100
AcDbTrace
 10
32.0205
 20
-21.5167
 30
0.0
 11
33.0235
 21
-20.3137
 31
0.0
 12
33.2205
 22
-21.5167
 32
0.0
 13
33.2205
 23
-20.5107
 33
0.0
  0
SOLID
  5
26F
330
6F
100
AcDbEntity
  8
TOP_PASTE
100
AcDbTrace
 10
32.0205
 20
-21.5167
 30
0.0
 11
33.2205
 21
-21.5167
 31
0.0
 12
32.2175
 22
-21.7137
 32
0.0
 13
33.0235
 23
-21.7137
 33
0.0
  0
LWPOLYLINE
  5
270
330
6F
100
AcDbEntity
  8
TOP_PASTE
  6
Continuous
100
AcDbPolyline
 90
        3
 70
     0
 43
0.197
 10
68.9397
 20
19.2387
 42
1.0
 10
69.1367
 20
19.2387
 42
1.0
 10
68.9397
 20
19.2387
 42
1.0
  0
LWPOLYLINE
  5
275
330
6F
100
AcDbEntity
  8
TOP_PASTE
  6
Continuous
100
AcDbPolyline
 90
        3
 70
     0
 43
0.197
 10
68.1337
 20
19.2387
 42
1.0
 10
68.33069999999999
 20
19.2387
 42
1.0
 10
68.1337
 20
19.2387
 42
1.0
  0
LWPOLYLINE
  5
27A
330
6F
100
AcDbEntity
  8
TOP_PASTE
  6
Continuous
100
AcDbPolyline
 90
        3
 70
     0
 43
0.197
 10
68.1337
 20
20.2447
 42
1.0
 10
68.33069999999999
 20
20.2447
 42
1.0
 10
68.1337
 20
20.2447
 42
1.0
  0
LWPOLYLINE
  5
27F
330
6F
100
AcDbEntity
  8
TOP_PASTE
  6
Continuous
100
AcDbPolyline
 90
        3
 70
     0
 43
0.197
 10
68.9397
 20
20.2447
 42
1.0
 10
69.1367
 20
20.2447
 42
1.0
 10
68.9397
 20
20.2447
 42
1.0
  0
SOLID
  5
284
330
6F
100
AcDbEntity
  8
TOP_PASTE
100
AcDbTrace
 10
69.2352
 20
20.2447
 30
0.0
 11
69.2352
 21
19.2387
 31
0.0
 12
68.2322
 22
19.0417
 32
0.0
 13
69.0382
 23
19.0417
 33
0.0
  0
SOLID
  5
285
330
6F
100
AcDbEntity
  8
TOP_PASTE
100
AcDbTrace
 10
69.2352
 20
20.2447
 30
0.0
 11
68.2322
 21
19.0417
 31
0.0
 12
68.0352
 22
20.2447
 32
0.0
 13
68.0352
 23
19.2387
 33
0.0
  0
SOLID
  5
286
330
6F
100
AcDbEntity
  8
TOP_PASTE
100
AcDbTrace
 10
69.2352
 20
20.2447
 30
0.0
 11
68.0352
 21
20.2447
 31
0.0
 12
69.0382
 22
20.4417
 32
0.0
 13
68.2322
 23
20.4417
 33
0.0
  0
LWPOLYLINE
  5
287
330
6F
100
AcDbEntity
  8
TOP_PASTE
  6
Continuous
100
AcDbPolyline
 90
        3
 70
     0
 43
0.197
 10
67.03969999999999
 20
19.2387
 42
1.0
 10
67.2367
 20
19.2387
 42
1.0
 10
67.03969999999999
 20
19.2387
 42
1.0
  0
LWPOLYLINE
  5
28C
330
6F
100
AcDbEntity
  8
TOP_PASTE
  6
Continuous
100
AcDbPolyline
 90
        3
 70
     0
 43
0.197
 10
66.2337
 20
19.2387
 42
1.0
 10
66.4307
 20
19.2387
 42
1.0
 10
66.2337
 20
19.2387
 42
1.0
  0
LWPOLYLINE
  5
291
330
6F
100
AcDbEntity
  8
TOP_PASTE
  6
Continuous
100
AcDbPolyline
 90
        3
 70
     0
 43
0.197
 10
66.2337
 20
20.2447
 42
1.0
 10
66.4307
 20
20.2447
 42
1.0
 10
66.2337
 20
20.2447
 42
1.0
  0
LWPOLYLINE
  5
296
330
6F
100
AcDbEntity
  8
TOP_PASTE
  6
Continuous
100
AcDbPolyline
 90
        3
 70
     0
 43
0.197
 10
67.03969999999999
 20
20.2447
 42
1.0
 10
67.2367
 20
20.2447
 42
1.0
 10
67.03969999999999
 20
20.2447
 42
1.0
  0
SOLID
  5
29B
330
6F
100
AcDbEntity
  8
TOP_PASTE
100
AcDbTrace
 10
67.3352
 20
20.2447
 30
0.0
 11
67.3352
 21
19.2387
 31
0.0
 12
66.3322
 22
19.0417
 32
0.0
 13
67.1382
 23
19.0417
 33
0.0
  0
SOLID
  5
29C
330
6F
100
AcDbEntity
  8
TOP_PASTE
100
AcDbTrace
 10
67.3352
 20
20.2447
 30
0.0
 11
66.3322
 21
19.0417
 31
0.0
 12
66.1352
 22
20.2447
 32
0.0
 13
66.1352
 23
19.2387
 33
0.0
  0
SOLID
  5
29D
330
6F
100
AcDbEntity
  8
TOP_PASTE
100
AcDbTrace
 10
67.3352
 20
20.2447
 30
0.0
 11
66.1352
 21
20.2447
 31
0.0
 12
67.1382
 22
20.4417
 32
0.0
 13
66.3322
 23
20.4417
 33
0.0
  0
LWPOLYLINE
  5
29E
330
6F
100
AcDbEntity
  8
TOP_PASTE
  6
Continuous
100
AcDbPolyline
 90
        3
 70
     0
 43
0.197
 10
68.884
 20
-1.581999999999999
 42
1.0
 10
69.08100000000001
 20
-1.581999999999999
 42
1.0
 10
68.884
 20
-1.581999999999999
 42
1.0
  0
LWPOLYLINE
  5
2A3
330
6F
100
AcDbEntity
  8
TOP_PASTE
  6
Continuous
100
AcDbPolyline
 90
        3
 70
     0
 43
0.197
 10
68.078
 20
-1.581999999999999
 42
1.0
 10
68.275
 20
-1.581999999999999
 42
1.0
 10
68.078
 20
-1.581999999999999
 42
1.0
  0
LWPOLYLINE
  5
2A8
330
6F
100
AcDbEntity
  8
TOP_PASTE
  6
Continuous
100
AcDbPolyline
 90
        3
 70
     0
 43
0.197
 10
68.0779
 20
-0.5760000000000001
 42
1.0
 10
68.2749
 20
-0.5760000000000001
 42
1.0
 10
68.0779
 20
-0.5760000000000001
 42
1.0
  0
LWPOLYLINE
  5
2AD
330
6F
100
AcDbEntity
  8
TOP_PASTE
  6
Continuous
100
AcDbPolyline
 90
        3
 70
     0
 43
0.197
 10
68.8839
 20
-0.5760000000000001
 42
1.0
 10
69.0809
 20
-0.5760000000000001
 42
1.0
 10
68.8839
 20
-0.5760000000000001
 42
1.0
  0
SOLID
  5
2B2
330
6F
100
AcDbEntity
  8
TOP_PASTE
100
AcDbTrace
 10
69.1794
 20
-0.5760000000000001
 30
0.0
 11
69.17950000000001
 21
-1.581999999999999
 31
0.0
 12
68.1765
 22
-1.779
 32
0.0
 13
68.9825
 23
-1.779
 33
0.0
  0
SOLID
  5
2B3
330
6F
100
AcDbEntity
  8
TOP_PASTE
100
AcDbTrace
 10
69.1794
 20
-0.5760000000000001
 30
0.0
 11
68.1765
 21
-1.779
 31
0.0
 12
67.9794
 22
-0.5761
 32
0.0
 13
67.9795
 23
-1.5821
 33
0.0
  0
SOLID
  5
2B4
330
6F
100
AcDbEntity
  8
TOP_PASTE
100
AcDbTrace
 10
69.1794
 20
-0.5760000000000001
 30
0.0
 11
67.9794
 21
-0.5761
 31
0.0
 12
68.9824
 22
-0.379
 32
0.0
 13
68.1764
 23
-0.379
 33
0.0
  0
LWPOLYLINE
  5
2B5
330
6F
100
AcDbEntity
  8
TOP_PASTE
  6
Continuous
100
AcDbPolyline
 90
        3
 70
     0
 43
0.197
 10
66.98399999999999
 20
-1.5821
 42
1.0
 10
67.18099999999999
 20
-1.5821
 42
1.0
 10
66.98399999999999
 20
-1.5821
 42
1.0
  0
LWPOLYLINE
  5
2BA
330
6F
100
AcDbEntity
  8
TOP_PASTE
  6
Continuous
100
AcDbPolyline
 90
        3
 70
     0
 43
0.197
 10
66.17799999999999
 20
-1.5821
 42
1.0
 10
66.375
 20
-1.5821
 42
1.0
 10
66.17799999999999
 20
-1.5821
 42
1.0
  0
LWPOLYLINE
  5
2BF
330
6F
100
AcDbEntity
  8
TOP_PASTE
  6
Continuous
100
AcDbPolyline
 90
        3
 70
     0
 43
0.197
 10
66.17789999999999
 20
-0.5761
 42
1.0
 10
66.37489999999999
 20
-0.5761
 42
1.0
 10
66.17789999999999
 20
-0.5761
 42
1.0
  0
LWPOLYLINE
  5
2C4
330
6F
100
AcDbEntity
  8
TOP_PASTE
  6
Continuous
100
AcDbPolyline
 90
        3
 70
     0
 43
0.197
 10
66.9839
 20
-0.5761
 42
1.0
 10
67.1809
 20
-0.5761
 42
1.0
 10
66.9839
 20
-0.5761
 42
1.0
  0
SOLID
  5
2C9
330
6F
100
AcDbEntity
  8
TOP_PASTE
100
AcDbTrace
 10
67.2794
 20
-0.5761
 30
0.0
 11
67.27949999999999
 21
-1.5821
 31
0.0
 12
66.2765
 22
-1.779099999999999
 32
0.0
 13
67.08249999999999
 23
-1.779099999999999
 33
0.0
  0
SOLID
  5
2CA
330
6F
100
AcDbEntity
  8
TOP_PASTE
100
AcDbTrace
 10
67.2794
 20
-0.5761
 30
0.0
 11
66.2765
 21
-1.779099999999999
 31
0.0
 12
66.07940000000001
 22
-0.5761
 32
0.0
 13
66.07949999999999
 23
-1.5821
 33
0.0
  0
SOLID
  5
2CB
330
6F
100
AcDbEntity
  8
TOP_PASTE
100
AcDbTrace
 10
67.2794
 20
-0.5761
 30
0.0
 11
66.07940000000001
 21
-0.5761
 31
0.0
 12
67.0824
 22
-0.3791
 32
0.0
 13
66.27639999999999
 23
-0.3791
 33
0.0
  0
LWPOLYLINE
  5
2CC
330
6F
100
AcDbEntity
  8
TOP_PASTE
  6
Continuous
100
AcDbPolyline
 90
        3
 70
     0
 43
0.197
 10
68.8839
 20
-7.5026
 42
1.0
 10
69.0809
 20
-7.5026
 42
1.0
 10
68.8839
 20
-7.5026
 42
1.0
  0
LWPOLYLINE
  5
2D1
330
6F
100
AcDbEntity
  8
TOP_PASTE
  6
Continuous
100
AcDbPolyline
 90
        3
 70
     0
 43
0.197
 10
68.0779
 20
-7.5026
 42
1.0
 10
68.2749
 20
-7.5026
 42
1.0
 10
68.0779
 20
-7.5026
 42
1.0
  0
LWPOLYLINE
  5
2D6
330
6F
100
AcDbEntity
  8
TOP_PASTE
  6
Continuous
100
AcDbPolyline
 90
        3
 70
     0
 43
0.197
 10
68.0779
 20
-6.496599999999999
 42
1.0
 10
68.2749
 20
-6.496599999999999
 42
1.0
 10
68.0779
 20
-6.496599999999999
 42
1.0
  0
LWPOLYLINE
  5
2DB
330
6F
100
AcDbEntity
  8
TOP_PASTE
  6
Continuous
100
AcDbPolyline
 90
        3
 70
     0
 43
0.197
 10
68.8839
 20
-6.496599999999999
 42
1.0
 10
69.0809
 20
-6.496599999999999
 42
1.0
 10
68.8839
 20
-6.496599999999999
 42
1.0
  0
SOLID
  5
2E0
330
6F
100
AcDbEntity
  8
TOP_PASTE
100
AcDbTrace
 10
69.1794
 20
-6.496599999999999
 30
0.0
 11
69.1794
 21
-7.5026
 31
0.0
 12
68.1764
 22
-7.6996
 32
0.0
 13
68.9824
 23
-7.6996
 33
0.0
  0
SOLID
  5
2E1
330
6F
100
AcDbEntity
  8
TOP_PASTE
100
AcDbTrace
 10
69.1794
 20
-6.496599999999999
 30
0.0
 11
68.1764
 21
-7.6996
 31
0.0
 12
67.9794
 22
-6.496599999999999
 32
0.0
 13
67.9794
 23
-7.5026
 33
0.0
  0
SOLID
  5
2E2
330
6F
100
AcDbEntity
  8
TOP_PASTE
100
AcDbTrace
 10
69.1794
 20
-6.496599999999999
 30
0.0
 11
67.9794
 21
-6.496599999999999
 31
0.0
 12
68.9824
 22
-6.299599999999999
 32
0.0
 13
68.1764
 23
-6.299599999999999
 33
0.0
  0
LWPOLYLINE
  5
2E3
330
6F
100
AcDbEntity
  8
TOP_PASTE
  6
Continuous
100
AcDbPolyline
 90
        3
 70
     0
 43
0.197
 10
66.9839
 20
-7.5026
 42
1.0
 10
67.1809
 20
-7.5026
 42
1.0
 10
66.9839
 20
-7.5026
 42
1.0
  0
LWPOLYLINE
  5
2E8
330
6F
100
AcDbEntity
  8
TOP_PASTE
  6
Continuous
100
AcDbPolyline
 90
        3
 70
     0
 43
0.197
 10
66.17789999999999
 20
-7.5026
 42
1.0
 10
66.37489999999999
 20
-7.5026
 42
1.0
 10
66.17789999999999
 20
-7.5026
 42
1.0
  0
LWPOLYLINE
  5
2ED
330
6F
100
AcDbEntity
  8
TOP_PASTE
  6
Continuous
100
AcDbPolyline
 90
        3
 70
     0
 43
0.197
 10
66.17789999999999
 20
-6.496599999999999
 42
1.0
 10
66.37489999999999
 20
-6.496599999999999
 42
1.0
 10
66.17789999999999
 20
-6.496599999999999
 42
1.0
  0
LWPOLYLINE
  5
2F2
330
6F
100
AcDbEntity
  8
TOP_PASTE
  6
Continuous
100
AcDbPolyline
 90
        3
 70
     0
 43
0.197
 10
66.9839
 20
-6.496599999999999
 42
1.0
 10
67.1809
 20
-6.496599999999999
 42
1.0
 10
66.9839
 20
-6.496599999999999
 42
1.0
  0
SOLID
  5
2F7
330
6F
100
AcDbEntity
  8
TOP_PASTE
100
AcDbTrace
 10
67.2794
 20
-6.496599999999999
 30
0.0
 11
67.2794
 21
-7.5026
 31
0.0
 12
66.27639999999999
 22
-7.6996
 32
0.0
 13
67.0824
 23
-7.6996
 33
0.0
  0
SOLID
  5
2F8
330
6F
100
AcDbEntity
  8
TOP_PASTE
100
AcDbTrace
 10
67.2794
 20
-6.496599999999999
 30
0.0
 11
66.27639999999999
 21
-7.6996
 31
0.0
 12
66.07940000000001
 22
-6.496599999999999
 32
0.0
 13
66.07940000000001
 23
-7.5026
 33
0.0
  0
SOLID
  5
2F9
330
6F
100
AcDbEntity
  8
TOP_PASTE
100
AcDbTrace
 10
67.2794
 20
-6.496599999999999
 30
0.0
 11
66.07940000000001
 21
-6.496599999999999
 31
0.0
 12
67.0824
 22
-6.299599999999999
 32
0.0
 13
66.27639999999999
 23
-6.299599999999999
 33
0.0
  0
LWPOLYLINE
  5
2FA
330
6F
100
AcDbEntity
  8
TOP_PASTE
  6
Continuous
100
AcDbPolyline
 90
        3
 70
     0
 43
0.197
 10
25.3636
 20
15.8854
 42
1.0
 10
25.5606
 20
15.8854
 42
1.0
 10
25.3636
 20
15.8854
 42
1.0
  0
LWPOLYLINE
  5
2FF
330
6F
100
AcDbEntity
  8
TOP_PASTE
  6
Continuous
100
AcDbPolyline
 90
        3
 70
     0
 43
0.197
 10
25.3635
 20
16.6914
 42
1.0
 10
25.5605
 20
16.6914
 42
1.0
 10
25.3635
 20
16.6914
 42
1.0
  0
LWPOLYLINE
  5
304
330
6F
100
AcDbEntity
  8
TOP_PASTE
  6
Continuous
100
AcDbPolyline
 90
        3
 70
     0
 43
0.197
 10
26.3695
 20
16.6914
 42
1.0
 10
26.5665
 20
16.6914
 42
1.0
 10
26.3695
 20
16.6914
 42
1.0
  0
LWPOLYLINE
  5
309
330
6F
100
AcDbEntity
  8
TOP_PASTE
  6
Continuous
100
AcDbPolyline
 90
        3
 70
     0
 43
0.197
 10
26.3696
 20
15.8854
 42
1.0
 10
26.5666
 20
15.8854
 42
1.0
 10
26.3696
 20
15.8854
 42
1.0
  0
SOLID
  5
30E
330
6F
100
AcDbEntity
  8
TOP_PASTE
100
AcDbTrace
 10
26.4681
 20
15.6884
 30
0.0
 11
25.4621
 21
15.6884
 31
0.0
 12
25.265
 22
16.6914
 32
0.0
 13
25.2651
 23
15.8854
 33
0.0
  0
SOLID
  5
30F
330
6F
100
AcDbEntity
  8
TOP_PASTE
100
AcDbTrace
 10
26.4681
 20
15.6884
 30
0.0
 11
25.265
 21
16.6914
 31
0.0
 12
26.46800000000001
 22
16.8884
 32
0.0
 13
25.462
 23
16.8884
 33
0.0
  0
SOLID
  5
310
330
6F
100
AcDbEntity
  8
TOP_PASTE
100
AcDbTrace
 10
26.4681
 20
15.6884
 30
0.0
 11
26.46800000000001
 21
16.8884
 31
0.0
 12
26.6651
 22
15.8854
 32
0.0
 13
26.665
 23
16.6914
 33
0.0
  0
LWPOLYLINE
  5
311
330
6F
100
AcDbEntity
  8
TOP_PASTE
  6
Continuous
100
AcDbPolyline
 90
        3
 70
     0
 43
0.197
 10
25.3635
 20
17.7854
 42
1.0
 10
25.5605
 20
17.7854
 42
1.0
 10
25.3635
 20
17.7854
 42
1.0
  0
LWPOLYLINE
  5
316
330
6F
100
AcDbEntity
  8
TOP_PASTE
  6
Continuous
100
AcDbPolyline
 90
        3
 70
     0
 43
0.197
 10
25.3635
 20
18.5914
 42
1.0
 10
25.5605
 20
18.5914
 42
1.0
 10
25.3635
 20
18.5914
 42
1.0
  0
LWPOLYLINE
  5
31B
330
6F
100
AcDbEntity
  8
TOP_PASTE
  6
Continuous
100
AcDbPolyline
 90
        3
 70
     0
 43
0.197
 10
26.3695
 20
18.5914
 42
1.0
 10
26.5665
 20
18.5914
 42
1.0
 10
26.3695
 20
18.5914
 42
1.0
  0
LWPOLYLINE
  5
320
330
6F
100
AcDbEntity
  8
TOP_PASTE
  6
Continuous
100
AcDbPolyline
 90
        3
 70
     0
 43
0.197
 10
26.3695
 20
17.7854
 42
1.0
 10
26.5665
 20
17.7854
 42
1.0
 10
26.3695
 20
17.7854
 42
1.0
  0
SOLID
  5
325
330
6F
100
AcDbEntity
  8
TOP_PASTE
100
AcDbTrace
 10
26.46800000000001
 20
17.5884
 30
0.0
 11
25.462
 21
17.5884
 31
0.0
 12
25.265
 22
18.5914
 32
0.0
 13
25.265
 23
17.7854
 33
0.0
  0
SOLID
  5
326
330
6F
100
AcDbEntity
  8
TOP_PASTE
100
AcDbTrace
 10
26.46800000000001
 20
17.5884
 30
0.0
 11
25.265
 21
18.5914
 31
0.0
 12
26.46800000000001
 22
18.7884
 32
0.0
 13
25.462
 23
18.7884
 33
0.0
  0
SOLID
  5
327
330
6F
100
AcDbEntity
  8
TOP_PASTE
100
AcDbTrace
 10
26.46800000000001
 20
17.5884
 30
0.0
 11
26.46800000000001
 21
18.7884
 31
0.0
 12
26.665
 22
17.7854
 32
0.0
 13
26.665
 23
18.5914
 33
0.0
  0
LWPOLYLINE
  5
328
330
6F
100
AcDbEntity
  8
TOP_PASTE
  6
Continuous
100
AcDbPolyline
 90
        3
 70
     0
 43
0.197
 10
41.4315
 20
14.533
 42
1.0
 10
41.6285
 20
14.533
 42
1.0
 10
41.4315
 20
14.533
 42
1.0
  0
LWPOLYLINE
  5
32D
330
6F
100
AcDbEntity
  8
TOP_PASTE
  6
Continuous
100
AcDbPolyline
 90
        3
 70
     0
 43
0.197
 10
41.4315
 20
15.339
 42
1.0
 10
41.6285
 20
15.339
 42
1.0
 10
41.4315
 20
15.339
 42
1.0
  0
LWPOLYLINE
  5
332
330
6F
100
AcDbEntity
  8
TOP_PASTE
  6
Continuous
100
AcDbPolyline
 90
        3
 70
     0
 43
0.197
 10
42.4375
 20
15.339
 42
1.0
 10
42.6345
 20
15.339
 42
1.0
 10
42.4375
 20
15.339
 42
1.0
  0
LWPOLYLINE
  5
337
330
6F
100
AcDbEntity
  8
TOP_PASTE
  6
Continuous
100
AcDbPolyline
 90
        3
 70
     0
 43
0.197
 10
42.4375
 20
14.533
 42
1.0
 10
42.6345
 20
14.533
 42
1.0
 10
42.4375
 20
14.533
 42
1.0
  0
SOLID
  5
33C
330
6F
100
AcDbEntity
  8
TOP_PASTE
100
AcDbTrace
 10
42.536
 20
14.336
 30
0.0
 11
41.53
 21
14.336
 31
0.0
 12
41.333
 22
15.339
 32
0.0
 13
41.333
 23
14.533
 33
0.0
  0
SOLID
  5
33D
330
6F
100
AcDbEntity
  8
TOP_PASTE
100
AcDbTrace
 10
42.536
 20
14.336
 30
0.0
 11
41.333
 21
15.339
 31
0.0
 12
42.536
 22
15.536
 32
0.0
 13
41.53
 23
15.536
 33
0.0
  0
SOLID
  5
33E
330
6F
100
AcDbEntity
  8
TOP_PASTE
100
AcDbTrace
 10
42.536
 20
14.336
 30
0.0
 11
42.536
 21
15.536
 31
0.0
 12
42.733
 22
14.533
 32
0.0
 13
42.733
 23
15.339
 33
0.0
  0
LWPOLYLINE
  5
33F
330
6F
100
AcDbEntity
  8
TOP_PASTE
  6
Continuous
100
AcDbPolyline
 90
        3
 70
     0
 43
0.197
 10
41.4315
 20
16.433
 42
1.0
 10
41.6285
 20
16.433
 42
1.0
 10
41.4315
 20
16.433
 42
1.0
  0
LWPOLYLINE
  5
344
330
6F
100
AcDbEntity
  8
TOP_PASTE
  6
Continuous
100
AcDbPolyline
 90
        3
 70
     0
 43
0.197
 10
41.4315
 20
17.239
 42
1.0
 10
41.6285
 20
17.239
 42
1.0
 10
41.4315
 20
17.239
 42
1.0
  0
LWPOLYLINE
  5
349
330
6F
100
AcDbEntity
  8
TOP_PASTE
  6
Continuous
100
AcDbPolyline
 90
        3
 70
     0
 43
0.197
 10
42.4375
 20
17.239
 42
1.0
 10
42.6345
 20
17.239
 42
1.0
 10
42.4375
 20
17.239
 42
1.0
  0
LWPOLYLINE
  5
34E
330
6F
100
AcDbEntity
  8
TOP_PASTE
  6
Continuous
100
AcDbPolyline
 90
        3
 70
     0
 43
0.197
 10
42.4375
 20
16.433
 42
1.0
 10
42.6345
 20
16.433
 42
1.0
 10
42.4375
 20
16.433
 42
1.0
  0
SOLID
  5
353
330
6F
100
AcDbEntity
  8
TOP_PASTE
100
AcDbTrace
 10
42.536
 20
16.236
 30
0.0
 11
41.53
 21
16.236
 31
0.0
 12
41.333
 22
17.239
 32
0.0
 13
41.333
 23
16.433
 33
0.0
  0
SOLID
  5
354
330
6F
100
AcDbEntity
  8
TOP_PASTE
100
AcDbTrace
 10
42.536
 20
16.236
 30
0.0
 11
41.333
 21
17.239
 31
0.0
 12
42.536
 22
17.436
 32
0.0
 13
41.53
 23
17.436
 33
0.0
  0
SOLID
  5
355
330
6F
100
AcDbEntity
  8
TOP_PASTE
100
AcDbTrace
 10
42.536
 20
16.236
 30
0.0
 11
42.536
 21
17.436
 31
0.0
 12
42.733
 22
16.433
 32
0.0
 13
42.733
 23
17.239
 33
0.0
  0
LWPOLYLINE
  5
356
330
6F
100
AcDbEntity
  8
TOP_PASTE
  6
Continuous
100
AcDbPolyline
 90
        3
 70
     0
 43
0.197
 10
39.6538
 20
-21.1136
 42
1.0
 10
39.8508
 20
-21.1136
 42
1.0
 10
39.6538
 20
-21.1136
 42
1.0
  0
LWPOLYLINE
  5
35B
330
6F
100
AcDbEntity
  8
TOP_PASTE
  6
Continuous
100
AcDbPolyline
 90
        3
 70
     0
 43
0.197
 10
40.4598
 20
-21.1136
 42
1.0
 10
40.65679999999999
 20
-21.1136
 42
1.0
 10
40.4598
 20
-21.1136
 42
1.0
  0
LWPOLYLINE
  5
360
330
6F
100
AcDbEntity
  8
TOP_PASTE
  6
Continuous
100
AcDbPolyline
 90
        3
 70
     0
 43
0.197
 10
40.4598
 20
-22.1196
 42
1.0
 10
40.65679999999999
 20
-22.1196
 42
1.0
 10
40.4598
 20
-22.1196
 42
1.0
  0
LWPOLYLINE
  5
365
330
6F
100
AcDbEntity
  8
TOP_PASTE
  6
Continuous
100
AcDbPolyline
 90
        3
 70
     0
 43
0.197
 10
39.6538
 20
-22.1196
 42
1.0
 10
39.8508
 20
-22.1196
 42
1.0
 10
39.6538
 20
-22.1196
 42
1.0
  0
SOLID
  5
36A
330
6F
100
AcDbEntity
  8
TOP_PASTE
100
AcDbTrace
 10
39.5553
 20
-22.1196
 30
0.0
 11
39.5553
 21
-21.1136
 31
0.0
 12
40.5583
 22
-20.9166
 32
0.0
 13
39.7523
 23
-20.9166
 33
0.0
  0
SOLID
  5
36B
330
6F
100
AcDbEntity
  8
TOP_PASTE
100
AcDbTrace
 10
39.5553
 20
-22.1196
 30
0.0
 11
40.5583
 21
-20.9166
 31
0.0
 12
40.75529999999999
 22
-22.1196
 32
0.0
 13
40.75529999999999
 23
-21.1136
 33
0.0
  0
SOLID
  5
36C
330
6F
100
AcDbEntity
  8
TOP_PASTE
100
AcDbTrace
 10
39.5553
 20
-22.1196
 30
0.0
 11
40.75529999999999
 21
-22.1196
 31
0.0
 12
39.7523
 22
-22.3166
 32
0.0
 13
40.5583
 23
-22.3166
 33
0.0
  0
LWPOLYLINE
  5
36D
330
6F
100
AcDbEntity
  8
TOP_PASTE
  6
Continuous
100
AcDbPolyline
 90
        3
 70
     0
 43
0.197
 10
41.5538
 20
-21.1136
 42
1.0
 10
41.7508
 20
-21.1136
 42
1.0
 10
41.5538
 20
-21.1136
 42
1.0
  0
LWPOLYLINE
  5
372
330
6F
100
AcDbEntity
  8
TOP_PASTE
  6
Continuous
100
AcDbPolyline
 90
        3
 70
     0
 43
0.197
 10
42.3598
 20
-21.1136
 42
1.0
 10
42.5568
 20
-21.1136
 42
1.0
 10
42.3598
 20
-21.1136
 42
1.0
  0
LWPOLYLINE
  5
377
330
6F
100
AcDbEntity
  8
TOP_PASTE
  6
Continuous
100
AcDbPolyline
 90
        3
 70
     0
 43
0.197
 10
42.3598
 20
-22.1196
 42
1.0
 10
42.5568
 20
-22.1196
 42
1.0
 10
42.3598
 20
-22.1196
 42
1.0
  0
LWPOLYLINE
  5
37C
330
6F
100
AcDbEntity
  8
TOP_PASTE
  6
Continuous
100
AcDbPolyline
 90
        3
 70
     0
 43
0.197
 10
41.5538
 20
-22.1196
 42
1.0
 10
41.7508
 20
-22.1196
 42
1.0
 10
41.5538
 20
-22.1196
 42
1.0
  0
SOLID
  5
381
330
6F
100
AcDbEntity
  8
TOP_PASTE
100
AcDbTrace
 10
41.45529999999999
 20
-22.1196
 30
0.0
 11
41.45529999999999
 21
-21.1136
 31
0.0
 12
42.4583
 22
-20.9166
 32
0.0
 13
41.6523
 23
-20.9166
 33
0.0
  0
SOLID
  5
382
330
6F
100
AcDbEntity
  8
TOP_PASTE
100
AcDbTrace
 10
41.45529999999999
 20
-22.1196
 30
0.0
 11
42.4583
 21
-20.9166
 31
0.0
 12
42.6553
 22
-22.1196
 32
0.0
 13
42.6553
 23
-21.1136
 33
0.0
  0
SOLID
  5
383
330
6F
100
AcDbEntity
  8
TOP_PASTE
100
AcDbTrace
 10
41.45529999999999
 20
-22.1196
 30
0.0
 11
42.6553
 21
-22.1196
 31
0.0
 12
41.6523
 22
-22.3166
 32
0.0
 13
42.4583
 23
-22.3166
 33
0.0
  0
LWPOLYLINE
  5
384
330
6F
100
AcDbEntity
  8
TOP_PASTE
  6
Continuous
100
AcDbPolyline
 90
        3
 70
     0
 43
0.197
 10
66.17789999999999
 20
-3.003699999999999
 42
1.0
 10
66.37489999999999
 20
-3.003699999999999
 42
1.0
 10
66.17789999999999
 20
-3.003699999999999
 42
1.0
  0
LWPOLYLINE
  5
389
330
6F
100
AcDbEntity
  8
TOP_PASTE
  6
Continuous
100
AcDbPolyline
 90
        3
 70
     0
 43
0.197
 10
66.9839
 20
-3.003699999999999
 42
1.0
 10
67.1809
 20
-3.003699999999999
 42
1.0
 10
66.9839
 20
-3.003699999999999
 42
1.0
  0
LWPOLYLINE
  5
38E
330
6F
100
AcDbEntity
  8
TOP_PASTE
  6
Continuous
100
AcDbPolyline
 90
        3
 70
     0
 43
0.197
 10
66.9839
 20
-4.009699999999999
 42
1.0
 10
67.1809
 20
-4.009699999999999
 42
1.0
 10
66.9839
 20
-4.009699999999999
 42
1.0
  0
LWPOLYLINE
  5
393
330
6F
100
AcDbEntity
  8
TOP_PASTE
  6
Continuous
100
AcDbPolyline
 90
        3
 70
     0
 43
0.197
 10
66.17789999999999
 20
-4.009699999999999
 42
1.0
 10
66.37489999999999
 20
-4.009699999999999
 42
1.0
 10
66.17789999999999
 20
-4.009699999999999
 42
1.0
  0
SOLID
  5
398
330
6F
100
AcDbEntity
  8
TOP_PASTE
100
AcDbTrace
 10
66.07940000000001
 20
-4.009699999999999
 30
0.0
 11
66.07940000000001
 21
-3.003699999999999
 31
0.0
 12
67.0824
 22
-2.8067
 32
0.0
 13
66.27639999999999
 23
-2.8067
 33
0.0
  0
SOLID
  5
399
330
6F
100
AcDbEntity
  8
TOP_PASTE
100
AcDbTrace
 10
66.07940000000001
 20
-4.009699999999999
 30
0.0
 11
67.0824
 21
-2.8067
 31
0.0
 12
67.2794
 22
-4.009699999999999
 32
0.0
 13
67.2794
 23
-3.003699999999999
 33
0.0
  0
SOLID
  5
39A
330
6F
100
AcDbEntity
  8
TOP_PASTE
100
AcDbTrace
 10
66.07940000000001
 20
-4.009699999999999
 30
0.0
 11
67.2794
 21
-4.009699999999999
 31
0.0
 12
66.2765
 22
-4.206699999999999
 32
0.0
 13
67.08249999999999
 23
-4.206699999999999
 33
0.0
  0
LWPOLYLINE
  5
39B
330
6F
100
AcDbEntity
  8
TOP_PASTE
  6
Continuous
100
AcDbPolyline
 90
        3
 70
     0
 43
0.197
 10
68.0779
 20
-3.003699999999999
 42
1.0
 10
68.2749
 20
-3.003699999999999
 42
1.0
 10
68.0779
 20
-3.003699999999999
 42
1.0
  0
LWPOLYLINE
  5
3A0
330
6F
100
AcDbEntity
  8
TOP_PASTE
  6
Continuous
100
AcDbPolyline
 90
        3
 70
     0
 43
0.197
 10
68.8839
 20
-3.0036
 42
1.0
 10
69.0809
 20
-3.0036
 42
1.0
 10
68.8839
 20
-3.0036
 42
1.0
  0
LWPOLYLINE
  5
3A5
330
6F
100
AcDbEntity
  8
TOP_PASTE
  6
Continuous
100
AcDbPolyline
 90
        3
 70
     0
 43
0.197
 10
68.8839
 20
-4.009599999999999
 42
1.0
 10
69.0809
 20
-4.009599999999999
 42
1.0
 10
68.8839
 20
-4.009599999999999
 42
1.0
  0
LWPOLYLINE
  5
3AA
330
6F
100
AcDbEntity
  8
TOP_PASTE
  6
Continuous
100
AcDbPolyline
 90
        3
 70
     0
 43
0.197
 10
68.0779
 20
-4.009699999999999
 42
1.0
 10
68.2749
 20
-4.009699999999999
 42
1.0
 10
68.0779
 20
-4.009699999999999
 42
1.0
  0
SOLID
  5
3AF
330
6F
100
AcDbEntity
  8
TOP_PASTE
100
AcDbTrace
 10
67.9794
 20
-4.009699999999999
 30
0.0
 11
67.9794
 21
-3.003699999999999
 31
0.0
 12
68.9824
 22
-2.806599999999999
 32
0.0
 13
68.1764
 23
-2.8067
 33
0.0
  0
SOLID
  5
3B0
330
6F
100
AcDbEntity
  8
TOP_PASTE
100
AcDbTrace
 10
67.9794
 20
-4.009699999999999
 30
0.0
 11
68.9824
 21
-2.806599999999999
 31
0.0
 12
69.1794
 22
-4.009599999999999
 32
0.0
 13
69.1794
 23
-3.0036
 33
0.0
  0
SOLID
  5
3B1
330
6F
100
AcDbEntity
  8
TOP_PASTE
100
AcDbTrace
 10
67.9794
 20
-4.009699999999999
 30
0.0
 11
69.1794
 21
-4.009599999999999
 31
0.0
 12
68.1765
 22
-4.206699999999999
 32
0.0
 13
68.9825
 23
-4.206599999999999
 33
0.0
  0
LWPOLYLINE
  5
3B2
330
6F
100
AcDbEntity
  8
TOP_PASTE
  6
Continuous
100
AcDbPolyline
 90
        3
 70
     0
 43
0.197
 10
66.17789999999999
 20
-8.9756
 42
1.0
 10
66.37489999999999
 20
-8.9756
 42
1.0
 10
66.17789999999999
 20
-8.9756
 42
1.0
  0
LWPOLYLINE
  5
3B7
330
6F
100
AcDbEntity
  8
TOP_PASTE
  6
Continuous
100
AcDbPolyline
 90
        3
 70
     0
 43
0.197
 10
66.9839
 20
-8.9756
 42
1.0
 10
67.1809
 20
-8.9756
 42
1.0
 10
66.9839
 20
-8.9756
 42
1.0
  0
LWPOLYLINE
  5
3BC
330
6F
100
AcDbEntity
  8
TOP_PASTE
  6
Continuous
100
AcDbPolyline
 90
        3
 70
     0
 43
0.197
 10
66.9839
 20
-9.9816
 42
1.0
 10
67.1809
 20
-9.9816
 42
1.0
 10
66.9839
 20
-9.9816
 42
1.0
  0
LWPOLYLINE
  5
3C1
330
6F
100
AcDbEntity
  8
TOP_PASTE
  6
Continuous
100
AcDbPolyline
 90
        3
 70
     0
 43
0.197
 10
66.17789999999999
 20
-9.9816
 42
1.0
 10
66.37489999999999
 20
-9.9816
 42
1.0
 10
66.17789999999999
 20
-9.9816
 42
1.0
  0
SOLID
  5
3C6
330
6F
100
AcDbEntity
  8
TOP_PASTE
100
AcDbTrace
 10
66.07940000000001
 20
-9.9816
 30
0.0
 11
66.07940000000001
 21
-8.9756
 31
0.0
 12
67.0824
 22
-8.7786
 32
0.0
 13
66.27639999999999
 23
-8.7786
 33
0.0
  0
SOLID
  5
3C7
330
6F
100
AcDbEntity
  8
TOP_PASTE
100
AcDbTrace
 10
66.07940000000001
 20
-9.9816
 30
0.0
 11
67.0824
 21
-8.7786
 31
0.0
 12
67.2794
 22
-9.9816
 32
0.0
 13
67.2794
 23
-8.9756
 33
0.0
  0
SOLID
  5
3C8
330
6F
100
AcDbEntity
  8
TOP_PASTE
100
AcDbTrace
 10
66.07940000000001
 20
-9.9816
 30
0.0
 11
67.2794
 21
-9.9816
 31
0.0
 12
66.27639999999999
 22
-10.1786
 32
0.0
 13
67.0824
 23
-10.1786
 33
0.0
  0
LWPOLYLINE
  5
3C9
330
6F
100
AcDbEntity
  8
TOP_PASTE
  6
Continuous
100
AcDbPolyline
 90
        3
 70
     0
 43
0.197
 10
68.0779
 20
-8.9756
 42
1.0
 10
68.2749
 20
-8.9756
 42
1.0
 10
68.0779
 20
-8.9756
 42
1.0
  0
LWPOLYLINE
  5
3CE
330
6F
100
AcDbEntity
  8
TOP_PASTE
  6
Continuous
100
AcDbPolyline
 90
        3
 70
     0
 43
0.197
 10
68.8839
 20
-8.9756
 42
1.0
 10
69.0809
 20
-8.9756
 42
1.0
 10
68.8839
 20
-8.9756
 42
1.0
  0
LWPOLYLINE
  5
3D3
330
6F
100
AcDbEntity
  8
TOP_PASTE
  6
Continuous
100
AcDbPolyline
 90
        3
 70
     0
 43
0.197
 10
68.8839
 20
-9.9816
 42
1.0
 10
69.0809
 20
-9.9816
 42
1.0
 10
68.8839
 20
-9.9816
 42
1.0
  0
LWPOLYLINE
  5
3D8
330
6F
100
AcDbEntity
  8
TOP_PASTE
  6
Continuous
100
AcDbPolyline
 90
        3
 70
     0
 43
0.197
 10
68.0779
 20
-9.9816
 42
1.0
 10
68.2749
 20
-9.9816
 42
1.0
 10
68.0779
 20
-9.9816
 42
1.0
  0
SOLID
  5
3DD
330
6F
100
AcDbEntity
  8
TOP_PASTE
100
AcDbTrace
 10
67.9794
 20
-9.9816
 30
0.0
 11
67.9794
 21
-8.9756
 31
0.0
 12
68.9824
 22
-8.7786
 32
0.0
 13
68.1764
 23
-8.7786
 33
0.0
  0
SOLID
  5
3DE
330
6F
100
AcDbEntity
  8
TOP_PASTE
100
AcDbTrace
 10
67.9794
 20
-9.9816
 30
0.0
 11
68.9824
 21
-8.7786
 31
0.0
 12
69.1794
 22
-9.9816
 32
0.0
 13
69.1794
 23
-8.9756
 33
0.0
  0
SOLID
  5
3DF
330
6F
100
AcDbEntity
  8
TOP_PASTE
100
AcDbTrace
 10
67.9794
 20
-9.9816
 30
0.0
 11
69.1794
 21
-9.9816
 31
0.0
 12
68.1764
 22
-10.1786
 32
0.0
 13
68.9824
 23
-10.1786
 33
0.0
  0
LWPOLYLINE
  5
3E0
330
6F
100
AcDbEntity
  8
TOP_PASTE
  6
Continuous
100
AcDbPolyline
 90
        3
 70
     0
 43
0.197
 10
66.2337
 20
17.5679
 42
1.0
 10
66.4307
 20
17.5679
 42
1.0
 10
66.2337
 20
17.5679
 42
1.0
  0
LWPOLYLINE
  5
3E5
330
6F
100
AcDbEntity
  8
TOP_PASTE
  6
Continuous
100
AcDbPolyline
 90
        3
 70
     0
 43
0.197
 10
67.03969999999999
 20
17.5679
 42
1.0
 10
67.2367
 20
17.5679
 42
1.0
 10
67.03969999999999
 20
17.5679
 42
1.0
  0
LWPOLYLINE
  5
3EA
330
6F
100
AcDbEntity
  8
TOP_PASTE
  6
Continuous
100
AcDbPolyline
 90
        3
 70
     0
 43
0.197
 10
67.03969999999999
 20
16.5619
 42
1.0
 10
67.2367
 20
16.5619
 42
1.0
 10
67.03969999999999
 20
16.5619
 42
1.0
  0
LWPOLYLINE
  5
3EF
330
6F
100
AcDbEntity
  8
TOP_PASTE
  6
Continuous
100
AcDbPolyline
 90
        3
 70
     0
 43
0.197
 10
66.2337
 20
16.5619
 42
1.0
 10
66.4307
 20
16.5619
 42
1.0
 10
66.2337
 20
16.5619
 42
1.0
  0
SOLID
  5
3F4
330
6F
100
AcDbEntity
  8
TOP_PASTE
100
AcDbTrace
 10
66.1352
 20
16.5619
 30
0.0
 11
66.1352
 21
17.5679
 31
0.0
 12
67.1382
 22
17.7649
 32
0.0
 13
66.3322
 23
17.7649
 33
0.0
  0
SOLID
  5
3F5
330
6F
100
AcDbEntity
  8
TOP_PASTE
100
AcDbTrace
 10
66.1352
 20
16.5619
 30
0.0
 11
67.1382
 21
17.7649
 31
0.0
 12
67.3352
 22
16.5619
 32
0.0
 13
67.3352
 23
17.5679
 33
0.0
  0
SOLID
  5
3F6
330
6F
100
AcDbEntity
  8
TOP_PASTE
100
AcDbTrace
 10
66.1352
 20
16.5619
 30
0.0
 11
67.3352
 21
16.5619
 31
0.0
 12
66.3322
 22
16.3649
 32
0.0
 13
67.1382
 23
16.3649
 33
0.0
  0
LWPOLYLINE
  5
3F7
330
6F
100
AcDbEntity
  8
TOP_PASTE
  6
Continuous
100
AcDbPolyline
 90
        3
 70
     0
 43
0.197
 10
68.1337
 20
17.5679
 42
1.0
 10
68.33069999999999
 20
17.5679
 42
1.0
 10
68.1337
 20
17.5679
 42
1.0
  0
LWPOLYLINE
  5
3FC
330
6F
100
AcDbEntity
  8
TOP_PASTE
  6
Continuous
100
AcDbPolyline
 90
        3
 70
     0
 43
0.197
 10
68.9397
 20
17.5679
 42
1.0
 10
69.1367
 20
17.5679
 42
1.0
 10
68.9397
 20
17.5679
 42
1.0
  0
LWPOLYLINE
  5
401
330
6F
100
AcDbEntity
  8
TOP_PASTE
  6
Continuous
100
AcDbPolyline
 90
        3
 70
     0
 43
0.197
 10
68.9397
 20
16.5619
 42
1.0
 10
69.1367
 20
16.5619
 42
1.0
 10
68.9397
 20
16.5619
 42
1.0
  0
LWPOLYLINE
  5
406
330
6F
100
AcDbEntity
  8
TOP_PASTE
  6
Continuous
100
AcDbPolyline
 90
        3
 70
     0
 43
0.197
 10
68.1337
 20
16.5619
 42
1.0
 10
68.33069999999999
 20
16.5619
 42
1.0
 10
68.1337
 20
16.5619
 42
1.0
  0
SOLID
  5
40B
330
6F
100
AcDbEntity
  8
TOP_PASTE
100
AcDbTrace
 10
68.0352
 20
16.5619
 30
0.0
 11
68.0352
 21
17.5679
 31
0.0
 12
69.0382
 22
17.7649
 32
0.0
 13
68.2322
 23
17.7649
 33
0.0
  0
SOLID
  5
40C
330
6F
100
AcDbEntity
  8
TOP_PASTE
100
AcDbTrace
 10
68.0352
 20
16.5619
 30
0.0
 11
69.0382
 21
17.7649
 31
0.0
 12
69.2352
 22
16.5619
 32
0.0
 13
69.2352
 23
17.5679
 33
0.0
  0
SOLID
  5
40D
330
6F
100
AcDbEntity
  8
TOP_PASTE
100
AcDbTrace
 10
68.0352
 20
16.5619
 30
0.0
 11
69.2352
 21
16.5619
 31
0.0
 12
68.2322
 22
16.3649
 32
0.0
 13
69.0382
 23
16.3649
 33
0.0
  0
LWPOLYLINE
  5
40E
330
6F
100
AcDbEntity
  8
TOP_PASTE
  6
Continuous
100
AcDbPolyline
 90
        3
 70
     0
 43
0.197
 10
25.3636
 20
10.365
 42
1.0
 10
25.5606
 20
10.365
 42
1.0
 10
25.3636
 20
10.365
 42
1.0
  0
LWPOLYLINE
  5
413
330
6F
100
AcDbEntity
  8
TOP_PASTE
  6
Continuous
100
AcDbPolyline
 90
        3
 70
     0
 43
0.197
 10
25.3635
 20
11.171
 42
1.0
 10
25.5605
 20
11.171
 42
1.0
 10
25.3635
 20
11.171
 42
1.0
  0
LWPOLYLINE
  5
418
330
6F
100
AcDbEntity
  8
TOP_PASTE
  6
Continuous
100
AcDbPolyline
 90
        3
 70
     0
 43
0.197
 10
26.3695
 20
11.171
 42
1.0
 10
26.5665
 20
11.171
 42
1.0
 10
26.3695
 20
11.171
 42
1.0
  0
LWPOLYLINE
  5
41D
330
6F
100
AcDbEntity
  8
TOP_PASTE
  6
Continuous
100
AcDbPolyline
 90
        3
 70
     0
 43
0.197
 10
26.3696
 20
10.365
 42
1.0
 10
26.5666
 20
10.365
 42
1.0
 10
26.3696
 20
10.365
 42
1.0
  0
SOLID
  5
422
330
6F
100
AcDbEntity
  8
TOP_PASTE
100
AcDbTrace
 10
26.4681
 20
10.168
 30
0.0
 11
25.4621
 21
10.168
 31
0.0
 12
25.265
 22
11.171
 32
0.0
 13
25.2651
 23
10.365
 33
0.0
  0
SOLID
  5
423
330
6F
100
AcDbEntity
  8
TOP_PASTE
100
AcDbTrace
 10
26.4681
 20
10.168
 30
0.0
 11
25.265
 21
11.171
 31
0.0
 12
26.46800000000001
 22
11.368
 32
0.0
 13
25.462
 23
11.368
 33
0.0
  0
SOLID
  5
424
330
6F
100
AcDbEntity
  8
TOP_PASTE
100
AcDbTrace
 10
26.4681
 20
10.168
 30
0.0
 11
26.46800000000001
 21
11.368
 31
0.0
 12
26.6651
 22
10.365
 32
0.0
 13
26.665
 23
11.171
 33
0.0
  0
LWPOLYLINE
  5
425
330
6F
100
AcDbEntity
  8
TOP_PASTE
  6
Continuous
100
AcDbPolyline
 90
        3
 70
     0
 43
0.197
 10
25.3635
 20
12.265
 42
1.0
 10
25.5605
 20
12.265
 42
1.0
 10
25.3635
 20
12.265
 42
1.0
  0
LWPOLYLINE
  5
42A
330
6F
100
AcDbEntity
  8
TOP_PASTE
  6
Continuous
100
AcDbPolyline
 90
        3
 70
     0
 43
0.197
 10
25.3635
 20
13.071
 42
1.0
 10
25.5605
 20
13.071
 42
1.0
 10
25.3635
 20
13.071
 42
1.0
  0
LWPOLYLINE
  5
42F
330
6F
100
AcDbEntity
  8
TOP_PASTE
  6
Continuous
100
AcDbPolyline
 90
        3
 70
     0
 43
0.197
 10
26.3695
 20
13.071
 42
1.0
 10
26.5665
 20
13.071
 42
1.0
 10
26.3695
 20
13.071
 42
1.0
  0
LWPOLYLINE
  5
434
330
6F
100
AcDbEntity
  8
TOP_PASTE
  6
Continuous
100
AcDbPolyline
 90
        3
 70
     0
 43
0.197
 10
26.3695
 20
12.265
 42
1.0
 10
26.5665
 20
12.265
 42
1.0
 10
26.3695
 20
12.265
 42
1.0
  0
SOLID
  5
439
330
6F
100
AcDbEntity
  8
TOP_PASTE
100
AcDbTrace
 10
26.46800000000001
 20
12.068
 30
0.0
 11
25.462
 21
12.068
 31
0.0
 12
25.265
 22
13.071
 32
0.0
 13
25.265
 23
12.265
 33
0.0
  0
SOLID
  5
43A
330
6F
100
AcDbEntity
  8
TOP_PASTE
100
AcDbTrace
 10
26.46800000000001
 20
12.068
 30
0.0
 11
25.265
 21
13.071
 31
0.0
 12
26.46800000000001
 22
13.268
 32
0.0
 13
25.462
 23
13.268
 33
0.0
  0
SOLID
  5
43B
330
6F
100
AcDbEntity
  8
TOP_PASTE
100
AcDbTrace
 10
26.46800000000001
 20
12.068
 30
0.0
 11
26.46800000000001
 21
13.268
 31
0.0
 12
26.665
 22
12.265
 32
0.0
 13
26.665
 23
13.071
 33
0.0
  0
LWPOLYLINE
  5
43C
330
6F
100
AcDbEntity
  8
TOP_PASTE
  6
Continuous
100
AcDbPolyline
 90
        3
 70
     0
 43
0.197
 10
27.7734
 20
2.5796
 42
1.0
 10
27.9704
 20
2.5796
 42
1.0
 10
27.7734
 20
2.5796
 42
1.0
  0
LWPOLYLINE
  5
441
330
6F
100
AcDbEntity
  8
TOP_PASTE
  6
Continuous
100
AcDbPolyline
 90
        3
 70
     0
 43
0.197
 10
28.5794
 20
2.5796
 42
1.0
 10
28.7764
 20
2.5796
 42
1.0
 10
28.5794
 20
2.5796
 42
1.0
  0
LWPOLYLINE
  5
446
330
6F
100
AcDbEntity
  8
TOP_PASTE
  6
Continuous
100
AcDbPolyline
 90
        3
 70
     0
 43
0.197
 10
28.5794
 20
1.5736
 42
1.0
 10
28.7764
 20
1.5736
 42
1.0
 10
28.5794
 20
1.5736
 42
1.0
  0
LWPOLYLINE
  5
44B
330
6F
100
AcDbEntity
  8
TOP_PASTE
  6
Continuous
100
AcDbPolyline
 90
        3
 70
     0
 43
0.197
 10
27.7734
 20
1.5736
 42
1.0
 10
27.9704
 20
1.5736
 42
1.0
 10
27.7734
 20
1.5736
 42
1.0
  0
SOLID
  5
450
330
6F
100
AcDbEntity
  8
TOP_PASTE
100
AcDbTrace
 10
27.6749
 20
1.5736
 30
0.0
 11
27.6749
 21
2.5796
 31
0.0
 12
28.6779
 22
2.7766
 32
0.0
 13
27.8719
 23
2.7766
 33
0.0
  0
SOLID
  5
451
330
6F
100
AcDbEntity
  8
TOP_PASTE
100
AcDbTrace
 10
27.6749
 20
1.5736
 30
0.0
 11
28.6779
 21
2.7766
 31
0.0
 12
28.8749
 22
1.5736
 32
0.0
 13
28.8749
 23
2.5796
 33
0.0
  0
SOLID
  5
452
330
6F
100
AcDbEntity
  8
TOP_PASTE
100
AcDbTrace
 10
27.6749
 20
1.5736
 30
0.0
 11
28.8749
 21
1.5736
 31
0.0
 12
27.8719
 22
1.3766
 32
0.0
 13
28.6779
 23
1.3766
 33
0.0
  0
LWPOLYLINE
  5
453
330
6F
100
AcDbEntity
  8
TOP_PASTE
  6
Continuous
100
AcDbPolyline
 90
        3
 70
     0
 43
0.197
 10
29.6734
 20
2.5796
 42
1.0
 10
29.8704
 20
2.5796
 42
1.0
 10
29.6734
 20
2.5796
 42
1.0
  0
LWPOLYLINE
  5
458
330
6F
100
AcDbEntity
  8
TOP_PASTE
  6
Continuous
100
AcDbPolyline
 90
        3
 70
     0
 43
0.197
 10
30.4794
 20
2.5796
 42
1.0
 10
30.6764
 20
2.5796
 42
1.0
 10
30.4794
 20
2.5796
 42
1.0
  0
LWPOLYLINE
  5
45D
330
6F
100
AcDbEntity
  8
TOP_PASTE
  6
Continuous
100
AcDbPolyline
 90
        3
 70
     0
 43
0.197
 10
30.4794
 20
1.5736
 42
1.0
 10
30.6764
 20
1.5736
 42
1.0
 10
30.4794
 20
1.5736
 42
1.0
  0
LWPOLYLINE
  5
462
330
6F
100
AcDbEntity
  8
TOP_PASTE
  6
Continuous
100
AcDbPolyline
 90
        3
 70
     0
 43
0.197
 10
29.6734
 20
1.5736
 42
1.0
 10
29.8704
 20
1.5736
 42
1.0
 10
29.6734
 20
1.5736
 42
1.0
  0
SOLID
  5
467
330
6F
100
AcDbEntity
  8
TOP_PASTE
100
AcDbTrace
 10
29.5749
 20
1.5736
 30
0.0
 11
29.5749
 21
2.5796
 31
0.0
 12
30.5779
 22
2.7766
 32
0.0
 13
29.7719
 23
2.7766
 33
0.0
  0
SOLID
  5
468
330
6F
100
AcDbEntity
  8
TOP_PASTE
100
AcDbTrace
 10
29.5749
 20
1.5736
 30
0.0
 11
30.5779
 21
2.7766
 31
0.0
 12
30.7749
 22
1.5736
 32
0.0
 13
30.7749
 23
2.5796
 33
0.0
  0
SOLID
  5
469
330
6F
100
AcDbEntity
  8
TOP_PASTE
100
AcDbTrace
 10
29.5749
 20
1.5736
 30
0.0
 11
30.7749
 21
1.5736
 31
0.0
 12
29.7719
 22
1.3766
 32
0.0
 13
30.5779
 23
1.3766
 33
0.0
  0
LWPOLYLINE
  5
46A
330
6F
100
AcDbEntity
  8
TOP_PASTE
  6
Continuous
100
AcDbPolyline
 90
        3
 70
     0
 43
0.2
 10
26.9458
 20
-28.5517
 42
1.0
 10
27.1458
 20
-28.5517
 42
1.0
 10
26.9458
 20
-28.5517
 42
1.0
  0
LWPOLYLINE
  5
46F
330
6F
100
AcDbEntity
  8
TOP_PASTE
  6
Continuous
100
AcDbPolyline
 90
        3
 70
     0
 43
0.2
 10
26.3458
 20
-28.5517
 42
1.0
 10
26.5458
 20
-28.5517
 42
1.0
 10
26.3458
 20
-28.5517
 42
1.0
  0
LWPOLYLINE
  5
474
330
6F
100
AcDbEntity
  8
TOP_PASTE
  6
Continuous
100
AcDbPolyline
 90
        3
 70
     0
 43
0.2
 10
26.3458
 20
-28.0517
 42
1.0
 10
26.5458
 20
-28.0517
 42
1.0
 10
26.3458
 20
-28.0517
 42
1.0
  0
LWPOLYLINE
  5
479
330
6F
100
AcDbEntity
  8
TOP_PASTE
  6
Continuous
100
AcDbPolyline
 90
        3
 70
     0
 43
0.2
 10
26.9458
 20
-28.0517
 42
1.0
 10
27.1458
 20
-28.0517
 42
1.0
 10
26.9458
 20
-28.0517
 42
1.0
  0
SOLID
  5
47E
330
6F
100
AcDbEntity
  8
TOP_PASTE
100
AcDbTrace
 10
27.2458
 20
-28.0517
 30
0.0
 11
27.2458
 21
-28.5517
 31
0.0
 12
26.4458
 22
-28.7517
 32
0.0
 13
27.0458
 23
-28.7517
 33
0.0
  0
SOLID
  5
47F
330
6F
100
AcDbEntity
  8
TOP_PASTE
100
AcDbTrace
 10
27.2458
 20
-28.0517
 30
0.0
 11
26.4458
 21
-28.7517
 31
0.0
 12
26.2458
 22
-28.0517
 32
0.0
 13
26.2458
 23
-28.5517
 33
0.0
  0
SOLID
  5
480
330
6F
100
AcDbEntity
  8
TOP_PASTE
100
AcDbTrace
 10
27.2458
 20
-28.0517
 30
0.0
 11
26.2458
 21
-28.0517
 31
0.0
 12
27.0458
 22
-27.8517
 32
0.0
 13
26.4458
 23
-27.8517
 33
0.0
  0
LWPOLYLINE
  5
481
330
6F
100
AcDbEntity
  8
TOP_PASTE
  6
Continuous
100
AcDbPolyline
 90
        3
 70
     0
 43
0.2
 10
25.2458
 20
-28.5517
 42
1.0
 10
25.4458
 20
-28.5517
 42
1.0
 10
25.2458
 20
-28.5517
 42
1.0
  0
LWPOLYLINE
  5
486
330
6F
100
AcDbEntity
  8
TOP_PASTE
  6
Continuous
100
AcDbPolyline
 90
        3
 70
     0
 43
0.2
 10
24.6458
 20
-28.5517
 42
1.0
 10
24.8458
 20
-28.5517
 42
1.0
 10
24.6458
 20
-28.5517
 42
1.0
  0
LWPOLYLINE
  5
48B
330
6F
100
AcDbEntity
  8
TOP_PASTE
  6
Continuous
100
AcDbPolyline
 90
        3
 70
     0
 43
0.2
 10
24.6458
 20
-28.0517
 42
1.0
 10
24.8458
 20
-28.0517
 42
1.0
 10
24.6458
 20
-28.0517
 42
1.0
  0
LWPOLYLINE
  5
490
330
6F
100
AcDbEntity
  8
TOP_PASTE
  6
Continuous
100
AcDbPolyline
 90
        3
 70
     0
 43
0.2
 10
25.2458
 20
-28.0517
 42
1.0
 10
25.4458
 20
-28.0517
 42
1.0
 10
25.2458
 20
-28.0517
 42
1.0
  0
SOLID
  5
495
330
6F
100
AcDbEntity
  8
TOP_PASTE
100
AcDbTrace
 10
25.5458
 20
-28.0517
 30
0.0
 11
25.5458
 21
-28.5517
 31
0.0
 12
24.7458
 22
-28.7517
 32
0.0
 13
25.3458
 23
-28.7517
 33
0.0
  0
SOLID
  5
496
330
6F
100
AcDbEntity
  8
TOP_PASTE
100
AcDbTrace
 10
25.5458
 20
-28.0517
 30
0.0
 11
24.7458
 21
-28.7517
 31
0.0
 12
24.5458
 22
-28.0517
 32
0.0
 13
24.5458
 23
-28.5517
 33
0.0
  0
SOLID
  5
497
330
6F
100
AcDbEntity
  8
TOP_PASTE
100
AcDbTrace
 10
25.5458
 20
-28.0517
 30
0.0
 11
24.5458
 21
-28.0517
 31
0.0
 12
25.3458
 22
-27.8517
 32
0.0
 13
24.7458
 23
-27.8517
 33
0.0
  0
LWPOLYLINE
  5
498
330
6F
100
AcDbEntity
  8
TOP_PASTE
  6
Continuous
100
AcDbPolyline
 90
        3
 70
     0
 43
0.197
 10
27.1503
 20
-21.5531
 42
1.0
 10
27.3473
 20
-21.5531
 42
1.0
 10
27.1503
 20
-21.5531
 42
1.0
  0
LWPOLYLINE
  5
49D
330
6F
100
AcDbEntity
  8
TOP_PASTE
  6
Continuous
100
AcDbPolyline
 90
        3
 70
     0
 43
0.197
 10
26.3443
 20
-21.5531
 42
1.0
 10
26.5413
 20
-21.5531
 42
1.0
 10
26.3443
 20
-21.5531
 42
1.0
  0
LWPOLYLINE
  5
4A2
330
6F
100
AcDbEntity
  8
TOP_PASTE
  6
Continuous
100
AcDbPolyline
 90
        3
 70
     0
 43
0.197
 10
26.3443
 20
-20.5471
 42
1.0
 10
26.5413
 20
-20.5471
 42
1.0
 10
26.3443
 20
-20.5471
 42
1.0
  0
LWPOLYLINE
  5
4A7
330
6F
100
AcDbEntity
  8
TOP_PASTE
  6
Continuous
100
AcDbPolyline
 90
        3
 70
     0
 43
0.197
 10
27.1503
 20
-20.5471
 42
1.0
 10
27.3473
 20
-20.5471
 42
1.0
 10
27.1503
 20
-20.5471
 42
1.0
  0
SOLID
  5
4AC
330
6F
100
AcDbEntity
  8
TOP_PASTE
100
AcDbTrace
 10
27.4458
 20
-20.5471
 30
0.0
 11
27.4458
 21
-21.5531
 31
0.0
 12
26.4428
 22
-21.7501
 32
0.0
 13
27.2488
 23
-21.7501
 33
0.0
  0
SOLID
  5
4AD
330
6F
100
AcDbEntity
  8
TOP_PASTE
100
AcDbTrace
 10
27.4458
 20
-20.5471
 30
0.0
 11
26.4428
 21
-21.7501
 31
0.0
 12
26.2458
 22
-20.5471
 32
0.0
 13
26.2458
 23
-21.5531
 33
0.0
  0
SOLID
  5
4AE
330
6F
100
AcDbEntity
  8
TOP_PASTE
100
AcDbTrace
 10
27.4458
 20
-20.5471
 30
0.0
 11
26.2458
 21
-20.5471
 31
0.0
 12
27.2488
 22
-20.3501
 32
0.0
 13
26.4428
 23
-20.3501
 33
0.0
  0
LWPOLYLINE
  5
4AF
330
6F
100
AcDbEntity
  8
TOP_PASTE
  6
Continuous
100
AcDbPolyline
 90
        3
 70
     0
 43
0.197
 10
25.2503
 20
-21.5531
 42
1.0
 10
25.4473
 20
-21.5531
 42
1.0
 10
25.2503
 20
-21.5531
 42
1.0
  0
LWPOLYLINE
  5
4B4
330
6F
100
AcDbEntity
  8
TOP_PASTE
  6
Continuous
100
AcDbPolyline
 90
        3
 70
     0
 43
0.197
 10
24.4443
 20
-21.5531
 42
1.0
 10
24.6413
 20
-21.5531
 42
1.0
 10
24.4443
 20
-21.5531
 42
1.0
  0
LWPOLYLINE
  5
4B9
330
6F
100
AcDbEntity
  8
TOP_PASTE
  6
Continuous
100
AcDbPolyline
 90
        3
 70
     0
 43
0.197
 10
24.4443
 20
-20.5471
 42
1.0
 10
24.6413
 20
-20.5471
 42
1.0
 10
24.4443
 20
-20.5471
 42
1.0
  0
LWPOLYLINE
  5
4BE
330
6F
100
AcDbEntity
  8
TOP_PASTE
  6
Continuous
100
AcDbPolyline
 90
        3
 70
     0
 43
0.197
 10
25.2503
 20
-20.5471
 42
1.0
 10
25.4473
 20
-20.5471
 42
1.0
 10
25.2503
 20
-20.5471
 42
1.0
  0
SOLID
  5
4C3
330
6F
100
AcDbEntity
  8
TOP_PASTE
100
AcDbTrace
 10
25.5458
 20
-20.5471
 30
0.0
 11
25.5458
 21
-21.5531
 31
0.0
 12
24.5428
 22
-21.7501
 32
0.0
 13
25.3488
 23
-21.7501
 33
0.0
  0
SOLID
  5
4C4
330
6F
100
AcDbEntity
  8
TOP_PASTE
100
AcDbTrace
 10
25.5458
 20
-20.5471
 30
0.0
 11
24.5428
 21
-21.7501
 31
0.0
 12
24.3458
 22
-20.5471
 32
0.0
 13
24.3458
 23
-21.5531
 33
0.0
  0
SOLID
  5
4C5
330
6F
100
AcDbEntity
  8
TOP_PASTE
100
AcDbTrace
 10
25.5458
 20
-20.5471
 30
0.0
 11
24.3458
 21
-20.5471
 31
0.0
 12
25.3488
 22
-20.3501
 32
0.0
 13
24.5428
 23
-20.3501
 33
0.0
  0
LWPOLYLINE
  5
4C6
330
6F
100
AcDbEntity
  8
TOP_PASTE
  6
Continuous
100
AcDbPolyline
 90
        3
 70
     0
 43
0.197
 10
30.219
 20
-23.0507
 42
1.0
 10
30.416
 20
-23.0507
 42
1.0
 10
30.219
 20
-23.0507
 42
1.0
  0
LWPOLYLINE
  5
4CB
330
6F
100
AcDbEntity
  8
TOP_PASTE
  6
Continuous
100
AcDbPolyline
 90
        3
 70
     0
 43
0.197
 10
31.025
 20
-23.0507
 42
1.0
 10
31.222
 20
-23.0507
 42
1.0
 10
31.025
 20
-23.0507
 42
1.0
  0
LWPOLYLINE
  5
4D0
330
6F
100
AcDbEntity
  8
TOP_PASTE
  6
Continuous
100
AcDbPolyline
 90
        3
 70
     0
 43
0.197
 10
31.025
 20
-24.0567
 42
1.0
 10
31.222
 20
-24.0567
 42
1.0
 10
31.025
 20
-24.0567
 42
1.0
  0
LWPOLYLINE
  5
4D5
330
6F
100
AcDbEntity
  8
TOP_PASTE
  6
Continuous
100
AcDbPolyline
 90
        3
 70
     0
 43
0.197
 10
30.219
 20
-24.0567
 42
1.0
 10
30.416
 20
-24.0567
 42
1.0
 10
30.219
 20
-24.0567
 42
1.0
  0
SOLID
  5
4DA
330
6F
100
AcDbEntity
  8
TOP_PASTE
100
AcDbTrace
 10
30.1205
 20
-24.0567
 30
0.0
 11
30.1205
 21
-23.0507
 31
0.0
 12
31.1235
 22
-22.8537
 32
0.0
 13
30.3175
 23
-22.8537
 33
0.0
  0
SOLID
  5
4DB
330
6F
100
AcDbEntity
  8
TOP_PASTE
100
AcDbTrace
 10
30.1205
 20
-24.0567
 30
0.0
 11
31.1235
 21
-22.8537
 31
0.0
 12
31.3205
 22
-24.0567
 32
0.0
 13
31.3205
 23
-23.0507
 33
0.0
  0
SOLID
  5
4DC
330
6F
100
AcDbEntity
  8
TOP_PASTE
100
AcDbTrace
 10
30.1205
 20
-24.0567
 30
0.0
 11
31.3205
 21
-24.0567
 31
0.0
 12
30.3175
 22
-24.2537
 32
0.0
 13
31.1235
 23
-24.2537
 33
0.0
  0
LWPOLYLINE
  5
4DD
330
6F
100
AcDbEntity
  8
TOP_PASTE
  6
Continuous
100
AcDbPolyline
 90
        3
 70
     0
 43
0.197
 10
32.119
 20
-23.0507
 42
1.0
 10
32.316
 20
-23.0507
 42
1.0
 10
32.119
 20
-23.0507
 42
1.0
  0
LWPOLYLINE
  5
4E2
330
6F
100
AcDbEntity
  8
TOP_PASTE
  6
Continuous
100
AcDbPolyline
 90
        3
 70
     0
 43
0.197
 10
32.925
 20
-23.0507
 42
1.0
 10
33.122
 20
-23.0507
 42
1.0
 10
32.925
 20
-23.0507
 42
1.0
  0
LWPOLYLINE
  5
4E7
330
6F
100
AcDbEntity
  8
TOP_PASTE
  6
Continuous
100
AcDbPolyline
 90
        3
 70
     0
 43
0.197
 10
32.925
 20
-24.0567
 42
1.0
 10
33.122
 20
-24.0567
 42
1.0
 10
32.925
 20
-24.0567
 42
1.0
  0
LWPOLYLINE
  5
4EC
330
6F
100
AcDbEntity
  8
TOP_PASTE
  6
Continuous
100
AcDbPolyline
 90
        3
 70
     0
 43
0.197
 10
32.119
 20
-24.0567
 42
1.0
 10
32.316
 20
-24.0567
 42
1.0
 10
32.119
 20
-24.0567
 42
1.0
  0
SOLID
  5
4F1
330
6F
100
AcDbEntity
  8
TOP_PASTE
100
AcDbTrace
 10
32.0205
 20
-24.0567
 30
0.0
 11
32.0205
 21
-23.0507
 31
0.0
 12
33.0235
 22
-22.8537
 32
0.0
 13
32.2175
 23
-22.8537
 33
0.0
  0
SOLID
  5
4F2
330
6F
100
AcDbEntity
  8
TOP_PASTE
100
AcDbTrace
 10
32.0205
 20
-24.0567
 30
0.0
 11
33.0235
 21
-22.8537
 31
0.0
 12
33.2205
 22
-24.0567
 32
0.0
 13
33.2205
 23
-23.0507
 33
0.0
  0
SOLID
  5
4F3
330
6F
100
AcDbEntity
  8
TOP_PASTE
100
AcDbTrace
 10
32.0205
 20
-24.0567
 30
0.0
 11
33.2205
 21
-24.0567
 31
0.0
 12
32.2175
 22
-24.2537
 32
0.0
 13
33.0235
 23
-24.2537
 33
0.0
  0
SOLID
  5
4F4
330
6F
100
AcDbEntity
  8
TOP_PASTE
100
AcDbTrace
 10
35.765
 20
-18.275
 30
0.0
 11
37.235
 21
-18.275
 31
0.0
 12
35.765
 22
-18.585
 32
0.0
 13
37.235
 23
-18.585
 33
0.0
  0
SOLID
  5
4F5
330
6F
100
AcDbEntity
  8
TOP_PASTE
100
AcDbTrace
 10
41.505
 20
-17.625
 30
0.0
 11
42.975
 21
-17.625
 31
0.0
 12
41.505
 22
-17.935
 32
0.0
 13
42.975
 23
-17.935
 33
0.0
  0
SOLID
  5
4F6
330
6F
100
AcDbEntity
  8
TOP_PASTE
100
AcDbTrace
 10
41.505
 20
-18.275
 30
0.0
 11
42.975
 21
-18.275
 31
0.0
 12
41.505
 22
-18.585
 32
0.0
 13
42.975
 23
-18.585
 33
0.0
  0
SOLID
  5
4F7
330
6F
100
AcDbEntity
  8
TOP_PASTE
100
AcDbTrace
 10
35.765
 20
-15.675
 30
0.0
 11
37.235
 21
-15.675
 31
0.0
 12
35.765
 22
-15.985
 32
0.0
 13
37.235
 23
-15.985
 33
0.0
  0
SOLID
  5
4F8
330
6F
100
AcDbEntity
  8
TOP_PASTE
100
AcDbTrace
 10
41.505
 20
-16.975
 30
0.0
 11
42.975
 21
-16.975
 31
0.0
 12
41.505
 22
-17.285
 32
0.0
 13
42.975
 23
-17.285
 33
0.0
  0
SOLID
  5
4F9
330
6F
100
AcDbEntity
  8
TOP_PASTE
100
AcDbTrace
 10
35.765
 20
-16.975
 30
0.0
 11
37.235
 21
-16.975
 31
0.0
 12
35.765
 22
-17.285
 32
0.0
 13
37.235
 23
-17.285
 33
0.0
  0
SOLID
  5
4FA
330
6F
100
AcDbEntity
  8
TOP_PASTE
100
AcDbTrace
 10
35.765
 20
-17.625
 30
0.0
 11
37.235
 21
-17.625
 31
0.0
 12
35.765
 22
-17.935
 32
0.0
 13
37.235
 23
-17.935
 33
0.0
  0
SOLID
  5
4FB
330
6F
100
AcDbEntity
  8
TOP_PASTE
100
AcDbTrace
 10
41.505
 20
-15.675
 30
0.0
 11
42.975
 21
-15.675
 31
0.0
 12
41.505
 22
-15.985
 32
0.0
 13
42.975
 23
-15.985
 33
0.0
  0
SOLID
  5
4FC
330
6F
100
AcDbEntity
  8
TOP_PASTE
100
AcDbTrace
 10
41.505
 20
-18.925
 30
0.0
 11
42.975
 21
-18.925
 31
0.0
 12
41.505
 22
-19.235
 32
0.0
 13
42.975
 23
-19.235
 33
0.0
  0
SOLID
  5
4FD
330
6F
100
AcDbEntity
  8
TOP_PASTE
100
AcDbTrace
 10
41.505
 20
-19.575
 30
0.0
 11
42.975
 21
-19.575
 31
0.0
 12
41.505
 22
-19.885
 32
0.0
 13
42.975
 23
-19.885
 33
0.0
  0
SOLID
  5
4FE
330
6F
100
AcDbEntity
  8
TOP_PASTE
100
AcDbTrace
 10
35.765
 20
-16.325
 30
0.0
 11
37.235
 21
-16.325
 31
0.0
 12
35.765
 22
-16.635
 32
0.0
 13
37.235
 23
-16.635
 33
0.0
  0
SOLID
  5
4FF
330
6F
100
AcDbEntity
  8
TOP_PASTE
100
AcDbTrace
 10
41.505
 20
-16.325
 30
0.0
 11
42.975
 21
-16.325
 31
0.0
 12
41.505
 22
-16.635
 32
0.0
 13
42.975
 23
-16.635
 33
0.0
  0
SOLID
  5
500
330
6F
100
AcDbEntity
  8
TOP_PASTE
100
AcDbTrace
 10
35.765
 20
-19.575
 30
0.0
 11
37.235
 21
-19.575
 31
0.0
 12
35.765
 22
-19.885
 32
0.0
 13
37.235
 23
-19.885
 33
0.0
  0
SOLID
  5
501
330
6F
100
AcDbEntity
  8
TOP_PASTE
100
AcDbTrace
 10
35.765
 20
-18.925
 30
0.0
 11
37.235
 21
-18.925
 31
0.0
 12
35.765
 22
-19.235
 32
0.0
 13
37.235
 23
-19.235
 33
0.0
  0
SOLID
  5
502
330
6F
100
AcDbEntity
  8
TOP_PASTE
100
AcDbTrace
 10
26.875
 20
-7.2
 30
0.0
 11
28.345
 21
-7.2
 31
0.0
 12
26.875
 22
-7.509999999999999
 32
0.0
 13
28.345
 23
-7.509999999999999
 33
0.0
  0
SOLID
  5
503
330
6F
100
AcDbEntity
  8
TOP_PASTE
100
AcDbTrace
 10
32.615
 20
-2.649999999999999
 30
0.0
 11
34.085
 21
-2.649999999999999
 31
0.0
 12
32.615
 22
-2.959999999999999
 32
0.0
 13
34.085
 23
-2.959999999999999
 33
0.0
  0
SOLID
  5
504
330
6F
100
AcDbEntity
  8
TOP_PASTE
100
AcDbTrace
 10
26.875
 20
-4.599999999999999
 30
0.0
 11
28.345
 21
-4.599999999999999
 31
0.0
 12
26.875
 22
-4.91
 32
0.0
 13
28.345
 23
-4.91
 33
0.0
  0
SOLID
  5
505
330
6F
100
AcDbEntity
  8
TOP_PASTE
100
AcDbTrace
 10
32.615
 20
-6.549999999999999
 30
0.0
 11
34.085
 21
-6.549999999999999
 31
0.0
 12
32.615
 22
-6.86
 32
0.0
 13
34.085
 23
-6.86
 33
0.0
  0
SOLID
  5
506
330
6F
100
AcDbEntity
  8
TOP_PASTE
100
AcDbTrace
 10
32.615
 20
-9.15
 30
0.0
 11
34.085
 21
-9.15
 31
0.0
 12
32.615
 22
-9.46
 32
0.0
 13
34.085
 23
-9.46
 33
0.0
  0
SOLID
  5
507
330
6F
100
AcDbEntity
  8
TOP_PASTE
100
AcDbTrace
 10
26.875
 20
-3.299999999999999
 30
0.0
 11
28.345
 21
-3.299999999999999
 31
0.0
 12
26.875
 22
-3.609999999999999
 32
0.0
 13
28.345
 23
-3.609999999999999
 33
0.0
  0
SOLID
  5
508
330
6F
100
AcDbEntity
  8
TOP_PASTE
100
AcDbTrace
 10
32.615
 20
-7.849999999999999
 30
0.0
 11
34.085
 21
-7.849999999999999
 31
0.0
 12
32.615
 22
-8.16
 32
0.0
 13
34.085
 23
-8.16
 33
0.0
  0
SOLID
  5
509
330
6F
100
AcDbEntity
  8
TOP_PASTE
100
AcDbTrace
 10
26.875
 20
-0.7
 30
0.0
 11
28.345
 21
-0.7
 31
0.0
 12
26.875
 22
-1.01
 32
0.0
 13
28.345
 23
-1.01
 33
0.0
  0
SOLID
  5
50A
330
6F
100
AcDbEntity
  8
TOP_PASTE
100
AcDbTrace
 10
26.875
 20
-1.35
 30
0.0
 11
28.345
 21
-1.35
 31
0.0
 12
26.875
 22
-1.659999999999999
 32
0.0
 13
28.345
 23
-1.659999999999999
 33
0.0
  0
SOLID
  5
50B
330
6F
100
AcDbEntity
  8
TOP_PASTE
100
AcDbTrace
 10
32.615
 20
-7.2
 30
0.0
 11
34.085
 21
-7.2
 31
0.0
 12
32.615
 22
-7.509999999999999
 32
0.0
 13
34.085
 23
-7.509999999999999
 33
0.0
  0
SOLID
  5
50C
330
6F
100
AcDbEntity
  8
TOP_PASTE
100
AcDbTrace
 10
32.615
 20
-5.9
 30
0.0
 11
34.085
 21
-5.9
 31
0.0
 12
32.615
 22
-6.209999999999999
 32
0.0
 13
34.085
 23
-6.209999999999999
 33
0.0
  0
SOLID
  5
50D
330
6F
100
AcDbEntity
  8
TOP_PASTE
100
AcDbTrace
 10
32.615
 20
-8.5
 30
0.0
 11
34.085
 21
-8.5
 31
0.0
 12
32.615
 22
-8.81
 32
0.0
 13
34.085
 23
-8.81
 33
0.0
  0
SOLID
  5
50E
330
6F
100
AcDbEntity
  8
TOP_PASTE
100
AcDbTrace
 10
26.875
 20
-2.0
 30
0.0
 11
28.345
 21
-2.0
 31
0.0
 12
26.875
 22
-2.31
 32
0.0
 13
28.345
 23
-2.31
 33
0.0
  0
SOLID
  5
50F
330
6F
100
AcDbEntity
  8
TOP_PASTE
100
AcDbTrace
 10
32.615
 20
-3.95
 30
0.0
 11
34.085
 21
-3.95
 31
0.0
 12
32.615
 22
-4.259999999999999
 32
0.0
 13
34.085
 23
-4.259999999999999
 33
0.0
  0
SOLID
  5
510
330
6F
100
AcDbEntity
  8
TOP_PASTE
100
AcDbTrace
 10
32.615
 20
-3.299999999999999
 30
0.0
 11
34.085
 21
-3.299999999999999
 31
0.0
 12
32.615
 22
-3.609999999999999
 32
0.0
 13
34.085
 23
-3.609999999999999
 33
0.0
  0
SOLID
  5
511
330
6F
100
AcDbEntity
  8
TOP_PASTE
100
AcDbTrace
 10
32.615
 20
-4.599999999999999
 30
0.0
 11
34.085
 21
-4.599999999999999
 31
0.0
 12
32.615
 22
-4.91
 32
0.0
 13
34.085
 23
-4.91
 33
0.0
  0
SOLID
  5
512
330
6F
100
AcDbEntity
  8
TOP_PASTE
100
AcDbTrace
 10
26.875
 20
-7.849999999999999
 30
0.0
 11
28.345
 21
-7.849999999999999
 31
0.0
 12
26.875
 22
-8.16
 32
0.0
 13
28.345
 23
-8.16
 33
0.0
  0
SOLID
  5
513
330
6F
100
AcDbEntity
  8
TOP_PASTE
100
AcDbTrace
 10
26.875
 20
-2.649999999999999
 30
0.0
 11
28.345
 21
-2.649999999999999
 31
0.0
 12
26.875
 22
-2.959999999999999
 32
0.0
 13
28.345
 23
-2.959999999999999
 33
0.0
  0
SOLID
  5
514
330
6F
100
AcDbEntity
  8
TOP_PASTE
100
AcDbTrace
 10
26.875
 20
-3.95
 30
0.0
 11
28.345
 21
-3.95
 31
0.0
 12
26.875
 22
-4.259999999999999
 32
0.0
 13
28.345
 23
-4.259999999999999
 33
0.0
  0
SOLID
  5
515
330
6F
100
AcDbEntity
  8
TOP_PASTE
100
AcDbTrace
 10
26.875
 20
-6.549999999999999
 30
0.0
 11
28.345
 21
-6.549999999999999
 31
0.0
 12
26.875
 22
-6.86
 32
0.0
 13
28.345
 23
-6.86
 33
0.0
  0
SOLID
  5
516
330
6F
100
AcDbEntity
  8
TOP_PASTE
100
AcDbTrace
 10
26.875
 20
-5.25
 30
0.0
 11
28.345
 21
-5.25
 31
0.0
 12
26.875
 22
-5.559999999999999
 32
0.0
 13
28.345
 23
-5.559999999999999
 33
0.0
  0
SOLID
  5
517
330
6F
100
AcDbEntity
  8
TOP_PASTE
100
AcDbTrace
 10
26.875
 20
-5.9
 30
0.0
 11
28.345
 21
-5.9
 31
0.0
 12
26.875
 22
-6.209999999999999
 32
0.0
 13
28.345
 23
-6.209999999999999
 33
0.0
  0
SOLID
  5
518
330
6F
100
AcDbEntity
  8
TOP_PASTE
100
AcDbTrace
 10
32.615
 20
-5.25
 30
0.0
 11
34.085
 21
-5.25
 31
0.0
 12
32.615
 22
-5.559999999999999
 32
0.0
 13
34.085
 23
-5.559999999999999
 33
0.0
  0
SOLID
  5
519
330
6F
100
AcDbEntity
  8
TOP_PASTE
100
AcDbTrace
 10
26.875
 20
-8.5
 30
0.0
 11
28.345
 21
-8.5
 31
0.0
 12
26.875
 22
-8.81
 32
0.0
 13
28.345
 23
-8.81
 33
0.0
  0
SOLID
  5
51A
330
6F
100
AcDbEntity
  8
TOP_PASTE
100
AcDbTrace
 10
26.875
 20
-9.15
 30
0.0
 11
28.345
 21
-9.15
 31
0.0
 12
26.875
 22
-9.46
 32
0.0
 13
28.345
 23
-9.46
 33
0.0
  0
SOLID
  5
51B
330
6F
100
AcDbEntity
  8
TOP_PASTE
100
AcDbTrace
 10
32.615
 20
-0.7
 30
0.0
 11
34.085
 21
-0.7
 31
0.0
 12
32.615
 22
-1.01
 32
0.0
 13
34.085
 23
-1.01
 33
0.0
  0
SOLID
  5
51C
330
6F
100
AcDbEntity
  8
TOP_PASTE
100
AcDbTrace
 10
32.615
 20
-1.35
 30
0.0
 11
34.085
 21
-1.35
 31
0.0
 12
32.615
 22
-1.659999999999999
 32
0.0
 13
34.085
 23
-1.659999999999999
 33
0.0
  0
SOLID
  5
51D
330
6F
100
AcDbEntity
  8
TOP_PASTE
100
AcDbTrace
 10
32.615
 20
-2.0
 30
0.0
 11
34.085
 21
-2.0
 31
0.0
 12
32.615
 22
-2.31
 32
0.0
 13
34.085
 23
-2.31
 33
0.0
  0
SOLID
  5
51E
330
6F
100
AcDbEntity
  8
TOP_PASTE
100
AcDbTrace
 10
32.0828
 20
-25.7137
 30
0.0
 11
33.0828
 21
-25.7137
 31
0.0
 12
32.0828
 22
-26.9137
 32
0.0
 13
33.0828
 23
-26.9137
 33
0.0
  0
SOLID
  5
51F
330
6F
100
AcDbEntity
  8
TOP_PASTE
100
AcDbTrace
 10
30.4328
 20
-25.7137
 30
0.0
 11
31.4328
 21
-25.7137
 31
0.0
 12
30.4328
 22
-26.9137
 32
0.0
 13
31.4328
 23
-26.9137
 33
0.0
  0
SOLID
  5
520
330
6F
100
AcDbEntity
  8
TOP_PASTE
100
AcDbTrace
 10
30.4328
 20
-27.8137
 30
0.0
 11
31.4328
 21
-27.8137
 31
0.0
 12
30.4328
 22
-29.0137
 32
0.0
 13
31.4328
 23
-29.0137
 33
0.0
  0
SOLID
  5
521
330
6F
100
AcDbEntity
  8
TOP_PASTE
100
AcDbTrace
 10
32.0828
 20
-27.8137
 30
0.0
 11
33.0828
 21
-27.8137
 31
0.0
 12
32.0828
 22
-29.0137
 32
0.0
 13
33.0828
 23
-29.0137
 33
0.0
  0
LWPOLYLINE
  5
52B
330
6F
100
AcDbEntity
  8
0
100
AcDbPolyline
 90
        4
 70
     1
 43
0.0
 10
-14.37713171107231
 20
57.49780375522428
 10
119.1070579210818
 20
57.49780375522428
 10
119.1070579210818
 20
-61.08449222091289
 10
-14.37713171107231
 20
-61.08449222091289
  0
ENDSEC
  0
SECTION
  2
OBJECTS
  0
DICTIONARY
  5
C
330
0
100
AcDbDictionary
281
     1
  3
ACAD_CIP_PREVIOUS_PRODUCT_INFO
350
523
  3
ACAD_COLOR
350
62
  3
ACAD_DETAILVIEWSTYLE
350
69
  3
ACAD_GROUP
350
D
  3
ACAD_LAST_SAVED_VERSION_INFO
350
52C
  3
ACAD_LAYOUT
350
61
  3
ACAD_MATERIAL
350
10
  3
ACAD_MLEADERSTYLE
350
65
  3
ACAD_MLINESTYLE
350
5E
  3
ACAD_PLOTSETTINGS
350
60
  3
ACAD_PLOTSTYLENAME
350
E
  3
ACAD_SCALELIST
350
42
  3
ACAD_SECTIONVIEWSTYLE
350
67
  3
ACAD_TABLESTYLE
350
63
  3
ACAD_VISUALSTYLE
350
29
  3
ACDB_RECOMPOSE_DATA
350
548
  3
AcDbVariableDictionary
350
53C
  0
DICTIONARY
  5
52D
330
54
100
AcDbDictionary
280
     1
281
     1
  3
ADSK_XREC_LAYER_RECONCILED
360
52E
  0
DICTIONARY
  5
52F
330
73
100
AcDbDictionary
280
     1
281
     1
  3
ADSK_XREC_LAYER_RECONCILED
360
530
  0
XRECORD
  5
523
102
{ACAD_REACTORS
330
C
102
}
330
C
100
AcDbXrecord
280
     1
300
ACD
300
2024
300

  0
DICTIONARY
  5
62
102
{ACAD_REACTORS
330
C
102
}
330
C
100
AcDbDictionary
281
     1
  0
DICTIONARY
  5
69
102
{ACAD_REACTORS
330
C
102
}
330
C
100
AcDbDictionary
281
     1
  3
Imperial24
350
6A
  0
DICTIONARY
  5
D
102
{ACAD_REACTORS
330
C
102
}
330
C
100
AcDbDictionary
281
     1
  0
XRECORD
  5
52C
102
{ACAD_REACTORS
330
C
102
}
330
C
100
AcDbXrecord
280
     1
300
{FB03862F-D1BB-0F46-9B77-C130363F020C}
301
{D7F74CBB-B840-1D48-88C7-6EF8D2B9AC5E}
302
{FB03862F-D1BB-0F46-9B77-C130363F020C}
303
C:\Users\ellix\Documents Local\pipyns.github.io\ee\upcb paste w box.dxf
  0
DICTIONARY
  5
61
102
{ACAD_REACTORS
330
C
102
}
330
C
100
AcDbDictionary
281
     1
  3
Layout1
350
6E
  3
Model
350
72
  0
DICTIONARY
  5
10
102
{ACAD_REACTORS
330
C
102
}
330
C
100
AcDbDictionary
281
     1
  3
ByBlock
350
19
  3
ByLayer
350
11
  3
Global
350
21
  0
DICTIONARY
  5
65
102
{ACAD_REACTORS
330
C
102
}
330
C
100
AcDbDictionary
281
     1
  3
Standard
350
66
  0
DICTIONARY
  5
5E
102
{ACAD_REACTORS
330
C
102
}
330
C
100
AcDbDictionary
281
     1
  3
Standard
350
5F
  0
DICTIONARY
  5
60
102
{ACAD_REACTORS
330
C
102
}
330
C
100
AcDbDictionary
281
     1
  0
ACDBDICTIONARYWDFLT
  5
E
102
{ACAD_REACTORS
330
C
102
}
330
C
100
AcDbDictionary
281
     1
  3
Normal
350
F
100
AcDbDictionaryWithDefault
340
F
  0
DICTIONARY
  5
42
102
{ACAD_REACTORS
330
C
102
}
330
C
100
AcDbDictionary
281
     1
  3
A0
350
43
  3
A1
350
44
  3
A2
350
45
  3
A3
350
46
  3
A4
350
47
  3
A5
350
48
  3
A6
350
49
  3
A7
350
4A
  3
A8
350
4B
  3
A9
350
4C
  3
B0
350
4D
  3
B1
350
4E
  3
B2
350
4F
  3
B3
350
50
  3
B4
350
51
  3
B5
350
52
  3
B6
350
53
  0
DICTIONARY
  5
67
102
{ACAD_REACTORS
330
C
102
}
330
C
100
AcDbDictionary
281
     1
  3
Imperial24
350
68
  0
DICTIONARY
  5
63
102
{ACAD_REACTORS
330
C
102
}
330
C
100
AcDbDictionary
281
     1
  3
Standard
350
64
  0
DICTIONARY
  5
29
102
{ACAD_REACTORS
330
C
102
}
330
C
100
AcDbDictionary
281
     1
  3
2dWireframe
350
2F
  3
Basic
350
2E
  3
Brighten
350
35
  3
ColorChange
350
39
  3
Conceptual
350
32
  3
Dim
350
34
  3
EdgeColorOff
350
41
  3
Facepattern
350
38
  3
Flat
350
2A
  3
FlatWithEdges
350
2B
  3
Gouraud
350
2C
  3
GouraudWithEdges
350
2D
  3
Hidden
350
31
  3
JitterOff
350
3F
  3
Linepattern
350
37
  3
OverhangOff
350
40
  3
Realistic
350
33
  3
Shaded
350
3E
  3
Shaded with edges
350
3D
  3
Shades of Gray
350
3A
  3
Sketchy
350
3B
  3
Thicken
350
36
  3
Wireframe
350
30
  3
X-Ray
350
3C
  0
XRECORD
  5
548
102
{ACAD_REACTORS
330
C
102
}
330
C
100
AcDbXrecord
280
     1
 90
        1
330
64
  0
DICTIONARY
  5
53C
102
{ACAD_REACTORS
330
C
102
}
330
C
100
AcDbDictionary
281
     1
  3
CANNOSCALE
350
542
  3
CMLEADERSTYLE
350
53E
  3
CTABLESTYLE
350
53D
  3
CVIEWDETAILSTYLE
350
53F
  3
CVIEWSECTIONSTYLE
350
540
  3
LAYEREVAL
350
544
  3
LAYERNOTIFY
350
545
  3
LIGHTINGUNITS
350
543
  3
MSLTSCALE
350
541
  0
XRECORD
  5
52E
102
{ACAD_REACTORS
330
52D
102
}
330
52D
100
AcDbXrecord
280
     1
290
     1
  0
XRECORD
  5
530
102
{ACAD_REACTORS
330
52F
102
}
330
52F
100
AcDbXrecord
280
     1
290
     1
  0
ACDBDETAILVIEWSTYLE
  5
6A
102
{ACAD_REACTORS
330
69
102
}
330
69
100
AcDbModelDocViewStyle
 70
     0
  3
Imperial24
290
     0
300
Imperial24
 90
        0
100
AcDbDetailViewStyle
 70
     0
 71
     0
 90
        3
 71
     1
340
55
 62
   256
 40
0.24
340
0
 62
   256
 40
0.24
300

 40
0.36
280
     3
 71
     2
340
5C
 90
       25
 62
   256
 71
     3
340
55
 62
   256
 40
0.24
 90
        1
 40
0.75
 90
        1
300
%<\AcVar ViewType \f "%tc1">% %<\AcVar ViewDetailId>%\PSCALE %<\AcVar ViewScale \f "%sn">%
 71
     4
340
5C
 90
       25
 62
   256
340
5C
 90
       25
 62
   256
280
     0
  0
LAYOUT
  5
6E
102
{ACAD_REACTORS
330
61
102
}
330
61
100
AcDbPlotSettings
  1

  2
Microsoft Print to PDF
  4

  6

 40
0.0
 41
0.0
 42
0.0
 43
0.0
 44
0.0
 45
0.0
 46
0.0
 47
0.0
 48
0.0
 49
0.0
140
0.0
141
0.0
142
1.0
143
1.0
 70
   688
 72
     0
 73
     0
 74
     5
  7

 75
    16
147
1.0
 76
     0
 77
     2
 78
   300
148
0.0
149
0.0
100
AcDbLayout
  1
Layout1
 70
     1
 71
     1
 10
0.0
 20
0.0
 11
12.0
 21
9.0
 12
0.0
 22
0.0
 32
0.0
 14
1.000000000000000E+20
 24
1.000000000000000E+20
 34
1.000000000000000E+20
 15
-1.000000000000000E+20
 25
-1.000000000000000E+20
 35
-1.000000000000000E+20
146
0.0
 13
0.0
 23
0.0
 33
0.0
 16
1.0
 26
0.0
 36
0.0
 17
0.0
 27
1.0
 37
0.0
 76
     0
330
6B
  0
LAYOUT
  5
72
102
{ACAD_REACTORS
330
61
102
}
330
61
100
AcDbPlotSettings
  1

  2
Microsoft Print to PDF
  4

  6

 40
0.0
 41
0.0
 42
0.0
 43
0.0
 44
0.0
 45
0.0
 46
0.0
 47
0.0
 48
0.0
 49
0.0
140
0.0
141
0.0
142
1.0
143
1.0
 70
  1712
 72
     0
 73
     0
 74
     0
  7

 75
     0
147
1.0
 76
     0
 77
     2
 78
   300
148
0.0
149
0.0
100
AcDbLayout
  1
Model
 70
     1
 71
     0
 10
0.0
 20
0.0
 11
12.0
 21
9.0
 12
0.0
 22
0.0
 32
0.0
 14
0.0
 24
0.0
 34
0.0
 15
0.0
 25
0.0
 35
0.0
146
0.0
 13
0.0
 23
0.0
 33
0.0
 16
1.0
 26
0.0
 36
0.0
 17
0.0
 27
1.0
 37
0.0
 76
     0
330
6F
331
75
  0
MATERIAL
  5
19
102
{ACAD_XDICTIONARY
360
1A
102
}
102
{ACAD_REACTORS
330
10
102
}
330
10
100
AcDbMaterial
  1
ByBlock
 72
     0
 43
0.0208333333333333
 43
0.0
 43
0.0
 43
0.0
 43
0.0
 43
0.0208333333333333
 43
0.0
 43
0.0
 43
0.0
 43
0.0
 43
1.0
 43
0.0
 43
0.0
 43
0.0
 43
0.0
 43
1.0
 77
     0
 47
0.0208333333333333
 47
0.0
 47
0.0
 47
0.0
 47
0.0
 47
0.0208333333333333
 47
0.0
 47
0.0
 47
0.0
 47
0.0
 47
1.0
 47
0.0
 47
0.0
 47
0.0
 47
0.0
 47
1.0
171
     0
 49
0.0208333333333333
 49
0.0
 49
0.0
 49
0.0
 49
0.0
 49
0.0208333333333333
 49
0.0
 49
0.0
 49
0.0
 49
0.0
 49
1.0
 49
0.0
 49
0.0
 49
0.0
 49
0.0
 49
1.0
175
     0
142
0.0208333333333333
142
0.0
142
0.0
142
0.0
142
0.0
142
0.0208333333333333
142
0.0
142
0.0
142
0.0
142
0.0
142
1.0
142
0.0
142
0.0
142
0.0
142
0.0
142
1.0
179
     0
144
0.0208333333333333
144
0.0
144
0.0
144
0.0
144
0.0
144
0.0208333333333333
144
0.0
144
0.0
144
0.0
144
0.0
144
1.0
144
0.0
144
0.0
144
0.0
144
0.0
144
1.0
147
0.0208333333333333
147
0.0
147
0.0
147
0.0
147
0.0
147
0.0208333333333333
147
0.0
147
0.0
147
0.0
147
0.0
147
1.0
147
0.0
147
0.0
147
0.0
147
0.0
147
1.0
  0
MATERIAL
  5
11
102
{ACAD_XDICTIONARY
360
12
102
}
102
{ACAD_REACTORS
330
10
102
}
330
10
100
AcDbMaterial
  1
ByLayer
 72
     0
 43
0.0208333333333333
 43
0.0
 43
0.0
 43
0.0
 43
0.0
 43
0.0208333333333333
 43
0.0
 43
0.0
 43
0.0
 43
0.0
 43
1.0
 43
0.0
 43
0.0
 43
0.0
 43
0.0
 43
1.0
 77
     0
 47
0.0208333333333333
 47
0.0
 47
0.0
 47
0.0
 47
0.0
 47
0.0208333333333333
 47
0.0
 47
0.0
 47
0.0
 47
0.0
 47
1.0
 47
0.0
 47
0.0
 47
0.0
 47
0.0
 47
1.0
171
     0
 49
0.0208333333333333
 49
0.0
 49
0.0
 49
0.0
 49
0.0
 49
0.0208333333333333
 49
0.0
 49
0.0
 49
0.0
 49
0.0
 49
1.0
 49
0.0
 49
0.0
 49
0.0
 49
0.0
 49
1.0
175
     0
142
0.0208333333333333
142
0.0
142
0.0
142
0.0
142
0.0
142
0.0208333333333333
142
0.0
142
0.0
142
0.0
142
0.0
142
1.0
142
0.0
142
0.0
142
0.0
142
0.0
142
1.0
179
     0
144
0.0208333333333333
144
0.0
144
0.0
144
0.0
144
0.0
144
0.0208333333333333
144
0.0
144
0.0
144
0.0
144
0.0
144
1.0
144
0.0
144
0.0
144
0.0
144
0.0
144
1.0
147
0.0208333333333333
147
0.0
147
0.0
147
0.0
147
0.0
147
0.0208333333333333
147
0.0
147
0.0
147
0.0
147
0.0
147
1.0
147
0.0
147
0.0
147
0.0
147
0.0
147
1.0
  0
MATERIAL
  5
21
102
{ACAD_XDICTIONARY
360
22
102
}
102
{ACAD_REACTORS
330
10
102
}
330
10
100
AcDbMaterial
  1
Global
 72
     0
 43
0.0208333333333333
 43
0.0
 43
0.0
 43
0.0
 43
0.0
 43
0.0208333333333333
 43
0.0
 43
0.0
 43
0.0
 43
0.0
 43
1.0
 43
0.0
 43
0.0
 43
0.0
 43
0.0
 43
1.0
 77
     0
 47
0.0208333333333333
 47
0.0
 47
0.0
 47
0.0
 47
0.0
 47
0.0208333333333333
 47
0.0
 47
0.0
 47
0.0
 47
0.0
 47
1.0
 47
0.0
 47
0.0
 47
0.0
 47
0.0
 47
1.0
171
     0
 49
0.0208333333333333
 49
0.0
 49
0.0
 49
0.0
 49
0.0
 49
0.0208333333333333
 49
0.0
 49
0.0
 49
0.0
 49
0.0
 49
1.0
 49
0.0
 49
0.0
 49
0.0
 49
0.0
 49
1.0
175
     0
142
0.0208333333333333
142
0.0
142
0.0
142
0.0
142
0.0
142
0.0208333333333333
142
0.0
142
0.0
142
0.0
142
0.0
142
1.0
142
0.0
142
0.0
142
0.0
142
0.0
142
1.0
179
     0
144
0.0208333333333333
144
0.0
144
0.0
144
0.0
144
0.0
144
0.0208333333333333
144
0.0
144
0.0
144
0.0
144
0.0
144
1.0
144
0.0
144
0.0
144
0.0
144
0.0
144
1.0
147
0.0208333333333333
147
0.0
147
0.0
147
0.0
147
0.0
147
0.0208333333333333
147
0.0
147
0.0
147
0.0
147
0.0
147
1.0
147
0.0
147
0.0
147
0.0
147
0.0
147
1.0
  0
MLEADERSTYLE
  5
66
102
{ACAD_REACTORS
330
65
102
}
330
65
100
AcDbMLeaderStyle
179
     2
170
     2
171
     1
172
     0
 90
        2
 40
0.0
 41
0.0
173
     1
 91
-1056964608
340
5A
 92
       -2
290
     1
 42
0.09
291
     1
 43
0.36
  3
Standard
 44
0.18
300

342
55
174
     1
178
     6
175
     1
176
     0
 93
-1056964608
 45
0.18
292
     0
297
     0
 46
0.18
 94
-1056964608
 47
1.0
 49
1.0
140
1.0
293
     1
141
0.0
294
     1
177
     0
142
1.0
295
     0
296
     0
143
0.125
271
     0
272
     9
273
     9
298
     0
  0
MLINESTYLE
  5
5F
102
{ACAD_REACTORS
330
5E
102
}
330
5E
100
AcDbMlineStyle
  2
STANDARD
 70
     0
  3

 62
   256
 51
90.0
 52
90.0
 71
     2
 49
0.5
 62
   256
  6
BYLAYER
 49
-0.5
 62
   256
  6
BYLAYER
  0
ACDBPLACEHOLDER
  5
F
102
{ACAD_REACTORS
330
E
102
}
330
E
  0
SCALE
  5
43
102
{ACAD_REACTORS
330
42
102
}
330
42
100
AcDbScale
 70
     0
300
1:1
140
1.0
141
1.0
290
     1
  0
SCALE
  5
44
102
{ACAD_REACTORS
330
42
102
}
330
42
100
AcDbScale
 70
     0
300
1/128" = 1'-0"
140
0.0078125
141
12.0
290
     0
  0
SCALE
  5
45
102
{ACAD_REACTORS
330
42
102
}
330
42
100
AcDbScale
 70
     0
300
1/64" = 1'-0"
140
0.015625
141
12.0
290
     0
  0
SCALE
  5
46
102
{ACAD_REACTORS
330
42
102
}
330
42
100
AcDbScale
 70
     0
300
1/32" = 1'-0"
140
0.03125
141
12.0
290
     0
  0
SCALE
  5
47
102
{ACAD_REACTORS
330
42
102
}
330
42
100
AcDbScale
 70
     0
300
1/16" = 1'-0"
140
0.0625
141
12.0
290
     0
  0
SCALE
  5
48
102
{ACAD_REACTORS
330
42
102
}
330
42
100
AcDbScale
 70
     0
300
3/32" = 1'-0"
140
0.09375
141
12.0
290
     0
  0
SCALE
  5
49
102
{ACAD_REACTORS
330
42
102
}
330
42
100
AcDbScale
 70
     0
300
1/8" = 1'-0"
140
0.125
141
12.0
290
     0
  0
SCALE
  5
4A
102
{ACAD_REACTORS
330
42
102
}
330
42
100
AcDbScale
 70
     0
300
3/16" = 1'-0"
140
0.1875
141
12.0
290
     0
  0
SCALE
  5
4B
102
{ACAD_REACTORS
330
42
102
}
330
42
100
AcDbScale
 70
     0
300
1/4" = 1'-0"
140
0.25
141
12.0
290
     0
  0
SCALE
  5
4C
102
{ACAD_REACTORS
330
42
102
}
330
42
100
AcDbScale
 70
     0
300
3/8" = 1'-0"
140
0.375
141
12.0
290
     0
  0
SCALE
  5
4D
102
{ACAD_REACTORS
330
42
102
}
330
42
100
AcDbScale
 70
     0
300
1/2" = 1'-0"
140
0.5
141
12.0
290
     0
  0
SCALE
  5
4E
102
{ACAD_REACTORS
330
42
102
}
330
42
100
AcDbScale
 70
     0
300
3/4" = 1'-0"
140
0.75
141
12.0
290
     0
  0
SCALE
  5
4F
102
{ACAD_REACTORS
330
42
102
}
330
42
100
AcDbScale
 70
     0
300
1" = 1'-0"
140
1.0
141
12.0
290
     0
  0
SCALE
  5
50
102
{ACAD_REACTORS
330
42
102
}
330
42
100
AcDbScale
 70
     0
300
1-1/2" = 1'-0"
140
1.5
141
12.0
290
     0
  0
SCALE
  5
51
102
{ACAD_REACTORS
330
42
102
}
330
42
100
AcDbScale
 70
     0
300
3" = 1'-0"
140
3.0
141
12.0
290
     0
  0
SCALE
  5
52
102
{ACAD_REACTORS
330
42
102
}
330
42
100
AcDbScale
 70
     0
300
6" = 1'-0"
140
6.0
141
12.0
290
     0
  0
SCALE
  5
53
102
{ACAD_REACTORS
330
42
102
}
330
42
100
AcDbScale
 70
     0
300
1'-0" = 1'-0"
140
12.0
141
12.0
290
     0
  0
ACDBSECTIONVIEWSTYLE
  5
68
102
{ACAD_REACTORS
330
67
102
}
330
67
100
AcDbModelDocViewStyle
 70
     0
  3
Imperial24
290
     0
300
Imperial24
 90
        0
100
AcDbSectionViewStyle
 70
     0
 71
     0
 90
       78
 71
     1
340
55
 62
   256
 40
0.24
340
0
340
0
 62
   256
 40
0.24
300
I, O, Q, S, X, Z
 40
0.48
 90
        3
 40
0.18
 90
        1
 71
     2
340
5C
 90
       25
 62
   256
340
5C
 90
       50
 62
   256
 40
0.24
 40
0.0
 40
0.24
 71
     3
340
55
 62
   256
 40
0.24
 90
        1
 40
0.75
 90
        1
300
%<\AcVar ViewType \f "%tc1">% %<\AcVar ViewSectionStartId>%-%<\AcVar ViewSectionEndId>%\PSCALE %<\AcVar ViewScale \f "%sn">%
 71
     4
 62
   256
 62
   257
300
ANSI31
 40
1.0
 90
        0
290
     0
290
     0
 90
        6
 40
0.0
 40
1.570796326794896
 40
0.2617993877991494
 40
1.308996938995747
 40
-0.2617993877991494
 40
1.832595714594046
  0
TABLESTYLE
  5
64
102
{ACAD_XDICTIONARY
360
546
102
}
102
{ACAD_REACTORS
330
63
102
}
330
63
100
AcDbTableStyle
280
     0
  3
Standard
 70
     0
 71
     0
 40
0.06
 41
0.06
280
     0
281
     0
  7
Standard
140
0.18
170
     2
 62
     0
 63
     7
283
     0
 90
      512
 91
        0
  1

274
    -2
284
     1
 64
     0
275
    -2
285
     1
 65
     0
276
    -2
286
     1
 66
     0
277
    -2
287
     1
 67
     0
278
    -2
288
     1
 68
     0
279
    -2
289
     1
 69
     0
  7
Standard
140
0.25
170
     5
 62
     0
 63
     7
283
     0
 90
      512
 91
        0
  1

274
    -2
284
     1
 64
     0
275
    -2
285
     1
 65
     0
276
    -2
286
     1
 66
     0
277
    -2
287
     1
 67
     0
278
    -2
288
     1
 68
     0
279
    -2
289
     1
 69
     0
  7
Standard
140
0.18
170
     5
 62
     0
 63
     7
283
     0
 90
      512
 91
        0
  1

274
    -2
284
     1
 64
     0
275
    -2
285
     1
 65
     0
276
    -2
286
     1
 66
     0
277
    -2
287
     1
 67
     0
278
    -2
288
     1
 68
     0
279
    -2
289
     1
 69
     0
  0
VISUALSTYLE
  5
2F
102
{ACAD_REACTORS
330
29
102
}
330
29
100
AcDbVisualStyle
  2
2dWireframe
 70
     4
177
     3
291
     0
 70
    58
 90
        0
176
     1
 90
        2
176
     1
 90
        0
176
     1
 90
        0
176
     1
 40
0.6
176
     1
 40
30.0
176
     1
 62
     7
420
 16777215
176
     1
 90
        1
176
     1
 90
        4
176
     1
 62
     7
176
     1
 62
   257
176
     1
 90
        1
176
     1
 90
        1
176
     1
 40
1.0
176
     1
 90
        0
176
     1
 62
   257
176
     1
 40
1.0
176
     1
 90
        1
176
     1
 90
        6
176
     1
 90
        2
176
     1
 62
     7
176
     1
 90
        5
176
     1
 90
        0
176
     1
 90
        0
176
     1
290
     0
176
     1
 90
        1
176
     1
 40
0.0
176
     1
 90
        0
176
     1
290
     1
176
     1
290
     1
176
     1
290
     0
176
     1
290
     0
176
     1
290
     0
176
     1
290
     0
176
     1
290
     0
176
     1
290
     0
176
     1
290
     0
176
     1
 90
       50
176
     1
 40
0.0
176
     1
 40
1.0
176
     1
 90
        0
176
     1
 62
    18
420
        0
176
     1
 90
       50
176
     1
 90
        3
176
     1
 62
     5
420
      255
176
     1
290
     0
176
     1
 90
       50
176
     1
 90
       50
176
     1
 90
       50
176
     1
290
     0
176
     1
 90
       50
176
     1
 62
   256
176
     0
 40
1.0
176
     0
 90
        2
176
     1
  1
strokes_ogs.tif
176
     1
290
     0
176
     1
 40
1.0
176
     1
 40
1.0
176
     1
  0
VISUALSTYLE
  5
2E
102
{ACAD_REACTORS
330
29
102
}
330
29
100
AcDbVisualStyle
  2
Basic
 70
     7
177
     3
291
     1
 70
    58
 90
        1
176
     1
 90
        0
176
     1
 90
        1
176
     1
 90
        0
176
     1
 40
0.6
176
     1
 40
30.0
176
     1
 62
     7
420
 16777215
176
     1
 90
        0
176
     1
 90
        4
176
     1
 62
     7
176
     1
 62
   257
176
     1
 90
        1
176
     1
 90
        1
176
     1
 40
1.0
176
     1
 90
        8
176
     1
 62
     7
176
     1
 40
1.0
176
     1
 90
        1
176
     1
 90
        6
176
     1
 90
        2
176
     1
 62
     7
176
     1
 90
        5
176
     1
 90
        0
176
     1
 90
        0
176
     1
290
     0
176
     1
 90
        1
176
     1
 40
0.0
176
     1
 90
        0
176
     1
290
     0
176
     1
290
     1
176
     1
290
     1
176
     1
290
     0
176
     1
290
     0
176
     1
290
     0
176
     1
290
     0
176
     1
290
     0
176
     1
290
     0
176
     1
 90
       50
176
     1
 40
0.0
176
     1
 40
1.0
176
     1
 90
        0
176
     1
 62
    18
420
        0
176
     1
 90
       50
176
     1
 90
        3
176
     1
 62
     5
420
      255
176
     1
290
     0
176
     1
 90
       50
176
     1
 90
       50
176
     1
 90
       50
176
     1
290
     0
176
     1
 90
       50
176
     1
 62
   256
176
     0
 40
1.0
176
     0
 90
        2
176
     1
  1
strokes_ogs.tif
176
     1
290
     0
176
     1
 40
1.0
176
     1
 40
1.0
176
     1
  0
VISUALSTYLE
  5
35
102
{ACAD_REACTORS
330
29
102
}
330
29
100
AcDbVisualStyle
  2
Brighten
 70
    12
177
     3
291
     1
 70
    58
 90
        2
176
     1
 90
        2
176
     1
 90
        0
176
     1
 90
        0
176
     1
 40
0.6
176
     1
 40
30.0
176
     1
 62
     7
420
 16777215
176
     1
 90
        1
176
     1
 90
        4
176
     1
 62
     7
176
     1
 62
   257
176
     1
 90
        1
176
     1
 90
        1
176
     1
 40
1.0
176
     1
 90
        8
176
     1
 62
     7
176
     1
 40
1.0
176
     1
 90
        1
176
     1
 90
        6
176
     1
 90
        2
176
     1
 62
     7
176
     1
 90
        5
176
     1
 90
        0
176
     1
 90
        0
176
     1
290
     0
176
     1
 90
        1
176
     1
 40
50.0
176
     1
 90
        0
176
     1
290
     0
176
     1
290
     1
176
     1
290
     1
176
     1
290
     0
176
     1
290
     0
176
     1
290
     0
176
     1
290
     0
176
     1
290
     0
176
     1
290
     0
176
     1
 90
       50
176
     1
 40
0.0
176
     1
 40
1.0
176
     1
 90
        0
176
     1
 62
    18
420
        0
176
     1
 90
       50
176
     1
 90
        3
176
     1
 62
     5
420
      255
176
     1
290
     0
176
     1
 90
       50
176
     1
 90
       50
176
     1
 90
       50
176
     1
290
     0
176
     1
 90
       50
176
     1
 62
   256
176
     0
 40
1.0
176
     0
 90
        2
176
     1
  1
strokes_ogs.tif
176
     1
290
     0
176
     1
 40
1.0
176
     1
 40
1.0
176
     1
  0
VISUALSTYLE
  5
39
102
{ACAD_REACTORS
330
29
102
}
330
29
100
AcDbVisualStyle
  2
ColorChange
 70
    16
177
     3
291
     1
 70
    58
 90
        2
176
     1
 90
        2
176
     1
 90
        3
176
     1
 90
        0
176
     1
 40
0.6
176
     1
 40
30.0
176
     1
 62
     8
420
  8421504
176
     1
 90
        1
176
     1
 90
        4
176
     1
 62
     7
176
     1
 62
   257
176
     1
 90
        1
176
     1
 90
        1
176
     1
 40
1.0
176
     1
 90
        8
176
     1
 62
     8
420
  8421504
176
     1
 40
1.0
176
     1
 90
        1
176
     1
 90
        6
176
     1
 90
        2
176
     1
 62
     7
176
     1
 90
        5
176
     1
 90
        0
176
     1
 90
        0
176
     1
290
     0
176
     1
 90
        1
176
     1
 40
0.0
176
     1
 90
        0
176
     1
290
     0
176
     1
290
     1
176
     1
290
     1
176
     1
290
     0
176
     1
290
     0
176
     1
290
     0
176
     1
290
     0
176
     1
290
     0
176
     1
290
     0
176
     1
 90
       50
176
     1
 40
0.0
176
     1
 40
1.0
176
     1
 90
        0
176
     1
 62
    18
420
        0
176
     1
 90
       50
176
     1
 90
        3
176
     1
 62
     5
420
      255
176
     1
290
     0
176
     1
 90
       50
176
     1
 90
       50
176
     1
 90
       50
176
     1
290
     0
176
     1
 90
       50
176
     1
 62
   256
176
     0
 40
1.0
176
     0
 90
        2
176
     1
  1
strokes_ogs.tif
176
     1
290
     0
176
     1
 40
1.0
176
     1
 40
1.0
176
     1
  0
VISUALSTYLE
  5
32
102
{ACAD_REACTORS
330
29
102
}
330
29
100
AcDbVisualStyle
  2
Conceptual
 70
     9
177
     3
291
     0
 70
    58
 90
        3
176
     1
 90
        2
176
     1
 90
        0
176
     1
 90
        0
176
     1
 40
0.6
176
     1
 40
30.0
176
     1
 62
     7
420
 16777215
176
     1
 90
        2
176
     1
 90
        2
176
     1
 62
     7
176
     1
 62
   257
176
     1
 90
        1
176
     1
 90
        1
176
     1
 40
179.0
176
     1
 90
        8
176
     1
 62
     7
176
     1
 40
1.0
176
     1
 90
        1
176
     1
 90
        6
176
     1
 90
        2
176
     1
 62
     7
176
     1
 90
        3
176
     1
 90
        0
176
     1
 90
        0
176
     1
290
     0
176
     1
 90
        1
176
     1
 40
0.0
176
     1
 90
        0
176
     1
290
     0
176
     1
290
     1
176
     1
290
     1
176
     1
290
     0
176
     1
290
     0
176
     1
290
     0
176
     1
290
     0
176
     1
290
     0
176
     1
290
     0
176
     1
 90
       50
176
     1
 40
0.0
176
     1
 40
1.0
176
     1
 90
        0
176
     1
 62
    18
420
        0
176
     1
 90
       50
176
     1
 90
        3
176
     1
 62
     5
420
      255
176
     1
290
     0
176
     1
 90
       50
176
     1
 90
       50
176
     1
 90
       50
176
     1
290
     0
176
     1
 90
       50
176
     1
 62
   256
176
     0
 40
1.0
176
     0
 90
        2
176
     1
  1
strokes_ogs.tif
176
     1
290
     0
176
     1
 40
1.0
176
     1
 40
1.0
176
     1
  0
VISUALSTYLE
  5
34
102
{ACAD_REACTORS
330
29
102
}
330
29
100
AcDbVisualStyle
  2
Dim
 70
    11
177
     3
291
     1
 70
    58
 90
        2
176
     1
 90
        2
176
     1
 90
        0
176
     1
 90
        0
176
     1
 40
0.6
176
     1
 40
30.0
176
     1
 62
     7
420
 16777215
176
     1
 90
        1
176
     1
 90
        4
176
     1
 62
     7
176
     1
 62
   257
176
     1
 90
        1
176
     1
 90
        1
176
     1
 40
1.0
176
     1
 90
        8
176
     1
 62
     7
176
     1
 40
1.0
176
     1
 90
        1
176
     1
 90
        6
176
     1
 90
        2
176
     1
 62
     7
176
     1
 90
        5
176
     1
 90
        0
176
     1
 90
        0
176
     1
290
     0
176
     1
 90
        1
176
     1
 40
-50.0
176
     1
 90
        0
176
     1
290
     0
176
     1
290
     1
176
     1
290
     1
176
     1
290
     0
176
     1
290
     0
176
     1
290
     0
176
     1
290
     0
176
     1
290
     0
176
     1
290
     0
176
     1
 90
       50
176
     1
 40
0.0
176
     1
 40
1.0
176
     1
 90
        0
176
     1
 62
    18
420
        0
176
     1
 90
       50
176
     1
 90
        3
176
     1
 62
     5
420
      255
176
     1
290
     0
176
     1
 90
       50
176
     1
 90
       50
176
     1
 90
       50
176
     1
290
     0
176
     1
 90
       50
176
     1
 62
   256
176
     0
 40
1.0
176
     0
 90
        2
176
     1
  1
strokes_ogs.tif
176
     1
290
     0
176
     1
 40
1.0
176
     1
 40
1.0
176
     1
  0
VISUALSTYLE
  5
41
102
{ACAD_REACTORS
330
29
102
}
330
29
100
AcDbVisualStyle
  2
EdgeColorOff
 70
    22
177
     3
291
     1
 70
    58
 90
        2
176
     0
 90
        2
176
     0
 90
        0
176
     0
 90
        0
176
     0
 40
0.6
176
     0
 40
30.0
176
     0
 62
     7
420
 16777215
176
     0
 90
        1
176
     0
 90
        4
176
     0
 62
     7
176
     0
 62
   257
176
     0
 90
        1
176
     0
 90
        1
176
     0
 40
1.0
176
     0
 90
        8
176
     2
 62
     7
176
     0
 40
1.0
176
     0
 90
        1
176
     0
 90
        6
176
     0
 90
        2
176
     0
 62
     7
176
     0
 90
        5
176
     0
 90
        0
176
     0
 90
        0
176
     0
290
     0
176
     0
 90
        1
176
     0
 40
0.0
176
     0
 90
        0
176
     0
290
     0
176
     1
290
     1
176
     1
290
     1
176
     1
290
     0
176
     1
290
     0
176
     1
290
     0
176
     1
290
     0
176
     1
290
     0
176
     1
290
     0
176
     1
 90
       50
176
     0
 40
0.0
176
     0
 40
1.0
176
     0
 90
        0
176
     0
 62
    18
420
        0
176
     0
 90
       50
176
     0
 90
        3
176
     0
 62
     5
420
      255
176
     0
290
     0
176
     1
 90
       50
176
     0
 90
       50
176
     0
 90
       50
176
     0
290
     0
176
     1
 90
       50
176
     0
 62
   256
176
     0
 40
1.0
176
     0
 90
        2
176
     0
  1
strokes_ogs.tif
176
     0
290
     0
176
     1
 40
1.0
176
     0
 40
1.0
176
     0
  0
VISUALSTYLE
  5
38
102
{ACAD_REACTORS
330
29
102
}
330
29
100
AcDbVisualStyle
  2
Facepattern
 70
    15
177
     3
291
     1
 70
    58
 90
        2
176
     1
 90
        2
176
     1
 90
        0
176
     1
 90
        0
176
     1
 40
0.6
176
     1
 40
30.0
176
     1
 62
     7
420
 16777215
176
     1
 90
        1
176
     1
 90
        4
176
     1
 62
     7
176
     1
 62
   257
176
     1
 90
        1
176
     1
 90
        1
176
     1
 40
1.0
176
     1
 90
        8
176
     1
 62
     7
176
     1
 40
1.0
176
     1
 90
        1
176
     1
 90
        6
176
     1
 90
        2
176
     1
 62
     7
176
     1
 90
        5
176
     1
 90
        0
176
     1
 90
        0
176
     1
290
     0
176
     1
 90
        1
176
     1
 40
0.0
176
     1
 90
        0
176
     1
290
     0
176
     1
290
     1
176
     1
290
     1
176
     1
290
     0
176
     1
290
     0
176
     1
290
     0
176
     1
290
     0
176
     1
290
     0
176
     1
290
     0
176
     1
 90
       50
176
     1
 40
0.0
176
     1
 40
1.0
176
     1
 90
        0
176
     1
 62
    18
420
        0
176
     1
 90
       50
176
     1
 90
        3
176
     1
 62
     5
420
      255
176
     1
290
     0
176
     1
 90
       50
176
     1
 90
       50
176
     1
 90
       50
176
     1
290
     0
176
     1
 90
       50
176
     1
 62
   256
176
     0
 40
1.0
176
     0
 90
        2
176
     1
  1
strokes_ogs.tif
176
     1
290
     0
176
     1
 40
1.0
176
     1
 40
1.0
176
     1
  0
VISUALSTYLE
  5
2A
102
{ACAD_REACTORS
330
29
102
}
330
29
100
AcDbVisualStyle
  2
Flat
 70
     0
177
     3
291
     1
 70
    58
 90
        2
176
     1
 90
        1
176
     1
 90
        1
176
     1
 90
        2
176
     1
 40
0.6
176
     1
 40
30.0
176
     1
 62
     7
420
 16777215
176
     1
 90
        0
176
     1
 90
        0
176
     1
 62
     7
176
     1
 62
   257
176
     1
 90
        1
176
     1
 90
        1
176
     1
 40
1.0
176
     1
 90
        8
176
     1
 62
     7
176
     1
 40
1.0
176
     1
 90
        1
176
     1
 90
        6
176
     1
 90
        2
176
     1
 62
     7
176
     1
 90
        5
176
     1
 90
        0
176
     1
 90
        0
176
     1
290
     0
176
     1
 90
       13
176
     1
 40
0.0
176
     1
 90
        0
176
     1
290
     0
176
     1
290
     1
176
     1
290
     1
176
     1
290
     0
176
     1
290
     0
176
     1
290
     0
176
     1
290
     0
176
     1
290
     0
176
     1
290
     0
176
     1
 90
       50
176
     1
 40
0.0
176
     1
 40
1.0
176
     1
 90
        0
176
     1
 62
    18
420
        0
176
     1
 90
       50
176
     1
 90
        3
176
     1
 62
     5
420
      255
176
     1
290
     0
176
     1
 90
       50
176
     1
 90
       50
176
     1
 90
       50
176
     1
290
     0
176
     1
 90
       50
176
     1
 62
   256
176
     0
 40
1.0
176
     0
 90
        2
176
     1
  1
strokes_ogs.tif
176
     1
290
     0
176
     1
 40
1.0
176
     1
 40
1.0
176
     1
  0
VISUALSTYLE
  5
2B
102
{ACAD_REACTORS
330
29
102
}
330
29
100
AcDbVisualStyle
  2
FlatWithEdges
 70
     1
177
     3
291
     1
 70
    58
 90
        2
176
     1
 90
        1
176
     1
 90
        1
176
     1
 90
        2
176
     1
 40
0.6
176
     1
 40
30.0
176
     1
 62
     7
420
 16777215
176
     1
 90
        1
176
     1
 90
        0
176
     1
 62
     7
176
     1
 62
   257
176
     1
 90
        1
176
     1
 90
        1
176
     1
 40
1.0
176
     1
 90
        0
176
     1
 62
   257
176
     1
 40
1.0
176
     1
 90
        1
176
     1
 90
        6
176
     1
 90
        2
176
     1
 62
     7
176
     1
 90
        5
176
     1
 90
        0
176
     1
 90
        0
176
     1
290
     0
176
     1
 90
       13
176
     1
 40
0.0
176
     1
 90
        0
176
     1
290
     0
176
     1
290
     1
176
     1
290
     1
176
     1
290
     0
176
     1
290
     0
176
     1
290
     0
176
     1
290
     0
176
     1
290
     0
176
     1
290
     0
176
     1
 90
       50
176
     1
 40
0.0
176
     1
 40
1.0
176
     1
 90
        0
176
     1
 62
    18
420
        0
176
     1
 90
       50
176
     1
 90
        3
176
     1
 62
     5
420
      255
176
     1
290
     0
176
     1
 90
       50
176
     1
 90
       50
176
     1
 90
       50
176
     1
290
     0
176
     1
 90
       50
176
     1
 62
   256
176
     0
 40
1.0
176
     0
 90
        2
176
     1
  1
strokes_ogs.tif
176
     1
290
     0
176
     1
 40
1.0
176
     1
 40
1.0
176
     1
  0
VISUALSTYLE
  5
2C
102
{ACAD_REACTORS
330
29
102
}
330
29
100
AcDbVisualStyle
  2
Gouraud
 70
     2
177
     3
291
     1
 70
    58
 90
        2
176
     1
 90
        2
176
     1
 90
        1
176
     1
 90
        2
176
     1
 40
0.6
176
     1
 40
30.0
176
     1
 62
     7
420
 16777215
176
     1
 90
        0
176
     1
 90
        0
176
     1
 62
     7
176
     1
 62
   257
176
     1
 90
        1
176
     1
 90
        1
176
     1
 40
1.0
176
     1
 90
        0
176
     1
 62
     7
176
     1
 40
1.0
176
     1
 90
        1
176
     1
 90
        6
176
     1
 90
        2
176
     1
 62
     7
176
     1
 90
        5
176
     1
 90
        0
176
     1
 90
        0
176
     1
290
     0
176
     1
 90
       13
176
     1
 40
0.0
176
     1
 90
        0
176
     1
290
     0
176
     1
290
     1
176
     1
290
     1
176
     1
290
     0
176
     1
290
     0
176
     1
290
     0
176
     1
290
     0
176
     1
290
     0
176
     1
290
     0
176
     1
 90
       50
176
     1
 40
0.0
176
     1
 40
1.0
176
     1
 90
        0
176
     1
 62
    18
420
        0
176
     1
 90
       50
176
     1
 90
        3
176
     1
 62
     5
420
      255
176
     1
290
     0
176
     1
 90
       50
176
     1
 90
       50
176
     1
 90
       50
176
     1
290
     0
176
     1
 90
       50
176
     1
 62
   256
176
     0
 40
1.0
176
     0
 90
        2
176
     1
  1
strokes_ogs.tif
176
     1
290
     0
176
     1
 40
1.0
176
     1
 40
1.0
176
     1
  0
VISUALSTYLE
  5
2D
102
{ACAD_REACTORS
330
29
102
}
330
29
100
AcDbVisualStyle
  2
GouraudWithEdges
 70
     3
177
     3
291
     1
 70
    58
 90
        2
176
     1
 90
        2
176
     1
 90
        1
176
     1
 90
        2
176
     1
 40
0.6
176
     1
 40
30.0
176
     1
 62
     7
420
 16777215
176
     1
 90
        1
176
     1
 90
        0
176
     1
 62
     7
176
     1
 62
   257
176
     1
 90
        1
176
     1
 90
        1
176
     1
 40
1.0
176
     1
 90
        0
176
     1
 62
   257
176
     1
 40
1.0
176
     1
 90
        1
176
     1
 90
        6
176
     1
 90
        2
176
     1
 62
     7
176
     1
 90
        5
176
     1
 90
        0
176
     1
 90
        0
176
     1
290
     0
176
     1
 90
       13
176
     1
 40
0.0
176
     1
 90
        0
176
     1
290
     0
176
     1
290
     1
176
     1
290
     1
176
     1
290
     0
176
     1
290
     0
176
     1
290
     0
176
     1
290
     0
176
     1
290
     0
176
     1
290
     0
176
     1
 90
       50
176
     1
 40
0.0
176
     1
 40
1.0
176
     1
 90
        0
176
     1
 62
    18
420
        0
176
     1
 90
       50
176
     1
 90
        3
176
     1
 62
     5
420
      255
176
     1
290
     0
176
     1
 90
       50
176
     1
 90
       50
176
     1
 90
       50
176
     1
290
     0
176
     1
 90
       50
176
     1
 62
   256
176
     0
 40
1.0
176
     0
 90
        2
176
     1
  1
strokes_ogs.tif
176
     1
290
     0
176
     1
 40
1.0
176
     1
 40
1.0
176
     1
  0
VISUALSTYLE
  5
31
102
{ACAD_REACTORS
330
29
102
}
330
29
100
AcDbVisualStyle
  2
Hidden
 70
     6
177
     3
291
     0
 70
    58
 90
        1
176
     1
 90
        2
176
     1
 90
        2
176
     1
 90
        0
176
     1
 40
0.6
176
     1
 40
30.0
176
     1
 62
     7
420
 16777215
176
     1
 90
        2
176
     1
 90
        2
176
     1
 62
     7
176
     1
 62
   257
176
     1
 90
        2
176
     1
 90
        1
176
     1
 40
40.0
176
     1
 90
        0
176
     1
 62
   257
176
     1
 40
1.0
176
     1
 90
        1
176
     1
 90
        6
176
     1
 90
        2
176
     1
 62
     7
176
     1
 90
        3
176
     1
 90
        0
176
     1
 90
        0
176
     1
290
     0
176
     1
 90
        1
176
     1
 40
0.0
176
     1
 90
        0
176
     1
290
     0
176
     1
290
     1
176
     1
290
     1
176
     1
290
     0
176
     1
290
     0
176
     1
290
     0
176
     1
290
     0
176
     1
290
     0
176
     1
290
     0
176
     1
 90
       50
176
     1
 40
0.0
176
     1
 40
1.0
176
     1
 90
        0
176
     1
 62
    18
420
        0
176
     1
 90
       50
176
     1
 90
        3
176
     1
 62
     5
420
      255
176
     1
290
     0
176
     1
 90
       50
176
     1
 90
       50
176
     1
 90
       50
176
     1
290
     0
176
     1
 90
       50
176
     1
 62
   256
176
     0
 40
1.0
176
     0
 90
        2
176
     1
  1
strokes_ogs.tif
176
     1
290
     0
176
     1
 40
1.0
176
     1
 40
1.0
176
     1
  0
VISUALSTYLE
  5
3F
102
{ACAD_REACTORS
330
29
102
}
330
29
100
AcDbVisualStyle
  2
JitterOff
 70
    20
177
     3
291
     1
 70
    58
 90
        2
176
     0
 90
        2
176
     0
 90
        0
176
     0
 90
        0
176
     0
 40
0.6
176
     0
 40
30.0
176
     0
 62
     7
420
 16777215
176
     0
 90
        1
176
     0
 90
        4
176
     0
 62
     7
176
     0
 62
   257
176
     0
 90
        1
176
     0
 90
        1
176
     0
 40
1.0
176
     0
 90
       10
176
     2
 62
     7
176
     0
 40
1.0
176
     0
 90
        1
176
     0
 90
        6
176
     0
 90
        2
176
     0
 62
     7
176
     0
 90
        5
176
     0
 90
        0
176
     0
 90
        0
176
     0
290
     0
176
     0
 90
        1
176
     0
 40
0.0
176
     0
 90
        0
176
     0
290
     0
176
     1
290
     1
176
     1
290
     1
176
     1
290
     0
176
     1
290
     0
176
     1
290
     0
176
     1
290
     0
176
     1
290
     0
176
     1
290
     0
176
     1
 90
       50
176
     0
 40
0.0
176
     0
 40
1.0
176
     0
 90
        0
176
     0
 62
    18
420
        0
176
     0
 90
       50
176
     0
 90
        3
176
     0
 62
     5
420
      255
176
     0
290
     0
176
     1
 90
       50
176
     0
 90
       50
176
     0
 90
       50
176
     0
290
     0
176
     1
 90
       50
176
     0
 62
   256
176
     0
 40
1.0
176
     0
 90
        2
176
     0
  1
strokes_ogs.tif
176
     0
290
     0
176
     1
 40
1.0
176
     0
 40
1.0
176
     0
  0
VISUALSTYLE
  5
37
102
{ACAD_REACTORS
330
29
102
}
330
29
100
AcDbVisualStyle
  2
Linepattern
 70
    14
177
     3
291
     1
 70
    58
 90
        2
176
     1
 90
        2
176
     1
 90
        0
176
     1
 90
        0
176
     1
 40
0.6
176
     1
 40
30.0
176
     1
 62
     7
420
 16777215
176
     1
 90
        1
176
     1
 90
        4
176
     1
 62
     7
176
     1
 62
   257
176
     1
 90
        7
176
     1
 90
        7
176
     1
 40
1.0
176
     1
 90
        8
176
     1
 62
     7
176
     1
 40
1.0
176
     1
 90
        1
176
     1
 90
        6
176
     1
 90
        2
176
     1
 62
     7
176
     1
 90
        5
176
     1
 90
        0
176
     1
 90
        0
176
     1
290
     0
176
     1
 90
        1
176
     1
 40
0.0
176
     1
 90
        0
176
     1
290
     0
176
     1
290
     1
176
     1
290
     1
176
     1
290
     0
176
     1
290
     0
176
     1
290
     0
176
     1
290
     0
176
     1
290
     0
176
     1
290
     0
176
     1
 90
       50
176
     1
 40
0.0
176
     1
 40
1.0
176
     1
 90
        0
176
     1
 62
    18
420
        0
176
     1
 90
       50
176
     1
 90
        3
176
     1
 62
     5
420
      255
176
     1
290
     0
176
     1
 90
       50
176
     1
 90
       50
176
     1
 90
       50
176
     1
290
     0
176
     1
 90
       50
176
     1
 62
   256
176
     0
 40
1.0
176
     0
 90
        2
176
     1
  1
strokes_ogs.tif
176
     1
290
     0
176
     1
 40
1.0
176
     1
 40
1.0
176
     1
  0
VISUALSTYLE
  5
40
102
{ACAD_REACTORS
330
29
102
}
330
29
100
AcDbVisualStyle
  2
OverhangOff
 70
    21
177
     3
291
     1
 70
    58
 90
        2
176
     0
 90
        2
176
     0
 90
        0
176
     0
 90
        0
176
     0
 40
0.6
176
     0
 40
30.0
176
     0
 62
     7
420
 16777215
176
     0
 90
        1
176
     0
 90
        4
176
     0
 62
     7
176
     0
 62
   257
176
     0
 90
        1
176
     0
 90
        1
176
     0
 40
1.0
176
     0
 90
        9
176
     2
 62
     7
176
     0
 40
1.0
176
     0
 90
        1
176
     0
 90
        6
176
     0
 90
        2
176
     0
 62
     7
176
     0
 90
        5
176
     0
 90
        0
176
     0
 90
        0
176
     0
290
     0
176
     0
 90
        1
176
     0
 40
0.0
176
     0
 90
        0
176
     0
290
     0
176
     1
290
     1
176
     1
290
     1
176
     1
290
     0
176
     1
290
     0
176
     1
290
     0
176
     1
290
     0
176
     1
290
     0
176
     1
290
     0
176
     1
 90
       50
176
     0
 40
0.0
176
     0
 40
1.0
176
     0
 90
        0
176
     0
 62
    18
420
        0
176
     0
 90
       50
176
     0
 90
        3
176
     0
 62
     5
420
      255
176
     0
290
     0
176
     1
 90
       50
176
     0
 90
       50
176
     0
 90
       50
176
     0
290
     0
176
     1
 90
       50
176
     0
 62
   256
176
     0
 40
1.0
176
     0
 90
        2
176
     0
  1
strokes_ogs.tif
176
     0
290
     0
176
     1
 40
1.0
176
     0
 40
1.0
176
     0
  0
VISUALSTYLE
  5
33
102
{ACAD_REACTORS
330
29
102
}
330
29
100
AcDbVisualStyle
  2
Realistic
 70
     8
177
     3
291
     0
 70
    58
 90
        2
176
     1
 90
        3
176
     1
 90
        0
176
     1
 90
        2
176
     1
 40
0.6
176
     1
 40
30.0
176
     1
 62
     7
420
 16777215
176
     1
 90
        0
176
     1
 90
        0
176
     1
 62
     7
176
     1
 62
   257
176
     1
 90
        1
176
     1
 90
        1
176
     1
 40
1.0
176
     1
 90
        8
176
     1
 62
   257
176
     1
 40
1.0
176
     1
 90
        1
176
     1
 90
        6
176
     1
 90
        2
176
     1
 62
     7
176
     1
 90
        3
176
     1
 90
        0
176
     1
 90
        0
176
     1
290
     0
176
     1
 90
       13
176
     1
 40
0.0
176
     1
 90
        0
176
     1
290
     0
176
     1
290
     1
176
     1
290
     1
176
     1
290
     0
176
     1
290
     0
176
     1
290
     0
176
     1
290
     0
176
     1
290
     0
176
     1
290
     0
176
     1
 90
       50
176
     1
 40
0.0
176
     1
 40
1.0
176
     1
 90
        0
176
     1
 62
    18
420
        0
176
     1
 90
       50
176
     1
 90
        3
176
     1
 62
     5
420
      255
176
     1
290
     0
176
     1
 90
       50
176
     1
 90
       50
176
     1
 90
       50
176
     1
290
     0
176
     1
 90
       50
176
     1
 62
   256
176
     0
 40
1.0
176
     0
 90
        2
176
     1
  1
strokes_ogs.tif
176
     1
290
     0
176
     1
 40
1.0
176
     1
 40
1.0
176
     1
  0
VISUALSTYLE
  5
3E
102
{ACAD_REACTORS
330
29
102
}
330
29
100
AcDbVisualStyle
  2
Shaded
 70
    27
177
     3
291
     0
 70
    58
 90
        2
176
     1
 90
        2
176
     1
 90
        1
176
     1
 90
        2
176
     1
 40
0.6
176
     1
 40
30.0
176
     1
 62
     7
420
 16777215
176
     1
 90
        0
176
     1
 90
        4
176
     1
 62
     7
176
     1
 62
   257
176
     1
 90
        1
176
     1
 90
        1
176
     1
 40
1.0
176
     1
 90
        8
176
     1
 62
   257
176
     1
 40
1.0
176
     1
 90
        1
176
     1
 90
        6
176
     1
 90
        2
176
     1
 62
     8
420
  7895160
176
     1
 90
        3
176
     1
 90
        0
176
     1
 90
        0
176
     1
290
     0
176
     1
 90
        5
176
     1
 40
0.0
176
     1
 90
        0
176
     1
290
     0
176
     1
290
     1
176
     1
290
     1
176
     1
290
     0
176
     1
290
     0
176
     1
290
     0
176
     1
290
     0
176
     1
290
     0
176
     1
290
     0
176
     1
 90
       50
176
     1
 40
0.0
176
     1
 40
1.0
176
     1
 90
        0
176
     1
 62
    18
420
        0
176
     1
 90
       50
176
     1
 90
        3
176
     1
 62
     5
420
      255
176
     1
290
     0
176
     1
 90
       50
176
     1
 90
       50
176
     1
 90
       50
176
     1
290
     0
176
     1
 90
       50
176
     1
 62
   256
176
     0
 40
1.0
176
     0
 90
        2
176
     1
  1
strokes_ogs.tif
176
     1
290
     0
176
     1
 40
1.0
176
     1
 40
1.0
176
     1
  0
VISUALSTYLE
  5
3D
102
{ACAD_REACTORS
330
29
102
}
330
29
100
AcDbVisualStyle
  2
Shaded with edges
 70
    26
177
     3
291
     0
 70
    58
 90
        2
176
     1
 90
        2
176
     1
 90
        1
176
     1
 90
        2
176
     1
 40
0.6
176
     1
 40
30.0
176
     1
 62
     7
420
 16777215
176
     1
 90
        1
176
     1
 90
        2
176
     1
 62
     7
176
     1
 62
   257
176
     1
 90
        2
176
     1
 90
        1
176
     1
 40
1.0
176
     1
 90
        8
176
     1
 62
   257
176
     1
 40
1.0
176
     1
 90
        1
176
     1
 90
        6
176
     1
 90
        2
176
     1
 62
     7
176
     1
 90
        3
176
     1
 90
        0
176
     1
 90
        0
176
     1
290
     0
176
     1
 90
        5
176
     1
 40
0.0
176
     1
 90
        0
176
     1
290
     0
176
     1
290
     1
176
     1
290
     1
176
     1
290
     0
176
     1
290
     0
176
     1
290
     0
176
     1
290
     0
176
     1
290
     0
176
     1
290
     0
176
     1
 90
       50
176
     1
 40
0.0
176
     1
 40
1.0
176
     1
 90
        0
176
     1
 62
    18
420
        0
176
     1
 90
       50
176
     1
 90
        3
176
     1
 62
     5
420
      255
176
     1
290
     0
176
     1
 90
       50
176
     1
 90
       50
176
     1
 90
       50
176
     1
290
     0
176
     1
 90
       50
176
     1
 62
   256
176
     0
 40
1.0
176
     0
 90
        2
176
     1
  1
strokes_ogs.tif
176
     1
290
     0
176
     1
 40
1.0
176
     1
 40
1.0
176
     1
  0
VISUALSTYLE
  5
3A
102
{ACAD_REACTORS
330
29
102
}
330
29
100
AcDbVisualStyle
  2
Shades of Gray
 70
    23
177
     3
291
     0
 70
    58
 90
        2
176
     1
 90
        2
176
     1
 90
        3
176
     1
 90
        0
176
     1
 40
0.6
176
     1
 40
30.0
176
     1
 62
     7
420
 16777215
176
     1
 90
        2
176
     1
 90
        2
176
     1
 62
     7
176
     1
 62
     7
176
     1
 90
        1
176
     1
 90
        1
176
     1
 40
40.0
176
     1
 90
        8
176
     1
 62
     7
176
     1
 40
1.0
176
     1
 90
        1
176
     1
 90
        6
176
     1
 90
        2
176
     1
 62
     7
176
     1
 90
        3
176
     1
 90
        0
176
     1
 90
        0
176
     1
290
     0
176
     1
 90
        1
176
     1
 40
0.0
176
     1
 90
        0
176
     1
290
     0
176
     1
290
     1
176
     1
290
     1
176
     1
290
     0
176
     1
290
     0
176
     1
290
     0
176
     1
290
     0
176
     1
290
     0
176
     1
290
     0
176
     1
 90
       50
176
     1
 40
0.0
176
     1
 40
1.0
176
     1
 90
        0
176
     1
 62
    18
420
        0
176
     1
 90
       50
176
     1
 90
        3
176
     1
 62
     5
420
      255
176
     1
290
     0
176
     1
 90
       50
176
     1
 90
       50
176
     1
 90
       50
176
     1
290
     0
176
     1
 90
       50
176
     1
 62
   256
176
     0
 40
1.0
176
     0
 90
        2
176
     1
  1
strokes_ogs.tif
176
     1
290
     0
176
     1
 40
1.0
176
     1
 40
1.0
176
     1
  0
VISUALSTYLE
  5
3B
102
{ACAD_REACTORS
330
29
102
}
330
29
100
AcDbVisualStyle
  2
Sketchy
 70
    24
177
     3
291
     0
 70
    58
 90
        1
176
     1
 90
        2
176
     1
 90
        2
176
     1
 90
        0
176
     1
 40
0.6
176
     1
 40
30.0
176
     1
 62
     7
420
 16777215
176
     1
 90
        2
176
     1
 90
        2
176
     1
 62
     7
176
     1
 62
     7
176
     1
 90
        1
176
     1
 90
        1
176
     1
 40
40.0
176
     1
 90
       11
176
     1
 62
     7
176
     1
 40
1.0
176
     1
 90
        1
176
     1
 90
        6
176
     1
 90
        2
176
     1
 62
     7
176
     1
 90
        6
176
     1
 90
        0
176
     1
 90
        0
176
     1
290
     0
176
     1
 90
        1
176
     1
 40
0.0
176
     1
 90
        0
176
     1
290
     0
176
     1
290
     1
176
     1
290
     1
176
     1
290
     0
176
     1
290
     0
176
     1
290
     0
176
     1
290
     0
176
     1
290
     0
176
     1
290
     0
176
     1
 90
       50
176
     1
 40
0.0
176
     1
 40
1.0
176
     1
 90
        0
176
     1
 62
    18
420
        0
176
     1
 90
       50
176
     1
 90
        3
176
     1
 62
     5
420
      255
176
     1
290
     0
176
     1
 90
       50
176
     1
 90
       50
176
     1
 90
       50
176
     1
290
     0
176
     1
 90
       50
176
     1
 62
   256
176
     0
 40
1.0
176
     0
 90
        2
176
     1
  1
strokes_ogs.tif
176
     1
290
     0
176
     1
 40
1.0
176
     1
 40
1.0
176
     1
  0
VISUALSTYLE
  5
36
102
{ACAD_REACTORS
330
29
102
}
330
29
100
AcDbVisualStyle
  2
Thicken
 70
    13
177
     3
291
     1
 70
    58
 90
        2
176
     1
 90
        2
176
     1
 90
        0
176
     1
 90
        0
176
     1
 40
0.6
176
     1
 40
30.0
176
     1
 62
     7
420
 16777215
176
     1
 90
        1
176
     1
 90
        4
176
     1
 62
     7
176
     1
 62
   257
176
     1
 90
        1
176
     1
 90
        1
176
     1
 40
1.0
176
     1
 90
       12
176
     1
 62
     7
176
     1
 40
1.0
176
     1
 90
        1
176
     1
 90
        6
176
     1
 90
        2
176
     1
 62
     7
176
     1
 90
        5
176
     1
 90
        0
176
     1
 90
        0
176
     1
290
     0
176
     1
 90
        1
176
     1
 40
0.0
176
     1
 90
        0
176
     1
290
     0
176
     1
290
     1
176
     1
290
     1
176
     1
290
     0
176
     1
290
     0
176
     1
290
     0
176
     1
290
     0
176
     1
290
     0
176
     1
290
     0
176
     1
 90
       50
176
     1
 40
0.0
176
     1
 40
1.0
176
     1
 90
        0
176
     1
 62
    18
420
        0
176
     1
 90
       50
176
     1
 90
        3
176
     1
 62
     5
420
      255
176
     1
290
     0
176
     1
 90
       50
176
     1
 90
       50
176
     1
 90
       50
176
     1
290
     0
176
     1
 90
       50
176
     1
 62
   256
176
     0
 40
1.0
176
     0
 90
        2
176
     1
  1
strokes_ogs.tif
176
     1
290
     0
176
     1
 40
1.0
176
     1
 40
1.0
176
     1
  0
VISUALSTYLE
  5
30
102
{ACAD_REACTORS
330
29
102
}
330
29
100
AcDbVisualStyle
  2
Wireframe
 70
     5
177
     3
291
     0
 70
    58
 90
        0
176
     1
 90
        2
176
     1
 90
        0
176
     1
 90
        0
176
     1
 40
0.6
176
     1
 40
30.0
176
     1
 62
     7
420
 16777215
176
     1
 90
        1
176
     1
 90
        4
176
     1
 62
     7
176
     1
 62
   257
176
     1
 90
        1
176
     1
 90
        1
176
     1
 40
1.0
176
     1
 90
        0
176
     1
 62
   257
176
     1
 40
1.0
176
     1
 90
        1
176
     1
 90
        6
176
     1
 90
        2
176
     1
 62
     7
176
     1
 90
        3
176
     1
 90
        0
176
     1
 90
        0
176
     1
290
     0
176
     1
 90
        1
176
     1
 40
0.0
176
     1
 90
        0
176
     1
290
     0
176
     1
290
     1
176
     1
290
     1
176
     1
290
     0
176
     1
290
     0
176
     1
290
     0
176
     1
290
     0
176
     1
290
     0
176
     1
290
     0
176
     1
 90
       50
176
     1
 40
0.0
176
     1
 40
1.0
176
     1
 90
        0
176
     1
 62
    18
420
        0
176
     1
 90
       50
176
     1
 90
        3
176
     1
 62
     5
420
      255
176
     1
290
     0
176
     1
 90
       50
176
     1
 90
       50
176
     1
 90
       50
176
     1
290
     0
176
     1
 90
       50
176
     1
 62
   256
176
     0
 40
1.0
176
     0
 90
        2
176
     1
  1
strokes_ogs.tif
176
     1
290
     0
176
     1
 40
1.0
176
     1
 40
1.0
176
     1
  0
VISUALSTYLE
  5
3C
102
{ACAD_REACTORS
330
29
102
}
330
29
100
AcDbVisualStyle
  2
X-Ray
 70
    25
177
     3
291
     0
 70
    58
 90
        2
176
     1
 90
        2
176
     1
 90
        1
176
     1
 90
        1
176
     1
 40
0.5
176
     1
 40
30.0
176
     1
 62
     7
420
 16777215
176
     1
 90
        1
176
     1
 90
        0
176
     1
 62
     7
176
     1
 62
   257
176
     1
 90
        1
176
     1
 90
        1
176
     1
 40
1.0
176
     1
 90
        8
176
     1
 62
     7
176
     1
 40
1.0
176
     1
 90
        1
176
     1
 90
        6
176
     1
 90
        2
176
     1
 62
     7
176
     1
 90
        3
176
     1
 90
        0
176
     1
 90
        0
176
     1
290
     0
176
     1
 90
       13
176
     1
 40
0.0
176
     1
 90
        0
176
     1
290
     0
176
     1
290
     1
176
     1
290
     1
176
     1
290
     0
176
     1
290
     0
176
     1
290
     0
176
     1
290
     0
176
     1
290
     0
176
     1
290
     0
176
     1
 90
       50
176
     1
 40
0.0
176
     1
 40
1.0
176
     1
 90
        0
176
     1
 62
    18
420
        0
176
     1
 90
       50
176
     1
 90
        3
176
     1
 62
     5
420
      255
176
     1
290
     0
176
     1
 90
       50
176
     1
 90
       50
176
     1
 90
       50
176
     1
290
     0
176
     1
 90
       50
176
     1
 62
   256
176
     0
 40
1.0
176
     0
 90
        2
176
     1
  1
strokes_ogs.tif
176
     1
290
     0
176
     1
 40
1.0
176
     1
 40
1.0
176
     1
  0
DICTIONARYVAR
  5
542
102
{ACAD_REACTORS
330
53C
102
}
330
53C
100
DictionaryVariables
280
     0
  1
1:1
  0
DICTIONARYVAR
  5
53E
102
{ACAD_REACTORS
330
53C
102
}
330
53C
100
DictionaryVariables
280
     0
  1
STANDARD
  0
DICTIONARYVAR
  5
53D
102
{ACAD_REACTORS
330
53C
102
}
330
53C
100
DictionaryVariables
280
     0
  1
STANDARD
  0
DICTIONARYVAR
  5
53F
102
{ACAD_REACTORS
330
53C
102
}
330
53C
100
DictionaryVariables
280
     0
  1
Imperial24
  0
DICTIONARYVAR
  5
540
102
{ACAD_REACTORS
330
53C
102
}
330
53C
100
DictionaryVariables
280
     0
  1
Imperial24
  0
DICTIONARYVAR
  5
544
102
{ACAD_REACTORS
330
53C
102
}
330
53C
100
DictionaryVariables
280
     0
  1
1
  0
DICTIONARYVAR
  5
545
102
{ACAD_REACTORS
330
53C
102
}
330
53C
100
DictionaryVariables
280
     0
  1
15
  0
DICTIONARYVAR
  5
543
102
{ACAD_REACTORS
330
53C
102
}
330
53C
100
DictionaryVariables
280
     0
  1
0
  0
DICTIONARYVAR
  5
541
102
{ACAD_REACTORS
330
53C
102
}
330
53C
100
DictionaryVariables
280
     0
  1
0
  0
DICTIONARY
  5
1A
330
19
100
AcDbDictionary
280
     1
281
     1
  3
BUMPTILE
360
1C
  3
DIFFUSETILE
360
1B
  3
OPACITYTILE
360
1F
  3
REFLECTIONTILE
360
1E
  3
REFRACTIONTILE
360
20
  3
SPECULARTILE
360
1D
  0
DICTIONARY
  5
12
330
11
100
AcDbDictionary
280
     1
281
     1
  3
BUMPTILE
360
14
  3
DIFFUSETILE
360
13
  3
OPACITYTILE
360
17
  3
REFLECTIONTILE
360
16
  3
REFRACTIONTILE
360
18
  3
SPECULARTILE
360
15
  0
DICTIONARY
  5
22
330
21
100
AcDbDictionary
280
     1
281
     1
  3
BUMPTILE
360
24
  3
DIFFUSETILE
360
23
  3
OPACITYTILE
360
27
  3
REFLECTIONTILE
360
26
  3
REFRACTIONTILE
360
28
  3
SPECULARTILE
360
25
  0
DICTIONARY
  5
546
330
64
100
AcDbDictionary
280
     1
281
     1
  3
ACAD_ROUNDTRIP_2008_TABLESTYLE_CELLSTYLEMAP
360
547
  0
XRECORD
  5
1C
102
{ACAD_REACTORS
330
1A
102
}
330
1A
100
AcDbXrecord
280
     1
270
     1
271
     1
  0
XRECORD
  5
1B
102
{ACAD_REACTORS
330
1A
102
}
330
1A
100
AcDbXrecord
280
     1
270
     1
271
     1
  0
XRECORD
  5
1F
102
{ACAD_REACTORS
330
1A
102
}
330
1A
100
AcDbXrecord
280
     1
270
     1
271
     1
  0
XRECORD
  5
1E
102
{ACAD_REACTORS
330
1A
102
}
330
1A
100
AcDbXrecord
280
     1
270
     1
271
     1
  0
XRECORD
  5
20
102
{ACAD_REACTORS
330
1A
102
}
330
1A
100
AcDbXrecord
280
     1
270
     1
271
     1
  0
XRECORD
  5
1D
102
{ACAD_REACTORS
330
1A
102
}
330
1A
100
AcDbXrecord
280
     1
270
     1
271
     1
  0
XRECORD
  5
14
102
{ACAD_REACTORS
330
12
102
}
330
12
100
AcDbXrecord
280
     1
270
     1
271
     1
  0
XRECORD
  5
13
102
{ACAD_REACTORS
330
12
102
}
330
12
100
AcDbXrecord
280
     1
270
     1
271
     1
  0
XRECORD
  5
17
102
{ACAD_REACTORS
330
12
102
}
330
12
100
AcDbXrecord
280
     1
270
     1
271
     1
  0
XRECORD
  5
16
102
{ACAD_REACTORS
330
12
102
}
330
12
100
AcDbXrecord
280
     1
270
     1
271
     1
  0
XRECORD
  5
18
102
{ACAD_REACTORS
330
12
102
}
330
12
100
AcDbXrecord
280
     1
270
     1
271
     1
  0
XRECORD
  5
15
102
{ACAD_REACTORS
330
12
102
}
330
12
100
AcDbXrecord
280
     1
270
     1
271
     1
  0
XRECORD
  5
24
102
{ACAD_REACTORS
330
22
102
}
330
22
100
AcDbXrecord
280
     1
270
     1
271
     1
  0
XRECORD
  5
23
102
{ACAD_REACTORS
330
22
102
}
330
22
100
AcDbXrecord
280
     1
270
     1
271
     1
  0
XRECORD
  5
27
102
{ACAD_REACTORS
330
22
102
}
330
22
100
AcDbXrecord
280
     1
270
     1
271
     1
  0
XRECORD
  5
26
102
{ACAD_REACTORS
330
22
102
}
330
22
100
AcDbXrecord
280
     1
270
     1
271
     1
  0
XRECORD
  5
28
102
{ACAD_REACTORS
330
22
102
}
330
22
100
AcDbXrecord
280
     1
270
     1
271
     1
  0
XRECORD
  5
25
102
{ACAD_REACTORS
330
22
102
}
330
22
100
AcDbXrecord
280
     1
270
     1
271
     1
  0
CELLSTYLEMAP
  5
547
102
{ACAD_REACTORS
330
546
102
}
330
546
100
AcDbCellStyleMap
 90
        3
300
CELLSTYLE
  1
TABLEFORMAT_BEGIN
 90
        5
170
     1
 91
        0
 92
    32768
 62
   257
 93
        1
300
CONTENTFORMAT
  1
CONTENTFORMAT_BEGIN
 90
        0
 91
        0
 92
      512
 93
        0
300

 40
0.0
140
1.0
 94
        5
 62
     0
340
55
144
0.25
309
CONTENTFORMAT_END
171
     0
 94
        0
309
TABLEFORMAT_END
  1
CELLSTYLE_BEGIN
 90
        1
 91
        1
300
_TITLE
309
CELLSTYLE_END
300
CELLSTYLE
  1
TABLEFORMAT_BEGIN
 90
        5
170
     1
 91
        0
 92
        0
 62
   257
 93
        1
300
CONTENTFORMAT
  1
CONTENTFORMAT_BEGIN
 90
        0
 91
        0
 92
      512
 93
        0
300

 40
0.0
140
1.0
 94
        5
 62
     0
340
55
144
0.18
309
CONTENTFORMAT_END
171
     0
 94
        0
309
TABLEFORMAT_END
  1
CELLSTYLE_BEGIN
 90
        2
 91
        1
300
_HEADER
309
CELLSTYLE_END
300
CELLSTYLE
  1
TABLEFORMAT_BEGIN
 90
        5
170
     1
 91
        0
 92
        0
 62
   257
 93
        1
300
CONTENTFORMAT
  1
CONTENTFORMAT_BEGIN
 90
        0
 91
        0
 92
      512
 93
        0
300

 40
0.0
140
1.0
 94
        2
 62
     0
340
55
144
0.18
309
CONTENTFORMAT_END
171
     0
 94
        0
309
TABLEFORMAT_END
  1
CELLSTYLE_BEGIN
 90
        3
 91
        2
300
_DATA
309
CELLSTYLE_END
  0
ENDSEC
  0
EOF
